<svg width="12" height="13" viewBox="0 0 12 13" fill="none" xmlns="http://www.w3.org/2000/svg">
<path fill-rule="evenodd" clip-rule="evenodd" d="M6.0003 0.0335693C4.23427 0.0335693 2.80042 1.46756 2.80042 3.23345C2.80042 4.99935 4.2344 6.43334 6.0003 6.43334C7.7662 6.43334 9.20045 4.99935 9.20045 3.23345C9.20045 1.46756 7.76636 0.0335693 6.0003 0.0335693Z" fill="#337AB7"/>
<path fill-rule="evenodd" clip-rule="evenodd" d="M12 10.6297C12 10.0876 11.7804 9.56883 11.3908 9.1917L11.3888 9.1897C10.6072 8.4441 8.90558 7.23364 5.9999 7.23364C3.09355 7.23364 1.39184 8.44453 0.612348 9.19213L0.610764 9.19372C0.222773 9.56884 0.00316822 10.0856 0.00200601 10.6257C-6.70417e-09 10.6921 0 10.7629 0 10.8337C0 11.1521 0.126379 11.4573 0.351584 11.6821C0.576362 11.9073 0.881582 12.0337 1.20003 12.0337H10.7999C11.1184 12.0337 11.4236 11.9073 11.6484 11.6821C11.8736 11.4573 12 11.1521 12 10.8337L12 10.6297Z" fill="#337AB7"/>
</svg>
