<svg width="145" height="58" viewBox="0 0 145 58" fill="none" xmlns="http://www.w3.org/2000/svg">
<path fill-rule="evenodd" clip-rule="evenodd" d="M9.25548 9.05029H0V15.9661H9.25548V9.05029ZM9.16684 19.0997H0V43.4754H9.16684V19.0997Z" fill="#337AB7"/>
<path fill-rule="evenodd" clip-rule="evenodd" d="M42.8877 4.26028C42.2579 3.7911 41.3671 3.92125 40.8979 4.55098L36.7843 10.0722C36.7261 10.1503 36.6772 10.2324 36.6372 10.3172H23.1851C23.158 10.2679 23.1276 10.2197 23.094 10.1728L19.0808 4.57814C18.6231 3.94005 17.7347 3.79382 17.0966 4.25155C16.4585 4.70927 16.3123 5.59761 16.77 6.2357L19.7024 10.3237H13.9209V30.6191H22.8441V30.6265H39.2891V30.6191H47.3085C47.3085 30.6191 51.4457 25.2748 48.4929 17.1515C46.7879 12.461 41.9273 10.9087 40.0321 10.4728L43.1784 6.25001C43.6475 5.62029 43.5174 4.72945 42.8877 4.26028ZM22.9102 24.5509V17.4663H36.4981C36.4981 17.4663 39.1929 17.2984 39.1929 20.9476C39.1929 24.5967 36.4293 24.5509 36.4293 24.5509H22.9102ZM22.7447 35.2167V43.3661H13.9282V33.0706H44.6117L48.3239 43.3661H38.3184L34.9252 35.2167H22.7447Z" fill="black"/>
<path fill-rule="evenodd" clip-rule="evenodd" d="M106.098 8.84131H115.567V9.03416H127.78C137.29 9.03416 145 16.744 145 26.2547C145 35.7653 137.29 43.4751 127.78 43.4751H111.128V43.2823H106.098V8.84131ZM115.161 33.3756C115.161 33.903 115.588 34.3306 116.116 34.3306H127.767C132.227 34.3306 135.843 30.7149 135.843 26.2547C135.843 21.7944 132.227 18.1787 127.767 18.1787H115.885C115.485 18.1787 115.161 18.5031 115.161 18.9034V33.3756Z" fill="#337AB7"/>
<rect x="91.5947" y="9.14697" width="9.15978" height="34.2326" fill="#337AB7"/>
<path d="M82.0276 23.0765C82.0492 21.4132 82.4932 19.7824 83.3182 18.3358C84.1432 16.8892 85.2101 15.3557 86.6341 14.4846C85.7294 13.1989 84.6985 12.2552 83.3112 11.5088C81.9237 10.7624 80.3307 10.5521 78.7544 10.503C75.3918 10.1518 72.1319 12.5053 70.4183 12.5053C68.6716 12.5053 66.0334 10.5379 63.1924 10.5961C61.3548 10.6551 59.5639 11.1869 57.9942 12.1395C56.4245 13.0922 55.1296 14.4332 54.2355 16.0319C50.3628 22.7042 53.2515 32.5105 56.9613 37.904C58.8174 40.5451 60.9866 43.4951 63.825 43.3905C66.6026 43.2759 67.6399 41.6279 70.9927 41.6279C74.3143 41.6279 75.2875 43.3905 78.1835 43.3239C81.1639 43.2759 83.2034 40.7223 84.9942 38.0563C86.3279 36.1744 87.3154 33.9186 87.9963 31.7179C86.2645 30.989 84.6641 29.8941 83.6246 28.3352C82.5851 26.7763 82.0296 24.9474 82.0276 23.0765Z" fill="black"/>
<path d="M76.5578 6.95577C78.1828 5.01446 78.9834 2.51924 78.7895 0C76.3069 0.25949 74.0134 1.44028 72.3665 3.30711C71.5612 4.21911 70.9444 5.28009 70.5515 6.42942C70.1585 7.57875 69.997 8.79388 70.0762 10.0054C71.318 10.0181 72.5466 9.75024 73.6692 9.22199C74.792 8.69377 75.7796 7.91891 76.5578 6.95577Z" fill="black"/>
<path d="M7.42906 56.6012C7.22097 56.845 6.97721 57.0293 6.69777 57.1542C6.42428 57.279 6.12403 57.3415 5.79703 57.3415C5.36895 57.3415 4.97655 57.2434 4.61982 57.0472C4.26309 56.8569 3.85583 56.5239 3.39802 56.0483C2.82131 56.0007 2.30405 55.8343 1.84625 55.5489C1.38845 55.2576 1.03172 54.88 0.776062 54.4163C0.520406 53.9466 0.392578 53.4264 0.392578 52.8556C0.392578 52.2491 0.538243 51.7022 0.829571 51.2146C1.1209 50.7212 1.52222 50.3377 2.03353 50.0642C2.54484 49.7847 3.11858 49.645 3.75475 49.645C4.39092 49.645 4.96466 49.7847 5.47597 50.0642C5.98728 50.3377 6.3886 50.7182 6.67993 51.2057C6.97126 51.6932 7.11693 52.2432 7.11693 52.8556C7.11693 53.3491 7.01883 53.8069 6.82262 54.229C6.62642 54.6452 6.35293 55.0019 6.00215 55.2992C5.65136 55.5905 5.2441 55.8016 4.78035 55.9324C4.95277 56.1167 5.12221 56.2505 5.28869 56.3337C5.45516 56.4169 5.63353 56.4585 5.82378 56.4585C6.23402 56.4585 6.59075 56.2921 6.89397 55.9591L7.42906 56.6012ZM1.56087 52.8556C1.56087 53.2718 1.65599 53.6493 1.84625 53.9882C2.03651 54.3211 2.29811 54.5827 2.63105 54.773C2.964 54.9573 3.33857 55.0495 3.75475 55.0495C4.17094 55.0495 4.5455 54.9573 4.87845 54.773C5.2114 54.5827 5.473 54.3211 5.66325 53.9882C5.85351 53.6493 5.94864 53.2718 5.94864 52.8556C5.94864 52.4394 5.85351 52.0648 5.66325 51.7319C5.473 51.393 5.2114 51.1314 4.87845 50.9471C4.5455 50.7568 4.17094 50.6617 3.75475 50.6617C3.33857 50.6617 2.964 50.7568 2.63105 50.9471C2.29811 51.1314 2.03651 51.393 1.84625 51.7319C1.65599 52.0648 1.56087 52.4394 1.56087 52.8556Z" fill="black"/>
<path d="M14.9542 56.0661C14.0921 56.0661 13.4203 55.8254 12.9387 55.3438C12.4571 54.8562 12.2163 54.1606 12.2163 53.2569V49.7342H13.3757V53.2123C13.3757 54.4371 13.9049 55.0495 14.9632 55.0495C16.0155 55.0495 16.5417 54.4371 16.5417 53.2123V49.7342H17.6832V53.2569C17.6832 54.1606 17.4424 54.8562 16.9608 55.3438C16.4852 55.8254 15.8163 56.0661 14.9542 56.0661Z" fill="black"/>
<path d="M27.1492 54.5322H24.0278L23.4124 55.977H22.2174L25.0266 49.7342H26.1681L28.9863 55.977H27.7734L27.1492 54.5322ZM26.7657 53.6226L25.5885 50.8936L24.4202 53.6226H26.7657Z" fill="black"/>
<path d="M33.7043 49.7342H34.8636V54.996H38.1277V55.977H33.7043V49.7342Z" fill="black"/>
<path d="M42.967 49.7342H44.1264V55.977H42.967V49.7342Z" fill="black"/>
<path d="M51.0054 50.7152H48.9363V49.7342H54.2338V50.7152H52.1647V55.977H51.0054V50.7152Z" fill="black"/>
<path d="M61.6341 53.7742V55.977H60.4747V53.792L58.0222 49.7342H59.2618L61.0901 52.7753L62.9361 49.7342H64.0777L61.6341 53.7742Z" fill="black"/>
<path d="M80.8841 55.977L80.8752 51.8389L78.824 55.2635H78.3067L76.2555 51.8924V55.977H75.1497V49.7342H76.1039L78.5832 53.8723L81.0179 49.7342H81.9721L81.981 55.977H80.8841Z" fill="black"/>
<path d="M91.6402 54.5322H88.5188L87.9034 55.977H86.7084L89.5176 49.7342H90.6592L93.4773 55.977H92.2644L91.6402 54.5322ZM91.2567 53.6226L90.0795 50.8936L88.9112 53.6226H91.2567Z" fill="black"/>
<path d="M99.1481 50.7152H97.0791V49.7342H102.377V50.7152H100.307V55.977H99.1481V50.7152Z" fill="black"/>
<path d="M108.524 50.7152H106.455V49.7342H111.753V50.7152H109.683V55.977H108.524V50.7152Z" fill="black"/>
<path d="M121.229 55.0049V55.977H116.547V49.7342H121.104V50.7063H117.706V52.3294H120.72V53.2837H117.706V55.0049H121.229Z" fill="black"/>
<path d="M130.53 55.977L129.254 54.1487C129.201 54.1547 129.121 54.1576 129.014 54.1576H127.605V55.977H126.445V49.7342H129.014C129.555 49.7342 130.024 49.8234 130.423 50.0017C130.827 50.1801 131.136 50.4358 131.35 50.7687C131.564 51.1017 131.671 51.497 131.671 51.9548C131.671 52.4245 131.555 52.8288 131.323 53.1677C131.098 53.5066 130.771 53.7593 130.342 53.9258L131.778 55.977H130.53ZM130.503 51.9548C130.503 51.5565 130.372 51.2503 130.111 51.0363C129.849 50.8222 129.465 50.7152 128.96 50.7152H127.605V53.2034H128.96C129.465 53.2034 129.849 53.0964 130.111 52.8823C130.372 52.6624 130.503 52.3532 130.503 51.9548Z" fill="black"/>
<path d="M138.828 56.0661C138.346 56.0661 137.879 55.9978 137.427 55.861C136.982 55.7243 136.628 55.5429 136.366 55.317L136.768 54.4163C137.023 54.6184 137.335 54.7849 137.704 54.9157C138.079 55.0406 138.453 55.103 138.828 55.103C139.291 55.103 139.636 55.0287 139.862 54.88C140.094 54.7314 140.21 54.5352 140.21 54.2914C140.21 54.1131 140.145 53.9674 140.014 53.8544C139.889 53.7355 139.728 53.6434 139.532 53.578C139.336 53.5126 139.068 53.4382 138.73 53.355C138.254 53.242 137.867 53.1291 137.57 53.0161C137.279 52.9031 137.026 52.7278 136.812 52.4899C136.604 52.2462 136.5 51.9192 136.5 51.5089C136.5 51.1641 136.592 50.852 136.776 50.5725C136.967 50.2871 137.249 50.0612 137.624 49.8947C138.004 49.7283 138.468 49.645 139.015 49.645C139.395 49.645 139.77 49.6926 140.139 49.7877C140.507 49.8828 140.825 50.0196 141.093 50.198L140.727 51.0987C140.454 50.9382 140.168 50.8163 139.871 50.733C139.574 50.6498 139.285 50.6082 139.006 50.6082C138.548 50.6082 138.206 50.6855 137.98 50.8401C137.76 50.9946 137.65 51.1998 137.65 51.4554C137.65 51.6338 137.713 51.7794 137.838 51.8924C137.969 52.0054 138.132 52.0946 138.328 52.16C138.524 52.2254 138.792 52.2997 139.131 52.3829C139.595 52.4899 139.975 52.6029 140.272 52.7218C140.57 52.8348 140.822 53.0102 141.03 53.248C141.244 53.4858 141.352 53.8069 141.352 54.2112C141.352 54.556 141.256 54.8681 141.066 55.1476C140.882 55.427 140.599 55.65 140.219 55.8164C139.838 55.9829 139.375 56.0661 138.828 56.0661Z" fill="black"/>
</svg>
