<svg xmlns="http://www.w3.org/2000/svg" xmlns:xlink="http://www.w3.org/1999/xlink" width="440" height="331" fill="none" xmlns:v="https://vecta.io/nano"><style><![CDATA[.B{fill:#fff}.C{fill:#223a7a}.D{fill:#337ab7}]]></style><g fill="#f0fafd"><path d="M75.306 313.535C38.824 287.553 15.33 252.453 4.83 208.233c-15.756-66.332 8.289-146.76 53.895-187.39s127.688-13.265 164.17 20.729l36.482 33.994c23.217 12.714 50.028 18.518 80.428 17.413 45.603-1.656 86.233 60.528 97.01 109.45 7.187 32.611 2.211 70.476-14.925 113.591l-346.584-2.485z"/><path d="M50.433 323.484c-25.428-13.82-41.458-36.76-48.091-68.82-9.952-48.091 33.166-92.037 37.31-116.082S34.68 84.687 72.818 61.473s106.134-14.925 131.836-20.729S260.209-4.859 311.615 4.262s101.155 36.482 103.643 96.181-16.582 61.356 2.488 93.693 26.533 54.724 17.412 87.889c-6.081 22.112-15.479 36.209-28.193 42.287l-356.532-.828z" style="mix-blend-mode:multiply"/><path d="M130.071 312.703c-2.371-2.484-37.17-72.136 1.583-135.98s136.03-56.383 174.779-31.506c38.754 24.874 57.736 57.212 61.69 91.206 2.635 22.662-4.745 51.684-22.145 87.061l-215.907-10.781z" style="mix-blend-mode:multiply"/></g><path d="M402.925 195.449H358.22a5.01 5.01 0 0 1-5.009-5.009v-22.319a5.01 5.01 0 0 1 5.009-5.01h44.705c2.765 0 5.009 2.245 5.009 5.01v22.319a5.01 5.01 0 0 1-5.009 5.009z" class="D"/><path d="M373.485 191.304h14.17l-7.083 16.789-7.087-16.789z" fill="#60a8ff"/><path d="M380.4 170.238h12.798v-1.873l6.275 3.617-6.275 3.62v-1.874H380.4v-3.49zm19.074 14.337h-12.797v1.874l-6.276-3.617 6.276-3.617v1.871h12.797v3.489zm-24.188 6.359c-1.179.183-2.699-.04-4.472-1.323-3.006-2.177-4.652-5.637-6.195-9.518s-1.69-7.851-.161-10.439a5.35 5.35 0 0 1 1.316-1.49l2.705 6.476-.444.187c.024 1.923.361 3.67 1.019 5.243s1.62 3.086 2.885 4.528l.608-.22 2.739 6.556zm1.251-6.399l1.446 3.643a1.61 1.61 0 0 1-.728 2.011c-.244.133-.524.26-.835.364l-2.772-6.633.842-.303c.818-.298 1.727.106 2.047.918zm-6.612-16.571l1.453 3.73a1.61 1.61 0 0 1-.882 2.071l-.928.387-2.765-6.616a6.47 6.47 0 0 1 1.085-.507c.818-.294 1.72.123 2.037.935z" class="B"/><path d="M117.148 301.512v-74.624c-.554-13.405 2.696-22.041 9.742-25.912s25.428-4.766 55.138-2.695v103.231h-64.88z" class="D"/><path d="M219.99 144.179l-2.488 21.557 1.867 3.941c.691 4.836-3.039 6.495-11.194 4.973s-15.546-6.977-22.179-16.375l5.183-3.523 1.035-1.867c.692-1.242 1.934-9.397 3.731-24.459 1.246 3.73 9.261 8.983 24.045 15.753z" fill="#ff9d8c"/><path d="M179.572 160.142l8.082-3.526c3.457 5.667 9.191 10.159 17.206 13.475 12.023 4.976 12.23 2.074 12.851 0 .417-1.382.347-2.832-.207-4.355l.891-7.257 4.806 1.603 16.692 135.002-42.908 2.073-17.413-137.015z" class="B"/><path d="M243.623 168.017c9.534 4.699 14.096 8.499 17.619 27.361s3.11 59.84 3.938 62.051 9.12 10.062 24.873 23.561c-2.484 13.679-3.937 20.522-4.351 20.522H231.6l-1.035-59.906c-.625-18.241-3.11-44.775-5.805-60.528-1.796-10.503-3.663-17.99-5.597-22.459 9.735 3.029 17.89 6.162 24.46 9.398z" class="C"/><path d="M247.353 277.76a.5.5 0 0 1-.501-.501l-.518-42.904-.518-42.914a.5.5 0 1 1 1.002 0l.518 42.901.518 42.917c0 .274-.224.501-.501.501z" fill="#8593b6"/><path d="M203.826 274.772c.691 1.519.137 10.433-1.66 26.74H139.15l.415-28.814c42.149-.137 63.569.554 64.261 2.074z" class="C"/><path d="M197.679 130.87c3.767 3.784 11.204 8.222 22.312 13.309l-1.48 12.82c-2.735-1.005-6.248-2.665-8.816-4.735-7.929-6.396-10.834-14.942-12.016-21.394z" fill="#8e9bbb" style="mix-blend-mode:multiply"/><path d="M239.478 86.346c2.902 4.976 4.628 10.503 5.18 16.585.831 9.12 0 32.541-7.461 42.493s-23.01 7.047-30.057 1.036c-6.469-5.517-12.851-11.609-14.511-23.632s3.524-34.822 18.241-39.591c9.812-3.179 19.347-2.141 28.608 3.109zm18.698 202.135a70.63 70.63 0 0 1-1.843-.03c-.261-.01-.551 0-.852-.01l-3.687-.1-.881-.031c-1.303-.03-2.415.131-3.457.071h-.03c-.22-.01-.541.02-.802.03l-.33.01c-.601-.111-.722-.251-1.373-.541-.841-.381-12.233-2.926-21.5-2.866-9.258.04-17.563.672-18.916-.461-1.363-1.152-2.184-12.784 5.721-13.545l9.718 3.687c14.795-1.757 24.904-.635 30.327 3.366 5.437 4.001 8.072 7.474 7.905 10.42z" fill="#ff9d8c"/><path d="M247.429 288.381c-.22-.01-.541.02-.801.03-.201-.321-.622-.902-.852-1.142-2.505-2.555-8.556-4.208-10.75-4.739-.201-.051-.331-.251-.281-.451.04-.201.251-.321.461-.281 3.196.772 9.979 2.745 11.902 5.981.061.091.221.401.321.602zm4.369-.044l-.881-.03c-2.735-4.989-7.21-6.419-12.738-8.199l-.33-.107c-.187-.066-.304-.277-.237-.477.063-.191.267-.304.474-.241l.321.111c5.847 1.876 10.549 3.383 13.391 8.943zm4.536.11l-.852-.01c-1.656-3.486-7.147-9.324-14.41-10.683-.211-.033-.344-.227-.311-.438a.39.39 0 0 1 .437-.3c7.485 1.406 13.519 7.514 15.136 11.431zm-69.819-170.905c-3.11-8.566-4.352-17.136-3.731-25.702.932-12.851 8.81-24.356 25.288-25.187 10.987-.551 19.383 1.486 25.187 6.118 4.766-1.797 7.805-2.004 9.121-.624s.758 3.249-1.66 5.597c6.292-1.51 11.028-1.025 14.2 1.453 4.248 3.316 4.248 11.295-4.458 16.271s-19.069 1.453-27.776-1.139c-5.804-1.73-10.64-2.281-14.511-1.66.278 3.663-.654 7.531-2.798 11.609s-4.732 6.839-7.772 8.292l-11.09 4.973z" class="C"/><path d="M231.76 115.782l-1.126 8.776c-.076 1.226-.166 2.549.929 3.333.791.568 1.753.839 2.538 1.42.681.504 1.359 1.316 1.239 2.221-.11.801-.765 1.275-1.439 1.609-1.099.548-1.927.605-3.146.555s-2.755-.247-3.801-.902c-.31-.197-.193-.705.191-.701.647.003 1.285.2 1.937.247l1.82.1c.878.04 2.17.18 2.942-.331 2.024-1.339-1.91-2.992-2.742-3.606-1.743-1.283-1.393-3.5-1.212-5.401.237-2.444.213-5.116 1.149-7.417.14-.351.761-.351.721.097z" fill="#8e9bbb" style="mix-blend-mode:multiply"/><path d="M239.512 122.575c-.31 1.75-1.58 2.985-2.839 2.761s-2.03-1.82-1.72-3.566 1.58-2.983 2.839-2.762 2.027 1.82 1.72 3.567zm-15.863-1.383c-.28 1.884-1.606 3.25-2.965 3.046s-2.231-1.894-1.951-3.777 1.61-3.25 2.966-3.049 2.231 1.897 1.95 3.78zm11.469-6.632c-.057-.425.144-.732.468-.976.42-.31.995-.487 1.512-.557.585-.081 1.169-.144 1.764-.141a7.54 7.54 0 0 1 1.78.227c.304.081.641.184.898.361l.234.18c.093.054.167.127.224.221l.127.17-.117-.133.127.16c.1.127.167.267.213.424.154.534-.19 1.179-.744 1.309-.034.007-.398.067-.398.044l.201-.037-.318.043c-.19.007-.4-.036-.591-.077-.21-.046-.411-.126-.618-.177l-.364-.076-.15-.024c-.234-.036.244.027.077.01l-.701-.073c-.976-.067-1.954.1-2.923-.064-.377-.063-.654-.464-.701-.814zm-9.964-.758c-.164.407-.692.728-1.136.557l-.334-.11-.17-.043c.107.033.17.01.017.006l-.815-.03c-.638-.026-1.286-.023-1.921 0l-2.053.107-.468.05-.184.024c.331-.034.02-.004-.036.006l-.334.041c.177-.037-.09.03-.101.033-.29.063-.494.053-.781.007h.524c-.347.09-.668.18-1.005-.007-.28-.157-.447-.424-.451-.748a1.04 1.04 0 0 1 .434-.845c-.016.03-.036.06-.056.09l.207-.27c.107-.107.237-.181.364-.258.895-.541 1.84-.791 2.875-.901a8.39 8.39 0 0 1 2.912.2c.434.11.852.247 1.253.448l.267.143c-.244-.133.077.037.194.09l.404.207c.42.254.574.762.394 1.203zm3.825 30.424c-.434.067-.891.107-1.396.08-4.792-.267-7.541-5.551-5.223-6.866 2.071-1.176 10.269-.418 12.006-.241-2 .902-3.73 2.305-4.682 4.218-.441.888-.665 1.844-.705 2.809z" class="C"/><path d="M195.429 129.461c.277 1.246 1.519 3.006 3.73 5.287s5.701 4.458 10.47 6.529l-.555 2.417c-4.605-1.816-8.499-3.97-11.675-6.458s-5.046-4.803-5.597-6.943l3.627-.832z" fill="#dee1eb"/><path d="M210.456 139.49c3.838-.181 5.978 2.855 6.245 4.815s-1.576 4.165-5.887 2.231c-5.357-2.401-4.195-6.869-.358-7.046z" class="C"/><path d="M186.205 106.868c.758-9.948 4.662-18.828 11.712-26.636s14.751-12.056 23.114-12.747c1.372-.554 3.583-.314 6.632.725 3.246 1.105 4.906 2.385 4.973 3.834-8.636-.621-18.034 4.215-28.19 14.511-5.32 5.394-8.536 12.063-9.638 20.005l-8.603.31z" fill="#dee1eb"/><path d="M190.659 132.363c-7.644.601-13.368-5.386-12.954-13.265s5.981-15.683 15.96-13.993c12.23 2.074 14.2 25.912-3.006 27.258z" class="B"/><path d="M188.698 124.709c-2.635 0-4.862-1.322-6.135-3.657-1.362-2.494-1.249-5.57.294-7.831.117-.17.347-.214.521-.1a.38.38 0 0 1 .1.524c-1.386 2.031-1.483 4.796-.254 7.05 1.166 2.137 3.227 3.346 5.668 3.259 2.277-.06 4.211-1.102 5.44-2.935 1.403-2.094 1.727-4.983.822-7.361-.895-2.361-3.353-3.97-5.591-3.677-.2.027-.394-.116-.421-.323s.117-.395.321-.421c2.615-.351 5.363 1.436 6.395 4.154.985 2.598.631 5.758-.901 8.045-1.37 2.041-3.517 3.203-6.045 3.27l-.214.003z" fill="#818fb3"/><path d="M196.775 203.05c2.524 14.063 4.598 35.624 6.221 64.672l13.887 4.976c-1.951.665-3.697 2.598-5.234 5.804-1.659 3.453-2.471 6.356-2.434 8.707-10.23.551-20.729.551-31.51 0-16.167-.829-36.275-6.426-40.833-9.535s-12.233-7.671-12.023-18.658 5.18-70.27 15.753-82.292c7.047-8.015 20.659-14.511 40.834-19.484 7.324 14.371 12.436 29.639 15.339 45.81z" class="C"/><g fill="#8593b6"><path d="M231.6 260.762a.5.5 0 0 1-.204-.044c-.25-.113-.367-.407-.254-.661 2.836-6.399 5.774-18.956 7.428-27.769l.136-.711c.501-2.592 1.123-5.818-.12-8.042l-3.443-5.965-3.156-5.473c-.728-1.353 1.57-4.966 4.896-9.926l2.131-3.279c1.185-2.054.394-3.934-.518-6.109l-.314-.751c-.828-2.034-1.77-4.071-2.678-6.041l-1.112-2.422-1.47-3.266c-2.929-6.529-5.958-13.281-9.838-19.804a.5.5 0 0 1 .173-.684c.241-.141.548-.064.688.173 3.908 6.573 6.95 13.352 9.889 19.908l1.469 3.259 1.109 2.415c.915 1.98 1.86 4.031 2.699 6.085l.307.741c.932 2.218 1.897 4.512.461 6.997-.468.811-1.253 1.98-2.164 3.336-1.734 2.585-5.344 7.968-4.846 8.893.367.678 1.713 2.993 3.139 5.444l3.453 5.981c1.423 2.545.762 5.968.231 8.72l-.137.705c-.605 3.209-3.797 19.64-7.498 27.989a.5.5 0 0 1-.457.301zm-29.537 1.76c-.127 0-.258-.046-.354-.147-2.358-2.374-13.716-22.041-14.561-25.741-.464-2.024.698-7.161 1.823-12.127.872-3.847 1.77-7.828 1.516-8.903-.384-1.613-3.289-3.984-6.098-6.279-3.393-2.771-6.903-5.64-7.581-8.222-.771-2.935-.113-21.307.324-33.463l.281-9.054a.501.501 0 1 1 1.002 0c0 1.249-.124 4.709-.281 9.091-.407 11.365-1.092 30.381-.357 33.172.598 2.268 4.131 5.153 7.247 7.702 3.072 2.508 5.974 4.879 6.435 6.819.311 1.303-.534 5.036-1.513 9.358-1.045 4.632-2.234 9.878-1.823 11.685.832 3.624 11.983 22.927 14.297 25.258a.5.5 0 0 1-.357.851zm-40.732-8.599c-.023 0-.047-.004-.07-.007a.5.5 0 0 1-.428-.565c.368-2.608 6.119-54.506 6.382-58.48.02-.277.258-.494.535-.467a.5.5 0 0 1 .464.534c-.264 3.981-6.021 55.942-6.389 58.554a.5.5 0 0 1-.494.431z"/><path d="M202.578 268.016c-.06 0-.127-.01-.187-.037-1.276-.514-6.903-2.415-14.03-4.819-14.387-4.849-34.088-11.495-37.835-13.442a.5.5 0 0 1-.214-.675c.127-.247.428-.344.675-.214 3.677 1.914 24.149 8.814 37.691 13.382l14.09 4.839c.254.104.377.398.274.652-.077.197-.267.314-.464.314zm-6.916 20.665c-12.661 0-37.204-2.284-55.849-8.877-.264-.093-.398-.381-.307-.641a.5.5 0 0 1 .641-.304c23.551 8.332 56.503 9.755 62.635 8.379a.5.5 0 0 1 .597.378c.061.27-.11.537-.38.601-1.326.297-3.891.464-7.337.464z"/></g><g class="D"><path d="M44.973 152.451l.504-8.593-.354-8.422c-.053-2.889.354-7.037 3.951-7.468 4.312-.514 8.863 3.33 10.917 6.773.962 1.62 1.677 3.584 1.313 5.484-.324 1.673-1.329 3.102-2.154 4.555-.885 1.553-1.489 3.146.017 4.539 1.583 1.469 3.8 2.274 5.524 3.593 3.53 2.705 4.876 6.886 5.15 11.201.19 3.063 0 6.138.107 9.204.107 3.073.354 6.139.698 9.194.007.027.023.054.03.084.174.664.214 1.566.037.901-.397-1.509-2.845-3.499-3.76-4.702-1.262-1.649-2.481-3.323-3.837-4.896-3.45-3.997-8.426-6.211-12.357-9.668-3.593-3.162-5.854-6.89-5.784-11.779zm39.278 64.84c-.464 1.486-1.209 3.139-1.336 4.705-.037.468-5.156.144-6.836-.598-1.102-.487-2.107-1.189-2.862-2.134-1.613-2.01-2.07-4.695-2.925-7.063-1.182-3.273-3.333-5.424-6.639-6.536-2.862-.965-6.095-1.412-9.107-1.506-4.308-.13-9.845.571-11.619-4.448-.591-1.67-.437-3.35-.304-5.08.147-1.84.003-3.403-.905-5.033-1.536-2.758-3.694-5.163-5.363-7.848-1.57-2.525-2.892-5.286-3.022-8.305-.103-2.405.444-5.544 2.418-7.171 3.727-3.059 8.797 1.727 10.931 4.536 2.865 3.763 4.041 9.093 7.908 12.069 1.182.908 2.314 1.039 3.75.658 1.165-.307 2.264-.731 3.487-.741 1.91-.014 3.64.718 5.069 1.97 2.365 2.074 3.894 5.059 5.16 7.881 1.352 3.009 2.318 6.162 3.34 9.295 1.239 3.787 2.738 7.48 4.028 11.251.725 2.121 1.032 4.538 1.91 6.649l-.17-1.419c-.281-2.271-.478-4.552-.645-6.833-.184-2.482-.274-4.946-.264-7.434.01-1.987-.317-5.24 1.266-11.375.995-3.851 3.116-7.464 3.006-11.538-.12-4.235-1.727-8.319-3.072-12.28-1.636-4.796-2.835-9.622-2.231-14.718.194-1.66.568-3.677 1.89-4.842 1.343-1.179 3.129-.708 4.542.08 5.397 3.019 5.824 9.588 5.594 15.105-.157 3.807-1.302 7.243-2.064 10.944-.15.735-1.075 4.892-.057 5.146.598.147 1.232-.935 1.433-1.379.341-.762.601-1.566.872-2.358.695-2.02 1.343-4.074 2.278-5.998.538-1.105 1.366-2.832 2.762-3.012 1.79-.227 2.588 2.014 2.698 3.396.234 2.889-.624 5.764-.728 8.643-.144 3.921.07 7.905-1.383 11.629-1.423 3.643-3.77 6.816-5.891 10.075-1.543 2.372-2.799 4.813-3.891 7.421-1.129 2.692-2.154 5.41-3.026 8.196zm27.601.68c-.18 2.408-1.086 4.632-2.722 6.423-1.763 1.923-4.278 2.524-6.429 3.86-1.125.698-2.264 1.703-2.528 3.069-.28 1.45.541 2.725 1.239 3.918 1.273 2.17 2.492 4.264 2.782 6.809.224 1.94.02 4.111-1.463 5.537-1.95 1.874-5.052 2.121-7.39 3.313-5.173 2.638-8.964 6.94-12.079 11.732-.264.408-1.032.141-.825-.35.07-.167.15-.331.227-.495.454-3.282 1.299-6.482 2.087-9.695s1.303-6.478 1.93-9.728c.932-4.822 1.89-9.869 3.904-14.384.748-1.673 1.753-3.263 3.203-4.415 1.616-1.285 3.517-1.806 5.454-2.404 3.016-.932 5.093-2.629 6.235-5.614 1.009-2.642 1.657-5.527 2.001-8.329.197-1.593.1-3.196.23-4.796.081-.965.121-2.538 1.096-3.079.173-.097.431-.05.527.14 1.36 2.635 1.276 5.798 1.72 8.667.491 3.169 1.042 6.612.802 9.821z"/><path d="M78.523 241.65c2.839 6.365 4.088 12.977 4.161 19.927.003.261-.488.494-.635.364-.267.204-.097.611-.124.164-.284-4.679-3.647-9.531-7.224-12.403-3.51-2.816-7.678-4.559-11.792-6.279-1.907-.795-3.8-1.613-5.661-2.511-1.429-.695-2.952-1.386-4.101-2.515-2.358-2.318-1.292-5.971 1.085-7.865 2.01-1.596 4.425-1.74 6.736-2.478-1.867-2.481-4.425-4.338-6.639-6.492-1.473-1.433-3.707-3.681-3.153-5.965.949-3.901 5.644-1.292 7.634.03 3.73 2.478 7.047 5.527 9.792 9.067 3.968 5.11 7.287 11.055 9.919 16.956z"/></g><g fill="#43588e"><path d="M59.645 159.712c3.694 6.689 7.861 13.058 10.597 20.238 1.513 3.971 3.316 7.811 4.876 11.762 1.56 3.944 2.909 7.959 4.004 12.056 2.131 7.985 3.77 16.124 4.549 24.36.397 4.191.561 8.405.421 12.613-.11 3.307-.504 6.583-.788 9.876-.511 5.968-.661 11.966 2.02 17.469.257.525-.371 1.032-.812.625-2.258-2.077-2.718-5.534-2.962-8.443-.291-3.48-.053-6.99.274-10.46.314-3.332.691-6.649.785-9.998.117-4.288-.077-8.583-.508-12.848-.842-8.392-2.545-16.745-4.839-24.857-1.176-4.158-2.642-8.229-4.281-12.226l-4.632-11.542c-1.212-3.149-2.829-6.081-4.448-9.034a196.35 196.35 0 0 1-4.782-9.284c-.167-.351.337-.654.528-.307z"/><path d="M81.862 218.732c-.367-4.895.501-9.985 2.191-14.58.875-2.378 1.887-4.696 2.662-7.11.364-1.136.678-2.285.915-3.457.244-1.202.207-2.485.544-3.657.063-.217.397-.23.451 0 .508 2.051-.474 4.699-1.129 6.629-.795 2.335-1.79 4.599-2.612 6.923-1.763 4.99-2.228 10.026-2.662 15.252a.181.181 0 0 1-.361 0zm-29.426-30.266c3.176 5.363 9.718 4.238 14.684 6.479 6.195 2.795 8.015 10.032 9.287 16.043.007.037-.05.054-.06.017-1.049-3.433-2.321-7.043-4.205-10.119-1.72-2.809-4.118-4.973-7.36-5.778-4.545-1.122-10.787-1.409-12.861-6.425-.127-.304.357-.481.514-.217zm26.617 29.389l.838.855.444.394c.147.13.331.23.434.397.05.084-.017.187-.11.187-.224.007-.414-.16-.575-.294a2.57 2.57 0 0 1-.414-.444l-.728-1.008c-.05-.067.053-.141.11-.087zm-12.767 15.576c2.01 1.416 3.757 3.076 5.474 4.829 1.663 1.7 3.206 3.343 4.448 5.38 2.391 3.924 5.38 7.969 5.878 12.684.023.221-.287.217-.354.047-.898-2.231-1.653-4.475-2.799-6.602-1.052-1.947-2.207-3.874-3.463-5.695-2.625-3.81-5.928-7.287-9.508-10.225-.234-.194.08-.592.324-.418zm28.537-4.679c-1.566 1.442-1.373 4.565-1.316 6.509.093 3.045.29 5.831-1.075 8.643-1.299 2.668-3.266 4.926-4.866 7.407-.915 1.416-1.62 2.879-2.124 4.488-.451 1.43-.675 2.983-1.302 4.349-.08.177-.347.08-.351-.094-.033-3.009 1.503-6.205 3.059-8.706 1.666-2.672 3.781-5.073 5.106-7.949 1.466-3.182.638-6.322.705-9.664.033-1.737.09-4.462 1.813-5.441.281-.157.598.231.351.458z"/></g><path d="M103.118 260.191l-3.276 24.31a11.02 11.02 0 0 1-10.921 9.548h-5.704-.551-5.704c-5.52 0-10.186-4.081-10.924-9.548l-3.273-24.31 20.175.174 20.178-.174z" class="B"/><path d="M418.68 215.693l-39.625 78.495-115.528.828 35.654-80.428 119.499 1.105z" fill="#f6f7fa"/><path d="M186.853 294.529l.02-6.285h74.787l34.409-75.452h119.605l3.006 2.902H301.839l-35.757 78.768c-52.82-.093-79.229-.073-79.229.067zm171.835-35.52c-1.306 3.914-8.389 6.936-15.823 6.752s-12.4-3.51-11.094-7.427 8.389-6.936 15.823-6.753 12.4 3.51 11.094 7.428z" fill="#d9dee8"/><path d="M266.08 294.963c-.07 0-.14-.014-.207-.044a.5.5 0 0 1-.247-.664l35.888-79.063h117.164a.5.5 0 1 1 0 1.002H302.162l-35.624 78.478a.5.5 0 0 1-.458.291z" class="B"/><path d="M181.644 330.944H44.215v-30.47h137.429v30.47z" fill="#596b9b"/><path d="M428.127 330.944H180.86v-30.471h247.267v30.471z" fill="#7a89af"/><path d="M428.129 300.474v5.597H181.647h-.785H44.218v-5.597h136.644.785 246.482z" fill="#bdc4d7" style="mix-blend-mode:multiply"/><path d="M187.656 301.926H37.58v-7.464h150.076v7.464z" fill="#6f7fa9"/><path d="M434.14 301.926H186.874v-7.464H434.14v7.464z" fill="#9ca6c3"/><g class="B"><path d="M146.947 134.591H98.432a5.44 5.44 0 0 1-5.437-5.437v-24.219a5.44 5.44 0 0 1 5.437-5.437h48.515c3.002 0 5.433 2.435 5.433 5.437v24.219c0 3.002-2.431 5.437-5.433 5.437z"/><path d="M147.986 124.732v-15.376l18.225 7.688-18.225 7.688z"/></g><g class="C"><path d="M114.538 117.045a3.36 3.36 0 0 1-3.356 3.356 3.36 3.36 0 0 1-3.357-3.356 3.36 3.36 0 0 1 3.357-3.357 3.36 3.36 0 0 1 3.356 3.357z"/><use xlink:href="#B"/><use xlink:href="#B" x="11.506"/></g><path d="M406.966 38.015v53.133c0 7.194-5.831 13.024-13.025 13.024H311.83c-3.891 6.212-11.342 15.176-24.283 21.144 4.021-9.161 4.712-16.328 4.432-21.144h-10.042a13.03 13.03 0 0 1-13.025-13.024V38.015a13.03 13.03 0 0 1 13.025-13.025h112.004c7.194 0 13.025 5.831 13.025 13.025z" class="D"/><path d="M346.16 50.312h-55.551c-1.526 0-2.765-1.236-2.765-2.762s1.239-2.765 2.765-2.765h55.551c1.53 0 2.766 1.239 2.766 2.765s-1.236 2.762-2.766 2.762z" class="B"/><g fill="#d2e6ff"><use xlink:href="#C"/><use xlink:href="#C" y="9.398"/><path d="M364.956 85.829h-75.419c-.935 0-1.693-.758-1.693-1.693s.758-1.693 1.693-1.693h75.419c.935 0 1.693.758 1.693 1.693s-.758 1.693-1.693 1.693z"/></g><path d="M385.238 50.312h-26.5c-1.526 0-2.765-1.236-2.765-2.762s1.239-2.765 2.765-2.765h26.5c1.526 0 2.765 1.239 2.765 2.765s-1.239 2.762-2.765 2.762zm-66.793 122.197h-30.09c-1.105 0-2.003-.899-2.003-2.004V149.95c0-1.106.898-2.004 2.003-2.004h30.09c1.109 0 2.004.898 2.004 2.004v20.555c0 1.105-.895 2.004-2.004 2.004z" class="B"/><g fill="#6f7fa9"><path d="M303.608 163.9a.77.77 0 0 1-.478-.174L286.753 150.2c-.317-.263-.364-.738-.1-1.058s.741-.364 1.058-.101l15.887 13.122 15.479-13.472c.311-.271.788-.237 1.059.073a.75.75 0 0 1-.074 1.062l-15.96 13.886c-.14.124-.317.188-.494.188z"/><path d="M287.234 171.948c-.187 0-.374-.067-.517-.207-.304-.284-.314-.761-.027-1.062l11.452-12.039a.751.751 0 1 1 1.088 1.035l-11.451 12.039c-.147.157-.348.234-.545.234zm32.339-.441a.75.75 0 0 1-.534-.22l-11.408-11.438a.752.752 0 0 1 1.065-1.062l11.408 11.438a.75.75 0 0 1-.003 1.065.74.74 0 0 1-.528.217z"/></g><path d="M332.066 147.185a10.06 10.06 0 0 1-10.056 10.055c-5.55 0-10.052-4.502-10.052-10.055s4.502-10.053 10.052-10.053 10.056 4.502 10.056 10.053z" fill="#ff5f42"/><path d="M422.986 143.484h-58.73c-2.215 0-4.008-1.793-4.008-4.007v-9.188c0-2.214 1.793-4.007 4.008-4.007h58.73c2.215 0 4.008 1.793 4.008 4.007v9.188c0 2.214-1.793 4.007-4.008 4.007z" class="C"/><path d="M368.495 139.393c-.264 0-.477-.093-.634-.28s-.234-.424-.214-.705l.254-2.227c.02-.057.01-.094-.027-.114s-.084-.01-.14.03l-1.834 1.323c-.227.17-.461.23-.704.183s-.445-.19-.595-.437c-.167-.301-.2-.565-.097-.788a.9.9 0 0 1 .521-.478l2.057-.932c.057-.02.087-.046.087-.083s-.03-.067-.087-.087l-2.057-.928c-.264-.114-.434-.294-.507-.538a.93.93 0 0 1 .083-.731c.15-.244.351-.391.595-.438s.477.003.704.154l1.834 1.356c.056.036.1.046.14.026s.047-.056.027-.113l-.254-2.228c-.02-.28.057-.517.227-.704s.394-.281.678-.281a.84.84 0 0 1 .648.281c.17.187.234.424.197.704l-.254 2.228c-.02.057-.01.093.027.113s.087.01.143-.026l1.83-1.326c.227-.171.468-.231.722-.184s.444.194.578.438c.166.3.2.561.096.788s-.277.384-.521.481l-2.057.928c-.057.02-.087.047-.087.087s.03.063.087.083l2.057.932c.264.11.438.291.521.534s.054.488-.096.732c-.134.247-.328.391-.578.437a.96.96 0 0 1-.722-.153l-1.83-1.353c-.056-.04-.107-.047-.143-.03s-.047.057-.027.114l.254 2.227a.82.82 0 0 1-.211.705c-.18.187-.41.28-.691.28zm12.146 0c-.263 0-.474-.093-.634-.28s-.231-.424-.211-.705l.254-2.227c.017-.057.007-.094-.03-.114s-.083-.01-.14.03l-1.834 1.323c-.223.17-.46.23-.704.183s-.441-.19-.591-.437c-.171-.301-.204-.565-.101-.788s.278-.384.522-.478l2.06-.932c.057-.02.084-.046.084-.083s-.027-.067-.084-.087l-2.06-.928c-.261-.114-.431-.294-.508-.538s-.044-.488.087-.731c.15-.244.347-.391.591-.438a.91.91 0 0 1 .704.154l1.834 1.356c.057.036.103.046.14.026s.047-.056.03-.113l-.254-2.228c-.02-.28.057-.517.224-.704a.87.87 0 0 1 .678-.281c.264 0 .478.094.648.281s.237.424.197.704l-.254 2.228c-.016.057-.01.093.03.113s.084.01.141-.026l1.833-1.326c.224-.171.464-.231.718-.184s.448.194.578.438c.17.3.204.561.097.788-.101.227-.278.384-.521.481l-2.058.928c-.056.02-.083.047-.083.087s.027.063.083.083l2.058.932c.264.11.437.291.521.534s.053.488-.097.732c-.13.247-.324.391-.578.437a.94.94 0 0 1-.718-.153l-1.833-1.353c-.057-.04-.104-.047-.141-.03s-.046.057-.03.114l.254 2.227a.81.81 0 0 1-.21.705.92.92 0 0 1-.692.28zm12.146 0c-.261 0-.475-.093-.635-.28s-.23-.424-.21-.705l.253-2.227c.021-.057.01-.094-.026-.114s-.087-.01-.144.03l-1.83 1.323c-.227.17-.461.23-.705.183s-.444-.19-.594-.437c-.17-.301-.2-.565-.097-.788a.91.91 0 0 1 .521-.478l2.057-.932c.057-.02.087-.046.087-.083s-.03-.067-.087-.087l-2.057-.928c-.264-.114-.434-.294-.508-.538a.93.93 0 0 1 .084-.731c.15-.244.347-.391.594-.438s.478.003.705.154l1.83 1.356c.057.036.104.046.144.026s.047-.056.026-.113l-.253-2.228c-.02-.28.056-.517.227-.704s.394-.281.674-.281c.264 0 .481.094.652.281s.233.424.193.704l-.25 2.228c-.02.057-.01.093.027.113s.083.01.14-.026l1.833-1.326c.224-.171.464-.231.718-.184s.448.194.581.438c.167.3.201.561.097.788s-.277.384-.521.481l-2.057.928c-.057.02-.087.047-.087.087s.03.063.087.083l2.057.932c.264.11.438.291.521.534s.054.488-.097.732c-.133.247-.327.391-.581.437a.94.94 0 0 1-.718-.153l-1.833-1.353c-.057-.04-.104-.047-.14-.03s-.047.057-.027.114l.25 2.227c.04.281-.03.518-.21.705s-.408.28-.691.28zm12.15 0a.79.79 0 0 1-.634-.28c-.161-.187-.231-.424-.214-.705l.257-2.227c.017-.057.007-.094-.03-.114s-.083-.01-.14.03l-1.834 1.323c-.227.17-.46.23-.704.183s-.441-.19-.591-.437c-.171-.301-.204-.565-.101-.788s.278-.384.521-.478l2.061-.932c.057-.02.083-.046.083-.083s-.026-.067-.083-.087l-2.061-.928c-.263-.114-.43-.294-.507-.538a.9.9 0 0 1 .087-.731c.15-.244.347-.391.591-.438s.477.003.704.154l1.834 1.356c.057.036.103.046.14.026s.047-.056.03-.113l-.257-2.228c-.017-.28.057-.517.227-.704s.394-.281.678-.281c.264 0 .478.094.648.281s.234.424.197.704l-.254 2.228c-.02.057-.01.093.027.113s.087.01.143-.026l1.834-1.326c.224-.171.464-.231.718-.184s.444.194.578.438c.167.3.2.561.097.788s-.278.384-.521.481l-2.058.928c-.056.02-.083.047-.083.087s.027.063.083.083l2.058.932a.88.88 0 0 1 .521.534c.086.244.053.488-.097.732-.134.247-.324.391-.578.437a.94.94 0 0 1-.718-.153l-1.834-1.353c-.056-.04-.103-.047-.143-.03s-.047.057-.027.114l.254 2.227a.82.82 0 0 1-.21.705.92.92 0 0 1-.692.28z" class="B"/><path d="M417.084 139.393a.79.79 0 0 1-.634-.28c-.161-.187-.231-.424-.211-.705l.254-2.227c.017-.057.01-.094-.03-.114s-.083-.01-.14.03l-1.834 1.323c-.223.17-.461.23-.704.183s-.441-.19-.591-.437c-.171-.301-.201-.565-.101-.788s.281-.384.525-.478l2.057-.932c.057-.02.083-.046.083-.083s-.026-.067-.083-.087l-2.057-.928c-.264-.114-.434-.294-.508-.538a.91.91 0 0 1 .084-.731c.15-.244.347-.391.591-.438s.481.003.704.154l1.834 1.356c.057.036.103.046.14.026s.047-.056.03-.113l-.254-2.228c-.02-.28.057-.517.224-.704s.397-.281.678-.281a.83.83 0 0 1 .648.281c.17.187.237.424.197.704l-.254 2.228c-.017.057-.01.093.03.113s.084.01.14-.026l1.834-1.326c.224-.171.464-.231.718-.184a.8.8 0 0 1 .578.438c.17.3.203.561.1.788s-.277.384-.524.481l-2.058.928c-.056.02-.083.047-.083.087s.027.063.083.083l2.058.932c.263.11.44.291.524.534a.83.83 0 0 1-.1.732.79.79 0 0 1-.578.437.94.94 0 0 1-.718-.153l-1.834-1.353c-.056-.04-.103-.047-.14-.03s-.047.057-.03.114l.254 2.227c.04.281-.03.518-.21.705a.92.92 0 0 1-.692.28z" fill="#67acff"/><defs ><path id="B" d="M126.046 117.044a3.36 3.36 0 0 1-3.357 3.357 3.36 3.36 0 0 1-3.356-3.357 3.36 3.36 0 0 1 3.356-3.356 3.36 3.36 0 0 1 3.357 3.356z"/><path id="C" d="M385.996 66.412h-96.459c-.935 0-1.693-.758-1.693-1.693s.758-1.693 1.693-1.693h96.459c.935 0 1.693.758 1.693 1.693s-.758 1.693-1.693 1.693z"/></defs></svg>