<svg width="48" height="48" viewBox="0 0 48 48" fill="none" xmlns="http://www.w3.org/2000/svg">
<path d="M29.9496 6.03783L31.8692 2.57465C31.8938 2.53022 31.9095 2.48137 31.9152 2.4309C31.921 2.38042 31.9167 2.32931 31.9027 2.28048C31.8887 2.23164 31.8652 2.18604 31.8336 2.14629C31.802 2.10653 31.7629 2.07339 31.7184 2.04876C31.6287 1.99901 31.5229 1.98695 31.4243 2.01523C31.3256 2.0435 31.2423 2.1098 31.1925 2.19953L29.2516 5.70109C27.5956 4.9751 25.8071 4.60029 23.9989 4.60029C22.1907 4.60029 20.4022 4.9751 18.7461 5.70109L16.8052 2.19953C16.7554 2.1098 16.6721 2.0435 16.5735 2.01523C16.4748 1.98695 16.369 1.99901 16.2793 2.04876C16.1896 2.0985 16.1233 2.18185 16.095 2.28048C16.0667 2.3791 16.0788 2.48492 16.1285 2.57465L18.0482 6.03785C16.2209 6.93859 14.6769 8.32518 13.5856 10.0455C12.4944 11.7659 11.898 13.7536 11.8619 15.7905H36.1359C36.0998 13.7536 35.5034 11.7659 34.4121 10.0455C33.3209 8.32517 31.7769 6.93857 29.9496 6.03783ZM18.3971 11.349C18.1966 11.349 18.0006 11.2896 17.834 11.1782C17.6673 11.0668 17.5373 10.9085 17.4606 10.7233C17.3839 10.5381 17.3638 10.3343 17.403 10.1377C17.4421 9.94106 17.5386 9.76046 17.6804 9.6187C17.8221 9.47695 18.0027 9.38041 18.1993 9.3413C18.396 9.30219 18.5998 9.32226 18.785 9.39898C18.9702 9.4757 19.1285 9.60561 19.2399 9.7723C19.3512 9.93899 19.4107 10.135 19.4107 10.3354C19.4104 10.6042 19.3035 10.8618 19.1135 11.0518C18.9234 11.2418 18.6658 11.3487 18.3971 11.349ZM29.6006 11.349C29.4002 11.349 29.2042 11.2896 29.0375 11.1782C28.8708 11.0668 28.7409 10.9085 28.6642 10.7233C28.5875 10.5381 28.5674 10.3343 28.6065 10.1377C28.6456 9.94106 28.7422 9.76046 28.8839 9.6187C29.0257 9.47695 29.2063 9.38041 29.4029 9.3413C29.5995 9.30219 29.8033 9.32226 29.9885 9.39898C30.1737 9.4757 30.332 9.60561 30.4434 9.7723C30.5548 9.93899 30.6142 10.135 30.6142 10.3354C30.6139 10.6042 30.507 10.8618 30.317 11.0518C30.127 11.2418 29.8694 11.3487 29.6006 11.349ZM11.8617 34.343C11.8617 35.1212 12.1709 35.8676 12.7211 36.4179C13.2714 36.9681 14.0178 37.2773 14.796 37.2773H16.7432V43.2792C16.7422 43.6371 16.8119 43.9917 16.9482 44.3227C17.0845 44.6537 17.2847 44.9545 17.5375 45.2079C17.7903 45.4614 18.0905 45.6625 18.4211 45.7997C18.7517 45.9369 19.1062 46.0075 19.4641 46.0075C19.822 46.0075 20.1764 45.9369 20.507 45.7997C20.8376 45.6625 21.1379 45.4614 21.3907 45.2079C21.6434 44.9545 21.8437 44.6537 21.98 44.3227C22.1163 43.9917 22.186 43.6371 22.185 43.2792V37.2773H25.8127V43.2792C25.8117 43.6371 25.8814 43.9917 26.0177 44.3227C26.154 44.6537 26.3543 44.9545 26.607 45.2079C26.8598 45.4614 27.1601 45.6625 27.4907 45.7997C27.8213 45.9369 28.1757 46.0075 28.5336 46.0075C28.8916 46.0075 29.246 45.9369 29.5766 45.7997C29.9072 45.6625 30.2075 45.4614 30.4602 45.2079C30.713 44.9545 30.9132 44.6537 31.0495 44.3227C31.1858 43.9917 31.2555 43.6371 31.2545 43.2792V37.2773H33.2018C33.98 37.2773 34.7264 36.9681 35.2766 36.4179C35.8269 35.8676 36.1361 35.1212 36.1361 34.343V16.7507H11.8617V34.343ZM8.12716 16.2839C7.40578 16.2847 6.71418 16.5717 6.20409 17.0818C5.694 17.5919 5.40708 18.2835 5.40626 19.0048V30.3418C5.40529 30.6997 5.47495 31.0543 5.61126 31.3853C5.74756 31.7162 5.94783 32.0171 6.20058 32.2705C6.45334 32.524 6.75362 32.725 7.08421 32.8622C7.41481 32.9994 7.76923 33.0701 8.12717 33.0701C8.48511 33.0701 8.83953 32.9994 9.17012 32.8622C9.50072 32.725 9.801 32.524 10.0538 32.2705C10.3065 32.0171 10.5068 31.7162 10.6431 31.3853C10.7794 31.0543 10.8491 30.6997 10.8481 30.3418V19.0048C10.8473 18.2835 10.5603 17.5919 10.0502 17.0818C9.54014 16.5717 8.84854 16.2847 8.12716 16.2839ZM39.8706 16.2839C39.1492 16.2847 38.4576 16.5717 37.9475 17.0818C37.4374 17.5919 37.1504 18.2835 37.1496 19.0048V30.3418C37.1487 30.6997 37.2183 31.0543 37.3546 31.3853C37.4909 31.7162 37.6912 32.0171 37.944 32.2705C38.1967 32.524 38.497 32.725 38.8276 32.8622C39.1582 32.9994 39.5126 33.0701 39.8705 33.0701C40.2285 33.0701 40.5829 32.9994 40.9135 32.8622C41.2441 32.725 41.5444 32.524 41.7971 32.2705C42.0499 32.0171 42.2502 31.7162 42.3865 31.3853C42.5228 31.0543 42.5924 30.6997 42.5915 30.3418V19.0048C42.5906 18.2835 42.3037 17.5919 41.7936 17.0818C41.2835 16.5717 40.5919 16.2847 39.8706 16.2839Z" fill="#337AB7"/>
</svg>
