<svg width="68" height="62" viewBox="0 0 68 62" fill="none" xmlns="http://www.w3.org/2000/svg">
<path d="M48.4531 3.38854C39.276 -0.202064 26.5677 1.16213 19.5448 7.57353C14.5862 12.1004 18.424 13.3906 21.8048 21.6742C24.2516 27.6693 0 26.8441 0 37.6774C0 50.2015 17.5646 47.8275 24.0828 49.261C34.0485 51.453 42.7424 59.6525 53.3903 58.5716C62.6599 57.6305 66.1939 50.3565 67.4829 42.0176C69.8839 26.4817 63.986 9.46604 48.4531 3.38854Z" fill="url(#paint0_linear_14_307)"/>
<path opacity="0.1" d="M46.2334 61.2444H21.203C19.0025 61.2444 17.2188 59.4606 17.2188 57.2601V6.70119C17.2188 4.50059 19.0025 2.7168 21.203 2.7168H46.2334C48.434 2.7168 50.2178 4.50059 50.2178 6.70119V57.2599C50.2178 59.4605 48.434 61.2444 46.2334 61.2444Z" fill="#2626BC"/>
<path d="M17.2188 3C17.2188 1.3431 18.5618 0 20.2188 0H47.2174C48.8742 0 50.2174 1.3431 50.2174 3V49.3585C50.2174 51.0154 48.8742 52.3585 47.2174 52.3585H20.2188C18.5618 52.3585 17.2188 51.0154 17.2188 49.3585V3Z" fill="#2D58E0"/>
<path d="M31.4885 22.5308H24.7226C23.9891 22.5308 23.3945 21.9362 23.3945 21.2027V14.9591C23.3945 14.2255 23.9891 13.6309 24.7226 13.6309H31.4885C32.222 13.6309 32.8166 14.2255 32.8166 14.9591V21.2027C32.8166 21.9362 32.222 22.5308 31.4885 22.5308Z" fill="#1F50C9"/>
<path d="M42.7698 22.4936H36.0039C35.2704 22.4936 34.6758 21.8991 34.6758 21.1656V14.9219C34.6758 14.1883 35.2704 13.5938 36.0039 13.5938H42.7698C43.5033 13.5938 44.0979 14.1883 44.0979 14.9219V21.1656C44.0979 21.8991 43.5033 22.4936 42.7698 22.4936Z" fill="#1F50C9"/>
<path d="M50.1785 13.5938V22.4935H47.3164C46.5833 22.4935 45.9883 21.8986 45.9883 21.1655V14.9219C45.9883 14.1887 46.5833 13.5938 47.3164 13.5938H50.1785Z" fill="#1F50C9"/>
<path d="M40.8676 8.07422H26.5663C26.1996 8.07422 25.9023 8.37162 25.9023 8.73832C25.9023 9.10502 26.1996 9.40232 26.5663 9.40232H40.8676C41.2343 9.40232 41.5316 9.10502 41.5316 8.73832C41.5316 8.37162 41.2344 8.07422 40.8676 8.07422Z" fill="white"/>
<path d="M31.4885 21.1343H24.7226C23.9891 21.1343 23.3945 20.5397 23.3945 19.8061V13.5625C23.3945 12.829 23.9891 12.2344 24.7226 12.2344H31.4885C32.222 12.2344 32.8166 12.829 32.8166 13.5625V19.8061C32.8166 20.5397 32.222 21.1343 31.4885 21.1343Z" fill="#FF7EB8"/>
<path d="M30.0748 18.3574H27.3281C26.9615 18.3574 26.6641 18.6548 26.6641 19.0215C26.6641 19.3882 26.9615 19.6855 27.3281 19.6855H30.0748C30.4415 19.6855 30.7389 19.3882 30.7389 19.0215C30.7389 18.6548 30.4415 18.3574 30.0748 18.3574Z" fill="white"/>
<path d="M30.0747 16.1895H29.3202C28.9535 16.1895 28.6562 16.4869 28.6562 16.8536C28.6562 17.2203 28.9535 17.5177 29.3202 17.5177H30.0747C30.4414 17.5177 30.7388 17.2203 30.7388 16.8536C30.7388 16.4869 30.4414 16.1895 30.0747 16.1895Z" fill="white"/>
<path d="M42.7659 21.0974H36C35.2665 21.0974 34.6719 20.5028 34.6719 19.7693V13.5255C34.6719 12.7919 35.2665 12.1973 36 12.1973H42.7659C43.4994 12.1973 44.094 12.7919 44.094 13.5255V19.7691C44.094 20.5026 43.4994 21.0974 42.7659 21.0974Z" fill="#02FFB3"/>
<path d="M41.3522 18.3203H38.6055C38.2388 18.3203 37.9414 18.6177 37.9414 18.9844C37.9414 19.3511 38.2388 19.6484 38.6055 19.6484H41.3522C41.7189 19.6484 42.0162 19.3511 42.0162 18.9844C42.0162 18.6177 41.7189 18.3203 41.3522 18.3203Z" fill="white"/>
<path d="M41.3522 16.1523H40.5977C40.231 16.1523 39.9336 16.4497 39.9336 16.8164C39.9336 17.1831 40.231 17.4804 40.5977 17.4804H41.3522C41.7189 17.4804 42.0162 17.1831 42.0162 16.8164C42.0162 16.4497 41.7189 16.1523 41.3522 16.1523Z" fill="white"/>
<path d="M50.1785 12.1973V21.0971H47.3164C46.5833 21.0971 45.9883 20.5021 45.9883 19.769V13.5255C45.9883 12.7923 46.5833 12.1973 47.3164 12.1973H50.1785Z" fill="#9FB0FE"/>
<path d="M17.7188 59.2444V28.8816C17.7188 27.7718 18.0605 26.7854 18.5896 26.0873C19.1185 25.3895 19.8124 25.002 20.539 25.002H46.897C47.6236 25.002 48.3176 25.3895 48.8464 26.0873C49.3756 26.7854 49.7174 27.7718 49.7174 28.8816V59.2444C49.7174 60.0729 49.0458 60.7444 48.2174 60.7444H19.2188C18.3903 60.7444 17.7188 60.0729 17.7188 59.2444Z" fill="white" stroke="#2D58E0"/>
<path d="M30.8755 28.793H28.1288C27.7621 28.793 27.4648 29.0903 27.4648 29.457C27.4648 29.8237 27.7621 30.1211 28.1288 30.1211H30.8755C31.2422 30.1211 31.5396 29.8237 31.5396 29.457C31.5396 29.0903 31.2422 28.793 30.8755 28.793Z" fill="#00D890"/>
<path d="M44.4224 31.4863H28.1288C27.7621 31.4863 27.4648 31.7837 27.4648 32.1504C27.4648 32.5171 27.7621 32.8144 28.1288 32.8144H44.4224C44.7891 32.8144 45.0865 32.5171 45.0865 32.1504C45.0865 31.7837 44.7891 31.4863 44.4224 31.4863Z" fill="#9FB0FE"/>
<path d="M24.2783 32.8154H21.586C21.2193 32.8154 20.9219 32.518 20.9219 32.1513V29.459C20.9219 29.0923 21.2193 28.7949 21.586 28.7949H24.2783C24.645 28.7949 24.9424 29.0923 24.9424 29.459V32.1513C24.9424 32.518 24.645 32.8154 24.2783 32.8154Z" fill="#02FFB3"/>
<path d="M30.8755 37.0195H28.1288C27.7621 37.0195 27.4648 37.3169 27.4648 37.6836C27.4648 38.0503 27.7621 38.3476 28.1288 38.3476H30.8755C31.2422 38.3476 31.5396 38.0503 31.5396 37.6836C31.5396 37.3169 31.2422 37.0195 30.8755 37.0195Z" fill="#FF5BA8"/>
<path d="M44.4224 39.7129H28.1288C27.7621 39.7129 27.4648 40.0102 27.4648 40.3769C27.4648 40.7436 27.7621 41.041 28.1288 41.041H44.4224C44.7891 41.041 45.0865 40.7436 45.0865 40.3769C45.0865 40.0102 44.7891 39.7129 44.4224 39.7129Z" fill="#9FB0FE"/>
<path d="M24.2783 41.04H21.586C21.2193 41.04 20.9219 40.7426 20.9219 40.376V37.6836C20.9219 37.3169 21.2193 37.0195 21.586 37.0195H24.2783C24.645 37.0195 24.9424 37.3169 24.9424 37.6836V40.376C24.9424 40.7426 24.645 41.04 24.2783 41.04Z" fill="#FF7EB8"/>
<path d="M30.8755 45.2461H28.1288C27.7621 45.2461 27.4648 45.5434 27.4648 45.9101C27.4648 46.2768 27.7621 46.5742 28.1288 46.5742H30.8755C31.2422 46.5742 31.5396 46.2768 31.5396 45.9101C31.5396 45.5434 31.2422 45.2461 30.8755 45.2461Z" fill="#6583FE"/>
<path d="M44.4224 47.9395H28.1288C27.7621 47.9395 27.4648 48.2369 27.4648 48.6036C27.4648 48.9703 27.7621 49.2677 28.1288 49.2677H44.4224C44.7891 49.2677 45.0865 48.9703 45.0865 48.6036C45.0865 48.2369 44.7891 47.9395 44.4224 47.9395Z" fill="#9FB0FE"/>
<path d="M24.2783 49.2666H21.586C21.2193 49.2666 20.9219 48.9692 20.9219 48.6025V45.9101C20.9219 45.5434 21.2193 45.2461 21.586 45.2461H24.2783C24.645 45.2461 24.9424 45.5434 24.9424 45.9101V48.6025C24.9424 48.9692 24.645 49.2666 24.2783 49.2666Z" fill="#9FB0FE"/>
<path d="M55.2769 48.4721C54.2304 48.4721 53.3789 47.6206 53.3789 46.5739C53.3789 45.5272 54.2304 44.6758 55.2769 44.6758C56.3235 44.6758 57.175 45.5272 57.175 46.5739C57.175 47.6206 56.3235 48.4721 55.2769 48.4721ZM55.2769 46.004C54.9627 46.004 54.7071 46.2597 54.7071 46.5741C54.7071 46.8884 54.9627 47.1441 55.2769 47.1441C55.5912 47.1441 55.8468 46.8884 55.8468 46.5741C55.8468 46.2597 55.5912 46.004 55.2769 46.004Z" fill="#6583FE"/>
<path d="M10.7305 20.207C10.3638 20.207 10.0664 19.9096 10.0664 19.543C10.0664 19.1035 9.70897 18.7461 9.26957 18.7461C8.90287 18.7461 8.60547 18.4487 8.60547 18.082C8.60547 17.7153 8.90287 17.418 9.26957 17.418C9.70897 17.418 10.0664 17.0606 10.0664 16.6211C10.0664 16.2544 10.3638 15.957 10.7305 15.957C11.0972 15.957 11.3946 16.2544 11.3946 16.6211C11.3946 17.0606 11.752 17.418 12.1914 17.418C12.5581 17.418 12.8555 17.7153 12.8555 18.082C12.8555 18.4487 12.5581 18.7461 12.1914 18.7461C11.752 18.7461 11.3946 19.1035 11.3946 19.543C11.3946 19.9096 11.0972 20.207 10.7305 20.207Z" fill="#01ECA5"/>
<path d="M57.1797 54.4824C56.8129 54.4824 56.5157 54.185 56.5157 53.8183C56.5157 53.3789 56.1583 53.0215 55.7188 53.0215C55.3519 53.0215 55.0547 52.7241 55.0547 52.3574C55.0547 51.9907 55.3519 51.6933 55.7188 51.6933C56.1583 51.6933 56.5157 51.3359 56.5157 50.8965C56.5157 50.5298 56.8129 50.2324 57.1797 50.2324C57.5465 50.2324 57.8438 50.5298 57.8438 50.8965C57.8438 51.3359 58.2012 51.6933 58.6407 51.6933C59.0075 51.6933 59.3047 51.9907 59.3047 52.3574C59.3047 52.7241 59.0075 53.0215 58.6407 53.0215C58.2012 53.0215 57.8438 53.3789 57.8438 53.8183C57.8438 54.185 57.5465 54.4824 57.1797 54.4824Z" fill="#01ECA5"/>
<path d="M58.6406 15.7188C58.2737 15.7188 57.9765 15.4214 57.9765 15.0547C57.9765 14.6152 57.6191 14.2579 57.1796 14.2579C56.8128 14.2579 56.5156 13.9604 56.5156 13.5938C56.5156 13.2271 56.8128 12.9297 57.1796 12.9297C57.6191 12.9297 57.9765 12.5724 57.9765 12.1329C57.9765 11.7662 58.2737 11.4688 58.6406 11.4688C59.0074 11.4688 59.3046 11.7662 59.3046 12.1329C59.3046 12.5724 59.662 12.9297 60.1015 12.9297C60.4683 12.9297 60.7656 13.2271 60.7656 13.5938C60.7656 13.9604 60.4683 14.2579 60.1015 14.2579C59.662 14.2579 59.3046 14.6152 59.3046 15.0547C59.3046 15.4214 59.0074 15.7188 58.6406 15.7188Z" fill="#FF5BA8"/>
<path d="M9.36328 26.7539C8.99658 26.7539 8.69918 26.4565 8.69918 26.0898C8.69918 25.6503 8.34178 25.2929 7.90238 25.2929C7.53568 25.2929 7.23828 24.9956 7.23828 24.6289C7.23828 24.2622 7.53568 23.9648 7.90238 23.9648C8.34178 23.9648 8.69918 23.6074 8.69918 23.1679C8.69918 22.8013 8.99658 22.5039 9.36328 22.5039C9.72998 22.5039 10.0274 22.8013 10.0274 23.1679C10.0274 23.6074 10.3848 23.9648 10.8242 23.9648C11.1909 23.9648 11.4883 24.2622 11.4883 24.6289C11.4883 24.9956 11.1909 25.2929 10.8242 25.2929C10.3848 25.2929 10.0274 25.6503 10.0274 26.0898C10.0274 26.4565 9.73008 26.7539 9.36328 26.7539Z" fill="#FF5BA8"/>
<defs>
<linearGradient id="paint0_linear_14_307" x1="68.2269" y1="9.41814" x2="16.4331" y2="50.4552" gradientUnits="userSpaceOnUse">
<stop stop-color="#C7D3FF"/>
<stop offset="0.593" stop-color="#E7D8F5"/>
<stop offset="0.997" stop-color="#FFDBED"/>
</linearGradient>
</defs>
</svg>
