<svg width="452" height="134" viewBox="0 0 452 134" fill="none" xmlns="http://www.w3.org/2000/svg">
<path d="M451.975 120.627C451.975 127.993 446.169 133.959 438.987 133.959H13.9787C6.80087 133.959 0.974609 127.993 0.974609 120.627V14.3084C0.974609 6.94621 6.80087 0.958984 13.9787 0.958984H438.984C446.169 0.958984 451.971 6.94621 451.971 14.3084L451.975 120.627Z" fill="black"/>
<path d="M100.009 66.7284C99.9105 55.5094 108.948 50.0512 109.361 49.7971C104.243 42.1286 96.3098 41.0808 93.522 40.9973C86.859 40.2767 80.3959 45.0944 77.0018 45.0944C73.5399 45.0944 68.3132 41.0669 62.6801 41.1853C55.4311 41.3001 48.6496 45.613 44.9303 52.3104C37.2545 65.9661 42.9792 86.0338 50.3331 97.0718C54.0118 102.478 58.3104 108.514 63.9368 108.301C69.4412 108.068 71.4974 104.695 78.14 104.695C84.7216 104.695 86.6524 108.301 92.3906 108.166C98.2981 108.068 102.017 102.735 105.567 97.2807C109.819 91.0846 111.526 84.9825 111.594 84.6692C111.455 84.6205 100.121 80.1753 100.009 66.7284Z" fill="white"/>
<path d="M89.1678 33.7363C92.1283 29.9316 94.154 24.7554 93.5917 19.5027C89.3067 19.6976 83.9479 22.5485 80.862 26.2696C78.1318 29.5487 75.6929 34.9233 76.3229 39.9776C81.1363 40.3466 86.0785 37.4818 89.1678 33.7363Z" fill="white"/>
<path d="M179.674 107.525H171.981L167.768 93.9181H153.121L149.107 107.525H141.617L156.129 61.2007H165.092L179.674 107.525ZM166.497 88.2093L162.687 76.1131C162.283 74.8773 161.528 71.9673 160.414 67.3863H160.278C159.834 69.3565 159.12 72.2666 158.137 76.1131L154.394 88.2093H166.497V88.2093Z" fill="white"/>
<path d="M216.996 90.4126C216.996 96.0935 215.502 100.584 212.514 103.88C209.838 106.815 206.515 108.28 202.549 108.28C198.267 108.28 195.192 106.7 193.318 103.539H193.183V121.135H185.961V85.1181C185.961 81.5466 185.87 77.8812 185.693 74.1218H192.045L192.448 79.4163H192.583C194.992 75.4271 198.647 73.436 203.552 73.436C207.386 73.436 210.587 74.992 213.148 78.1075C215.716 81.2264 216.996 85.3269 216.996 90.4126ZM209.639 90.6841C209.639 87.4329 208.927 84.7526 207.498 82.6431C205.936 80.4432 203.839 79.3432 201.211 79.3432C199.429 79.3432 197.81 79.9558 196.364 81.1637C194.914 82.3821 193.965 83.9729 193.522 85.9431C193.298 86.862 193.186 87.6139 193.186 88.2057V93.7752C193.186 96.2049 193.911 98.2552 195.361 99.9295C196.811 101.604 198.694 102.439 201.011 102.439C203.731 102.439 205.848 101.36 207.362 99.209C208.88 97.0543 209.639 94.2138 209.639 90.6841Z" fill="white"/>
<path d="M254.379 90.4126C254.379 96.0935 252.885 100.584 249.894 103.88C247.222 106.815 243.899 108.28 239.932 108.28C235.651 108.28 232.575 106.7 230.705 103.539H230.57V121.135H223.348V85.1181C223.348 81.5466 223.256 77.8812 223.08 74.1218H229.431L229.834 79.4163H229.97C232.375 75.4271 236.03 73.436 240.938 73.436C244.769 73.436 247.97 74.992 250.538 78.1075C253.095 81.2264 254.379 85.3269 254.379 90.4126ZM247.022 90.6841C247.022 87.4329 246.307 84.7526 244.878 82.6431C243.316 80.4432 241.226 79.3432 238.594 79.3432C236.809 79.3432 235.193 79.9558 233.743 81.1637C232.294 82.3821 231.349 83.9729 230.905 85.9431C230.685 86.862 230.57 87.6139 230.57 88.2057V93.7752C230.57 96.2049 231.294 98.2552 232.737 99.9295C234.187 101.6 236.071 102.439 238.394 102.439C241.114 102.439 243.232 101.36 244.746 99.209C246.263 97.0543 247.022 94.2138 247.022 90.6841Z" fill="white"/>
<path d="M296.179 94.5341C296.179 98.4745 294.848 101.68 292.175 104.155C289.238 106.86 285.15 108.211 279.896 108.211C275.045 108.211 271.157 107.25 268.213 105.325L269.886 99.1393C273.057 101.11 276.536 102.098 280.326 102.098C283.046 102.098 285.163 101.465 286.684 100.205C288.198 98.9444 288.954 97.2527 288.954 95.1432C288.954 93.2635 288.33 91.6797 287.08 90.3952C285.837 89.1107 283.761 87.9168 280.861 86.8133C272.969 83.7884 269.026 79.3571 269.026 73.53C269.026 69.7219 270.408 66.5995 273.175 64.1698C275.933 61.7366 279.611 60.5217 284.211 60.5217C288.313 60.5217 291.721 61.2562 294.441 62.7217L292.636 68.7716C290.095 67.3513 287.223 66.6412 284.008 66.6412C281.468 66.6412 279.483 67.2852 278.06 68.5662C276.857 69.7114 276.254 71.1073 276.254 72.7607C276.254 74.5917 276.942 76.1059 278.324 77.2964C279.527 78.3964 281.712 79.5869 284.882 80.8713C288.761 82.4761 291.609 84.3523 293.442 86.5035C295.268 88.6478 296.179 91.3316 296.179 94.5341Z" fill="white"/>
<path d="M320.057 79.6915H312.097V95.9093C312.097 100.034 313.5 102.095 316.311 102.095C317.602 102.095 318.672 101.98 319.519 101.75L319.719 107.386C318.296 107.932 316.423 108.207 314.102 108.207C311.25 108.207 309.021 107.313 307.412 105.527C305.81 103.738 305.004 100.737 305.004 96.5219V79.6846H300.262V74.1151H305.004V67.999L312.097 65.7991V74.1151H320.057V79.6915Z" fill="white"/>
<path d="M355.975 90.5481C355.975 95.6825 354.545 99.8979 351.693 103.194C348.702 106.588 344.732 108.28 339.783 108.28C335.014 108.28 331.216 106.654 328.384 103.403C325.553 100.152 324.137 96.048 324.137 91.1015C324.137 85.9254 325.593 81.6856 328.517 78.3891C331.433 75.0892 335.369 73.4392 340.318 73.4392C345.088 73.4392 348.925 75.0648 351.822 78.3195C354.592 81.4767 355.975 85.5529 355.975 90.5481ZM348.482 90.7882C348.482 87.7076 347.841 85.0656 346.544 82.8621C345.03 80.1957 342.865 78.866 340.061 78.866C337.158 78.866 334.953 80.1992 333.438 82.8621C332.141 85.0691 331.501 87.7529 331.501 90.9275C331.501 94.0081 332.141 96.6502 333.438 98.8501C335 101.517 337.181 102.846 339.996 102.846C342.754 102.846 344.918 101.489 346.48 98.7805C347.811 96.5353 348.482 93.8654 348.482 90.7882Z" fill="white"/>
<path d="M379.443 80.6486C378.729 80.5128 377.967 80.4432 377.167 80.4432C374.627 80.4432 372.662 81.4283 371.28 83.402C370.077 85.1425 369.474 87.3424 369.474 89.9984V107.525H362.256L362.324 84.6412C362.324 80.7913 362.232 77.286 362.053 74.1253H368.343L368.607 80.5163H368.807C369.569 78.3198 370.772 76.5515 372.418 75.2252C374.027 74.0313 375.765 73.436 377.638 73.436C378.305 73.436 378.908 73.4848 379.443 73.5718V80.6486Z" fill="white"/>
<path d="M411.749 89.2427C411.749 90.5724 411.664 91.6933 411.485 92.6088H389.819C389.904 95.9087 390.95 98.4324 392.962 100.173C394.788 101.729 397.149 102.509 400.049 102.509C403.257 102.509 406.183 101.983 408.815 100.928L409.947 106.08C406.871 107.458 403.24 108.144 399.05 108.144C394.009 108.144 390.053 106.62 387.173 103.574C384.301 100.528 382.861 96.4378 382.861 91.3069C382.861 86.2699 384.199 82.0754 386.879 78.7302C389.683 75.1588 393.474 73.373 398.243 73.373C402.928 73.373 406.475 75.1588 408.883 78.7302C410.79 81.5672 411.749 85.076 411.749 89.2427ZM404.862 87.3177C404.91 85.1178 404.439 83.2172 403.46 81.6124C402.21 79.5482 400.289 78.5179 397.705 78.5179C395.344 78.5179 393.423 79.5239 391.956 81.5428C390.754 83.1475 390.039 85.0725 389.819 87.3142H404.862V87.3177Z" fill="white"/>
<path d="M164.108 32.7019C164.108 36.799 162.912 39.8831 160.524 41.9542C158.312 43.8653 155.169 44.8225 151.097 44.8225C149.078 44.8225 147.351 44.732 145.904 44.551V22.1651C147.791 21.8518 149.823 21.6917 152.018 21.6917C155.897 21.6917 158.82 22.5584 160.792 24.2919C163 26.2517 164.108 29.0539 164.108 32.7019ZM160.365 32.8028C160.365 30.1469 159.681 28.1105 158.312 26.6903C156.944 25.2735 154.945 24.5634 152.313 24.5634C151.195 24.5634 150.244 24.64 149.454 24.8001V41.8185C149.891 41.8881 150.691 41.9194 151.853 41.9194C154.569 41.9194 156.666 41.1432 158.143 39.5907C159.62 38.0382 160.365 35.7756 160.365 32.8028Z" fill="white"/>
<path d="M183.952 36.28C183.952 38.8036 183.251 40.8713 181.848 42.4934C180.378 44.1608 178.431 44.9928 175.998 44.9928C173.654 44.9928 171.788 44.1956 170.396 42.5944C169.007 40.9966 168.312 38.9812 168.312 36.5515C168.312 34.0104 169.027 31.9253 170.463 30.3067C171.9 28.688 173.831 27.877 176.263 27.877C178.607 27.877 180.49 28.6741 181.916 30.2718C183.271 31.8243 183.952 33.8294 183.952 36.28ZM180.27 36.3983C180.27 34.8841 179.951 33.5857 179.318 32.5031C178.573 31.1943 177.513 30.5399 176.134 30.5399C174.708 30.5399 173.624 31.1943 172.879 32.5031C172.242 33.5857 171.927 34.905 171.927 36.4644C171.927 37.9787 172.245 39.2771 172.879 40.3596C173.648 41.6685 174.718 42.3229 176.1 42.3229C177.455 42.3229 178.519 41.658 179.284 40.3248C179.941 39.2214 180.27 37.9125 180.27 36.3983Z" fill="white"/>
<path d="M210.569 28.2119L205.573 44.6211H202.321L200.251 37.4956C199.726 35.7168 199.3 33.9485 198.968 32.1941H198.903C198.595 33.9972 198.168 35.7621 197.619 37.4956L195.421 44.6211H192.132L187.434 28.2119H191.082L192.887 36.0127C193.324 37.8576 193.683 39.6155 193.971 41.2794H194.036C194.3 39.9079 194.737 38.1605 195.353 36.0475L197.619 28.2154H200.512L202.683 35.8804C203.209 37.7497 203.635 39.5494 203.964 41.2829H204.062C204.303 39.5946 204.665 37.795 205.146 35.8804L207.084 28.2154H210.569V28.2119Z" fill="white"/>
<path d="M228.971 44.6207H225.421V35.2222C225.421 32.326 224.351 30.878 222.203 30.878C221.15 30.878 220.3 31.2748 219.639 32.0719C218.985 32.8691 218.653 33.8089 218.653 34.8845V44.6173H215.103V32.9004C215.103 31.4593 215.059 29.8963 214.975 28.2046H218.094L218.26 30.7701H218.359C218.772 29.9729 219.388 29.315 220.198 28.7894C221.16 28.1767 222.237 27.8669 223.416 27.8669C224.906 27.8669 226.146 28.3612 227.132 29.3533C228.358 30.5682 228.971 32.3817 228.971 34.7905V44.6207V44.6207Z" fill="white"/>
<path d="M238.759 44.6206H235.213V20.6821H238.759V44.6206Z" fill="white"/>
<path d="M259.657 36.28C259.657 38.8036 258.956 40.8713 257.553 42.4934C256.083 44.1608 254.132 44.9928 251.704 44.9928C249.356 44.9928 247.49 44.1956 246.101 42.5944C244.712 40.9966 244.018 38.9812 244.018 36.5515C244.018 34.0104 244.732 31.9253 246.169 30.3067C247.605 28.688 249.536 27.877 251.964 27.877C254.312 27.877 256.192 28.6741 257.621 30.2718C258.976 31.8243 259.657 33.8294 259.657 36.28ZM255.972 36.3983C255.972 34.8841 255.653 33.5857 255.02 32.5031C254.278 31.1943 253.214 30.5399 251.839 30.5399C250.41 30.5399 249.326 31.1943 248.584 32.5031C247.947 33.5857 247.632 34.905 247.632 36.4644C247.632 37.9787 247.95 39.2771 248.584 40.3596C249.353 41.6685 250.423 42.3229 251.805 42.3229C253.16 42.3229 254.22 41.658 254.986 40.3248C255.646 39.2214 255.972 37.9125 255.972 36.3983Z" fill="white"/>
<path d="M276.836 44.6203H273.648L273.384 42.7302H273.286C272.195 44.2374 270.64 44.9928 268.621 44.9928C267.114 44.9928 265.894 44.495 264.977 43.5064C264.143 42.6083 263.727 41.4909 263.727 40.1647C263.727 38.1597 264.54 36.6315 266.176 35.5733C267.808 34.5151 270.105 33.9965 273.062 34.0208V33.7145C273.062 31.5528 271.958 30.4737 269.746 30.4737C268.171 30.4737 266.782 30.881 265.583 31.6886L264.861 29.2937C266.345 28.3504 268.178 27.877 270.339 27.877C274.512 27.877 276.605 30.1396 276.605 34.6648V40.7077C276.605 42.3472 276.683 43.6526 276.836 44.6203ZM273.15 38.9812V36.4505C269.234 36.3809 267.277 37.4844 267.277 39.7574C267.277 40.6137 267.5 41.2542 267.957 41.6824C268.415 42.1105 268.997 42.3229 269.692 42.3229C270.471 42.3229 271.199 42.0688 271.863 41.564C272.53 41.0558 272.94 40.4118 273.093 39.6217C273.13 39.4441 273.15 39.2283 273.15 38.9812Z" fill="white"/>
<path d="M297.011 44.6206H293.86L293.694 41.9855H293.596C292.59 43.9905 290.876 44.9931 288.468 44.9931C286.544 44.9931 284.942 44.2168 283.671 42.6643C282.401 41.1118 281.768 39.0963 281.768 36.6214C281.768 33.9654 282.455 31.8142 283.837 30.1712C285.175 28.6396 286.815 27.8738 288.766 27.8738C290.91 27.8738 292.411 28.6152 293.264 30.1016H293.332V20.6821H296.885V40.1998C296.885 41.7975 296.926 43.27 297.011 44.6206ZM293.332 37.7005V34.9645C293.332 34.491 293.298 34.1081 293.234 33.8157C293.034 32.9385 292.604 32.2006 291.95 31.6053C291.289 31.0101 290.493 30.7107 289.575 30.7107C288.251 30.7107 287.214 31.2503 286.452 32.3329C285.697 33.4154 285.314 34.7974 285.314 36.4856C285.314 38.1077 285.677 39.4235 286.405 40.4365C287.174 41.5156 288.21 42.0551 289.508 42.0551C290.673 42.0551 291.604 41.6061 292.312 40.7045C292.997 39.8726 293.332 38.8701 293.332 37.7005Z" fill="white"/>
<path d="M327.374 36.28C327.374 38.8036 326.673 40.8713 325.27 42.4934C323.8 44.1608 321.856 44.9928 319.42 44.9928C317.08 44.9928 315.213 44.1956 313.818 42.5944C312.429 40.9966 311.734 38.9812 311.734 36.5515C311.734 34.0104 312.449 31.9253 313.885 30.3067C315.322 28.688 317.252 27.877 319.688 27.877C322.029 27.877 323.915 28.6741 325.338 30.2718C326.693 31.8243 327.374 33.8294 327.374 36.28ZM323.695 36.3983C323.695 34.8841 323.377 33.5857 322.743 32.5031C321.995 31.1943 320.938 30.5399 319.556 30.5399C318.133 30.5399 317.049 31.1943 316.301 32.5031C315.664 33.5857 315.349 34.905 315.349 36.4644C315.349 37.9787 315.667 39.2771 316.301 40.3596C317.069 41.6685 318.14 42.3229 319.522 42.3229C320.877 42.3229 321.944 41.658 322.709 40.3248C323.363 39.2214 323.695 37.9125 323.695 36.3983Z" fill="white"/>
<path d="M346.462 44.6207H342.915V35.2222C342.915 32.326 341.845 30.878 339.694 30.878C338.641 30.878 337.79 31.2748 337.133 32.0719C336.476 32.8691 336.147 33.8089 336.147 34.8845V44.6173H332.594V32.9004C332.594 31.4593 332.553 29.8963 332.469 28.2046H335.585L335.751 30.7701H335.849C336.266 29.9729 336.882 29.315 337.689 28.7894C338.654 28.1767 339.728 27.8669 340.91 27.8669C342.397 27.8669 343.637 28.3612 344.623 29.3533C345.852 30.5682 346.462 32.3817 346.462 34.7905V44.6207V44.6207Z" fill="white"/>
<path d="M370.35 30.9442H366.441V38.9155C366.441 40.9415 367.135 41.9544 368.511 41.9544C369.148 41.9544 369.676 41.8987 370.093 41.7838L370.184 44.5512C369.483 44.8227 368.562 44.9585 367.427 44.9585C366.024 44.9585 364.934 44.5199 364.144 43.6427C363.352 42.7655 362.959 41.2895 362.959 39.2184V30.9442H360.625V28.2116H362.959V25.2041L366.438 24.125V28.2082H370.347V30.9442H370.35Z" fill="white"/>
<path d="M389.145 44.6206H385.592V35.2917C385.592 32.3503 384.521 30.8778 382.377 30.8778C380.731 30.8778 379.606 31.7307 378.99 33.4363C378.885 33.7949 378.824 34.2335 378.824 34.7486V44.6171H375.277V20.6821H378.824V30.5715H378.892C380.009 28.7718 381.612 27.8738 383.688 27.8738C385.158 27.8738 386.374 28.3681 387.34 29.3601C388.542 30.5959 389.145 32.4338 389.145 34.8635V44.6206V44.6206Z" fill="white"/>
<path d="M408.53 35.6403C408.53 36.2947 408.483 36.8447 408.398 37.2937H397.752C397.799 38.9158 398.307 40.1516 399.293 41.0079C400.194 41.7737 401.356 42.1566 402.779 42.1566C404.354 42.1566 405.79 41.899 407.084 41.3804L407.64 43.9145C406.125 44.5898 404.344 44.9274 402.281 44.9274C399.808 44.9274 397.86 44.179 396.451 42.6822C395.035 41.1854 394.334 39.1769 394.334 36.6567C394.334 34.1818 394.988 32.121 396.305 30.478C397.681 28.7236 399.54 27.8464 401.888 27.8464C404.184 27.8464 405.929 28.7236 407.108 30.478C408.06 31.8704 408.53 33.5935 408.53 35.6403ZM405.143 34.6969C405.17 33.6144 404.936 32.6815 404.455 31.8948C403.839 30.8818 402.901 30.3736 401.63 30.3736C400.472 30.3736 399.527 30.8679 398.805 31.86C398.216 32.6501 397.867 33.5935 397.752 34.6969H405.143Z" fill="white"/>
</svg>
