<svg width="53" height="53" viewBox="0 0 53 53" fill="none" xmlns="http://www.w3.org/2000/svg">
<g clip-path="url(#clip0_216_1825)">
<path d="M26.5 53C41.1355 53 53 41.1355 53 26.5C53 11.8645 41.1355 0 26.5 0C11.8645 0 0 11.8645 0 26.5C0 41.1355 11.8645 53 26.5 53Z" fill="#58B0E0"/>
<path fill-rule="evenodd" clip-rule="evenodd" d="M19.9434 33.1721L33.5853 33.2759V44.3544L19.9434 44.2507V33.1721Z" fill="#F9DCA4"/>
<path fill-rule="evenodd" clip-rule="evenodd" d="M37.71 50.5173C34.2423 52.1323 30.4667 52.9791 26.6415 52.9998C22.8163 53.0205 19.0318 52.2147 15.5469 50.6373V41.5227H37.7091L37.71 50.5173Z" fill="#E6E6E6"/>
<path fill-rule="evenodd" clip-rule="evenodd" d="M28.6467 52.9142C27.9389 52.9708 27.2234 52.9994 26.5002 53C25.9542 53 25.4124 52.9837 24.875 52.9511L25.7583 45.2429H27.8252L28.6467 52.9142Z" fill="#E9573E"/>
<path fill-rule="evenodd" clip-rule="evenodd" d="M22.0043 52.5987C19.0825 52.0545 16.2608 51.0678 13.6366 49.6725C11.1161 48.2699 8.84036 46.4668 6.89844 44.3339L7.9996 41.6753L19.9418 36.3479C19.9418 40.8177 21.4091 47.9101 22.0043 52.5995V52.5987Z" fill="#677079"/>
<path opacity="0.11" fill-rule="evenodd" clip-rule="evenodd" d="M33.5873 33.2399V36.0109C29.5291 40.7508 21.7755 40.0802 20.0371 33.0847L33.5873 33.2399Z" fill="black"/>
<path fill-rule="evenodd" clip-rule="evenodd" d="M26.6961 7.23145C44.9468 7.23145 37.8338 37.4757 26.6961 37.4757C16.1758 37.4757 8.44537 7.23145 26.6961 7.23145Z" fill="#FFE8BE"/>
<path fill-rule="evenodd" clip-rule="evenodd" d="M15.7501 20.622C13.1173 21.7703 15.3556 27.2135 17.0125 27.1895C16.3253 25.0597 15.9013 22.8539 15.7501 20.6211V20.622ZM37.8549 20.6211C40.4878 21.7694 38.2494 27.2135 36.5934 27.1886C37.2801 25.0591 37.7038 22.8535 37.8549 20.6211Z" fill="#F9DCA4"/>
<path fill-rule="evenodd" clip-rule="evenodd" d="M18.8077 12.2879C15.9484 15.2535 16.9544 23.4625 16.9544 23.4625L16.0539 23.0379C10.4332 1.25992 43.1834 1.25906 37.5309 23.0379L36.6304 23.4625C36.6304 23.4625 37.6373 15.2535 34.778 12.2879C31.2455 15.714 22.3204 15.696 18.8077 12.2879Z" fill="#464449"/>
<path fill-rule="evenodd" clip-rule="evenodd" d="M31.5312 52.5222C37.3264 51.403 42.5812 48.379 46.4604 43.9307L45.5257 41.6744L33.5844 36.3469C33.5844 40.8168 32.1264 47.8328 31.5312 52.5222Z" fill="#677079"/>
<path fill-rule="evenodd" clip-rule="evenodd" d="M33.5864 36.0022L26.7891 41.5466L32.4261 46.6176C32.4261 46.6176 33.9286 38.2954 33.5864 36.0022Z" fill="white"/>
<path fill-rule="evenodd" clip-rule="evenodd" d="M19.9422 36.0022L26.7936 41.5466L21.0948 46.6176C21.0948 46.6176 19.5974 38.2954 19.9422 36.0022Z" fill="white"/>
<path fill-rule="evenodd" clip-rule="evenodd" d="M24.1055 43.9326L26.7958 41.5159L29.4861 43.9326L26.7958 46.3485L24.1055 43.9326Z" fill="#E9573E"/>
<path fill-rule="evenodd" clip-rule="evenodd" d="M22.0981 52.6339C21.003 52.4507 19.9206 52.1986 18.8572 51.8792C18.8239 51.8535 18.7913 51.8269 18.7595 51.7994L15.7278 46.3194L19.6222 43.5236H15.5469L16.4191 37.6481L19.9438 35.4192C20.0965 41.7397 21.4523 48.8459 22.0981 52.6339ZM31.4271 52.5421C31.9314 52.4581 32.4305 52.3415 32.9254 52.2128C33.5103 52.061 34.0917 51.8895 34.6698 51.7163L34.7847 51.6794L37.7957 46.2636L33.9013 43.4833H37.9767L37.1045 37.637L33.5797 35.4192C33.4271 41.7072 32.0721 48.773 31.4271 52.5421Z" fill="#434955"/>
</g>
<defs>
<clipPath id="clip0_216_1825">
<rect width="53" height="53" fill="white"/>
</clipPath>
</defs>
</svg>
