<svg width="12" height="12" viewBox="0 0 12 12" fill="none" xmlns="http://www.w3.org/2000/svg">
<path d="M3.17461 11.2944L6.77189e-06 12L0.705606 8.82539C0.240926 7.95623 -0.00147711 6.98558 6.77189e-06 6C6.77189e-06 2.6862 2.68621 0 6 0C9.3138 0 12 2.6862 12 6C12 9.31379 9.3138 12 6 12C5.01442 12.0015 4.04377 11.7591 3.17461 11.2944V11.2944ZM3.3486 10.0266L3.7404 10.2366C4.43553 10.6081 5.21184 10.8016 6 10.8C6.94935 10.8 7.87738 10.5185 8.66674 9.99105C9.45609 9.46362 10.0713 8.71396 10.4346 7.83688C10.7979 6.95979 10.893 5.99467 10.7078 5.06356C10.5226 4.13246 10.0654 3.27718 9.39411 2.60589C8.72282 1.93459 7.86754 1.47744 6.93644 1.29223C6.00533 1.10702 5.04021 1.20208 4.16312 1.56538C3.28604 1.92868 2.53638 2.54391 2.00895 3.33326C1.48152 4.12262 1.20001 5.05065 1.20001 6C1.20001 6.8004 1.39501 7.5708 1.76401 8.2596L1.97341 8.6514L1.58041 10.4196L3.3486 10.0266V10.0266Z" fill="#337AB7"/>
</svg>
