<svg width="18" height="18" viewBox="0 0 18 18" fill="none" xmlns="http://www.w3.org/2000/svg">
<path d="M14.1306 2.09137C14.3481 2.30317 14.4881 2.5652 14.5498 2.84169C14.6177 2.79172 14.6898 2.74858 14.7642 2.711C14.944 2.35546 14.8853 1.91224 14.5857 1.62038C14.2158 1.26044 13.6233 1.26586 13.2617 1.63717L13.2217 1.67823C13.5631 1.71052 13.8824 1.85 14.1306 2.09137L14.1306 2.09137Z" fill="#337AB7"/>
<path d="M8.79571 4.69144C8.871 4.85532 8.92292 5.0488 8.94217 5.25748L11.993 2.12337C12.1096 2.0034 12.2454 1.91158 12.3901 1.83732C12.5763 1.47996 12.5219 1.02874 12.2188 0.733901C11.8482 0.373203 11.2538 0.383782 10.8942 0.753918L8.02344 3.70295C8.45323 4.1215 8.59698 4.26281 8.79571 4.69141V4.69144Z" fill="#337AB7"/>
<path d="M1.60312 12.0437C1.5813 10.4026 2.19912 8.85186 3.3427 7.6773L6.77876 4.14768C6.91333 3.77161 6.87071 3.39309 6.76468 3.16295C6.60854 2.82652 6.52137 2.74245 6.10746 2.33887L2.24392 6.30787C0.289309 8.31558 0.161461 11.4238 1.8251 13.583C1.69015 13.0867 1.61008 12.5718 1.60323 12.0437H1.60312Z" fill="#337AB7"/>
<path d="M3.75798 8.07848L7.62184 4.10948C8.036 4.51306 8.12318 4.59713 8.27907 4.93356C8.43404 5.27039 8.4631 5.92514 7.98152 6.4239L5.78797 8.69091C5.70299 8.77808 5.70545 8.9182 5.79314 9.00357C5.88057 9.08816 6.02043 9.08725 6.10528 9.00008L12.4087 2.52438C12.7681 2.15426 13.3627 2.14378 13.7334 2.50436C14.1033 2.8643 14.1092 3.45953 13.7499 3.82899L9.18282 8.51839C9.09913 8.60428 9.10197 8.74504 9.18979 8.83092C9.27903 8.91719 9.41825 8.91552 9.50245 8.82925L14.7757 3.4082C15.1371 3.03702 15.7297 3.03146 16.0995 3.39154C16.4688 3.75121 16.4786 4.3436 16.1174 4.71425L10.8425 10.1336C10.7587 10.2199 10.7609 10.36 10.8495 10.4462C10.9362 10.5306 11.0766 10.5293 11.1602 10.4433L15.7259 5.75261C16.0855 5.38325 16.6794 5.37098 17.0497 5.73169C17.4206 6.09252 17.4279 6.6898 17.0684 7.05916L12.5 11.7469C12.4162 11.8333 12.4181 11.9727 12.507 12.0594C12.594 12.144 12.7349 12.1433 12.8183 12.0569L15.514 9.28474C15.8765 8.91205 16.4706 8.90649 16.8394 9.26499C17.2118 9.6279 17.2191 10.2189 16.8561 10.5913L11.7402 15.8474C9.59702 18.0491 6.06787 18.0975 3.86434 15.9528C1.66061 13.8072 1.61502 10.2791 3.75806 8.07791" fill="#337AB7"/>
</svg>
