<svg width="106" height="82" viewBox="0 0 106 82" fill="none" xmlns="http://www.w3.org/2000/svg">
<path d="M96.1281 7.51725C102.222 13.9901 105.494 21.2498 105.494 33.0181C105.494 53.7264 90.9569 72.287 69.8167 81.4638L64.5331 73.3106C84.2652 62.6369 88.1228 48.786 89.6612 40.053C86.4839 41.6978 82.3245 42.2718 78.2479 41.8931C67.5742 40.905 59.1607 32.1424 59.1607 21.2498C59.1607 15.7576 61.3425 10.4904 65.2261 6.60684C69.1096 2.72327 74.3769 0.541504 79.8691 0.541504C86.2177 0.541504 92.2882 3.44067 96.1281 7.51725ZM36.9614 7.51725C43.0556 13.9901 46.3275 21.2498 46.3275 33.0181C46.3275 53.7264 31.7902 72.287 10.65 81.4638L5.36642 73.3106C25.0985 62.6369 28.9562 48.786 30.4945 40.053C27.3173 41.6978 23.1578 42.2718 19.0812 41.8931C8.40758 40.905 0 32.1424 0 21.2498C0 15.7576 2.18176 10.4904 6.06533 6.60684C9.94889 2.72327 15.2161 0.541504 20.7083 0.541504C27.0569 0.541504 33.1274 3.44067 36.9673 7.51725H36.9614Z" fill="#337AB7" fill-opacity="0.8"/>
</svg>
