<svg width="48" height="48" viewBox="0 0 48 48" fill="none" xmlns="http://www.w3.org/2000/svg">
<circle cx="24" cy="24" r="24" fill="#337AB7"/>
<path d="M14.4476 33.5523C14.7154 33.822 15.0801 33.9738 15.4601 33.9738C15.8401 33.9738 16.2048 33.822 16.4721 33.5523L24 26.0244L31.556 33.5804C32.115 34.1399 33.0215 34.1399 33.5804 33.5804C34.1399 33.0214 34.1399 32.115 33.5804 31.556L26.0244 24L33.5804 16.444C34.1399 15.885 34.1399 14.9785 33.5804 14.4196C33.0214 13.8601 32.115 13.8601 31.556 14.4196L24 21.9756L16.444 14.4477C15.885 13.8887 14.9785 13.8887 14.4196 14.4477C13.8601 15.0067 13.8601 15.9131 14.4196 16.4721L21.9756 24L14.4477 31.556C13.9045 32.1107 13.9045 32.9976 14.4477 33.5523H14.4476Z" fill="white"/>
</svg>
