<svg xmlns="http://www.w3.org/2000/svg" width="133" height="40" fill="none" xmlns:v="https://vecta.io/nano"><path d="M26.659 28.825c-1.94 1.744-4.46 2.717-7.177 2.717-6.204 0-10.671-4.46-10.671-10.86s4.46-10.671 10.671-10.671c2.717 0 5.237.777 7.177 2.717l1.358 1.162 5.819-5.819-1.358-1.358c-3.683-3.102-8.15-5.042-12.996-5.042C8.425 1.475.275 9.429.275 20.675c0 10.86 8.339 19.206 19.206 19.206 5.041 0 9.698-1.744 13.388-5.041l1.358-1.358-6.204-6.204-1.365 1.548z" fill="#17313b"/><path d="M19.089 27.271a6.4 6.4 0 0 0 0-12.8 6.4 6.4 0 0 0 0 12.8zM49.926 2.6c.342-.821 1.505-.821 1.847 0l1.393 3.349a1 1 0 0 0 .843.613l3.615.29c.887.071 1.246 1.178.571 1.756l-2.754 2.359a1 1 0 0 0-.322.992l.841 3.528c.206.865-.735 1.549-1.494 1.085l-3.095-1.89a1 1 0 0 0-1.042 0l-3.095 1.89c-.759.464-1.7-.22-1.494-1.085l.841-3.528a1 1 0 0 0-.322-.992l-2.754-2.359c-.676-.579-.316-1.685.571-1.756l3.615-.29a1 1 0 0 0 .843-.613L49.926 2.6zm18.032 0c.342-.821 1.505-.821 1.847 0l1.393 3.349a1 1 0 0 0 .843.613l3.615.29c.887.071 1.246 1.178.571 1.756l-2.754 2.359a1 1 0 0 0-.322.992l.841 3.528c.206.865-.735 1.549-1.494 1.085l-3.095-1.89a1 1 0 0 0-1.043 0l-3.095 1.89c-.759.464-1.7-.22-1.494-1.085l.842-3.528a1 1 0 0 0-.322-.992l-2.754-2.359c-.675-.579-.316-1.685.571-1.756l3.615-.29a1 1 0 0 0 .843-.613L67.958 2.6zm18.032 0c.342-.821 1.505-.821 1.847 0l1.393 3.349a1 1 0 0 0 .843.613l3.615.29c.887.071 1.246 1.178.571 1.756l-2.754 2.359a1 1 0 0 0-.322.992l.842 3.528c.206.865-.735 1.549-1.494 1.085l-3.095-1.89a1 1 0 0 0-1.042 0l-3.095 1.89c-.759.464-1.7-.22-1.494-1.085l.841-3.528a1 1 0 0 0-.322-.992L79.57 8.608c-.675-.579-.316-1.685.571-1.756l3.615-.29a1 1 0 0 0 .843-.613L85.99 2.6zm18.032 0c.342-.821 1.505-.821 1.847 0l1.393 3.349a1 1 0 0 0 .843.613l3.615.29c.887.071 1.246 1.178.571 1.756l-2.754 2.359a1 1 0 0 0-.323.992l.842 3.528c.206.865-.735 1.549-1.494 1.085l-3.095-1.89a1 1 0 0 0-1.043 0l-3.094 1.89c-.76.464-1.701-.22-1.494-1.085l.841-3.528a1 1 0 0 0-.322-.992l-2.754-2.359c-.676-.579-.316-1.685.571-1.756l3.615-.29a1 1 0 0 0 .844-.613l1.392-3.349zm18.033 0c.341-.821 1.505-.821 1.846 0l1.393 3.349a1 1 0 0 0 .843.613l3.615.29c.887.071 1.247 1.178.571 1.756l-2.754 2.359a1 1 0 0 0-.322.992l.841 3.528c.207.865-.735 1.549-1.494 1.085l-3.095-1.89a1 1 0 0 0-1.042 0l-3.095 1.89c-.759.464-1.701-.22-1.494-1.085l.841-3.528a1 1 0 0 0-.322-.992l-2.754-2.359c-.676-.579-.316-1.685.571-1.756l3.615-.29a1 1 0 0 0 .843-.613l1.393-3.349z" fill="#ff3d2e"/><path d="M48.63 36.881h-1.23V29.04c-.296.283-.686.565-1.169.848s-.909.495-1.292.636v-1.189c.688-.324 1.29-.715 1.805-1.176s.88-.907 1.094-1.34h.793v10.062zm7.034 0h-1.23V29.04c-.296.283-.686.565-1.169.848s-.909.495-1.292.636v-1.189c.688-.324 1.29-.715 1.805-1.176s.88-.907 1.094-1.34h.793v10.062zm8.134 0V26.859h4.443c.893 0 1.572.091 2.037.273s.836.495 1.114.95.417.959.417 1.511c0 .711-.23 1.31-.69 1.798s-1.171.798-2.133.93c.351.169.617.335.8.499.387.355.754.8 1.101 1.333l1.743 2.728h-1.668l-1.326-2.085-.957-1.381c-.251-.319-.476-.542-.677-.67a1.95 1.95 0 0 0-.602-.267c-.15-.032-.396-.048-.738-.048h-1.538v4.45h-1.326zm1.326-5.599h2.851c.606 0 1.08-.061 1.422-.184s.602-.328.779-.602.267-.579.267-.902c0-.474-.173-.864-.519-1.169s-.884-.458-1.627-.458h-3.172v3.315zm9.078 5.599V26.859h7.246v1.183h-5.92v3.069h5.544v1.176h-5.544v3.411h6.152v1.183h-7.478zm12.455 0l-3.883-10.021h1.436l2.605 7.28.526 1.641.54-1.641 2.707-7.28h1.353l-3.924 10.021h-1.36zm6.979 0V26.859h1.326v10.021h-1.326zm3.978 0V26.859h7.246v1.183h-5.919v3.069h5.543v1.176h-5.543v3.411h6.153v1.183h-7.479zm11.341 0l-2.659-10.021h1.36l1.524 6.569.424 2.051.451-1.852 1.908-6.768h1.599l1.436 5.072a26.8 26.8 0 0 1 .779 3.548l.499-2.181 1.572-6.439h1.333l-2.748 10.021h-1.278l-2.112-7.636-.315-1.176-.294 1.176-2.126 7.636h-1.353zm11.299-3.22l1.251-.109c.06.501.196.914.411 1.237s.555.579 1.011.779.969.294 1.538.294c.506 0 .953-.075 1.34-.226s.675-.355.861-.615c.192-.264.288-.551.288-.861s-.092-.588-.274-.82-.483-.435-.902-.595c-.269-.105-.864-.267-1.784-.485s-1.566-.433-1.935-.629c-.478-.251-.836-.561-1.073-.93s-.349-.791-.349-1.251a2.53 2.53 0 0 1 .431-1.415c.287-.442.706-.777 1.258-1.005s1.164-.342 1.839-.342c.742 0 1.396.121 1.961.362s1.008.588 1.313 1.053.469.991.492 1.579l-1.271.096c-.069-.633-.301-1.112-.698-1.436s-.973-.485-1.743-.485c-.802 0-1.387.148-1.757.444-.364.292-.546.645-.546 1.06 0 .36.129.656.389.889.255.232.921.472 1.996.718s1.821.453 2.222.636c.583.269 1.014.611 1.292 1.025s.417.884.417 1.422-.153 1.037-.458 1.511-.745.836-1.319 1.101-1.213.39-1.928.39c-.907 0-1.668-.132-2.283-.397s-1.092-.661-1.443-1.189-.528-1.135-.547-1.805z" fill="#5e6e72"/></svg>