<svg width="40" height="41" viewBox="0 0 40 41" fill="none" xmlns="http://www.w3.org/2000/svg">
<path d="M39.9978 30.1859V38.1396C39.998 38.709 39.7849 39.2574 39.4014 39.674C39.0178 40.0907 38.4924 40.3445 37.9312 40.3844C36.9602 40.4519 36.1669 40.4879 35.5536 40.4879C15.9169 40.4879 0 24.3759 0 4.49865C0 3.87784 0.0333315 3.07483 0.102217 2.09187C0.141597 1.52379 0.392381 0.991977 0.803963 0.603739C1.21555 0.215501 1.75729 -0.000257397 2.31987 5.77131e-07H10.1772C10.4528 -0.000281918 10.7187 0.103152 10.9232 0.290209C11.1277 0.477266 11.2563 0.734591 11.2838 1.0122C11.3349 1.52954 11.3816 1.94117 11.426 2.25382C11.8676 5.37347 12.7726 8.4076 14.1103 11.2534C14.3214 11.7032 14.1837 12.2408 13.7837 12.5287L8.98839 15.9972C11.9203 22.9126 17.3647 28.4237 24.1964 31.3916L27.6185 26.5465C27.7583 26.3486 27.9624 26.2066 28.1951 26.1454C28.4278 26.0841 28.6743 26.1075 28.8917 26.2114C31.7027 27.5629 34.6994 28.4767 37.7801 28.9218C38.089 28.9668 38.4956 29.0163 39.0023 29.0658C39.2761 29.0942 39.5298 29.2245 39.7141 29.4315C39.8985 29.6384 40.0003 29.9073 40 30.1859H39.9978Z" fill="#337AB7"/>
</svg>
