<svg width="40" height="33" viewBox="0 0 40 33" fill="none" xmlns="http://www.w3.org/2000/svg">
<path d="M3.63636 4.49888V1.78696C3.63969 1.31435 3.83073 0.862018 4.16821 0.527661C4.50568 0.193304 4.96251 0.00376943 5.44 0H38.1964C39.1927 0 40 0.800802 40 1.78696V30.605C39.9967 31.0776 39.8056 31.5299 39.4682 31.8643C39.1307 32.1987 38.6739 32.3882 38.1964 32.392H5.44C4.96148 32.3915 4.50272 32.203 4.16453 31.8679C3.82633 31.5329 3.63636 31.0786 3.63636 30.605V28.7929H36.3636V7.73808L21.8182 20.6949L3.63636 4.49888ZM0 12.5969H9.09091V16.196H0V12.5969ZM0 21.5946H14.5455V25.1938H0V21.5946Z" fill="#337AB7"/>
</svg>
