<svg width="79" height="79" viewBox="0 0 79 79" fill="none" xmlns="http://www.w3.org/2000/svg">
<g clip-path="url(#clip0_52_1341)">
<path fill-rule="evenodd" clip-rule="evenodd" d="M22.3254 74.3577H29.6062C30.7271 74.3577 31.6518 73.4329 31.6518 72.3V70.7173H46.6655V72.3C46.6655 73.4329 47.5903 74.3577 48.7232 74.3577H56.0051C58.1596 74.3577 60.0235 75.0886 61.5942 76.5505C61.9101 76.8544 62.0082 77.2803 61.8491 77.6822C61.6911 78.0842 61.3143 78.3402 60.8872 78.3402H17.4301C17.0043 78.3402 16.6394 78.0842 16.4803 77.6822C16.3224 77.2803 16.4193 76.8544 16.7363 76.5505C18.2951 75.0886 20.1697 74.3577 22.3254 74.3577ZM74.7548 11.987H64.0371C63.7249 11.987 63.4712 12.2394 63.4712 12.5528L62.3551 15.4634C62.3551 15.7769 62.6075 16.0293 62.9209 16.0293H72.5416C73.1278 16.0293 73.6064 16.509 73.6064 17.1072V53.9534C73.6064 54.5456 73.1219 55.0289 72.5297 55.0289H5.78767C5.1955 55.0289 4.711 54.5444 4.711 53.9523V17.9434C4.711 16.8894 5.57234 16.0293 6.62509 16.0293L38.5294 16.0413C38.8369 16.0413 39.0881 15.796 39.0953 15.4886L40.3622 12.566C40.3693 12.2478 40.1133 11.987 39.7951 11.987H3.57451C2.10305 11.987 0.882812 13.206 0.882812 14.6906V64.6592C0.882812 66.1426 2.10305 67.3641 3.57451 67.3641H74.7548C76.2263 67.3641 77.4465 66.1426 77.4465 64.6592V14.6906C77.4465 13.206 76.2263 11.987 74.7548 11.987ZM38.9697 33.2693L37.8272 32.5049C37.6621 32.3936 37.6011 32.1854 37.6812 32.0024L44.1808 17.2615L55.8388 3.06013C56.6343 1.95833 58.5042 1.31232 59.7962 2.17845C61.0894 3.04338 61.2054 5.01968 60.4888 6.17412L51.7833 22.3518L40.6313 33.9775C40.4938 34.1211 40.276 34.1438 40.1109 34.0337L38.9697 33.2693ZM25.3174 39.4566C25.9598 39.4793 27.0281 39.4315 27.4731 39.3166C30.2438 38.5941 29.6504 35.1343 34.986 34.0277C35.4513 33.932 35.8856 33.9189 36.2887 34.1737L38.7424 35.7349C39.2281 36.0447 39.7341 36.5819 39.5738 37.1334C35.6523 50.6289 22.3518 41.6554 23.5373 39.3465C23.7191 38.99 24.3604 39.4231 25.3174 39.4566ZM39.1647 64.1328C38.2196 64.1328 37.4539 63.3672 37.4539 62.4341C37.4539 61.489 38.2196 60.7234 39.1647 60.7234C40.1097 60.7234 40.8754 61.489 40.8754 62.4341C40.8754 63.3672 40.1097 64.1328 39.1647 64.1328Z" fill="#337AB7"/>
</g>
<defs>
<clipPath id="clip0_52_1341">
<rect width="77.76" height="77.76" fill="white" transform="translate(0.882812 0.580078)"/>
</clipPath>
</defs>
</svg>
