<svg width="77" height="77" viewBox="0 0 77 77" fill="none" xmlns="http://www.w3.org/2000/svg">
<path d="M30.6452 36.2669C29.9522 35.5739 28.7972 35.5739 28.1042 36.3439L19.7112 45.1989C19.0182 45.8919 19.0182 46.9699 19.7112 47.6629L28.1042 56.5179C28.4892 56.9029 28.9512 57.0569 29.4132 57.0569C29.8752 57.0569 30.3372 56.9029 30.6452 56.5949C31.3382 55.9019 31.4152 54.7468 30.7222 54.0538L23.5612 46.4309L30.7222 38.8079C31.4152 38.1149 31.3382 36.9599 30.6452 36.2669Z" fill="#337AB7"/>
<path d="M48.8958 36.344C48.2028 35.651 47.0478 35.574 46.3548 36.267C45.6618 36.96 45.5848 38.115 46.2778 38.808L53.4388 46.431L46.2778 54.054C45.5848 54.747 45.6618 55.902 46.3548 56.595C46.7398 56.903 47.1248 57.057 47.5868 57.057C48.0488 57.057 48.5108 56.903 48.8958 56.518L57.2888 47.663C57.9818 46.97 57.9818 45.892 57.2888 45.199L48.8958 36.344Z" fill="#337AB7"/>
<path d="M41.7335 33.9571C40.7325 33.7261 39.8085 34.2651 39.5005 35.2661L34.0335 56.7491C33.8025 57.7501 34.3415 58.6741 35.3425 58.9821C35.4965 58.9821 35.6505 59.0591 35.8045 59.0591C36.5745 59.0591 37.3445 58.5201 37.5755 57.6731L42.9655 36.1901C43.2735 35.1891 42.6575 34.1881 41.7335 33.9571Z" fill="#337AB7"/>
<path d="M68.0668 8.85498H8.93083C5.08083 8.85498 1.92383 12.012 1.92383 15.862V61.215C1.92383 65.065 5.08083 68.222 8.93083 68.222H68.1438C71.9938 68.222 75.1508 65.065 75.1508 61.215V15.862C75.0738 12.012 71.9168 8.85498 68.0668 8.85498ZM8.93083 12.474H68.1438C69.9918 12.474 71.5318 14.014 71.5318 15.862V24.717H5.54283V15.862C5.54283 13.937 7.08283 12.474 8.93083 12.474ZM68.0668 64.526H8.93083C7.08283 64.526 5.54283 62.986 5.54283 61.138V28.336H71.4548V61.138C71.4548 63.063 69.9148 64.526 68.0668 64.526Z" fill="#337AB7"/>
<path d="M12.4715 21.175C13.9174 21.175 15.0895 20.0028 15.0895 18.557C15.0895 17.1111 13.9174 15.939 12.4715 15.939C11.0256 15.939 9.85352 17.1111 9.85352 18.557C9.85352 20.0028 11.0256 21.175 12.4715 21.175Z" fill="#337AB7"/>
<path d="M20.327 21.175C21.7729 21.175 22.945 20.0028 22.945 18.557C22.945 17.1111 21.7729 15.939 20.327 15.939C18.8811 15.939 17.709 17.1111 17.709 18.557C17.709 20.0028 18.8811 21.175 20.327 21.175Z" fill="#337AB7"/>
<path d="M28.1805 21.175C29.6264 21.175 30.7985 20.0028 30.7985 18.557C30.7985 17.1111 29.6264 15.939 28.1805 15.939C26.7346 15.939 25.5625 17.1111 25.5625 18.557C25.5625 20.0028 26.7346 21.175 28.1805 21.175Z" fill="#337AB7"/>
<path d="M51.6664 20.405H63.2934C64.2944 20.405 65.1414 19.558 65.1414 18.557C65.1414 17.556 64.2944 16.709 63.2934 16.709H51.6664C50.6654 16.709 49.8184 17.556 49.8184 18.557C49.8954 19.558 50.6654 20.405 51.6664 20.405Z" fill="#337AB7"/>
</svg>
