<svg xmlns="http://www.w3.org/2000/svg" width="145" height="58" fill="none" xmlns:v="https://vecta.io/nano"><g fill-rule="evenodd"><path d="M9.255 9.05H0v6.916h9.255V9.05zM9.167 19.1H0v24.376h9.167V19.1z" fill="#337ab7"/><path d="M42.888 4.26a1.42 1.42 0 0 0-1.99.291l-4.114 5.521a1.43 1.43 0 0 0-.147.245H23.185c-.027-.049-.057-.098-.091-.144l-4.013-5.595a1.42 1.42 0 1 0-2.311 1.658l2.932 4.088h-5.782v20.295h8.923v.007h16.445v-.007h8.019s4.137-5.344 1.184-13.468c-1.705-4.69-6.566-6.243-8.461-6.679l3.146-4.223a1.42 1.42 0 0 0-.291-1.99zM22.91 24.551v-7.085h13.588s2.695-.168 2.695 3.481-2.764 3.603-2.764 3.603H22.91zm-.165 10.666v8.149h-8.817V33.071h30.684l3.712 10.296H38.318l-3.393-8.149h-12.18z" fill="#000"/><path d="M106.098 8.841h9.469v.193h12.213c9.51 0 17.22 7.71 17.22 17.221s-7.71 17.22-17.22 17.22h-16.652v-.193h-5.03V8.841zm9.063 24.534c0 .527.427.955.955.955h11.651a8.08 8.08 0 0 0 8.076-8.076 8.08 8.08 0 0 0-8.076-8.076h-11.882c-.4 0-.724.324-.724.725v14.472z" fill="#337ab7"/></g><path fill="#337ab7" d="M91.595 9.147h9.16V43.38h-9.16z"/><path d="M82.028 23.077c.022-1.663.466-3.294 1.291-4.741s1.892-2.98 3.316-3.851c-.905-1.286-1.936-2.229-3.323-2.976s-2.981-.957-4.557-1.006c-3.363-.351-6.623 2.002-8.336 2.002-1.747 0-4.385-1.967-7.226-1.909a10.68 10.68 0 0 0-5.198 1.543 10.62 10.62 0 0 0-3.759 3.892c-3.873 6.672-.984 16.479 2.726 21.872 1.856 2.641 4.025 5.591 6.864 5.486 2.778-.115 3.815-1.763 7.168-1.763 3.322 0 4.295 1.763 7.191 1.696 2.98-.048 5.02-2.602 6.811-5.268 1.334-1.882 2.321-4.138 3.002-6.338-1.732-.729-3.332-1.824-4.372-3.383s-1.595-3.388-1.597-5.259zm-5.47-16.121A9.68 9.68 0 0 0 78.79 0a9.94 9.94 0 0 0-6.423 3.307c-.805.912-1.422 1.973-1.815 3.122a9.18 9.18 0 0 0-.475 3.576 8.24 8.24 0 0 0 3.593-.783 8.2 8.2 0 0 0 2.889-2.266zM7.429 56.601a2.06 2.06 0 0 1-.731.553 2.14 2.14 0 0 1-.901.187c-.428 0-.82-.098-1.177-.294-.357-.19-.764-.523-1.222-.999-.577-.048-1.094-.214-1.552-.499a3.1 3.1 0 0 1-1.07-1.133 3.21 3.21 0 0 1-.383-1.561 3.14 3.14 0 0 1 .437-1.641 3.03 3.03 0 0 1 1.204-1.15c.511-.279 1.085-.419 1.721-.419s1.21.14 1.721.419a3.05 3.05 0 0 1 1.204 1.142c.291.487.437 1.038.437 1.65a3.22 3.22 0 0 1-.294 1.373 3.15 3.15 0 0 1-.82 1.07 3.28 3.28 0 0 1-1.222.633 1.85 1.85 0 0 0 .508.401 1.18 1.18 0 0 0 .535.125c.41 0 .767-.166 1.07-.499l.535.642zm-5.868-3.746c0 .416.095.794.285 1.133a2.07 2.07 0 0 0 .785.785 2.28 2.28 0 0 0 1.124.276 2.28 2.28 0 0 0 1.124-.276 2.07 2.07 0 0 0 .785-.785c.19-.339.285-.716.285-1.133s-.095-.791-.285-1.124a1.99 1.99 0 0 0-.785-.785c-.333-.19-.708-.285-1.124-.285s-.791.095-1.124.285a1.99 1.99 0 0 0-.785.785c-.19.333-.285.707-.285 1.124zm13.393 3.211c-.862 0-1.534-.241-2.015-.722-.482-.488-.722-1.183-.722-2.087v-3.523h1.159v3.478c0 1.225.529 1.837 1.588 1.837 1.052 0 1.578-.612 1.578-1.837v-3.478h1.142v3.523c0 .904-.241 1.599-.722 2.087-.476.482-1.144.722-2.007.722zm12.195-1.534h-3.121l-.615 1.445h-1.195l2.809-6.243h1.142l2.818 6.243h-1.213l-.624-1.445zm-.384-.91l-1.177-2.729-1.168 2.729h2.345zm6.939-3.888h1.159v5.262h3.264v.981h-4.423v-6.243zm9.263 0h1.159v6.243h-1.159v-6.243zm8.038.981h-2.069v-.981h5.297v.981h-2.069v5.262h-1.159v-5.262zm10.629 3.059v2.203h-1.159v-2.185l-2.453-4.058h1.24l1.828 3.041 1.846-3.041h1.142l-2.444 4.04zm19.25 2.203l-.009-4.138-2.051 3.425h-.517l-2.051-3.371v4.085H75.15v-6.243h.954l2.479 4.138 2.435-4.138h.954l.009 6.243h-1.097zm10.756-1.445h-3.121l-.615 1.445h-1.195l2.809-6.243h1.142l2.818 6.243h-1.213l-.624-1.445zm-.383-.91l-1.177-2.729-1.168 2.729h2.346zm7.891-2.907h-2.069v-.981h5.298v.981h-2.07v5.262h-1.159v-5.262zm9.376 0h-2.069v-.981h5.298v.981h-2.07v5.262h-1.159v-5.262zm12.705 4.29v.972h-4.682v-6.243h4.557v.972h-3.398v1.623h3.014v.954h-3.014v1.721h3.523zm9.301.972l-1.276-1.828a2.34 2.34 0 0 1-.24.009h-1.409v1.819h-1.16v-6.243h2.569c.541 0 1.01.089 1.409.267s.713.434.927.767.321.728.321 1.186c0 .47-.116.874-.348 1.213-.225.339-.552.592-.981.758l1.436 2.051h-1.248zm-.027-4.022c0-.398-.131-.704-.392-.919s-.646-.321-1.151-.321h-1.355v2.488h1.355c.505 0 .889-.107 1.151-.321.261-.22.392-.529.392-.928zm8.325 4.111a4.81 4.81 0 0 1-1.401-.205c-.445-.137-.799-.318-1.061-.544l.402-.901c.255.202.567.369.936.499.375.125.749.187 1.124.187.463 0 .808-.074 1.034-.223.232-.149.348-.345.348-.589a.55.55 0 0 0-.196-.437c-.125-.119-.286-.211-.482-.276a10.88 10.88 0 0 0-.802-.223c-.476-.113-.863-.226-1.16-.339-.291-.113-.544-.288-.758-.526-.208-.244-.312-.571-.312-.981 0-.345.092-.657.276-.936.191-.285.473-.511.848-.678s.844-.25 1.391-.25a4.49 4.49 0 0 1 1.124.143c.368.095.686.232.954.41l-.366.901c-.273-.16-.559-.282-.856-.366s-.586-.125-.865-.125c-.458 0-.8.077-1.026.232-.22.154-.33.36-.33.615 0 .178.063.324.188.437.131.113.294.202.49.268a10.41 10.41 0 0 0 .803.223c.464.107.844.22 1.141.339a1.87 1.87 0 0 1 .758.526c.214.238.322.559.322.963a1.63 1.63 0 0 1-.286.936c-.184.279-.467.502-.847.669s-.844.25-1.391.25z" fill="#000"/></svg>