<svg xmlns="http://www.w3.org/2000/svg" width="126" height="44" fill="none" xmlns:v="https://vecta.io/nano"><path d="M9.092 29.474a.61.61 0 0 1-.168.441c-.112.112-.301.168-.567.168h-3.15l-.462 2.632a6.95 6.95 0 0 1 1.449-.168c.523 0 .982.077 1.379.231s.737.366 1.008.637a2.61 2.61 0 0 1 .609.959c.14.369.21.77.21 1.204a3.58 3.58 0 0 1-.28 1.442 3.32 3.32 0 0 1-.77 1.106c-.322.303-.702.537-1.141.7a4.04 4.04 0 0 1-1.421.245 3.86 3.86 0 0 1-.847-.091c-.271-.056-.523-.133-.756-.231s-.45-.21-.651-.336-.378-.259-.532-.399l.378-.532a.39.39 0 0 1 .336-.182c.089 0 .191.037.308.112l.434.238a3.92 3.92 0 0 0 .588.245c.229.07.499.105.812.105.35 0 .665-.056.945-.168a2 2 0 0 0 .714-.476c.201-.21.355-.46.462-.749a2.78 2.78 0 0 0 .161-.973c0-.313-.047-.595-.14-.847a1.61 1.61 0 0 0-.413-.644 1.86 1.86 0 0 0-.686-.413 2.88 2.88 0 0 0-.966-.147c-.252 0-.513.021-.784.063a5.48 5.48 0 0 0-.84.203l-.784-.231.812-4.69h4.753v.546zm1.891 8.715c0-.121.021-.236.063-.343s.107-.201.182-.28a.9.9 0 0 1 .28-.189.85.85 0 0 1 .343-.07.85.85 0 0 1 .343.07.9.9 0 0 1 .28.189c.079.079.14.173.182.28a.85.85 0 0 1 .07.343c0 .126-.023.243-.07.35s-.103.194-.182.273-.173.14-.28.182a.85.85 0 0 1-.343.07.85.85 0 0 1-.343-.07c-.107-.042-.201-.103-.28-.182s-.135-.17-.182-.273a.95.95 0 0 1-.063-.35zm10.051-4.242c0 .877-.096 1.638-.287 2.282s-.443 1.169-.77 1.589a3.1 3.1 0 0 1-1.162.938c-.443.205-.919.308-1.428.308s-.992-.103-1.435-.308-.821-.518-1.148-.938-.583-.95-.77-1.589-.28-1.405-.28-2.282.093-1.638.28-2.282.443-1.176.77-1.596.709-.74 1.148-.945.922-.308 1.435-.308.985.103 1.428.308.835.52 1.162.945.583.952.77 1.596.287 1.405.287 2.282zm-1.295 0c0-.765-.065-1.407-.196-1.925s-.299-.943-.518-1.26-.464-.544-.749-.679a1.99 1.99 0 0 0-1.778 0c-.285.135-.534.362-.749.679s-.387.737-.518 1.26-.189 1.16-.189 1.925.063 1.407.189 1.925.303.936.518 1.253.464.546.749.686.581.203.889.203.604-.068.889-.203.534-.369.749-.686.392-.735.518-1.253.196-1.16.196-1.925z" fill="#545454"/><g fill="#31af40"><path d="M13.303 5.475h-2.825c-.171 0-.3.128-.3.3v1.497C9.45 6.117 7.995 5.175 6.025 5.175c-3.168 0-5.908 2.397-5.908 6.634s2.612 6.594 6.036 6.594c1.841 0 3.296-.771 4.11-1.97v.814c0 1.84-.899 3.296-3.767 3.296-1.456 0-2.612-.471-3.596-1.37-.129-.128-.343-.085-.428.043l-1.284 2.142c-.172.256-.129.428-.043.513 1.327 1.156 2.996 1.842 5.48 1.842 5.395 0 6.978-2.997 6.978-6.293V5.731c0-.128-.128-.256-.3-.256zM6.967 15.32c-1.927 0-3.339-1.37-3.339-3.424S5.041 8.47 6.967 8.47s3.339 1.327 3.339 3.426-1.412 3.424-3.339 3.424zM19.767.679v17.339c0 .17-.128.3-.299.3h-2.826c-.17 0-.299-.129-.299-.3V.679c0-.17.129-.3.299-.3h2.826c.171 0 .299.129.299.3zm8.391 4.538c-2.697 0-4.71.899-5.608 2.654-.043.128 0 .3.085.342l2.055 1.456c.129.085.3.042.385-.086.557-1.027 1.842-1.37 3.083-1.37 1.498 0 2.226.557 2.226 1.284v.214c0 .3-.172.472-.685.514l-3.511.3c-2.353.214-4.109 1.669-4.109 4.024s1.798 3.981 4.324 3.981c2.012 0 3.297-.985 3.938-2.012v1.455c0 .172.129.3.3.3h2.826a.29.29 0 0 0 .299-.3v-7.619c0-3.512-1.883-5.138-5.607-5.138zm2.226 7.92c0 1.413-1.156 2.654-2.955 2.654-1.199 0-1.798-.557-1.798-1.37 0-.727.556-1.242 1.584-1.412l3.168-.386v.514zm16.824 1.284c0 2.912-2.141 4.153-5.523 4.153-2.355 0-4.367-.642-5.522-1.926-.085-.085-.085-.257 0-.384l1.626-2.098c.087-.13.301-.13.428 0 .857.899 2.184 1.413 3.81 1.413.943 0 1.713-.257 1.713-.985 0-.685-.685-.857-2.826-1.327-1.884-.386-4.238-1.242-4.238-4.024 0-2.569 2.056-4.067 5.395-4.067 2.226 0 3.81.685 4.923 1.712.129.085.129.257.042.385l-1.541 2.012c-.085.128-.299.172-.385.043-.77-.685-2.012-1.113-3.254-1.113-1.07 0-1.628.343-1.628.899 0 .642.685.813 2.955 1.284 2.141.512 4.024 1.326 4.024 4.023zm13.014 0c0 2.912-2.141 4.153-5.522 4.153-2.355 0-4.367-.642-5.523-1.926-.085-.085-.085-.257 0-.384l1.628-2.098c.085-.13.299-.13.428 0 .856.899 2.183 1.413 3.81 1.413.941 0 1.712-.257 1.712-.985 0-.685-.686-.857-2.825-1.327-1.884-.386-4.238-1.242-4.238-4.024 0-2.569 2.054-4.067 5.393-4.067 2.226 0 3.81.685 4.924 1.712.129.085.129.257.044.385L58.51 9.285c-.085.128-.299.172-.384.043-.771-.685-2.012-1.113-3.254-1.113-1.07 0-1.626.343-1.626.899 0 .642.685.813 2.953 1.284 2.141.512 4.025 1.326 4.025 4.023zM75.249.379h-2.825c-.172 0-.3.129-.3.3v6.678c-.856-1.241-2.312-2.183-4.28-2.183-3.125 0-5.78 2.397-5.78 6.721s2.655 6.72 5.824 6.72c1.883 0 3.338-.812 4.237-2.139v1.497c0 .172.129.3.3.3h2.825c.171 0 .3-.128.3-.3V.637c-.001-.128-.13-.258-.301-.258zM68.912 15.32c-1.925 0-3.338-1.37-3.338-3.424s1.413-3.426 3.338-3.426c1.884 0 3.339 1.327 3.339 3.426s-1.455 3.424-3.339 3.424zM84.495 5.174c-3.937 0-6.892 2.697-6.892 6.721 0 3.981 2.954 6.72 6.892 6.72s6.892-2.696 6.892-6.72c0-3.981-2.91-6.721-6.892-6.721zm0 10.103c-1.925 0-3.424-1.37-3.424-3.425s1.499-3.424 3.424-3.424 3.426 1.369 3.426 3.424c0 2.098-1.499 3.425-3.426 3.425zm15.669-10.103c-3.939 0-6.892 2.697-6.892 6.721 0 3.981 2.953 6.72 6.892 6.72s6.892-2.696 6.892-6.72c0-3.981-2.954-6.721-6.892-6.721zm0 10.103c-1.926 0-3.425-1.37-3.425-3.425s1.499-3.424 3.425-3.424 3.425 1.369 3.425 3.424c-.043 2.098-1.499 3.425-3.425 3.425zm17.937-9.503c0-.129-.085-.257-.213-.343-.258-.128-.643-.214-1.457-.214-1.797 0-3.381.899-4.067 2.354V5.774a.29.29 0 0 0-.299-.3h-2.697c-.171 0-.3.128-.3.3v12.243c0 .17.129.3.3.3h2.825c.171 0 .3-.129.3-.3v-5.48c0-2.44 1.713-3.682 3.938-3.682.514 0 1.029.128 1.284.214.172.043.344-.085.344-.256l.042-3.04zm4.519-.342a2.16 2.16 0 0 0-1.199.364c-.355.237-.632.574-.795.969s-.206.828-.123 1.247.289.803.591 1.105a2.16 2.16 0 0 0 3.321-.327 2.16 2.16 0 0 0-.269-2.725c-.404-.405-.953-.632-1.526-.632h0zm0 3.885c-.341 0-.675-.101-.959-.291a1.73 1.73 0 0 1-.636-.775 1.72 1.72 0 0 1 .374-1.882 1.73 1.73 0 0 1 2.657.262c.19.284.291.618.291.959 0 .458-.182.897-.506 1.221s-.763.506-1.221.506h0z"/><path d="M123.483 7.159c0-.172-.068-.336-.19-.458s-.286-.19-.458-.19h-1.079v2.158h.432v-.863h.315l.576.863h.518l-.593-.889c.137-.037.258-.118.344-.23s.134-.25.135-.392h0zm-.648.216h-.647v-.432h.647c.058 0 .112.023.153.063s.063.095.063.153-.023.112-.063.153-.095.063-.153.063z"/><rect x="38.645" y="27.439" width="14.092" height="14.092" rx="1"/><rect x="55.002" y="27.439" width="14.092" height="14.092" rx="1"/><rect x="71.359" y="27.439" width="14.092" height="14.092" rx="1"/><rect x="87.447" y="27.439" width="14.092" height="14.092" rx="1"/><rect x="103.535" y="27.439" width="14.092" height="14.092" rx="1"/></g><path d="M45.525 29.562c.051-.163.282-.163.332 0l.983 3.165c.023.074.091.123.168.122l3.314-.044c.171-.002.242.217.103.316l-2.707 1.913c-.063.044-.089.125-.064.198l1.066 3.138c.055.162-.132.297-.269.195l-2.655-1.983c-.062-.046-.147-.046-.208 0l-2.655 1.983c-.137.102-.324-.033-.269-.195l1.066-3.138c.025-.073-.001-.154-.064-.198l-2.707-1.913c-.139-.099-.068-.318.103-.316l3.314.044c.077.001.145-.049.168-.122l.983-3.165zm16.357 0c.051-.163.282-.163.332 0l.983 3.165c.023.074.091.123.168.122l3.314-.044c.171-.002.242.217.103.316l-2.707 1.913c-.063.044-.089.125-.064.198l1.066 3.138c.055.162-.132.297-.269.195l-2.655-1.983c-.062-.046-.146-.046-.208 0l-2.655 1.983c-.137.102-.324-.034-.269-.195l1.066-3.138c.025-.073-.001-.154-.064-.198l-2.707-1.913c-.139-.099-.068-.318.103-.316l3.314.044c.077.001.146-.049.168-.122l.982-3.165zm16.358 0c.051-.163.282-.163.332 0l.983 3.165c.023.074.091.123.168.122l3.314-.044c.171-.002.242.217.103.316l-2.707 1.913c-.063.044-.089.125-.064.198l1.066 3.138c.055.162-.132.297-.269.195l-2.655-1.983c-.062-.046-.146-.046-.208 0l-2.656 1.983c-.137.102-.324-.034-.269-.195l1.066-3.138c.025-.073-.001-.154-.064-.198l-2.707-1.913c-.139-.099-.068-.318.103-.316l3.314.044c.077.001.146-.049.168-.122l.983-3.165zm16.088 0c.051-.163.282-.163.332 0l.983 3.165c.023.074.091.123.168.122l3.314-.044c.171-.002.242.217.103.316l-2.707 1.913c-.063.044-.089.125-.064.198l1.066 3.138c.055.162-.132.297-.269.195l-2.655-1.983c-.062-.046-.146-.046-.208 0l-2.655 1.983c-.137.102-.324-.033-.269-.195l1.066-3.138c.025-.073-.001-.154-.064-.198l-2.707-1.913c-.139-.099-.068-.318.103-.316l3.314.044c.077.001.146-.049.168-.122l.983-3.165zm16.087 0c.051-.163.282-.163.333 0l.982 3.165c.023.074.091.123.169.122l3.314-.044c.17-.002.242.217.102.316l-2.707 1.913c-.063.044-.089.125-.064.198l1.066 3.138c.055.162-.132.297-.269.195l-2.655-1.983c-.062-.046-.147-.046-.209 0l-2.655 1.983c-.137.102-.324-.034-.269-.195l1.066-3.138c.025-.073-.001-.154-.064-.198l-2.707-1.913c-.14-.099-.068-.318.102-.316l3.315.044c.077.001.145-.049.168-.122l.982-3.165z" fill="#fff"/><path stroke="#e3e3e6" d="M28.923 25.896v17.179"/></svg>