<svg xmlns="http://www.w3.org/2000/svg" width="231" height="70" fill="none" xmlns:v="https://vecta.io/nano"><g fill="#4385f4"><path fill-rule="evenodd" d="M55.752 14H26.52c-10.567 2.584-10.793 11.584-10.793 11.584V56h11.244V28.308c0-2.354 2.247-2.77 2.247-2.77h26.533V14zM33.535 30.007s-2.189-.221-2.189 1.762v8.811h14.441v2.644s.043 1.321-1.313 1.321H31.347V56h15.754s9.541-1.497 9.627-11.455V30.007H33.535z"/><path d="M88.846 32.255l-1.031.686a18.27 18.27 0 0 1-2.418 1.289c-1.09.457-2.061.686-2.933.686-2.993 0-5.47-.936-7.472-2.828S72 27.827 72 24.957c0-2.765.892-5.156 2.695-7.194s3.983-3.036 6.56-3.036c1.07 0 2.22.187 3.409.582 1.546.499 2.794 1.248 3.785 2.225l-1.724 1.954c-.733-.728-1.685-1.268-2.794-1.601-.832-.25-1.744-.374-2.755-.374-1.803 0-3.329.749-4.538 2.225-1.209 1.497-1.823 3.264-1.823 5.343 0 2.058.694 3.743 2.081 5.094s3.151 2.038 5.291 2.038c.892 0 1.803-.291 2.735-.852l1.189-.915v-4.262h-5.787l.832-2.661h7.69v8.733h0zm17.48-5.198c0 2.058-.714 3.846-2.141 5.343s-3.191 2.266-5.291 2.266c-1.942 0-3.647-.748-5.113-2.225s-2.18-3.264-2.18-5.364a7.79 7.79 0 0 1 2.081-5.406c1.387-1.539 3.092-2.287 5.093-2.287 2.219 0 4.023.728 5.43 2.204 1.407 1.435 2.121 3.264 2.121 5.468h0zm-2.716.042c0-1.393-.455-2.578-1.367-3.535-.912-.977-2.041-1.455-3.389-1.455-1.268 0-2.339.499-3.23 1.497s-1.328 2.142-1.328 3.431c0 1.352.456 2.495 1.348 3.451s2.002 1.455 3.349 1.455c1.248 0 2.318-.478 3.23-1.435a4.72 4.72 0 0 0 1.387-3.41h0zm19.958-.042c0 2.058-.714 3.846-2.141 5.343s-3.191 2.266-5.291 2.266c-1.943 0-3.647-.748-5.113-2.225s-2.18-3.264-2.18-5.364a7.79 7.79 0 0 1 2.08-5.406c1.388-1.539 3.092-2.287 5.094-2.287 2.219 0 4.023.728 5.43 2.204 1.407 1.435 2.121 3.264 2.121 5.468h0zm-2.716.042c0-1.393-.455-2.578-1.367-3.535-.912-.977-2.041-1.455-3.389-1.455-1.268 0-2.339.499-3.23 1.497s-1.328 2.142-1.328 3.431a4.88 4.88 0 0 0 1.347 3.451c.892.956 2.002 1.455 3.35 1.455 1.248 0 2.319-.478 3.23-1.435a4.72 4.72 0 0 0 1.387-3.41h0zm18.669 7.152l-2.497.395v-2.474l-.535.624c-.475.457-1.01.832-1.585 1.123a6.28 6.28 0 0 1-2.715.603c-1.943 0-3.607-.728-4.955-2.204s-2.021-3.223-2.021-5.26c0-2.1.673-3.909 2.001-5.406s2.953-2.245 4.895-2.245c1.11 0 2.081.187 2.894.561.575.27 1.07.624 1.486 1.06l.416.582v-6.487l2.656-.395-.04 19.524h0zm-2.338-7.007c0-1.455-.476-2.682-1.447-3.68-.971-1.019-2.061-1.518-3.31-1.518-1.387 0-2.497.478-3.349 1.435-.793.915-1.209 2.038-1.209 3.348 0 1.476.416 2.703 1.249 3.659a4.01 4.01 0 0 0 3.171 1.435c1.268 0 2.378-.437 3.369-1.331 1.011-.915 1.526-2.038 1.526-3.347zm16.35-9.419h-7.432v5.177h5.767v2.661h-5.767v8.566l-2.893.437V15.144h9.75l.575 2.682zm5.965-1.518l-1.783 2.308-1.705-2.308 1.804-2.287 1.684 2.287zm-.535 17.943l-2.655.374V20.175l2.655-.416v14.492zm11.991-14.638l-1.249 2.952a3.42 3.42 0 0 0-.495-.042c-.258 0-.516.021-.773.062s-.535.146-.833.291c-.555.25-1.03.79-1.447 1.601-.455.915-.693 1.913-.693 2.973v6.778l-2.656.437V20.175l2.458-.457v3.015l.971-1.58c.456-.541.991-.936 1.585-1.164.317-.125.892-.229 1.764-.312l1.368-.062h0zm19.778 14.638l-2.655.395v-9.918c0-.915-.198-1.58-.595-1.996s-.991-.624-1.764-.624c-.931 0-1.645.395-2.12 1.185-.317.541-.496 1.123-.496 1.705v9.232l-2.655.499v-9.939c0-.873-.199-1.539-.575-1.996-.397-.457-.912-.686-1.586-.686h-.257c-.932 0-1.606.395-2.022 1.206-.317.603-.475 1.372-.475 2.308v8.608l-2.755.499V20.175l2.477-.437v1.85c.278-.437.555-.79.813-1.04.713-.686 1.546-1.019 2.477-1.019 1.05 0 1.823.166 2.358.52.456.291.892.873 1.328 1.705.912-1.476 2.2-2.225 3.904-2.225 1.626 0 2.835.52 3.627 1.58.654.873.971 2.162.971 3.846v9.294h0zm12.129-4.387c0 1.331-.456 2.433-1.367 3.285-.912.873-2.061 1.289-3.449 1.289-1.05 0-1.981-.249-2.834-.748s-1.486-1.06-1.902-1.726l1.863-1.705a3.71 3.71 0 0 0 .376.499c.694.728 1.526 1.102 2.497 1.102.674 0 1.209-.187 1.586-.541.396-.354.575-.852.575-1.497 0-.728-.456-1.227-1.368-1.497l-2.913-.936c-.833-.437-1.427-.894-1.804-1.414-.416-.603-.634-1.393-.634-2.412 0-1.247.456-2.287 1.348-3.119s1.962-1.227 3.191-1.227a5.31 5.31 0 0 1 2.596.644c.793.436 1.367.894 1.704 1.435l-1.585 1.767c-.298-.291-.555-.52-.773-.665-.634-.457-1.249-.686-1.824-.686-.554 0-1.01.125-1.367.374-.416.312-.634.769-.634 1.372 0 .582.198 1.019.614 1.289.357.229 1.11.478 2.299.749 1.189.291 2.101.79 2.755 1.497.733.749 1.05 1.684 1.05 2.869h0zM113.905 45.22c.342-.821 1.505-.821 1.847 0l1.824 4.385a1 1 0 0 0 .843.613l4.734.38c.887.071 1.246 1.178.571 1.756l-3.607 3.09a1 1 0 0 0-.322.992l1.102 4.62c.206.865-.735 1.549-1.494 1.086l-4.053-2.476a1 1 0 0 0-1.043 0l-4.053 2.476c-.759.464-1.7-.22-1.494-1.086l1.102-4.62a1 1 0 0 0-.322-.992l-3.607-3.09c-.675-.579-.316-1.685.571-1.756l4.734-.38a1 1 0 0 0 .843-.613l1.824-4.385zm21.08 0c.342-.821 1.505-.821 1.847 0l1.824 4.385a1 1 0 0 0 .843.613l4.734.38c.887.071 1.247 1.178.571 1.756l-3.607 3.09a1 1 0 0 0-.322.992l1.102 4.62c.206.865-.735 1.549-1.494 1.086l-4.053-2.476a1 1 0 0 0-1.043 0l-4.053 2.476c-.759.464-1.7-.22-1.494-1.086l1.102-4.62a1 1 0 0 0-.322-.992l-3.607-3.09c-.675-.579-.316-1.685.571-1.756l4.734-.38a1 1 0 0 0 .844-.613l1.823-4.385zm21.081 0c.342-.821 1.506-.821 1.847 0l1.824 4.385a1 1 0 0 0 .843.613l4.734.38c.887.071 1.247 1.178.571 1.756l-3.607 3.09a1 1 0 0 0-.322.992l1.102 4.62c.206.865-.735 1.549-1.494 1.086l-4.053-2.476a1 1 0 0 0-1.042 0l-4.053 2.476c-.76.464-1.701-.22-1.494-1.086l1.101-4.62a1 1 0 0 0-.322-.992l-3.607-3.09c-.675-.579-.316-1.685.571-1.756l4.734-.38a1 1 0 0 0 .844-.613l1.823-4.385zm21.08 0c.341-.821 1.505-.821 1.846 0l1.824 4.385a1 1 0 0 0 .843.613l4.735.38c.886.071 1.246 1.178.57 1.756l-3.607 3.09a1 1 0 0 0-.322.992l1.102 4.62c.207.865-.735 1.549-1.494 1.086l-4.053-2.476a1 1 0 0 0-1.042 0l-4.053 2.476c-.759.464-1.701-.22-1.494-1.086l1.102-4.62a1 1 0 0 0-.323-.992l-3.606-3.09c-.676-.579-.316-1.685.57-1.756l4.734-.38a1 1 0 0 0 .844-.613l1.824-4.385zm21.052 0c.341-.821 1.505-.821 1.846 0l1.824 4.385a1 1 0 0 0 .844.613l4.734.38c.886.071 1.246 1.178.57 1.756l-3.607 3.09a1 1 0 0 0-.322.992l1.102 4.62c.207.865-.735 1.549-1.494 1.086l-4.053-2.476a1 1 0 0 0-1.042 0l-4.053 2.476c-.759.464-1.701-.22-1.494-1.086l1.102-4.62a1 1 0 0 0-.323-.992l-3.606-3.09c-.676-.579-.316-1.685.57-1.756l4.734-.38a1 1 0 0 0 .844-.613l1.824-4.385z"/></g><path d="M73.109 54.703l.656-5.781h6.375v1.883h-4.523l-.281 2.445a3.58 3.58 0 0 1 1.711-.43c1.083 0 1.932.336 2.547 1.008s.922 1.612.922 2.82c0 .734-.156 1.393-.469 1.977-.307.578-.75 1.029-1.328 1.352-.578.318-1.261.477-2.047.477-.687 0-1.325-.138-1.914-.414-.588-.281-1.055-.675-1.398-1.18-.339-.505-.518-1.081-.539-1.727h2.234c.047.474.211.844.492 1.109.286.26.659.391 1.117.391.51 0 .904-.182 1.18-.547.276-.37.414-.891.414-1.562 0-.646-.159-1.141-.477-1.484s-.768-.516-1.352-.516c-.537 0-.971.141-1.305.422l-.219.203-1.797-.445zm9.703 4.484c0-.359.12-.651.359-.875.245-.224.549-.336.914-.336.37 0 .674.112.914.336a1.13 1.13 0 0 1 .367.875c0 .354-.12.643-.359.867-.24.219-.547.328-.922.328-.37 0-.675-.109-.914-.328-.24-.224-.359-.513-.359-.867zm12.742-3.594c0 1.573-.325 2.776-.977 3.609s-1.604 1.25-2.859 1.25c-1.24 0-2.187-.409-2.844-1.227s-.992-1.99-1.008-3.516v-2.094c0-1.588.328-2.794.984-3.617.661-.823 1.612-1.234 2.852-1.234s2.188.409 2.844 1.226c.656.813.992 1.982 1.008 3.508v2.094zm-2.258-2.297c0-.943-.13-1.628-.391-2.055-.255-.432-.656-.648-1.203-.648-.531 0-.924.206-1.18.617-.25.406-.383 1.044-.398 1.914v2.766c0 .927.125 1.617.375 2.07.255.448.662.672 1.219.672.552 0 .951-.216 1.195-.648s.372-1.094.383-1.984v-2.703z" fill="#000"/></svg>