<svg width="452" height="134" viewBox="0 0 452 134" fill="none" xmlns="http://www.w3.org/2000/svg">
<path d="M434.757 133.027H17.1647C7.97772 133.027 0.460938 125.546 0.460938 116.402V16.6519C0.460938 7.50809 7.97757 0.0268555 17.1647 0.0268555H434.757C443.944 0.0268555 451.461 7.50809 451.461 16.6519V116.402C451.461 125.546 443.944 133.027 434.757 133.027" fill="black"/>
<path d="M158.874 34.0863C158.874 36.872 158.045 39.0903 156.385 40.7452C154.499 42.7129 152.042 43.6975 149.021 43.6975C146.128 43.6975 143.668 42.7 141.645 40.7023C139.619 38.706 138.607 36.2305 138.607 33.2769C138.607 30.322 139.619 27.848 141.645 25.8501C143.668 23.8539 146.128 22.855 149.021 22.855C150.456 22.855 151.831 23.1344 153.136 23.6917C154.441 24.2502 155.487 24.9917 156.27 25.9203L154.508 27.675C153.181 26.0969 151.354 25.3085 149.021 25.3085C146.911 25.3085 145.087 26.0464 143.547 27.5231C142.007 29.0013 141.237 30.9183 141.237 33.2769C141.237 35.6357 142.007 37.5525 143.547 39.0309C145.087 40.5076 146.911 41.2453 149.021 41.2453C151.259 41.2453 153.125 40.5035 154.619 39.0179C155.589 38.05 156.15 36.7046 156.3 34.977H149.021V32.5807H158.734C158.828 33.1018 158.874 33.6018 158.874 34.0863" fill="white"/>
<path d="M158.874 34.0862H158.54C158.537 36.8085 157.738 38.9228 156.148 40.5101L156.145 40.5128L156.144 40.5155C154.318 42.4153 151.971 43.361 149.021 43.365C146.205 43.361 143.848 42.405 141.88 40.4672C139.916 38.5254 138.945 36.155 138.941 33.2769C138.945 30.3975 139.916 28.0283 141.88 26.0879C143.848 24.1488 146.205 23.1915 149.021 23.1874C150.413 23.1874 151.739 23.4579 153.004 23.9968C154.269 24.5398 155.269 25.2514 156.014 26.1349L156.27 25.9203L156.034 25.6852L154.272 27.4411L154.508 27.6749L154.765 27.4621C153.377 25.806 151.427 24.9711 149.021 24.976C146.833 24.9733 144.908 25.7516 143.315 27.2843C141.708 28.822 140.9 30.8468 140.903 33.2769C140.9 35.7071 141.708 37.7318 143.315 39.2696C144.908 40.8024 146.833 41.5805 149.021 41.5778C151.333 41.5818 153.304 40.801 154.855 39.2529C155.891 38.2188 156.479 36.7865 156.633 35.0055L156.664 34.6445H149.355V32.9132H158.734V32.5807L158.405 32.6391C158.496 33.1433 158.539 33.6224 158.539 34.0862H159.208C159.208 33.5808 159.161 33.0614 159.063 32.5212L159.013 32.2482H148.687V35.3095H156.3V34.977L155.967 34.9485C155.82 36.6215 155.285 37.8814 154.383 38.7829C152.948 40.2063 151.186 40.9088 149.021 40.9128C146.989 40.9101 145.265 40.2139 143.779 38.7917C142.307 37.3747 141.575 35.5655 141.571 33.2769C141.575 30.9883 142.307 29.1791 143.779 27.7621C145.265 26.3399 146.989 25.6437 149.021 25.641C151.28 25.6464 152.986 26.3892 154.253 27.8894L154.488 28.1673L156.506 26.1555L156.723 25.94L156.526 25.7072C155.705 24.7333 154.611 23.9603 153.267 23.3865C151.921 22.8109 150.499 22.5225 149.021 22.5225C146.051 22.5199 143.488 23.5589 141.409 25.6151C139.322 27.6673 138.271 30.2468 138.273 33.2769C138.271 36.3056 139.322 38.8866 141.41 40.94C143.488 42.9949 146.051 44.0327 149.021 44.03C152.114 44.0327 154.679 43.0102 156.626 40.975L156.385 40.7451L156.621 40.9803C158.351 39.2593 159.21 36.9344 159.208 34.0862H158.874H158.874ZM174.272 25.7528H165.144V32.0783H173.376V34.4755H165.144V40.801H174.272V43.2519H162.57V23.3019H174.272V25.7528" fill="white"/>
<path d="M174.272 25.7526V25.4201H164.81V32.4106H173.042V34.1419L164.81 34.1428V41.1333H173.938V42.9192H162.904V23.6342H173.938V25.7526H174.272V25.4201V25.7526H174.606V22.9692H162.236V43.5842H174.606V40.4683H165.478V34.8078H173.71V31.7456H165.478V26.0851H174.606V25.7526H174.272V25.7526ZM185.133 43.2518H182.556V25.7524H176.958V23.3016H190.732V25.7524H185.133V43.2515" fill="white"/>
<path d="M185.133 43.2519V42.9192H182.89V25.4201H177.291V23.6344H190.397V25.4201H184.799V43.2517H185.133V42.9192V43.2517H185.467V26.0851H191.065V22.9692H176.623V26.0849H182.221V43.584H185.467V43.2515H185.133V43.2519ZM200.697 43.2519V23.3016H203.272V43.2515H200.697" fill="white"/>
<path d="M200.699 43.2518H201.033V23.6342H202.94V42.9192H200.699V43.2517H201.033H200.699V43.5842H203.608V22.9692H200.365V43.5842H200.699V43.2517V43.2518ZM214.699 43.2518H212.122V25.7524H206.523V23.3016H220.297V25.7524H214.699V43.2515" fill="white"/>
<path d="M214.697 43.2521V42.9194H212.454V25.4203H206.856V23.6346H219.961V25.4203H214.363V43.2519H214.697V42.9194V43.2519H215.031V26.0853H220.629V22.9694H206.188V26.0851H211.786V43.5842H215.031V43.2518H214.697V43.2521ZM233.575 39.0037C235.058 40.4984 236.874 41.2452 239.021 41.2452C241.167 41.2452 242.984 40.4984 244.465 39.0037C245.95 37.5087 246.694 35.5978 246.694 33.2769C246.694 30.9562 245.95 29.0453 244.465 27.5503C242.984 26.0554 241.167 25.3085 239.021 25.3085C236.874 25.3085 235.058 26.0554 233.575 27.5503C232.094 29.0453 231.35 30.9561 231.35 33.2769C231.35 35.5978 232.094 37.5087 233.575 39.0037ZM246.37 40.6737C244.4 42.6906 241.949 43.6975 239.021 43.6975C236.09 43.6975 233.64 42.6906 231.674 40.6737C229.702 38.6591 228.72 36.193 228.72 33.2769C228.72 30.3609 229.702 27.8943 231.674 25.8801C233.64 23.8628 236.09 22.855 239.021 22.855C241.933 22.855 244.377 23.8681 246.357 25.8931C248.334 27.9179 249.323 30.3791 249.323 33.2769C249.323 36.193 248.337 38.6591 246.37 40.6737Z" fill="white"/>
<path d="M233.575 39.0036L233.338 39.2374C234.876 40.7921 236.796 41.5818 239.021 41.5778C241.245 41.5818 243.167 40.7921 244.703 39.2374C246.252 37.6812 247.031 35.668 247.028 33.2769C247.031 30.886 246.252 28.8726 244.703 27.3164C243.167 25.7617 241.245 24.9721 239.021 24.976C236.796 24.9721 234.876 25.7617 233.338 27.3164C231.793 28.8726 231.012 30.886 231.016 33.2769C231.012 35.6678 231.793 37.6812 233.338 39.2374L233.575 39.0036L233.813 38.7698C232.396 37.3345 231.687 35.529 231.684 33.2769C231.687 31.0249 232.396 29.2195 233.813 27.784C235.243 26.349 236.951 25.645 239.021 25.6411C241.089 25.645 242.801 26.349 244.228 27.784C245.648 29.2195 246.356 31.0249 246.359 33.2769C246.356 35.5289 245.648 37.3345 244.228 38.7698C242.801 40.2049 241.089 40.9088 239.021 40.9127C236.951 40.9088 235.243 40.2049 233.813 38.7698L233.575 39.0036ZM246.371 40.6737L246.132 40.4427C244.216 42.3961 241.874 43.3611 239.021 43.365C236.167 43.361 233.824 42.3961 231.912 40.4427L231.903 40.4322L231.912 40.4427C230.001 38.4826 229.058 36.1188 229.055 33.2769C229.058 30.435 230.001 28.0712 231.912 26.1113C233.824 24.1577 236.167 23.1915 239.021 23.1876C241.855 23.1915 244.192 24.1618 246.119 26.1255C248.037 28.0945 248.986 30.4546 248.99 33.2769C248.986 36.1188 248.04 38.4826 246.132 40.4427L246.371 40.6737L246.611 40.9047C248.636 38.8346 249.66 36.2668 249.658 33.2769C249.66 30.3041 248.632 27.7414 246.597 25.6621C244.562 23.5745 242.012 22.5189 239.021 22.5225C236.014 22.5189 233.457 23.5696 231.434 25.6491V25.6476C229.405 27.7192 228.384 30.287 228.387 33.2769C228.384 36.2668 229.405 38.8346 231.434 40.9061L231.443 40.9155L231.434 40.9047C233.457 42.9843 236.014 44.0327 239.021 44.03C242.026 44.0327 244.584 42.9843 246.611 40.9047L246.371 40.6737V40.6737ZM252.938 43.252V23.3018H256.073L265.815 38.8215H265.926L265.815 34.9769V23.3018H268.392V43.2517H265.704L255.512 26.9799H255.401L255.512 30.8259V43.2517H252.939" fill="white"/>
<path d="M252.938 43.2518H253.272V23.6342H255.887L265.629 39.1539H266.268L266.148 34.9719V23.6344H268.058V42.9192H265.889L255.697 26.6474H255.058L255.177 30.8312V42.9192H252.938V43.2517H253.272H252.938V43.5842H255.846V30.8206L255.735 26.9709L255.401 26.9799V27.3124H255.512V26.9799L255.228 27.1567L265.518 43.5842H268.726V22.9692H265.48V34.9807L265.591 38.8304L265.925 38.8214V38.489H265.814V38.8214L266.098 38.645L256.258 22.9692H252.604V43.5842H252.938V43.2517L252.938 43.2518ZM357.706 99.7767H363.94V58.2103H357.706L357.706 99.7767ZM413.854 73.1835L406.708 91.2046H406.494L399.078 73.1834H392.363L403.484 98.3713L397.143 112.382H403.648L420.786 73.1834L413.854 73.1835ZM378.502 95.0557C376.457 95.0557 373.611 94.0398 373.611 91.5254C373.611 88.3171 377.159 87.0873 380.219 87.0873C382.962 87.0873 384.248 87.6754 385.915 88.4785C385.431 92.328 382.1 95.0557 378.502 95.0557V95.0557ZM379.254 72.2741C374.74 72.2741 370.067 74.2533 368.132 78.6384L373.665 80.9373C374.847 78.6384 377.049 77.8889 379.361 77.8889C382.584 77.8889 385.862 79.8151 385.915 83.2376V83.6649C384.786 83.0231 382.371 82.0608 379.414 82.0608C373.451 82.0608 367.377 85.322 367.377 91.4187C367.377 96.9805 372.268 100.564 377.747 100.564C381.94 100.564 384.248 98.6921 385.701 96.4999H385.915V99.708H391.932V83.7712C391.932 76.3928 386.4 72.2741 379.254 72.2741V72.2741ZM340.728 78.2433H331.862V63.9955H340.728C345.389 63.9955 348.035 67.8359 348.035 71.1193C348.035 74.3404 345.389 78.2433 340.728 78.2433ZM340.568 58.2103H325.631V99.7767H331.862V84.0285H340.568C347.477 84.0285 354.268 79.05 354.268 71.1193C354.268 63.1888 347.477 58.2103 340.568 58.2103V58.2103ZM259.117 95.0633C254.811 95.0633 251.205 91.4746 251.205 86.5456C251.205 81.5648 254.811 77.9215 259.117 77.9215C263.369 77.9215 266.706 81.5647 266.706 86.5456C266.706 91.4746 263.369 95.0633 259.117 95.0633H259.117ZM266.275 75.5109H266.06C264.661 73.8507 261.969 72.3509 258.578 72.3509C251.474 72.3509 244.962 78.5643 244.962 86.5456C244.962 94.4738 251.474 100.634 258.578 100.634C261.969 100.634 264.661 99.1337 266.06 97.4206H266.275V99.4559C266.275 104.867 263.369 107.759 258.687 107.759C254.865 107.759 252.497 105.027 251.527 102.724L246.093 104.973C247.653 108.723 251.798 113.33 258.687 113.33C266.006 113.33 272.196 109.044 272.196 98.5987V73.208H266.275V75.5109ZM276.501 99.7767H282.744V58.2088H276.501V99.7767ZM291.948 86.0638C291.786 80.5995 296.199 77.8148 299.375 77.8148C301.852 77.8148 303.95 79.0461 304.648 80.8154L291.948 86.0638ZM311.323 81.3502C310.14 78.1888 306.532 72.3509 299.159 72.3509C291.84 72.3509 285.758 78.0824 285.758 86.4924C285.758 94.4206 291.786 100.634 299.859 100.634C306.372 100.634 310.14 96.6698 311.701 94.3669L306.856 91.1523C305.243 93.5098 303.035 95.0633 299.859 95.0633C296.684 95.0633 294.424 93.6165 292.97 90.7783L311.968 82.9569L311.323 81.3502ZM159.96 76.69V82.6893H174.384C173.953 86.0638 172.823 88.5277 171.1 90.242C169.002 92.3318 165.719 94.6347 159.96 94.6347C151.079 94.6347 144.137 87.5105 144.137 78.6719C144.137 69.8335 151.079 62.7084 159.96 62.7084C164.75 62.7084 168.248 64.5836 170.831 66.9941L175.083 62.7628C171.478 59.3337 166.687 56.7091 159.96 56.7091C147.796 56.7091 137.57 66.5657 137.57 78.6719C137.57 90.7783 147.796 100.634 159.96 100.634C166.527 100.634 171.478 98.4923 175.352 94.4738C179.335 90.5096 180.573 84.939 180.573 80.4399C180.573 79.0461 180.466 77.7616 180.25 76.69H159.96ZM196.972 95.0633C192.665 95.0633 188.951 91.5277 188.951 86.4924C188.951 81.4034 192.665 77.9215 196.972 77.9215C201.277 77.9215 204.991 81.4034 204.991 86.4924C204.991 91.5278 201.277 95.0633 196.972 95.0633ZM196.972 72.3509C189.113 72.3509 182.708 78.2965 182.708 86.4924C182.708 94.6347 189.113 100.634 196.972 100.634C204.829 100.634 211.234 94.6347 211.234 86.4924C211.234 78.2965 204.829 72.3509 196.972 72.3509ZM228.085 95.0633C223.78 95.0633 220.066 91.5277 220.066 86.4924C220.066 81.4034 223.78 77.9215 228.085 77.9215C232.39 77.9215 236.104 81.4034 236.104 86.4924C236.104 91.5278 232.39 95.0633 228.085 95.0633H228.085ZM228.085 72.3509C220.226 72.3509 213.823 78.2965 213.823 86.4924C213.823 94.6347 220.226 100.634 228.085 100.634C235.942 100.634 242.347 94.6347 242.347 86.4924C242.347 78.2965 235.942 72.3509 228.085 72.3509H228.085Z" fill="white"/>
<path d="M35.5677 25.3345C34.4466 26.3412 33.7773 28.0204 33.7773 30.2494V29.7455V103.298V102.814C33.7773 104.872 34.3514 106.462 35.3234 107.486L35.5716 107.722V107.723C36.3584 108.43 37.3673 108.805 38.5236 108.804C39.6534 108.804 40.9246 108.445 42.2662 107.688L90.7577 80.2659L107.414 70.8455C109.53 69.6494 110.717 68.1064 110.916 66.5346V66.5282C110.717 64.9529 109.53 63.411 107.414 62.2148L90.7564 52.7956L42.2664 25.3733C40.9219 24.615 39.6498 24.2551 38.517 24.2551C37.362 24.2551 36.3545 24.6292 35.568 25.3345H35.5677Z" fill="#00C1FF"/>
<path d="M35.5717 107.722L35.3234 107.486C34.3514 106.462 33.7773 104.872 33.7773 102.814V103.298V29.7637V30.2493C33.7773 28.0204 34.4466 26.3412 35.5677 25.3345L76.9588 66.5295L35.5717 107.722Z" fill="url(#paint0_linear_213_3)"/>
<path d="M90.7579 80.2656L76.959 66.5294L90.7567 52.7954L107.415 62.2145C109.53 63.4109 110.717 64.9526 110.916 66.5281V66.5343C110.717 68.1061 109.53 69.6493 107.415 70.8452L90.758 80.2655" fill="url(#paint1_linear_213_3)"/>
<path d="M38.524 108.804C37.3678 108.805 36.3589 108.429 35.5723 107.723V107.722L76.9594 66.5294L90.7583 80.2656L42.2666 107.688C40.925 108.445 39.6538 108.804 38.524 108.804Z" fill="url(#paint2_linear_213_3)"/>
<path d="M76.9597 66.5295L35.5684 25.3345C36.3552 24.6291 37.3627 24.2551 38.5175 24.2551C39.6504 24.2551 40.9226 24.6148 42.2669 25.3733L90.7572 52.7956L76.9595 66.5295" fill="url(#paint3_linear_213_3)"/>
<path d="M38.5235 109.291C37.3673 109.291 36.3571 108.915 35.5702 108.209L35.5689 108.21C35.5657 108.207 35.5622 108.204 35.5585 108.201L35.3433 107.992C35.3366 107.985 35.3302 107.977 35.3223 107.97L35.5704 107.723C36.3572 108.429 37.366 108.805 38.5224 108.803C39.6521 108.803 40.9233 108.445 42.2649 107.688L90.7564 80.2656L91.0671 80.5749L90.7525 80.7528L42.2647 108.174C41.0421 108.863 39.8792 109.223 38.8288 109.283C38.7271 109.288 38.6253 109.29 38.5235 109.29" fill="url(#paint4_linear_213_3)"/>
<path d="M35.3234 107.97C34.3514 106.946 33.7773 105.358 33.7773 103.298V102.814C33.7773 104.872 34.3514 106.462 35.3234 107.486L35.5716 107.722L35.3234 107.97" fill="url(#paint5_linear_213_3)"/>
<path d="M91.0685 80.575L90.7578 80.2657L107.414 70.8454C109.53 69.6495 110.717 68.1063 110.916 66.5346C110.916 67.1114 110.787 67.6881 110.53 68.2493C110.011 69.3805 108.973 70.4494 107.414 71.3312L91.0685 80.5752" fill="url(#paint6_linear_213_3)"/>
<path d="M110.915 66.5283C110.717 64.9528 109.529 63.4111 107.414 62.2148L90.7559 52.7957L91.0666 52.4864H91.0679L107.414 61.7303C109.746 63.05 110.914 64.7889 110.915 66.5283" fill="url(#paint7_linear_213_3)"/>
<path d="M33.7773 30.2493V29.7412C33.7773 29.558 33.7823 29.3788 33.7918 29.2049V29.197C33.7918 29.1946 33.7918 29.192 33.7927 29.1893V29.1698C33.8933 27.3967 34.4466 26.0137 35.3234 25.0902L35.5677 25.3343C34.4466 26.3411 33.7773 28.0203 33.7773 30.2493Z" fill="url(#paint8_linear_213_3)"/>
<path d="M90.7551 52.7959L42.2649 25.3734C40.9206 24.615 39.6485 24.2553 38.5157 24.2553C37.3607 24.2553 36.3531 24.6293 35.5665 25.3347L35.3223 25.0905C35.3985 25.0101 35.4778 24.9326 35.5599 24.8581C35.5624 24.8554 35.5665 24.8527 35.569 24.8502C36.3495 24.1502 37.3464 23.7762 38.491 23.7695H38.5157C39.6485 23.7695 40.9206 24.1293 42.2649 24.888L91.0671 52.4855L91.0658 52.4866L90.7551 52.7959" fill="url(#paint9_linear_213_3)"/>
<defs>
<linearGradient id="paint0_linear_213_3" x1="60.2288" y1="28.9865" x2="24.7854" y2="64.7127" gradientUnits="userSpaceOnUse">
<stop stop-color="#00A0FF"/>
<stop offset="0.00657" stop-color="#00A1FF"/>
<stop offset="0.2601" stop-color="#00BEFF"/>
<stop offset="0.5122" stop-color="#00D2FF"/>
<stop offset="0.7604" stop-color="#00DFFF"/>
<stop offset="1" stop-color="#00E3FF"/>
</linearGradient>
<linearGradient id="paint1_linear_213_3" x1="113.493" y1="66.292" x2="32.6574" y2="66.292" gradientUnits="userSpaceOnUse">
<stop stop-color="#FFE000"/>
<stop offset="0.4087" stop-color="#FFBD00"/>
<stop offset="0.7754" stop-color="#FFA500"/>
<stop offset="1" stop-color="#FF9C00"/>
</linearGradient>
<linearGradient id="paint2_linear_213_3" x1="83.4323" y1="79.5893" x2="23.3679" y2="139.691" gradientUnits="userSpaceOnUse">
<stop stop-color="#FF3A44"/>
<stop offset="1" stop-color="#C31162"/>
</linearGradient>
<linearGradient id="paint3_linear_213_3" x1="24.9007" y1="19.2271" x2="51.6697" y2="46.0539" gradientUnits="userSpaceOnUse">
<stop stop-color="#32A071"/>
<stop offset="0.0685" stop-color="#2DA771"/>
<stop offset="0.4762" stop-color="#15CF74"/>
<stop offset="0.8009" stop-color="#06E775"/>
<stop offset="1" stop-color="#00F076"/>
</linearGradient>
<linearGradient id="paint4_linear_213_3" x1="83.4004" y1="89.1174" x2="35.3001" y2="137.602" gradientUnits="userSpaceOnUse">
<stop stop-color="#CC2E36"/>
<stop offset="1" stop-color="#9C0E4E"/>
</linearGradient>
<linearGradient id="paint5_linear_213_3" x1="39.2913" y1="28.9864" x2="8.0661" y2="60.4612" gradientUnits="userSpaceOnUse">
<stop stop-color="#008DE0"/>
<stop offset="0.00657" stop-color="#008DE0"/>
<stop offset="0.2601" stop-color="#00A7E0"/>
<stop offset="0.5122" stop-color="#00B8E0"/>
<stop offset="0.7604" stop-color="#00C4E0"/>
<stop offset="1" stop-color="#00C7E0"/>
</linearGradient>
<linearGradient id="paint6_linear_213_3" x1="113.493" y1="66.5315" x2="32.6572" y2="66.5315" gradientUnits="userSpaceOnUse">
<stop stop-color="#E0C500"/>
<stop offset="0.4087" stop-color="#E0A600"/>
<stop offset="0.7754" stop-color="#E09100"/>
<stop offset="1" stop-color="#E08900"/>
</linearGradient>
<linearGradient id="paint7_linear_213_3" x1="113.493" y1="66.5316" x2="32.6569" y2="66.5316" gradientUnits="userSpaceOnUse">
<stop stop-color="#FFE840"/>
<stop offset="0.4087" stop-color="#FFCE40"/>
<stop offset="0.7754" stop-color="#FFBC40"/>
<stop offset="1" stop-color="#FFB540"/>
</linearGradient>
<linearGradient id="paint8_linear_213_3" x1="39.2572" y1="29.0429" x2="9.17337" y2="58.0532" gradientUnits="userSpaceOnUse">
<stop stop-color="#40B8FF"/>
<stop offset="0.00657" stop-color="#40B9FF"/>
<stop offset="0.2601" stop-color="#40CEFF"/>
<stop offset="0.5122" stop-color="#40DDFF"/>
<stop offset="0.7604" stop-color="#40E7FF"/>
<stop offset="1" stop-color="#40EAFF"/>
</linearGradient>
<linearGradient id="paint9_linear_213_3" x1="24.8383" y1="27.9393" x2="46.3173" y2="49.5899" gradientUnits="userSpaceOnUse">
<stop stop-color="#65B895"/>
<stop offset="0.0685" stop-color="#62BD95"/>
<stop offset="0.4762" stop-color="#50DB97"/>
<stop offset="0.8009" stop-color="#44ED98"/>
<stop offset="1" stop-color="#40F498"/>
</linearGradient>
</defs>
</svg>
