<svg xmlns="http://www.w3.org/2000/svg" xmlns:xlink="http://www.w3.org/1999/xlink" width="193" height="45" fill="none" xmlns:v="https://vecta.io/nano"><g fill="#fab231"><use xlink:href="#B"/><use xlink:href="#B" x="21.08"/><use xlink:href="#B" x="42.161"/><use xlink:href="#B" x="63.24"/><use xlink:href="#B" x="84.292"/></g><path d="M40.019 19.213H38.54v-.076H22.023v7.341h10.372c-1.513 4.273-5.579 7.341-10.372 7.341-6.081 0-11.012-4.93-11.012-11.012s4.93-11.012 11.012-11.012c2.807 0 5.361 1.059 7.305 2.789l5.191-5.191c-3.278-3.055-7.662-4.939-12.496-4.939-10.135 0-18.353 8.217-18.353 18.353S11.888 41.16 22.023 41.16s18.353-8.217 18.353-18.353c0-1.231-.127-2.432-.357-3.594z" fill="#ffc107"/><path d="M5.787 14.265l6.03 4.422c1.631-4.039 5.583-6.891 10.207-6.891 2.807 0 5.361 1.059 7.305 2.789l5.191-5.191c-3.278-3.055-7.662-4.939-12.496-4.939-7.049 0-13.163 3.98-16.237 9.81z" fill="#ff3d00"/><path d="M22.023 41.16c4.741 0 9.048-1.814 12.305-4.764l-5.68-4.806a10.93 10.93 0 0 1-6.624 2.23c-4.774 0-8.827-3.044-10.354-7.291l-5.985 4.611c3.037 5.944 9.206 10.022 16.339 10.022z" fill="#4caf50"/><path d="M40.019 19.213h-1.478v-.076H22.024v7.341h10.372a11.05 11.05 0 0 1-3.75 5.112l.003-.002 5.68 4.807c-.402.365 6.048-4.411 6.048-13.587a18.48 18.48 0 0 0-.357-3.594z" fill="#1976d2"/><path d="M61.445 13.308c-.369.442-.891.786-1.565 1.032s-1.422.362-2.242.362c-.861 0-1.618-.187-2.27-.561s-1.148-.925-1.504-1.641-.531-1.556-.54-2.522v-.677c0-.993.166-1.853.499-2.577s.82-1.285 1.449-1.668 1.374-.581 2.222-.581c1.18 0 2.103.283 2.769.848s1.06 1.379 1.183 2.454H59.45c-.091-.57-.294-.987-.608-1.251s-.738-.396-1.285-.396c-.697 0-1.228.262-1.593.786s-.549 1.303-.554 2.338v.636c0 1.044.198 1.832.595 2.365s.977.8 1.743.8 1.319-.164 1.647-.492v-1.716h-1.866v-1.51h3.917v3.972zm1.79-2.509c0-.734.141-1.388.424-1.962a3.11 3.11 0 0 1 1.217-1.333c.533-.314 1.151-.472 1.852-.472.998 0 1.812.305 2.441.916s.987 1.44 1.06 2.488l.014.506c0 1.135-.317 2.046-.95 2.734s-1.483 1.025-2.55 1.025-1.919-.342-2.557-1.025-.95-1.613-.95-2.789V10.8zm1.976.143c0 .702.132 1.24.397 1.613s.642.554 1.135.554c.479 0 .852-.182 1.121-.547s.403-.957.403-1.764c0-.688-.134-1.221-.403-1.6a1.31 1.31 0 0 0-1.135-.567c-.483 0-.857.189-1.121.567s-.397.955-.397 1.743zm6.5-.143c0-.734.141-1.388.424-1.962a3.11 3.11 0 0 1 1.217-1.333c.533-.314 1.151-.472 1.853-.472.998 0 1.811.305 2.44.916s.987 1.44 1.06 2.488l.014.506c0 1.135-.317 2.046-.95 2.734s-1.483 1.025-2.55 1.025-1.919-.342-2.557-1.025-.95-1.613-.95-2.789V10.8zm1.976.143c0 .702.132 1.24.397 1.613s.642.554 1.135.554c.479 0 .852-.182 1.121-.547s.403-.957.403-1.764c0-.688-.134-1.221-.403-1.6a1.31 1.31 0 0 0-1.135-.567c-.483 0-.857.189-1.121.567s-.397.955-.397 1.743zm6.521-.13c0-1.135.269-2.048.807-2.741s1.271-1.039 2.188-1.039c.811 0 1.442.278 1.894.834l.082-.697h1.791v7.15c0 .647-.148 1.21-.444 1.688a2.81 2.81 0 0 1-1.237 1.094c-.533.251-1.157.376-1.873.376a4.02 4.02 0 0 1-1.586-.328c-.515-.214-.905-.492-1.169-.834l.875-1.203c.492.552 1.089.827 1.791.827.524 0 .932-.141 1.224-.424s.438-.675.438-1.19v-.396c-.456.515-1.055.772-1.798.772-.889 0-1.609-.346-2.16-1.039s-.82-1.62-.82-2.768v-.082zm1.976.144c0 .67.134 1.196.403 1.579s.638.567 1.107.567c.602 0 1.032-.226 1.292-.677v-3.11c-.264-.451-.69-.677-1.278-.677a1.3 1.3 0 0 0-1.121.581c-.269.387-.403.966-.403 1.736zm8.955 3.609h-1.982v-10.5h1.982v10.5zm5.598.137c-1.085 0-1.969-.333-2.652-.998s-1.019-1.552-1.019-2.659v-.191c0-.743.144-1.406.431-1.989s.693-1.039 1.217-1.354 1.13-.479 1.805-.479c1.012 0 1.807.319 2.386.957s.875 1.543.875 2.714v.807h-4.71c.064.483.255.87.574 1.162s.731.438 1.224.438c.761 0 1.356-.276 1.784-.827l.971 1.087a2.99 2.99 0 0 1-1.203.984c-.506.237-1.066.349-1.682.349zm-.226-6.07c-.392 0-.711.132-.957.396s-.397.643-.465 1.135h2.748v-.157c-.009-.438-.128-.775-.356-1.012s-.551-.362-.971-.362zm13.158.39a5.37 5.37 0 0 0-.711-.055c-.747 0-1.237.253-1.47.759v4.84h-1.975V7.17h1.866l.055.882c.396-.679.945-1.019 1.647-1.019.219 0 .424.03.615.089l-.027 1.9zm5.598 5.544c-.091-.178-.157-.399-.198-.663-.479.533-1.101.8-1.866.8-.725 0-1.327-.21-1.805-.629s-.711-.948-.711-1.586c0-.784.289-1.385.868-1.805s1.424-.631 2.523-.636h.909v-.424c0-.342-.089-.615-.267-.82s-.449-.308-.827-.308c-.333 0-.595.08-.786.239s-.28.378-.28.656h-1.976a1.98 1.98 0 0 1 .397-1.189c.264-.365.638-.649 1.121-.854s1.025-.314 1.627-.314c.911 0 1.633.23 2.167.69s.806 1.098.806 1.928v3.206c.005.702.103 1.233.294 1.593v.116h-1.996zm-1.634-1.374c.292 0 .561-.064.807-.191s.428-.308.547-.526v-1.271h-.738c-.989 0-1.516.342-1.58 1.025l-.006.116a.79.79 0 0 0 .259.608c.174.159.411.239.711.239zm7.779-7.841V7.17h1.265v1.449h-1.265v3.691c0 .273.052.469.157.588s.306.178.602.178a3.15 3.15 0 0 0 .581-.048v1.497a4.08 4.08 0 0 1-1.196.178c-1.386 0-2.092-.7-2.12-2.099V8.619h-1.08V7.17h1.08V5.351h1.976zm5.01 9.215h-1.982V7.17h1.982v7.397zm-2.098-9.311c0-.296.098-.54.294-.731s.471-.287.813-.287.606.096.807.287.3.435.3.731a.97.97 0 0 1-.307.738c-.205.191-.467.287-.8.287s-.602-.096-.807-.287-.3-.437-.3-.738zm6.11 1.914l.062.854c.529-.661 1.237-.991 2.126-.991.784 0 1.367.23 1.75.69s.579 1.148.588 2.064v4.778h-1.976V9.836c0-.419-.091-.722-.273-.909s-.486-.287-.909-.287c-.556 0-.973.237-1.251.711v5.216h-1.976V7.17h1.859zm6.303 3.644c0-1.135.268-2.048.806-2.741s1.272-1.039 2.188-1.039c.811 0 1.442.278 1.893.834l.082-.697h1.791v7.15c0 .647-.148 1.21-.444 1.688a2.84 2.84 0 0 1-1.237 1.094c-.533.251-1.158.376-1.873.376-.543 0-1.071-.109-1.586-.328s-.905-.492-1.169-.834l.875-1.203c.492.552 1.089.827 1.791.827.524 0 .932-.141 1.223-.424s.438-.675.438-1.19v-.396c-.456.515-1.055.772-1.798.772-.889 0-1.609-.346-2.16-1.039s-.82-1.62-.82-2.768v-.082zm1.975.144c0 .67.135 1.196.404 1.579s.638.567 1.107.567c.601 0 1.032-.226 1.292-.677v-3.11c-.264-.451-.691-.677-1.278-.677a1.3 1.3 0 0 0-1.121.581c-.269.387-.404.966-.404 1.736zM61.259 34.219h1.289v1.82h-1.289V38.5h-2.258v-2.461h-4.664l-.102-1.422 4.742-7.492h2.281v7.094zm-4.773 0h2.516v-4.016l-.148.258-2.367 3.758zm8.132 3.172c0-.359.12-.651.359-.875.245-.224.549-.336.914-.336.37 0 .674.112.914.336a1.13 1.13 0 0 1 .367.875c0 .354-.12.643-.359.867s-.547.328-.922.328-.675-.109-.914-.328a1.13 1.13 0 0 1-.359-.867zm10.367-3.437c-.588.578-1.276.867-2.062.867-1.005 0-1.81-.344-2.414-1.031-.604-.693-.906-1.625-.906-2.797 0-.745.161-1.427.484-2.047.328-.625.784-1.109 1.367-1.453a3.76 3.76 0 0 1 1.969-.523c.75 0 1.417.187 2 .562s1.037.914 1.359 1.617.487 1.508.492 2.414v.836c0 1.896-.471 3.386-1.414 4.469s-2.279 1.661-4.008 1.734l-.555.008v-1.883l.5-.008c1.963-.089 3.026-1.011 3.188-2.766zm-1.508-.859c.365 0 .677-.094.938-.281.266-.187.466-.414.602-.68v-.93c0-.766-.146-1.359-.437-1.781s-.682-.633-1.172-.633c-.453 0-.826.208-1.117.625-.292.411-.437.93-.437 1.555s.141 1.13.422 1.531c.286.396.688.594 1.203.594z" fill="#000"/><defs ><path id="B" d="M95.711 23.423c.342-.821 1.505-.821 1.847 0l1.824 4.385a1 1 0 0 0 .843.613l4.734.38c.887.071 1.246 1.178.571 1.756l-3.607 3.09a1 1 0 0 0-.322.991l1.102 4.62c.206.865-.735 1.549-1.494 1.085l-4.053-2.476a1 1 0 0 0-1.043 0l-4.053 2.476c-.759.464-1.7-.22-1.494-1.085l1.102-4.62a1 1 0 0 0-.322-.991l-3.607-3.09c-.675-.579-.316-1.685.571-1.756l4.734-.38a1 1 0 0 0 .843-.613l1.824-4.385z"/></defs></svg>