<svg width="50" height="50" viewBox="0 0 50 50" fill="none" xmlns="http://www.w3.org/2000/svg">
<circle cx="25" cy="25" r="25" fill="#337AB7"/>
<path d="M26.6083 23.3917C25.7551 22.5388 24.5981 22.0597 23.3917 22.0597C22.1853 22.0597 21.0282 22.5388 20.175 23.3917L16.9573 26.6083C16.104 27.4616 15.6247 28.6188 15.6247 29.8255C15.6247 31.0322 16.104 32.1894 16.9573 33.0427C17.8105 33.896 18.9678 34.3753 20.1745 34.3753C21.3812 34.3753 22.5384 33.896 23.3917 33.0427L25 31.4344" stroke="white" stroke-width="2.08333" stroke-linecap="round" stroke-linejoin="round"/>
<path d="M23.3917 26.6083C24.2449 27.4612 25.4019 27.9403 26.6083 27.9403C27.8147 27.9403 28.9718 27.4612 29.825 26.6083L33.0427 23.3917C33.896 22.5384 34.3753 21.3812 34.3753 20.1745C34.3753 18.9678 33.896 17.8105 33.0427 16.9573C32.1895 16.104 31.0322 15.6247 29.8255 15.6247C28.6188 15.6247 27.4616 16.104 26.6083 16.9573L25 18.5656" stroke="white" stroke-width="2.08333" stroke-linecap="round" stroke-linejoin="round"/>
</svg>
