<svg width="62" height="62" viewBox="0 0 62 62" fill="none" xmlns="http://www.w3.org/2000/svg">
<path d="M39.8962 15.0482C39.8961 15.0483 39.8961 15.0483 39.8961 15.0483L39.8106 15.136L39.3728 15.5851L39.9972 15.6441C40.6616 15.707 41.2775 15.9769 41.7556 16.44L41.7593 16.4436C42.1811 16.8545 42.4523 17.3622 42.5721 17.8983L42.6723 18.347L43.0426 18.0745C43.1727 17.9788 43.3122 17.8951 43.4585 17.8212L43.5464 17.7768L43.5909 17.6888C44.0317 16.817 43.8896 15.7264 43.1509 15.0069L43.1508 15.0068C42.2421 14.1225 40.7856 14.1351 39.8962 15.0482Z" stroke="#337AB7" stroke-width="0.6"/>
<path d="M30.5632 21.7874C30.7241 22.1378 30.8351 22.5515 30.8763 22.9976L37.3987 16.2971C37.648 16.0406 37.9384 15.8443 38.2477 15.6855C38.6458 14.9215 38.5296 13.9569 37.8816 13.3265C37.0892 12.5554 35.8183 12.578 35.0496 13.3693L28.9121 19.6741C29.831 20.569 30.1383 20.8711 30.5632 21.7874V21.7874Z" stroke="#337AB7" stroke-width="0.6"/>
<path d="M15.1855 37.5061C15.1389 33.9976 16.4597 30.6821 18.9047 28.171L26.2507 20.6249C26.5384 19.8209 26.4473 19.0117 26.2206 18.5196C25.8868 17.8004 25.7004 17.6206 24.8155 16.7578L16.5555 25.2433C12.3767 29.5356 12.1034 36.1807 15.6601 40.797C15.3716 39.7359 15.2004 38.6351 15.1858 37.5061H15.1855Z" stroke="#337AB7" stroke-width="0.6"/>
<path d="M19.7921 29.0286L28.0528 20.5432C28.9382 21.406 29.1246 21.5858 29.4579 22.305C29.7892 23.0251 29.8513 24.4249 28.8217 25.4913L24.1321 30.338C23.9504 30.5243 23.9557 30.8239 24.1431 31.0064C24.3301 31.1873 24.6291 31.1853 24.8105 30.999L38.2868 17.1544C39.0552 16.3631 40.3264 16.3407 41.1188 17.1116C41.9096 17.8811 41.9222 19.1536 41.1541 19.9435L31.39 29.9691C31.2111 30.1528 31.2172 30.4537 31.4049 30.6373C31.5957 30.8218 31.8934 30.8182 32.0734 30.6337L43.3473 19.0439C44.1198 18.2503 45.3868 18.2385 46.1773 19.0083C46.967 19.7772 46.988 21.0437 46.2157 21.8362L34.9383 33.4224C34.7591 33.6069 34.7638 33.9065 34.9532 34.0906C35.1387 34.2712 35.4389 34.2684 35.6175 34.0845L45.3788 24.0561C46.1474 23.2664 47.4173 23.2402 48.2088 24.0114C49.0018 24.7828 49.0175 26.0597 48.2489 26.8494L38.482 36.8715C38.3028 37.0562 38.3069 37.3541 38.4969 37.5397C38.683 37.7205 38.9842 37.7189 39.1626 37.5341L44.9257 31.6076C45.7007 30.8107 46.9708 30.7989 47.7593 31.5653C48.5553 32.3412 48.571 33.6046 47.7949 34.4009L36.8575 45.638C32.2756 50.345 24.7305 50.4486 20.0195 45.8633C15.3081 41.2764 15.2106 33.7335 19.7923 29.0274" stroke="#337AB7" stroke-width="0.6"/>
<circle opacity="0.4" cx="31" cy="31" r="30.7" stroke="#337AB7" stroke-width="0.6"/>
</svg>
