<svg width="58" height="58" viewBox="0 0 58 58" fill="none" xmlns="http://www.w3.org/2000/svg">
<path d="M37.3086 14.0649C37.3086 14.065 37.3085 14.065 37.3085 14.065L37.2285 14.1471L36.7908 14.5961L37.4151 14.6551C38.0326 14.7135 38.6045 14.9643 39.0484 15.3943L39.0519 15.3977C39.4437 15.7793 39.6956 16.2508 39.8068 16.7488L39.9071 17.1975L40.2774 16.925C40.3981 16.8362 40.5277 16.7585 40.6637 16.6898L40.7516 16.6453L40.7961 16.5574C41.2121 15.7346 41.0781 14.7051 40.3808 14.0259L40.3807 14.0257C39.5229 13.1911 38.1482 13.203 37.3086 14.0649Z" stroke="#337AB7" stroke-width="0.6"/>
<path d="M28.5914 20.3829C28.742 20.7106 28.8458 21.0976 28.8843 21.515L34.9859 15.2467C35.2191 15.0068 35.4909 14.8232 35.7802 14.6746C36.1526 13.9599 36.0439 13.0575 35.4377 12.4678C34.6964 11.7464 33.5075 11.7676 32.7884 12.5078L27.0469 18.4059C27.9065 19.243 28.194 19.5256 28.5914 20.3828V20.3829Z" stroke="#337AB7" stroke-width="0.6"/>
<path d="M14.2062 35.0874C14.1626 31.8053 15.3982 28.7037 17.6854 26.3546L24.5575 19.2954C24.8267 18.5432 24.7414 17.7862 24.5294 17.3259C24.2171 16.653 24.0427 16.4849 23.2149 15.6777L15.4878 23.6157C11.5786 27.6312 11.3229 33.8475 14.6502 38.166C14.3803 37.1733 14.2202 36.1436 14.2065 35.0874H14.2062Z" stroke="#337AB7" stroke-width="0.6"/>
<path d="M18.516 27.157L26.2437 19.219C27.072 20.0261 27.2464 20.1943 27.5581 20.8671C27.8681 21.5408 27.9262 22.8503 26.963 23.8478L22.5759 28.3818C22.406 28.5562 22.4109 28.8364 22.5863 29.0071C22.7611 29.1763 23.0409 29.1745 23.2106 29.0002L35.8175 16.0488C36.5363 15.3085 37.7254 15.2876 38.4667 16.0087C39.2065 16.7286 39.2183 17.9191 38.4998 18.658L29.3656 28.0368C29.1983 28.2086 29.2039 28.4901 29.3796 28.6618C29.5581 28.8344 29.8365 28.831 30.0049 28.6585L40.5514 17.8164C41.2741 17.074 42.4594 17.0629 43.1989 17.7831C43.9376 18.5024 43.9573 19.6872 43.2348 20.4285L32.685 31.2673C32.5173 31.4398 32.5217 31.7201 32.6989 31.8924C32.8725 32.0613 33.1533 32.0587 33.3204 31.8867L42.4519 22.5052C43.171 21.7665 44.3588 21.742 45.0993 22.4634C45.8412 23.185 45.8559 24.3796 45.1368 25.1183L36 34.4938C35.8324 34.6666 35.8362 34.9453 36.014 35.1189C36.188 35.2881 36.4698 35.2865 36.6367 35.1137L42.028 29.5695C42.753 28.8241 43.9412 28.813 44.6788 29.53C45.4235 30.2558 45.4382 31.4377 44.7122 32.1826L34.4804 42.6948C30.194 47.0981 23.1357 47.195 18.7287 42.9055C14.3212 38.6145 14.23 31.5582 18.5161 27.1558" stroke="#337AB7" stroke-width="0.6"/>
<circle cx="29" cy="29" r="28.7" stroke="#337AB7" stroke-width="0.6"/>
</svg>
