<svg xmlns="http://www.w3.org/2000/svg" width="31" height="30" fill="none" xmlns:v="https://vecta.io/nano"><circle cx="15.5" cy="14.775" r="14.775" fill="#fff"/><path d="M21.375 11.388c.281 1.097.281 3.387.281 3.387s0 2.29-.281 3.387c-.156.606-.614 1.084-1.193 1.245-1.052.293-4.682.293-4.682.293s-3.628 0-4.682-.293a1.73 1.73 0 0 1-1.193-1.245c-.281-1.097-.281-3.387-.281-3.387s0-2.29.281-3.387c.156-.606.614-1.084 1.193-1.245C11.872 9.85 15.5 9.85 15.5 9.85s3.63 0 4.682.293a1.73 1.73 0 0 1 1.193 1.245h0zm-7.106 5.542l3.694-2.155-3.694-2.155v4.309z" fill="#337ab7"/></svg>