<svg xmlns="http://www.w3.org/2000/svg" width="31" height="30" fill="none" xmlns:v="https://vecta.io/nano"><circle cx="15.363" cy="14.775" r="14.775" fill="#fff"/><path d="M15.363 8.619l2.538.037c.656.031 1.102.134 1.495.286a3 3 0 0 1 1.091.71 3.02 3.02 0 0 1 .71 1.091c.152.392.255.839.286 1.495l.037 2.538-.037 2.538c-.031.656-.134 1.102-.286 1.495-.154.411-.396.784-.71 1.091-.308.313-.68.555-1.091.71-.392.152-.839.255-1.495.286l-2.538.037c-1.673 0-1.881-.006-2.538-.037s-1.102-.134-1.495-.286a3.01 3.01 0 0 1-1.091-.71 3.02 3.02 0 0 1-.71-1.091c-.153-.392-.255-.839-.286-1.495l-.037-2.538.037-2.538c.031-.656.134-1.102.286-1.495.154-.411.396-.784.71-1.091.308-.313.68-.555 1.091-.71.393-.153.838-.255 1.495-.286l2.538-.037zm0 3.078a3.08 3.08 0 0 0-3.078 3.078 3.08 3.08 0 0 0 3.078 3.078 3.08 3.08 0 0 0 3.078-3.078 3.08 3.08 0 0 0-3.078-3.078h0zm4.001-.154a.77.77 0 0 0-.769-.77.77.77 0 0 0-.77.77.77.77 0 0 0 .77.77.77.77 0 0 0 .769-.77zm-4.001 1.385c.49 0 .96.195 1.306.541s.541.816.541 1.306-.195.96-.541 1.306-.816.541-1.306.541-.96-.195-1.306-.541-.541-.816-.541-1.306.195-.96.541-1.306.816-.541 1.306-.541h0z" fill="#337ab7"/></svg>