<svg xmlns="http://www.w3.org/2000/svg" width="31" height="30" fill="none" xmlns:v="https://vecta.io/nano"><circle cx="15.226" cy="14.775" r="14.775" fill="#fff"/><path d="M21.619 11.061c-.47.208-.968.344-1.479.405.538-.322.941-.828 1.133-1.425-.505.3-1.058.511-1.635.625-.387-.415-.901-.69-1.461-.782s-1.135.002-1.635.27-.898.693-1.132 1.21-.29 1.097-.159 1.649a7.31 7.31 0 0 1-5.307-2.69c-.229.393-.349.84-.348 1.295 0 .893.454 1.681 1.145 2.143-.409-.013-.809-.123-1.166-.322v.032c0 .595.206 1.171.582 1.631s.9.776 1.483.894a2.59 2.59 0 0 1-1.164.044c.164.512.485.959.916 1.28s.952.498 1.489.508a5.17 5.17 0 0 1-3.811 1.066c1.177.757 2.547 1.159 3.946 1.157 4.736 0 7.326-3.923 7.326-7.326 0-.111-.003-.223-.008-.332a5.23 5.23 0 0 0 1.285-1.333v-.001z" fill="#337ab7"/></svg>