<svg width="78" height="79" viewBox="0 0 78 79" fill="none" xmlns="http://www.w3.org/2000/svg">
<path d="M56.6136 37.4386C56.6136 27.7186 48.6821 19.7871 38.9621 19.7871C29.2421 19.7871 21.3105 27.7186 21.3105 37.4386C21.3105 38.8383 21.4661 40.238 21.8549 41.6377C22.3214 43.8927 23.1768 45.2924 24.3432 47.2364C24.5765 47.7029 24.8875 48.1695 25.1985 48.7138C25.5873 49.3359 25.8984 49.958 26.2872 50.5023C27.8424 53.0684 28.7755 54.5459 28.7755 57.5785V64.8879C28.7755 66.7541 30.0975 68.2316 31.8859 68.5426C32.6635 72.5084 34.9963 74.9967 38.9621 74.9967C42.9278 74.9967 45.3384 72.5084 46.0382 68.5426C47.8267 68.2316 49.1486 66.6763 49.1486 64.8879V57.5785C49.1486 54.5459 50.0817 52.9906 51.6369 50.5023C51.948 49.958 52.3368 49.3359 52.7256 48.7138C53.0366 48.1695 53.3477 47.7029 53.5809 47.2364C54.7473 45.2924 55.6027 43.8927 56.0693 41.6377C56.4581 40.238 56.6136 38.8383 56.6136 37.4386ZM46.116 59.4447H31.9637V57.6562C31.9637 57.2674 31.9637 56.9564 31.8859 56.6453H46.116C46.116 56.9564 46.0382 57.2674 46.0382 57.6562V59.4447H46.116ZM45.4161 65.5877H32.508C32.1192 65.5877 31.8859 65.2767 31.8859 64.9657V62.5551H46.0382V64.9657C46.116 65.2767 45.8049 65.5877 45.4161 65.5877ZM38.9621 71.9641C38.1067 71.9641 35.9294 71.9641 35.0741 68.6981H42.9278C42.0725 71.9641 39.8174 71.9641 38.9621 71.9641Z" fill="#337AB7"/>
<path d="M70.9995 35.8833H64.5454C63.6901 35.8833 62.9902 36.5831 62.9902 37.4385C62.9902 38.2939 63.6901 38.9937 64.5454 38.9937H70.9995C71.8549 38.9937 72.5547 38.2939 72.5547 37.4385C72.5547 36.5831 71.8549 35.8833 70.9995 35.8833Z" fill="#337AB7"/>
<path d="M57.0005 20.9534C57.3893 20.9534 57.7781 20.7978 58.0891 20.4868L62.677 15.899C63.2991 15.2769 63.2991 14.3438 62.677 13.7217C62.0549 13.0996 61.1218 13.0996 60.4997 13.7217L55.9119 18.3095C55.2898 18.9316 55.2898 19.8647 55.9119 20.4868C56.2229 20.7978 56.6117 20.9534 57.0005 20.9534Z" fill="#337AB7"/>
<path d="M38.9595 13.4107C39.8149 13.4107 40.5147 12.7108 40.5147 11.8555V5.40139C40.5147 4.54603 39.8149 3.84619 38.9595 3.84619C38.1041 3.84619 37.4043 4.54603 37.4043 5.40139V11.8555C37.4043 12.7108 38.1041 13.4107 38.9595 13.4107Z" fill="#337AB7"/>
<path d="M19.8318 20.4868C20.1428 20.7978 20.5316 20.9534 20.9204 20.9534C21.3092 20.9534 21.698 20.7978 22.009 20.4868C22.6311 19.8647 22.6311 18.9316 22.009 18.3095L17.4212 13.7217C16.7991 13.0996 15.866 13.0996 15.2439 13.7217C14.6218 14.3438 14.6218 15.2769 15.2439 15.899L19.8318 20.4868Z" fill="#337AB7"/>
<path d="M13.4565 35.8833H7.00247C6.14711 35.8833 5.44727 36.5831 5.44727 37.4385C5.44727 38.2939 6.14711 38.9937 7.00247 38.9937H13.4565C14.3119 38.9937 15.0117 38.2939 15.0117 37.4385C15.0117 36.5831 14.3119 35.8833 13.4565 35.8833Z" fill="#337AB7"/>
<path d="M19.8318 54.3901L15.2439 58.978C14.6218 59.6 14.6218 60.5332 15.2439 61.1553C15.5549 61.4663 15.9438 61.6218 16.3326 61.6218C16.7214 61.6218 17.1101 61.4663 17.4212 61.1553L22.009 56.5674C22.6311 55.9453 22.6311 55.0122 22.009 54.3901C21.387 53.7681 20.3761 53.7681 19.8318 54.3901Z" fill="#337AB7"/>
<path d="M58.0891 54.3901C57.4671 53.7681 56.534 53.7681 55.9119 54.3901C55.2898 55.0122 55.2898 55.9453 55.9119 56.5674L60.4997 61.1553C60.8108 61.4663 61.1995 61.6218 61.5883 61.6218C61.9771 61.6218 62.366 61.4663 62.677 61.1553C63.2991 60.5332 63.2991 59.6 62.677 58.978L58.0891 54.3901Z" fill="#337AB7"/>
</svg>
