<svg width="68" height="64" viewBox="0 0 68 64" fill="none" xmlns="http://www.w3.org/2000/svg">
<path d="M2.1348 36.8348C4.622 45.3352 11.7912 62.6753 23.9057 61.1189C36.0562 59.5577 31.3112 43.8898 42.4341 41.7424C47.3305 40.797 50.6495 49.2714 55.5568 49.0077C61.8771 48.6681 65.0941 42.4119 66.8604 37.1524C70.6054 26.0004 64.997 7.08999 51.8711 3.81479C40.4168 0.956793 39.077 14.9518 29.1174 10.8868C23.5195 8.60209 24.0788 1.77909 17.261 0.402294C-3.36451 -3.76251 -1.1747 25.5238 2.1348 36.8348Z" fill="url(#paint0_linear_14_184)"/>
<path opacity="0.1" d="M46.5147 63.0609H21.4844C19.2838 63.0609 17.5 61.2771 17.5 59.0765V8.5176C17.5 6.317 19.2838 4.5332 21.4844 4.5332H46.5147C48.7153 4.5332 50.4991 6.317 50.4991 8.5176V59.0764C50.4991 61.277 48.7153 63.0609 46.5147 63.0609Z" fill="#2626BC"/>
<path d="M17.5 4.81641C17.5 3.15961 18.8431 1.81641 20.5 1.81641H47.4986C49.1554 1.81641 50.4986 3.15961 50.4986 4.81641V51.175C50.4986 52.8318 49.1554 54.175 47.4986 54.175H20.5C18.8431 54.175 17.5 52.8318 17.5 51.175V4.81641Z" fill="#2D58E0"/>
<path d="M31.7698 24.3472H25.0039C24.2704 24.3472 23.6758 23.7526 23.6758 23.0191V16.7754C23.6758 16.0419 24.2704 15.4473 25.0039 15.4473H31.7698C32.5033 15.4473 33.0979 16.0419 33.0979 16.7754V23.0191C33.0979 23.7526 32.5033 24.3472 31.7698 24.3472Z" fill="#1F50C9"/>
<path d="M43.051 24.3101H36.2852C35.5516 24.3101 34.957 23.7155 34.957 22.982V16.7383C34.957 16.0048 35.5516 15.4102 36.2852 15.4102H43.051C43.7845 15.4102 44.3791 16.0048 44.3791 16.7383V22.982C44.3791 23.7155 43.7845 24.3101 43.051 24.3101Z" fill="#1F50C9"/>
<path d="M50.4598 15.4102V24.31H47.5977C46.8645 24.31 46.2695 23.715 46.2695 22.9818V16.7383C46.2695 16.0052 46.8645 15.4102 47.5977 15.4102H50.4598Z" fill="#1F50C9"/>
<path d="M41.1489 9.89062H26.8477C26.481 9.89062 26.1836 10.1879 26.1836 10.5546C26.1836 10.9213 26.481 11.2187 26.8477 11.2187H41.1489C41.5156 11.2187 41.813 10.9213 41.813 10.5546C41.813 10.1879 41.5157 9.89062 41.1489 9.89062Z" fill="white"/>
<path d="M31.7698 22.9507H25.0039C24.2704 22.9507 23.6758 22.3561 23.6758 21.6226V15.3789C23.6758 14.6454 24.2704 14.0508 25.0039 14.0508H31.7698C32.5033 14.0508 33.0979 14.6454 33.0979 15.3789V21.6226C33.0979 22.3561 32.5033 22.9507 31.7698 22.9507Z" fill="#FF7EB8"/>
<path d="M30.3561 20.1738H27.6094C27.2427 20.1738 26.9453 20.4711 26.9453 20.8378C26.9453 21.2045 27.2427 21.5019 27.6094 21.5019H30.3561C30.7228 21.5019 31.0201 21.2045 31.0201 20.8378C31.0201 20.4711 30.7228 20.1738 30.3561 20.1738Z" fill="white"/>
<path d="M30.3561 18.0059H29.6016C29.2349 18.0059 28.9375 18.3033 28.9375 18.67C28.9375 19.0367 29.2349 19.334 29.6016 19.334H30.3561C30.7228 19.334 31.0201 19.0367 31.0201 18.67C31.0201 18.3033 30.7228 18.0059 30.3561 18.0059Z" fill="white"/>
<path d="M43.0471 22.9137H36.2812C35.5477 22.9137 34.9531 22.3191 34.9531 21.5856V15.3418C34.9531 14.6083 35.5477 14.0137 36.2812 14.0137H43.0471C43.7806 14.0137 44.3752 14.6083 44.3752 15.3418V21.5855C44.3752 22.319 43.7806 22.9137 43.0471 22.9137Z" fill="#02FFB3"/>
<path d="M41.6335 20.1387H38.8868C38.5201 20.1387 38.2227 20.4361 38.2227 20.8028C38.2227 21.1695 38.5201 21.4668 38.8868 21.4668H41.6335C42.0002 21.4668 42.2976 21.1695 42.2976 20.8028C42.2976 20.4361 42.0002 20.1387 41.6335 20.1387Z" fill="white"/>
<path d="M41.6334 17.9688H40.8789C40.5122 17.9688 40.2148 18.2662 40.2148 18.6328C40.2148 18.9995 40.5122 19.2969 40.8789 19.2969H41.6334C42.0001 19.2969 42.2975 18.9995 42.2975 18.6328C42.2975 18.2662 42.0001 17.9688 41.6334 17.9688Z" fill="white"/>
<path d="M50.4598 14.0137V22.9135H47.5977C46.8645 22.9135 46.2695 22.3185 46.2695 21.5853V15.3418C46.2695 14.6087 46.8645 14.0137 47.5977 14.0137H50.4598Z" fill="#9FB0FE"/>
<path d="M19.5 59.4564C18.3954 59.4564 17.5 58.561 17.5 57.4564V30.2683C17.5 28.0879 18.9862 26.3184 20.8203 26.3184H47.1783C49.0124 26.3184 50.4986 28.0879 50.4986 30.2683V57.4564C50.4986 58.561 49.6032 59.4564 48.4986 59.4564H19.5Z" fill="white"/>
<path d="M46.5147 60.5371H21.4844C18.9212 60.5371 16.8359 58.4518 16.8359 55.8887V5.33004C16.8359 2.76694 18.9212 0.681641 21.4844 0.681641H46.5147C49.0779 0.681641 51.1632 2.76694 51.1632 5.33004V55.8888C51.1632 58.4518 49.0779 60.5371 46.5147 60.5371ZM21.4844 2.00974C19.6536 2.00974 18.1641 3.49924 18.1641 5.33004V55.8888C18.1641 57.7196 19.6536 59.2091 21.4844 59.2091H46.5147C48.3456 59.2091 49.8351 57.7196 49.8351 55.8888V5.33004C49.8351 3.49924 48.3456 2.00974 46.5147 2.00974H21.4844Z" fill="#2626BC"/>
<path d="M38.3378 57.9043H29.6644C29.4421 57.9043 29.2617 58.0543 29.2617 58.2393C29.2617 58.4242 29.4421 58.5742 29.6644 58.5742H38.3378C38.5602 58.5742 38.7405 58.4242 38.7405 58.2393C38.7405 58.0543 38.5603 57.9043 38.3378 57.9043Z" fill="#2626BC"/>
<path d="M31.1568 30.6094H28.4101C28.0435 30.6094 27.7461 30.9068 27.7461 31.2735C27.7461 31.6402 28.0435 31.9375 28.4101 31.9375H31.1568C31.5235 31.9375 31.8209 31.6402 31.8209 31.2735C31.8209 30.9068 31.5235 30.6094 31.1568 30.6094Z" fill="#00D890"/>
<path d="M44.7037 33.3027H28.4102C28.0435 33.3027 27.7461 33.6 27.7461 33.9667C27.7461 34.3334 28.0435 34.6308 28.4102 34.6308H44.7037C45.0704 34.6308 45.3678 34.3334 45.3678 33.9667C45.3678 33.6 45.0704 33.3027 44.7037 33.3027Z" fill="#9FB0FE"/>
<path d="M24.5596 34.6318H21.8672C21.5005 34.6318 21.2031 34.3344 21.2031 33.9677V31.2753C21.2031 30.9086 21.5005 30.6113 21.8672 30.6113H24.5596C24.9262 30.6113 25.2236 30.9086 25.2236 31.2753V33.9677C25.2236 34.3344 24.9262 34.6318 24.5596 34.6318Z" fill="#02FFB3"/>
<path d="M31.1568 38.8359H28.4101C28.0435 38.8359 27.7461 39.1332 27.7461 39.4999C27.7461 39.8666 28.0435 40.164 28.4101 40.164H31.1568C31.5235 40.164 31.8209 39.8666 31.8209 39.4999C31.8209 39.1332 31.5235 38.8359 31.1568 38.8359Z" fill="#FF5BA8"/>
<path d="M44.7037 41.5293H28.4102C28.0435 41.5293 27.7461 41.8267 27.7461 42.1934C27.7461 42.5601 28.0435 42.8575 28.4102 42.8575H44.7037C45.0704 42.8575 45.3678 42.5601 45.3678 42.1934C45.3678 41.8267 45.0704 41.5293 44.7037 41.5293Z" fill="#9FB0FE"/>
<path d="M24.5596 42.8564H21.8672C21.5005 42.8564 21.2031 42.559 21.2031 42.1923V39.4999C21.2031 39.1332 21.5005 38.8359 21.8672 38.8359H24.5596C24.9262 38.8359 25.2236 39.1332 25.2236 39.4999V42.1923C25.2236 42.559 24.9262 42.8564 24.5596 42.8564Z" fill="#FF7EB8"/>
<path d="M31.1568 47.0625H28.4101C28.0435 47.0625 27.7461 47.3599 27.7461 47.7266C27.7461 48.0933 28.0435 48.3907 28.4101 48.3907H31.1568C31.5235 48.3907 31.8209 48.0933 31.8209 47.7266C31.8209 47.3599 31.5235 47.0625 31.1568 47.0625Z" fill="#6583FE"/>
<path d="M44.7037 49.7559H28.4102C28.0435 49.7559 27.7461 50.0533 27.7461 50.42C27.7461 50.7867 28.0435 51.084 28.4102 51.084H44.7037C45.0704 51.084 45.3678 50.7867 45.3678 50.42C45.3678 50.0533 45.0704 49.7559 44.7037 49.7559Z" fill="#9FB0FE"/>
<path d="M24.5596 51.083H21.8672C21.5005 51.083 21.2031 50.7857 21.2031 50.419V47.7266C21.2031 47.3599 21.5005 47.0625 21.8672 47.0625H24.5596C24.9262 47.0625 25.2236 47.3599 25.2236 47.7266V50.419C25.2236 50.7857 24.9262 51.083 24.5596 51.083Z" fill="#9FB0FE"/>
<path d="M55.5582 50.2885C54.5116 50.2885 53.6602 49.4371 53.6602 48.3904C53.6602 47.3437 54.5116 46.4922 55.5582 46.4922C56.6047 46.4922 57.4562 47.3437 57.4562 48.3904C57.4562 49.4371 56.6047 50.2885 55.5582 50.2885ZM55.5582 47.8205C55.2439 47.8205 54.9883 48.0761 54.9883 48.3905C54.9883 48.7049 55.2439 48.9605 55.5582 48.9605C55.8724 48.9605 56.1281 48.7049 56.1281 48.3905C56.1281 48.0761 55.8724 47.8205 55.5582 47.8205Z" fill="#6583FE"/>
<path d="M11.0117 22.0234C10.645 22.0234 10.3476 21.726 10.3476 21.3593C10.3476 20.9198 9.99032 20.5624 9.55082 20.5624C9.18412 20.5624 8.88672 20.2651 8.88672 19.8984C8.88672 19.5317 9.18412 19.2343 9.55082 19.2343C9.99032 19.2343 10.3476 18.8769 10.3476 18.4374C10.3476 18.0707 10.645 17.7734 11.0117 17.7734C11.3784 17.7734 11.6758 18.0707 11.6758 18.4374C11.6758 18.8769 12.0332 19.2343 12.4726 19.2343C12.8393 19.2343 13.1367 19.5317 13.1367 19.8984C13.1367 20.2651 12.8393 20.5624 12.4726 20.5624C12.0332 20.5624 11.6758 20.9198 11.6758 21.3593C11.6758 21.726 11.3784 22.0234 11.0117 22.0234Z" fill="#01ECA5"/>
<path d="M57.4609 56.2988C57.0941 56.2988 56.7969 56.0014 56.7969 55.6347C56.7969 55.1952 56.4395 54.8378 56 54.8378C55.6332 54.8378 55.3359 54.5405 55.3359 54.1738C55.3359 53.8071 55.6332 53.5097 56 53.5097C56.4395 53.5097 56.7969 53.1523 56.7969 52.7128C56.7969 52.3461 57.0941 52.0488 57.4609 52.0488C57.8278 52.0488 58.125 52.3461 58.125 52.7128C58.125 53.1523 58.4824 53.5097 58.9219 53.5097C59.2887 53.5097 59.5859 53.8071 59.5859 54.1738C59.5859 54.5405 59.2887 54.8378 58.9219 54.8378C58.4824 54.8378 58.125 55.1952 58.125 55.6347C58.125 56.0014 57.8278 56.2988 57.4609 56.2988Z" fill="#01ECA5"/>
<path d="M58.9219 17.5352C58.555 17.5352 58.2578 17.2378 58.2578 16.8711C58.2578 16.4316 57.9004 16.0742 57.4609 16.0742C57.0941 16.0742 56.7969 15.7769 56.7969 15.4102C56.7969 15.0435 57.0941 14.7461 57.4609 14.7461C57.9004 14.7461 58.2578 14.3887 58.2578 13.9493C58.2578 13.5826 58.555 13.2852 58.9219 13.2852C59.2887 13.2852 59.5859 13.5826 59.5859 13.9493C59.5859 14.3887 59.9433 14.7461 60.3828 14.7461C60.7496 14.7461 61.0469 15.0435 61.0469 15.4102C61.0469 15.7769 60.7496 16.0742 60.3828 16.0742C59.9433 16.0742 59.5859 16.4316 59.5859 16.8711C59.5859 17.2378 59.2887 17.5352 58.9219 17.5352Z" fill="#FF5BA8"/>
<path d="M9.64453 28.5703C9.27783 28.5703 8.98053 28.273 8.98053 27.9063C8.98053 27.4668 8.62313 27.1094 8.18363 27.1094C7.81693 27.1094 7.51953 26.812 7.51953 26.4453C7.51953 26.0786 7.81693 25.7813 8.18363 25.7813C8.62313 25.7813 8.98053 25.4239 8.98053 24.9844C8.98053 24.6177 9.27783 24.3203 9.64453 24.3203C10.0112 24.3203 10.3086 24.6177 10.3086 24.9844C10.3086 25.4239 10.666 25.7813 11.1055 25.7813C11.4722 25.7813 11.7695 26.0786 11.7695 26.4453C11.7695 26.812 11.4722 27.1094 11.1055 27.1094C10.666 27.1094 10.3086 27.4668 10.3086 27.9063C10.3086 28.273 10.0114 28.5703 9.64453 28.5703Z" fill="#FF5BA8"/>
<path d="M26.457 1.81641H42.1067V2.85901C42.1067 3.78371 41.3571 4.53321 40.4325 4.53321H28.1313C27.2066 4.53321 26.457 3.78371 26.457 2.85901V1.81641Z" fill="#2626BC"/>
<defs>
<linearGradient id="paint0_linear_14_184" x1="3.1637" y1="42.1988" x2="61.0315" y2="8.7889" gradientUnits="userSpaceOnUse">
<stop stop-color="#DCFDEE" stop-opacity="0"/>
<stop offset="0.6288" stop-color="#D2F3E4"/>
</linearGradient>
</defs>
</svg>
