<svg width="48" height="48" viewBox="0 0 48 48" fill="none" xmlns="http://www.w3.org/2000/svg">
<path d="M29.8784 10.38C30.6345 9.50856 31.211 8.49634 31.5748 7.40147C31.9386 6.30661 32.0825 5.15066 31.9984 4C29.6771 4.18737 27.5224 5.27911 25.9984 7.04C25.2686 7.88395 24.7155 8.86576 24.372 9.92729C24.0284 10.9888 23.9014 12.1085 23.9984 13.22C25.1306 13.2294 26.2499 12.9782 27.2696 12.4857C28.2892 11.9932 29.1818 11.2727 29.8784 10.38ZM34.9184 25.26C34.9318 23.7275 35.3354 22.2236 36.0913 20.8904C36.8471 19.5572 37.9302 18.4385 39.2384 17.64C38.4128 16.4505 37.3214 15.4697 36.0508 14.7753C34.7802 14.081 33.3653 13.6923 31.9184 13.64C28.7984 13.32 25.9184 15.46 24.2584 15.46C22.5984 15.46 20.2584 13.68 17.6584 13.72C15.9586 13.776 14.3024 14.2716 12.8513 15.1584C11.4001 16.0452 10.2036 17.293 9.37836 18.78C5.85836 24.9 8.47836 34 11.9984 38.94C13.5984 41.36 15.5984 44.1 18.2384 44C20.8784 43.9 21.7384 42.36 24.7984 42.36C27.8584 42.36 28.7984 44 31.3984 43.94C33.9984 43.88 35.8384 41.46 37.5184 39.04C38.7084 37.2831 39.6381 35.3632 40.2784 33.34C38.6933 32.664 37.341 31.5386 36.3884 30.1026C35.4359 28.6667 34.9248 26.9832 34.9184 25.26Z" fill="#337AB7"/>
</svg>
