<svg width="68" height="68" viewBox="0 0 68 68" fill="none" xmlns="http://www.w3.org/2000/svg">
<g clip-path="url(#clip0_28:802)">
<path d="M2.13484 39.305C4.62202 47.8054 11.7912 65.1455 23.9057 63.5891C36.0562 62.0279 31.3112 46.36 42.4341 44.2125C47.3305 43.2672 50.6495 51.7415 55.5568 51.4779C61.8771 51.1383 65.0941 44.882 66.8602 39.6225C70.6051 28.4705 64.997 9.56016 51.8711 6.285C40.4168 3.42701 39.077 17.422 29.1174 13.357C23.5195 11.0722 24.0788 4.24926 17.261 2.87252C-3.36453 -1.29235 -1.17472 27.994 2.13484 39.305Z" fill="url(#paint0_linear_28:802)"/>
<path opacity="0.1" d="M46.5147 65.5301H21.4844C19.2838 65.5301 17.5 63.7463 17.5 61.5457V10.9868C17.5 8.78625 19.2838 7.00244 21.4844 7.00244H46.5147C48.7153 7.00244 50.4991 8.78625 50.4991 10.9868V61.5456C50.4991 63.7462 48.7153 65.5301 46.5147 65.5301Z" fill="#2626BC"/>
<path d="M46.5147 62.3426H21.4844C19.2838 62.3426 17.5 60.5588 17.5 58.3582V7.79932C17.5 5.59875 19.2838 3.81494 21.4844 3.81494H46.5147C48.7153 3.81494 50.4991 5.59875 50.4991 7.79932V58.3581C50.4991 60.5587 48.7153 62.3426 46.5147 62.3426Z" fill="#6583FE"/>
<path d="M17.5 9.51367H50.4986V56.6435H17.5V9.51367Z" fill="#2D58E0"/>
<path d="M31.7717 26.8169H25.0059C24.2723 26.8169 23.6777 26.2223 23.6777 25.4888V19.2451C23.6777 18.5116 24.2723 17.917 25.0059 17.917H31.7717C32.5053 17.917 33.0999 18.5116 33.0999 19.2451V25.4888C33.0999 26.2223 32.5053 26.8169 31.7717 26.8169Z" fill="#1F50C9"/>
<path d="M43.0501 26.7793H36.2842C35.5507 26.7793 34.9561 26.1847 34.9561 25.4512V19.2075C34.9561 18.474 35.5507 17.8794 36.2842 17.8794H43.0501C43.7836 17.8794 44.3782 18.474 44.3782 19.2075V25.4512C44.3782 26.1847 43.7836 26.7793 43.0501 26.7793Z" fill="#1F50C9"/>
<path d="M50.4617 17.8794V26.7792H47.5996C46.8665 26.7792 46.2715 26.1842 46.2715 25.451V19.2075C46.2715 18.4744 46.8665 17.8794 47.5996 17.8794H50.4617Z" fill="#1F50C9"/>
<path d="M41.1499 12.3596H26.8486C26.4819 12.3596 26.1846 12.657 26.1846 13.0237C26.1846 13.3904 26.4819 13.6877 26.8486 13.6877H41.1499C41.5166 13.6877 41.814 13.3904 41.814 13.0237C41.814 12.657 41.5167 12.3596 41.1499 12.3596Z" fill="white"/>
<path d="M31.7717 25.4207H25.0059C24.2723 25.4207 23.6777 24.8261 23.6777 24.0925V17.8489C23.6777 17.1154 24.2723 16.5208 25.0059 16.5208H31.7717C32.5053 16.5208 33.0999 17.1154 33.0999 17.8489V24.0925C33.0999 24.8261 32.5053 25.4207 31.7717 25.4207Z" fill="#FF7EB8"/>
<path d="M30.36 22.6453H27.6133C27.2466 22.6453 26.9492 22.9426 26.9492 23.3093C26.9492 23.676 27.2466 23.9734 27.6133 23.9734H30.36C30.7267 23.9734 31.024 23.676 31.024 23.3093C31.024 22.9426 30.7267 22.6453 30.36 22.6453Z" fill="white"/>
<path d="M30.36 20.4766H29.6055C29.2388 20.4766 28.9414 20.7739 28.9414 21.1406C28.9414 21.5073 29.2388 21.8047 29.6055 21.8047H30.36C30.7267 21.8047 31.024 21.5073 31.024 21.1406C31.024 20.7739 30.7267 20.4766 30.36 20.4766Z" fill="white"/>
<path d="M43.05 25.3834H36.2842C35.5507 25.3834 34.9561 24.7888 34.9561 24.0553V17.8115C34.9561 17.078 35.5507 16.4834 36.2842 16.4834H43.05C43.7836 16.4834 44.3782 17.078 44.3782 17.8115V24.0552C44.3782 24.7887 43.7836 25.3834 43.05 25.3834Z" fill="#02FFB3"/>
<path d="M41.6383 22.6082H38.8916C38.5249 22.6082 38.2275 22.9055 38.2275 23.2722C38.2275 23.6389 38.5249 23.9363 38.8916 23.9363H41.6383C42.005 23.9363 42.3024 23.6389 42.3024 23.2722C42.3024 22.9055 42.005 22.6082 41.6383 22.6082Z" fill="white"/>
<path d="M41.6383 20.4392H40.8838C40.5171 20.4392 40.2197 20.7366 40.2197 21.1033C40.2197 21.47 40.5171 21.7673 40.8838 21.7673H41.6383C42.005 21.7673 42.3024 21.47 42.3024 21.1033C42.3024 20.7366 42.005 20.4392 41.6383 20.4392Z" fill="white"/>
<path d="M50.4617 16.4834V25.3832H47.5996C46.8665 25.3832 46.2715 24.7882 46.2715 24.055V17.8115C46.2715 17.0784 46.8665 16.4834 47.5996 16.4834H50.4617Z" fill="#9FB0FE"/>
<path d="M17.5 56.6435V32.1077C17.5 30.2749 18.9862 28.7874 20.8203 28.7874H47.1783C49.0124 28.7874 50.4986 30.2749 50.4986 32.1077V56.6435H17.5Z" fill="white"/>
<path d="M46.5148 63.0064H21.4844C18.9212 63.0064 16.8359 60.9211 16.8359 58.358V7.79932C16.8359 5.23617 18.9212 3.15088 21.4844 3.15088H46.5148C49.0779 3.15088 51.1632 5.23617 51.1632 7.79932V58.3581C51.1632 60.9211 49.0779 63.0064 46.5148 63.0064ZM21.4844 4.479C19.6536 4.479 18.1641 5.9685 18.1641 7.79932V58.3581C18.1641 60.1889 19.6536 61.6784 21.4844 61.6784H46.5148C48.3456 61.6784 49.8351 60.1889 49.8351 58.3581V7.79932C49.8351 5.9685 48.3456 4.479 46.5148 4.479H21.4844Z" fill="#2626BC"/>
<path d="M36.3217 7.44995H31.6777C31.311 7.44995 31.0137 7.15258 31.0137 6.78589C31.0137 6.41919 31.311 6.12183 31.6777 6.12183H36.3217C36.6884 6.12183 36.9857 6.41919 36.9857 6.78589C36.9857 7.15258 36.6884 7.44995 36.3217 7.44995Z" fill="#B7C5FF"/>
<path d="M39.4202 7.45C39.7871 7.45 40.0845 7.15256 40.0845 6.78567C40.0845 6.41877 39.7871 6.12134 39.4202 6.12134C39.0533 6.12134 38.7559 6.41877 38.7559 6.78567C38.7559 7.15256 39.0533 7.45 39.4202 7.45Z" fill="#B7C5FF"/>
<path d="M31.1559 33.0786H28.4092C28.0425 33.0786 27.7451 33.376 27.7451 33.7427C27.7451 34.1094 28.0425 34.4067 28.4092 34.4067H31.1559C31.5226 34.4067 31.8199 34.1094 31.8199 33.7427C31.8199 33.376 31.5226 33.0786 31.1559 33.0786Z" fill="#00D890"/>
<path d="M44.7028 35.771H28.4092C28.0425 35.771 27.7451 36.0684 27.7451 36.4351C27.7451 36.8018 28.0425 37.0991 28.4092 37.0991H44.7028C45.0695 37.0991 45.3668 36.8018 45.3668 36.4351C45.3668 36.0684 45.0695 35.771 44.7028 35.771Z" fill="#9FB0FE"/>
<path d="M24.5596 37.1001H21.8672C21.5005 37.1001 21.2031 36.8027 21.2031 36.436V33.7437C21.2031 33.377 21.5005 33.0796 21.8672 33.0796H24.5596C24.9263 33.0796 25.2236 33.377 25.2236 33.7437V36.436C25.2236 36.8027 24.9263 37.1001 24.5596 37.1001Z" fill="#02FFB3"/>
<path d="M31.1559 41.3054H28.4092C28.0425 41.3054 27.7451 41.6028 27.7451 41.9695C27.7451 42.3362 28.0425 42.6335 28.4092 42.6335H31.1559C31.5226 42.6335 31.8199 42.3362 31.8199 41.9695C31.8199 41.6028 31.5226 41.3054 31.1559 41.3054Z" fill="#FF5BA8"/>
<path d="M44.7028 43.9978H28.4092C28.0425 43.9978 27.7451 44.2952 27.7451 44.6619C27.7451 45.0286 28.0425 45.3259 28.4092 45.3259H44.7028C45.0695 45.3259 45.3668 45.0286 45.3668 44.6619C45.3668 44.2952 45.0695 43.9978 44.7028 43.9978Z" fill="#9FB0FE"/>
<path d="M24.5596 45.3259H21.8672C21.5005 45.3259 21.2031 45.0286 21.2031 44.6619V41.9695C21.2031 41.6028 21.5005 41.3054 21.8672 41.3054H24.5596C24.9263 41.3054 25.2236 41.6028 25.2236 41.9695V44.6619C25.2236 45.0286 24.9263 45.3259 24.5596 45.3259Z" fill="#FF7EB8"/>
<path d="M31.1559 49.5322H28.4092C28.0425 49.5322 27.7451 49.8296 27.7451 50.1963C27.7451 50.563 28.0425 50.8604 28.4092 50.8604H31.1559C31.5226 50.8604 31.8199 50.563 31.8199 50.1963C31.8199 49.8296 31.5226 49.5322 31.1559 49.5322Z" fill="#6583FE"/>
<path d="M44.7028 52.2246H28.4092C28.0425 52.2246 27.7451 52.522 27.7451 52.8887C27.7451 53.2554 28.0425 53.5527 28.4092 53.5527H44.7028C45.0695 53.5527 45.3668 53.2554 45.3668 52.8887C45.3668 52.522 45.0695 52.2246 44.7028 52.2246Z" fill="#9FB0FE"/>
<path d="M24.5596 53.5527H21.8672C21.5005 53.5527 21.2031 53.2554 21.2031 52.8887V50.1963C21.2031 49.8296 21.5005 49.5322 21.8672 49.5322H24.5596C24.9263 49.5322 25.2236 49.8296 25.2236 50.1963V52.8887C25.2236 53.2554 24.9263 53.5527 24.5596 53.5527Z" fill="#9FB0FE"/>
<path d="M55.5601 52.7585C54.5136 52.7585 53.6621 51.907 53.6621 50.8603C53.6621 49.8136 54.5136 48.9622 55.5601 48.9622C56.6067 48.9622 57.4581 49.8136 57.4581 50.8603C57.4581 51.907 56.6067 52.7585 55.5601 52.7585ZM55.5601 50.2904C55.2459 50.2904 54.9902 50.5461 54.9902 50.8604C54.9902 51.1748 55.2459 51.4305 55.5601 51.4305C55.8744 51.4305 56.13 51.1748 56.13 50.8604C56.13 50.5461 55.8744 50.2904 55.5601 50.2904Z" fill="#6583FE"/>
<path d="M11.0127 24.4919C10.646 24.4919 10.3486 24.1946 10.3486 23.8279C10.3486 23.3884 9.99123 23.031 9.55176 23.031C9.18506 23.031 8.8877 22.7336 8.8877 22.3669C8.8877 22.0002 9.18506 21.7029 9.55176 21.7029C9.99123 21.7029 10.3486 21.3455 10.3486 20.906C10.3486 20.5393 10.646 20.2419 11.0127 20.2419C11.3794 20.2419 11.6768 20.5393 11.6768 20.906C11.6768 21.3455 12.0342 21.7029 12.4736 21.7029C12.8403 21.7029 13.1377 22.0002 13.1377 22.3669C13.1377 22.7336 12.8403 23.031 12.4736 23.031C12.0342 23.031 11.6768 23.3884 11.6768 23.8279C11.6768 24.1946 11.3794 24.4919 11.0127 24.4919Z" fill="#01ECA5"/>
<path d="M57.4609 58.7686C57.0941 58.7686 56.7969 58.4712 56.7969 58.1045C56.7969 57.665 56.4395 57.3076 56 57.3076C55.6332 57.3076 55.3359 57.0103 55.3359 56.6436C55.3359 56.2769 55.6332 55.9795 56 55.9795C56.4395 55.9795 56.7969 55.6221 56.7969 55.1826C56.7969 54.8159 57.0941 54.5186 57.4609 54.5186C57.8278 54.5186 58.125 54.8159 58.125 55.1826C58.125 55.6221 58.4824 55.9795 58.9219 55.9795C59.2887 55.9795 59.5859 56.2769 59.5859 56.6436C59.5859 57.0103 59.2887 57.3076 58.9219 57.3076C58.4824 57.3076 58.125 57.665 58.125 58.1045C58.125 58.4712 57.8278 58.7686 57.4609 58.7686Z" fill="#01ECA5"/>
<path d="M58.9219 20.0044C58.555 20.0044 58.2578 19.707 58.2578 19.3403C58.2578 18.9009 57.9004 18.5435 57.4609 18.5435C57.0941 18.5435 56.7969 18.2461 56.7969 17.8794C56.7969 17.5127 57.0941 17.2153 57.4609 17.2153C57.9004 17.2153 58.2578 16.8579 58.2578 16.4185C58.2578 16.0518 58.555 15.7544 58.9219 15.7544C59.2887 15.7544 59.5859 16.0518 59.5859 16.4185C59.5859 16.8579 59.9433 17.2153 60.3828 17.2153C60.7496 17.2153 61.0469 17.5127 61.0469 17.8794C61.0469 18.2461 60.7496 18.5435 60.3828 18.5435C59.9433 18.5435 59.5859 18.9009 59.5859 19.3403C59.5859 19.707 59.2887 20.0044 58.9219 20.0044Z" fill="#FF5BA8"/>
<path d="M9.64551 31.0391C9.27881 31.0391 8.98144 30.7417 8.98144 30.375C8.98144 29.9355 8.62405 29.5781 8.18457 29.5781C7.81787 29.5781 7.52051 29.2808 7.52051 28.9141C7.52051 28.5474 7.81787 28.25 8.18457 28.25C8.62405 28.25 8.98144 27.8926 8.98144 27.4531C8.98144 27.0864 9.27881 26.7891 9.64551 26.7891C10.0122 26.7891 10.3096 27.0864 10.3096 27.4531C10.3096 27.8926 10.667 28.25 11.1064 28.25C11.4731 28.25 11.7705 28.5474 11.7705 28.9141C11.7705 29.2808 11.4731 29.5781 11.1064 29.5781C10.667 29.5781 10.3096 29.9355 10.3096 30.375C10.3096 30.7417 10.0123 31.0391 9.64551 31.0391Z" fill="#FF5BA8"/>
</g>
<defs>
<linearGradient id="paint0_linear_28:802" x1="3.16374" y1="44.669" x2="61.0315" y2="11.2591" gradientUnits="userSpaceOnUse">
<stop stop-color="#DCFDEE" stop-opacity="0"/>
<stop offset="0.6288" stop-color="#D2F3E4"/>
</linearGradient>
<clipPath id="clip0_28:802">
<rect width="68" height="68" fill="white"/>
</clipPath>
</defs>
</svg>
