<svg width="40" height="40" viewBox="0 0 40 40" fill="none" xmlns="http://www.w3.org/2000/svg">
<g clip-path="url(#clip0_797_60)">
<path d="M39.4976 18.3297C39.2414 18.0539 37.4023 15.807 36.4109 14.5961C35.8836 13.9523 35.4672 13.4438 35.2922 13.2328L35.2781 13.2156L35.2625 13.1992C34.8547 12.7437 34.275 12.2219 33.4047 12.2219C33.2632 12.2237 33.122 12.2352 32.982 12.2563C32.9531 12.2602 32.9234 12.2648 32.8922 12.268C32.7008 12.2891 32.1062 12.3852 30.6937 12.618C29.6 12.7969 27.9508 13.0688 27.7008 13.0922L27.6453 13.0969L27.5914 13.107C26.8101 13.2461 26.293 13.593 26.0633 14.1375C25.9422 14.425 25.8117 15.0086 26.293 15.6891C26.4125 15.8625 26.8265 16.4359 27.5383 17.4211C28.0117 18.0773 28.5437 18.8133 29.0031 19.4523L20.3047 21.4844L11.7703 7.50391L11.7547 7.47734L11.7367 7.45156L11.7023 7.40078C11.3531 6.88828 10.9187 6.25 9.66405 6.25C9.57577 6.25 9.48359 6.25 9.38046 6.25859C9.02109 6.27813 7.70702 6.38125 6.18593 6.50156C4.50703 6.63359 2.20937 6.81406 1.91093 6.82187H1.8539L1.79218 6.82813C1.07812 6.89766 0.560153 7.1875 0.253122 7.6875C-0.258597 8.52266 0.142185 9.46016 0.273434 9.76797C0.536716 10.3906 2.93437 15.4453 5.04921 19.907C6.45546 22.8711 7.90702 25.9359 8.02577 26.2078C8.2346 26.7157 8.59211 27.1485 9.05138 27.4496C9.51064 27.7506 10.0502 27.9057 10.5992 27.8945C10.8583 27.8934 11.1165 27.8646 11.3695 27.8086H11.3859L11.4016 27.8047C12.4844 27.5406 15.9195 26.6687 18.3703 26.0398C18.5187 26.2992 18.675 26.5734 18.8391 26.8555C20.5523 29.8633 21.8 32.0391 22.2109 32.5945C22.4219 32.8906 23.0469 33.75 24.2234 33.75C24.65 33.75 25.0406 33.6406 25.4531 33.5242L25.5726 33.4906H25.582C26.4047 33.2562 37.3547 29.4156 37.9156 29.1664L37.9328 29.1586C38.3578 28.9703 39 28.6859 39.1969 27.9555C39.3258 27.4773 39.2109 26.9922 38.8547 26.5133L38.8492 26.5062L38.8437 26.4992C38.7773 26.4133 38.5312 26.0922 38.1976 25.6477C37.4844 24.7047 36.332 23.1812 35.3195 21.8555C36.6765 21.5039 38.3508 21.0656 38.7086 20.9531C39.6047 20.6852 39.8758 20.118 39.9586 19.8023C40.0203 19.5563 40.1008 18.9273 39.4976 18.3297V18.3297ZM14.4976 22.8758C13.1062 23.2016 12.1367 23.4289 11.5375 23.5711C11.0164 22.5289 9.9953 20.4734 8.99843 18.4672C6.67499 13.7859 5.47499 11.3758 4.84374 10.1156L5.48046 10.0609C6.52265 9.97109 7.94999 9.84844 8.74452 9.78203C10.0539 11.9898 14.5508 19.5711 16.268 22.4617L14.4976 22.8758ZM28.4164 28.082C26.525 28.707 25.5 29.0484 24.9461 29.2336C24.4539 28.4258 23.3711 26.6148 22.4094 25L31.4484 22.6969C31.839 23.2289 32.5867 24.2375 34.0625 26.207C32.6508 26.6789 30.2969 27.4586 28.4164 28.082ZM32.7812 18.5797L30.925 16.1164C31.993 15.9297 32.6078 15.8219 32.9679 15.757L33.9054 16.9195L34.8383 18.0773C34.1976 18.2328 33.4523 18.4148 32.7812 18.5797Z" fill="#357AB4"/>
</g>
<defs>
<clipPath id="clip0_797_60">
<rect width="40" height="40" fill="white"/>
</clipPath>
</defs>
</svg>
