<svg width="77" height="77" viewBox="0 0 77 77" fill="none" xmlns="http://www.w3.org/2000/svg">
<path d="M46.8593 59.8521L44.2129 65.4087L58.677 72.2975L61.3234 66.7409L46.8593 59.8521Z" fill="#337AB7"/>
<path d="M50.6052 59.3035L60.213 63.8793L60.1217 62.6592C60.0074 61.1668 60.4776 59.6884 61.4331 58.5364L69.8851 48.3088C71.3225 46.2892 72.0871 43.8681 72.0703 41.3893L68.7985 20.7507C68.2079 21.0085 67.7098 21.4403 67.3709 21.9884C67.0319 22.5366 66.8682 23.1751 66.9015 23.8187C66.9015 23.8279 66.9015 23.8369 66.9024 23.8461L67.128 33.0871C67.5655 33.195 67.991 33.3472 68.3977 33.5412C68.5226 33.6006 68.6345 33.684 68.727 33.7867C68.8196 33.8894 68.891 34.0093 68.9373 34.1396C68.9835 34.2699 69.0036 34.408 68.9964 34.5461C68.9893 34.6842 68.955 34.8195 68.8955 34.9443L63.5717 46.1233C63.513 46.2493 63.43 46.3625 63.3273 46.4563C63.2247 46.55 63.1045 46.6225 62.9736 46.6696C62.8428 46.7167 62.704 46.7373 62.5651 46.7304C62.4263 46.7235 62.2901 46.6892 62.1646 46.6294C62.0391 46.5697 61.9267 46.4856 61.8338 46.3821C61.7409 46.2787 61.6695 46.1578 61.6236 46.0266C61.5777 45.8953 61.5583 45.7563 61.5664 45.6175C61.5745 45.4787 61.61 45.3429 61.6709 45.2179L66.4894 35.1004C65.489 34.8879 64.4461 35.0181 63.5287 35.4701C62.6112 35.9221 61.8725 36.6696 61.4313 37.5924L58.1922 44.3936C57.5417 45.755 56.5934 46.9525 55.4174 47.8977L54.7444 48.4375C53.1457 49.713 51.9184 51.3939 51.1904 53.3051C50.4624 55.2162 50.2603 57.2877 50.6052 59.3035Z" fill="#337AB7"/>
<path d="M15.5689 37.593C15.1279 36.6701 14.3892 35.9225 13.4717 35.4705C12.5542 35.0185 11.5112 34.8884 10.5108 35.1011L15.3293 45.2187C15.3902 45.3437 15.4257 45.4795 15.4339 45.6183C15.442 45.757 15.4225 45.8961 15.3766 46.0273C15.3307 46.1585 15.2593 46.2794 15.1664 46.3829C15.0736 46.4863 14.9611 46.5704 14.8356 46.6302C14.7101 46.69 14.574 46.7243 14.4351 46.7312C14.2963 46.7381 14.1574 46.7174 14.0266 46.6703C13.8958 46.6233 13.7756 46.5508 13.6729 46.457C13.5703 46.3632 13.4872 46.2501 13.4285 46.124L8.10471 34.945C8.04526 34.8202 8.01097 34.6849 8.00382 34.5468C7.99666 34.4088 8.01677 34.2707 8.06299 34.1404C8.10922 34.0101 8.18065 33.8902 8.27322 33.7875C8.36579 33.6848 8.47768 33.6013 8.6025 33.5419C9.00927 33.3479 9.4347 33.1958 9.87225 33.0879L10.0978 23.8468C10.0978 23.8376 10.0978 23.8286 10.0987 23.8194C10.132 23.1758 9.96831 22.5373 9.62936 21.9892C9.29042 21.441 8.79239 21.0093 8.20171 20.7515L4.92996 41.3894C4.91311 43.8682 5.6777 46.2893 7.11514 48.3089L15.5671 58.5365C16.5226 59.6886 16.9928 61.167 16.8785 62.6593L16.7872 63.8794L26.3951 59.3036C26.7399 57.2879 26.5378 55.2165 25.8097 53.3054C25.0817 51.3943 23.8545 49.7134 22.2559 48.4379L21.5827 47.898C20.4068 46.9528 19.4585 45.7552 18.808 44.3939L15.5689 37.593Z" fill="#337AB7"/>
<path d="M30.1419 59.8514L15.6777 66.7402L18.3242 72.2968L32.7883 65.408L30.1419 59.8514Z" fill="#337AB7"/>
<path d="M30.9797 19.5903C28.7044 21.7282 27.2963 24.6294 27.0245 27.7397L26.7422 31.091L30.9793 28.8351L30.9797 19.5903Z" fill="#337AB7"/>
<path d="M42.4102 34.5898H34.5898V37.1465H42.4102V34.5898Z" fill="#337AB7"/>
<path d="M43.9141 25.8672H33.0859V32.4844H43.9141V25.8672Z" fill="#337AB7"/>
<path d="M43.9141 14.2498C43.9116 12.561 43.3477 10.9209 42.311 9.58772L38.5 4.70288L34.6893 9.58712C33.6525 10.9203 33.0885 12.5604 33.0859 14.2492V23.7617H43.9141V14.2498ZM38.5233 19.0924C38.5156 19.0924 38.5083 19.0924 38.5 19.0924C37.7711 19.0924 37.0585 18.8763 36.4524 18.4713C35.8463 18.0663 35.3739 17.4907 35.0949 16.8172C34.816 16.1438 34.743 15.4027 34.8852 14.6878C35.0274 13.9728 35.3784 13.3161 35.8939 12.8007C36.4093 12.2852 37.066 11.9342 37.781 11.792C38.4959 11.6498 39.237 11.7228 39.9104 12.0017C40.5839 12.2807 41.1595 12.7531 41.5645 13.3592C41.9695 13.9653 42.1856 14.6778 42.1856 15.4068C42.1856 17.3948 40.5428 19.0479 38.5233 19.0927V19.0924Z" fill="#337AB7"/>
<path d="M49.9748 27.7397C49.703 24.6294 48.2949 21.7282 46.0195 19.5903V28.8357L50.2566 31.0916L49.9748 27.7397Z" fill="#337AB7"/>
<path d="M38.5001 13.8274C38.1875 13.8274 37.882 13.9201 37.6222 14.0937C37.3623 14.2673 37.1598 14.5141 37.0402 14.8029C36.9206 15.0916 36.8893 15.4094 36.9503 15.7159C37.0113 16.0224 37.1618 16.304 37.3828 16.5249C37.6038 16.7459 37.8854 16.8964 38.1919 16.9574C38.4984 17.0183 38.8161 16.987 39.1049 16.8674C39.3936 16.7478 39.6404 16.5452 39.814 16.2853C39.9876 16.0254 40.0803 15.7199 40.0802 15.4074C40.0698 14.9916 39.8999 14.5958 39.6058 14.3017C39.3117 14.0076 38.9158 13.8378 38.5001 13.8274Z" fill="#337AB7"/>
<path d="M37.4473 41.7202V48.1644C37.4473 48.4436 37.5582 48.7114 37.7556 48.9088C37.953 49.1063 38.2208 49.2172 38.5 49.2172C38.7792 49.2172 39.047 49.1063 39.2444 48.9088C39.4418 48.7114 39.5527 48.4436 39.5527 48.1644V41.7202C39.5527 41.441 39.4418 41.1732 39.2444 40.9758C39.047 40.7784 38.7792 40.6675 38.5 40.6675C38.2208 40.6675 37.953 40.7784 37.7556 40.9758C37.5582 41.1732 37.4473 41.441 37.4473 41.7202Z" fill="#337AB7"/>
<path d="M43.0714 46.1957C43.1156 46.3269 43.1853 46.448 43.2765 46.5522C43.3677 46.6564 43.4785 46.7416 43.6026 46.8029C43.7267 46.8642 43.8617 46.9004 43.9999 46.9095C44.138 46.9186 44.2766 46.9003 44.4077 46.8558C44.5387 46.8112 44.6597 46.7412 44.7637 46.6498C44.8677 46.5585 44.9527 46.4475 45.0137 46.3232C45.0747 46.1989 45.1107 46.0639 45.1194 45.9257C45.1282 45.7875 45.1096 45.649 45.0648 45.518L43.6586 41.3823C43.5664 41.1211 43.3748 40.9067 43.1256 40.7858C42.8763 40.6648 42.5895 40.647 42.3272 40.7362C42.0649 40.8254 41.8483 41.0144 41.7244 41.2622C41.6005 41.51 41.5793 41.7966 41.6654 42.0599L43.0714 46.1957Z" fill="#337AB7"/>
<path d="M33.931 46.1957L35.337 42.0599C35.4231 41.7966 35.4019 41.51 35.278 41.2622C35.1541 41.0144 34.9376 40.8254 34.6753 40.7362C34.413 40.647 34.1261 40.6648 33.8768 40.7858C33.6276 40.9067 33.436 41.1211 33.3438 41.3823L31.9376 45.518C31.8928 45.649 31.8742 45.7875 31.883 45.9257C31.8917 46.0639 31.9277 46.1989 31.9887 46.3232C32.0498 46.4475 32.1347 46.5585 32.2387 46.6498C32.3427 46.7412 32.4637 46.8112 32.5948 46.8558C32.7258 46.9003 32.8644 46.9186 33.0026 46.9095C33.1407 46.9004 33.2757 46.8642 33.3998 46.8029C33.5239 46.7416 33.6348 46.6564 33.7259 46.5522C33.8171 46.448 33.8868 46.3269 33.931 46.1957Z" fill="#337AB7"/>
</svg>
