<svg width="12" height="10" viewBox="0 0 12 10" fill="none" xmlns="http://www.w3.org/2000/svg">
<path d="M9.426 4.55625L7.026 2.05625C6.97006 1.99798 6.90364 1.95175 6.83055 1.92021C6.75746 1.88868 6.67912 1.87244 6.6 1.87244C6.52088 1.87244 6.44254 1.88868 6.36945 1.92021C6.29636 1.95175 6.22994 1.99798 6.174 2.05625C6.11806 2.11452 6.07368 2.18371 6.0434 2.25984C6.01313 2.33598 5.99755 2.41759 5.99755 2.5C5.99755 2.58241 6.01313 2.66402 6.0434 2.74016C6.07368 2.81629 6.11806 2.88548 6.174 2.94375L7.554 4.375H0.6C0.44087 4.375 0.288258 4.44085 0.175736 4.55806C0.0632141 4.67527 0 4.83424 0 5C0 5.16576 0.0632141 5.32473 0.175736 5.44194C0.288258 5.55915 0.44087 5.625 0.6 5.625H7.554L6.174 7.05625C6.11776 7.11435 6.07313 7.18348 6.04267 7.25964C6.0122 7.3358 5.99652 7.41749 5.99652 7.5C5.99652 7.58251 6.0122 7.6642 6.04267 7.74036C6.07313 7.81652 6.11776 7.88565 6.174 7.94375C6.22978 8.00233 6.29614 8.04883 6.36925 8.08056C6.44237 8.11229 6.52079 8.12862 6.6 8.12862C6.67921 8.12862 6.75763 8.11229 6.83075 8.08056C6.90386 8.04883 6.97022 8.00233 7.026 7.94375L9.426 5.44375C9.48062 5.38431 9.52344 5.31422 9.552 5.2375C9.61201 5.08534 9.61201 4.91466 9.552 4.7625C9.52344 4.68578 9.48062 4.61569 9.426 4.55625ZM11.4 0C11.2409 0 11.0883 0.0658481 10.9757 0.183058C10.8632 0.300269 10.8 0.45924 10.8 0.625V9.375C10.8 9.54076 10.8632 9.69973 10.9757 9.81694C11.0883 9.93415 11.2409 10 11.4 10C11.5591 10 11.7117 9.93415 11.8243 9.81694C11.9368 9.69973 12 9.54076 12 9.375V0.625C12 0.45924 11.9368 0.300269 11.8243 0.183058C11.7117 0.0658481 11.5591 0 11.4 0Z" fill="black"/>
</svg>
