<svg width="30" height="30" viewBox="0 0 30 30" fill="none" xmlns="http://www.w3.org/2000/svg">
<circle cx="15" cy="15" r="15" fill="#337AB7"/>
<path fill-rule="evenodd" clip-rule="evenodd" d="M13.7145 13.4845H15.5715V14.4095C15.839 13.8775 16.525 13.3995 17.5555 13.3995C19.531 13.3995 20 14.4585 20 16.4015V20H18V16.844C18 15.7375 17.7325 15.1135 17.0515 15.1135C16.107 15.1135 15.7145 15.786 15.7145 16.8435V20H13.7145V13.4845V13.4845ZM10.285 19.915H12.285V13.3995H10.285V19.915V19.915ZM12.5715 11.275C12.5716 11.4426 12.5383 11.6086 12.4737 11.7633C12.4091 11.918 12.3143 12.0583 12.195 12.176C11.9532 12.4163 11.6259 12.5508 11.285 12.55C10.9447 12.5498 10.6182 12.4156 10.376 12.1765C10.2571 12.0584 10.1627 11.9179 10.0982 11.7632C10.0337 11.6085 10.0003 11.4426 10 11.275C10 10.9365 10.135 10.6125 10.3765 10.3735C10.6184 10.1341 10.9451 9.99985 11.2855 10C11.6265 10 11.9535 10.1345 12.195 10.3735C12.436 10.6125 12.5715 10.9365 12.5715 11.275Z" fill="white"/>
</svg>
