<svg width="41" height="41" viewBox="0 0 41 41" fill="none" xmlns="http://www.w3.org/2000/svg">
<path d="M34.3858 6.10576C32.5408 4.19556 30.3339 2.67192 27.8939 1.62374C25.4538 0.575556 22.8294 0.0238315 20.1738 0.000755135C17.5182 -0.0223212 14.8846 0.483713 12.4267 1.48933C9.96876 2.49495 7.73572 3.98001 5.85786 5.85786C3.98001 7.73572 2.49495 9.96876 1.48933 12.4267C0.483713 14.8846 -0.0223212 17.5182 0.000755135 20.1738C0.0238315 22.8294 0.575556 25.4538 1.62374 27.8939C2.67192 30.3339 4.19556 32.5408 6.10576 34.3858C7.9507 36.296 10.1576 37.8196 12.5977 38.8678C15.0378 39.916 17.6622 40.4677 20.3177 40.4908C22.9733 40.5139 25.6069 40.0078 28.0648 39.0022C30.5228 37.9966 32.7558 36.5115 34.6337 34.6337C36.5115 32.7558 37.9966 30.5228 39.0022 28.0648C40.0078 25.6069 40.5139 22.9733 40.4908 20.3177C40.4677 17.6622 39.916 15.0378 38.8678 12.5977C37.8196 10.1576 36.296 7.9507 34.3858 6.10576Z" fill="#FF475E"/>
<path d="M27.4316 12.5916C27.2457 12.4041 27.0245 12.2554 26.7808 12.1538C26.537 12.0523 26.2756 12 26.0116 12C25.7476 12 25.4862 12.0523 25.2424 12.1538C24.9987 12.2554 24.7775 12.4041 24.5916 12.5916L20.0116 17.1916L15.4316 12.5916C15.055 12.215 14.5442 12.0034 14.0116 12.0034C13.479 12.0034 12.9682 12.215 12.5916 12.5916C12.215 12.9682 12.0034 13.479 12.0034 14.0116C12.0034 14.5442 12.215 15.055 12.5916 15.4316L17.1916 20.0116L12.5916 24.5916C12.4041 24.7775 12.2554 24.9987 12.1538 25.2424C12.0523 25.4862 12 25.7476 12 26.0116C12 26.2756 12.0523 26.537 12.1538 26.7808C12.2554 27.0245 12.4041 27.2457 12.5916 27.4316C12.7775 27.6191 12.9987 27.7678 13.2424 27.8694C13.4862 27.9709 13.7476 28.0232 14.0116 28.0232C14.2756 28.0232 14.537 27.9709 14.7808 27.8694C15.0245 27.7678 15.2457 27.6191 15.4316 27.4316L20.0116 22.8316L24.5916 27.4316C24.7775 27.6191 24.9987 27.7678 25.2424 27.8694C25.4862 27.9709 25.7476 28.0232 26.0116 28.0232C26.2756 28.0232 26.537 27.9709 26.7808 27.8694C27.0245 27.7678 27.2457 27.6191 27.4316 27.4316C27.6191 27.2457 27.7678 27.0245 27.8694 26.7808C27.9709 26.537 28.0232 26.2756 28.0232 26.0116C28.0232 25.7476 27.9709 25.4862 27.8694 25.2424C27.7678 24.9987 27.6191 24.7775 27.4316 24.5916L22.8316 20.0116L27.4316 15.4316C27.6191 15.2457 27.7678 15.0245 27.8694 14.7808C27.9709 14.537 28.0232 14.2756 28.0232 14.0116C28.0232 13.7476 27.9709 13.4862 27.8694 13.2424C27.7678 12.9987 27.6191 12.7775 27.4316 12.5916Z" fill="white"/>
</svg>
