<svg width="68" height="68" viewBox="0 0 68 68" fill="none" xmlns="http://www.w3.org/2000/svg">
<circle cx="34" cy="34" r="34" fill="#337AB7"/>
<path d="M34.0021 13C33.5413 13 33.2218 13.1773 32.8745 13.368C32.5273 13.5586 32.1761 13.7908 31.8303 14.0276C31.4845 14.2644 31.1449 14.5074 30.8624 14.6886C30.5799 14.8697 30.3222 14.9878 30.2986 14.9941C30.275 15.0003 29.9938 15.0237 29.6585 15.0081C29.3231 14.9922 28.9142 14.9572 28.4962 14.9247C28.0782 14.8923 27.6538 14.861 27.2575 14.8692C26.8613 14.8775 26.5013 14.8821 26.1022 15.1122C25.7031 15.3422 25.5145 15.6485 25.3093 15.987C25.104 16.3255 24.9194 16.7147 24.7386 17.0924C24.5577 17.47 24.3843 17.836 24.2303 18.1338C24.0764 18.4317 23.9129 18.6665 23.8957 18.6837C23.8785 18.7009 23.6455 18.8633 23.3471 19.017C23.0488 19.1707 22.6742 19.3433 22.296 19.5239C21.9177 19.7044 21.5352 19.8952 21.1962 20.1001C20.8571 20.3051 20.549 20.4877 20.3185 20.8861C20.0881 21.2845 20.0838 21.6431 20.0755 22.0387C20.0672 22.4342 20.0985 22.8586 20.1311 23.2759C20.1636 23.6933 20.1985 24.1006 20.2144 24.4354C20.2302 24.7703 20.2069 25.0521 20.2005 25.0756C20.1943 25.0993 20.0695 25.356 19.8881 25.638C19.7066 25.92 19.4712 26.2593 19.234 26.6045C18.9968 26.9497 18.7626 27.3062 18.5716 27.6529C18.3807 27.9996 18.2037 28.3121 18.2037 28.7721C18.2037 29.2322 18.3806 29.5433 18.5716 29.89C18.7626 30.2367 18.9969 30.5946 19.234 30.9398C19.4712 31.285 19.7066 31.6159 19.8881 31.898C20.0695 32.18 20.1942 32.4368 20.2005 32.4604C20.2067 32.4837 20.2302 32.7657 20.2144 33.1005C20.1985 33.4353 20.1636 33.8496 20.1311 34.267C20.0986 34.6843 20.0673 35.1087 20.0755 35.5042C20.0839 35.8998 20.0881 36.2583 20.3185 36.6568C20.549 37.0552 20.8571 37.2378 21.1962 37.4428C21.3966 37.5639 21.6127 37.6791 21.8335 37.7913L16.0957 47.7214C16.0307 47.8337 15.9977 47.9616 16.0001 48.0912C16.0026 48.2209 16.0405 48.3475 16.1097 48.4572C16.1789 48.5669 16.2769 48.6555 16.3928 48.7136C16.5088 48.7716 16.6385 48.7968 16.7678 48.7865L22.8917 48.288L25.5217 53.83C25.5775 53.9462 25.6639 54.0451 25.7715 54.116C25.8792 54.187 26.0041 54.2273 26.1329 54.2327C26.2617 54.2381 26.3895 54.2085 26.5028 54.1468C26.616 54.0852 26.7103 53.9939 26.7757 53.8828L32.5177 43.9596C32.6366 44.0339 32.7561 44.1098 32.8745 44.1749C33.2218 44.3655 33.5413 44.5428 34.0021 44.5428C34.463 44.5428 34.7755 44.3655 35.1227 44.1749C35.259 44.1001 35.3956 44.0144 35.5324 43.9277L41.2188 53.762C41.2837 53.8745 41.3782 53.9672 41.4921 54.0298C41.6059 54.0924 41.7347 54.1226 41.8646 54.1172C41.9944 54.1118 42.1202 54.0709 42.2284 53.9989C42.3366 53.927 42.4231 53.8268 42.4783 53.7092L45.1084 48.1728L51.2336 48.6657C51.3628 48.6758 51.4923 48.6504 51.6081 48.5922C51.7239 48.5341 51.8216 48.4454 51.8906 48.3357C51.9597 48.2261 51.9975 48.0996 51.9999 47.9701C52.0023 47.8405 51.9693 47.7128 51.9044 47.6006L46.2137 37.765C46.4167 37.6609 46.6148 37.5546 46.7997 37.4428C47.1388 37.2379 47.4469 37.0553 47.6774 36.6568C47.9079 36.2584 47.9123 35.8998 47.9204 35.5043C47.9284 35.1087 47.9042 34.6843 47.8717 34.267C47.8392 33.8497 47.7973 33.4353 47.7815 33.1005C47.7654 32.7657 47.7944 32.4839 47.8024 32.4604C47.8078 32.437 47.9278 32.18 48.1093 31.898C48.2907 31.616 48.5262 31.285 48.7634 30.9398C49.0007 30.5946 49.2403 30.2367 49.4313 29.89C49.6224 29.5433 49.7937 29.2323 49.7937 28.7722C49.7937 28.3121 49.6223 27.9996 49.4313 27.6529C49.2402 27.3062 49.0005 26.9497 48.7634 26.6045C48.5261 26.2593 48.2907 25.9201 48.1093 25.638C47.928 25.356 47.8088 25.0992 47.8024 25.0756C47.7971 25.0523 47.7663 24.7703 47.7815 24.4355C47.7976 24.1007 47.8392 23.6933 47.8717 23.276C47.9043 22.8586 47.9287 22.4343 47.9204 22.0387C47.9123 21.6431 47.9075 21.2846 47.6774 20.8861C47.4468 20.4877 47.1388 20.3051 46.7997 20.1002C46.4607 19.8953 46.0796 19.7045 45.7013 19.5239C45.3231 19.3433 44.9485 19.1707 44.6501 19.017C44.3518 18.8634 44.1175 18.701 44.1002 18.6838C44.083 18.6666 43.9195 18.4317 43.7656 18.1339C43.6116 17.836 43.4382 17.47 43.2573 17.0924C43.0765 16.7148 42.8919 16.3255 42.6866 15.9871C42.4814 15.6486 42.2928 15.3423 41.8937 15.1122C41.4946 14.8822 41.1346 14.8775 40.7384 14.8692C40.3421 14.8609 39.9177 14.8923 39.4997 14.9248C39.0817 14.9572 38.6728 14.9922 38.3374 15.0081C38.0021 15.0239 37.7208 15.0006 37.6973 14.9941C37.6736 14.9879 37.416 14.8697 37.1335 14.6886C36.851 14.5074 36.5114 14.2644 36.1656 14.0276C35.8198 13.7908 35.47 13.5587 35.1227 13.368C34.7755 13.1773 34.463 13 34.0021 13ZM34.0021 14.4234C33.9442 14.4234 34.1671 14.4665 34.4326 14.6122C34.6981 14.758 35.0311 14.9732 35.3658 15.2024C35.7004 15.4315 36.038 15.6755 36.3614 15.8828C36.6848 16.0901 36.9623 16.2641 37.3279 16.3619C37.6935 16.4597 38.0229 16.4425 38.4069 16.4244C38.7908 16.4061 39.2062 16.3724 39.6108 16.341C40.0154 16.3096 40.4077 16.2862 40.7106 16.2924C41.0135 16.2986 41.2343 16.37 41.1841 16.341C41.1339 16.3121 41.3119 16.4656 41.4688 16.7243C41.6257 16.983 41.802 17.3378 41.977 17.7033C42.1521 18.0688 42.3229 18.4468 42.4991 18.7878C42.6754 19.1288 42.83 19.4232 43.0977 19.6904C43.3653 19.9576 43.6545 20.1047 43.9961 20.2806C44.3377 20.4565 44.7228 20.6349 45.0889 20.8097C45.4551 20.9844 45.8032 21.1598 46.0624 21.3165C46.3217 21.4732 46.4746 21.6443 46.4456 21.5942C46.4166 21.5441 46.495 21.7639 46.5012 22.0664C46.5066 22.3688 46.4851 22.7609 46.4526 23.1648C46.4211 23.5687 46.3806 23.9896 46.3623 24.3729C46.3435 24.7561 46.327 25.0785 46.4248 25.4435C46.5229 25.8085 46.7045 26.0858 46.9122 26.4086C47.1199 26.7315 47.3575 27.0757 47.5871 27.4098C47.8166 27.7439 48.0326 28.0682 48.1786 28.3333C48.3245 28.5983 48.373 28.8299 48.373 28.7721C48.373 28.7142 48.3245 28.9444 48.1786 29.2095C48.0327 29.4745 47.8166 29.7988 47.5871 30.1329C47.3576 30.467 47.1199 30.8113 46.9122 31.1341C46.7045 31.457 46.5228 31.7273 46.4248 32.0923C46.3267 32.4573 46.344 32.7866 46.3623 33.1699C46.3811 33.5531 46.4211 33.9671 46.4526 34.371C46.484 34.7749 46.5076 35.167 46.5012 35.4694C46.4958 35.7718 46.4166 35.9917 46.4456 35.9416C46.4747 35.8915 46.3215 36.0696 46.0624 36.2262C45.8031 36.3829 45.4551 36.5583 45.0889 36.7331C44.7228 36.9078 44.3377 37.0862 43.9961 37.2622C43.6545 37.4381 43.3653 37.5851 43.0977 37.8523C42.83 38.1195 42.6754 38.407 42.4991 38.748C42.3229 39.089 42.1521 39.474 41.977 39.8395C41.802 40.205 41.6257 40.5527 41.4688 40.8115C41.3119 41.0702 41.1339 41.2237 41.1841 41.1948C41.2343 41.1658 41.0135 41.244 40.7106 41.2503C40.4077 41.2565 40.0154 41.2331 39.6108 41.2017C39.2062 41.1703 38.7908 41.1296 38.4069 41.1114C38.0229 41.0932 37.6935 41.0761 37.3279 41.1739C36.9623 41.2717 36.6848 41.4526 36.3614 41.6599C36.038 41.8673 35.7004 42.1112 35.3658 42.3404C35.0311 42.5695 34.6981 42.7862 34.4326 42.9319C34.1671 43.0777 33.9441 43.1194 34.0021 43.1194C34.0601 43.1194 33.8288 43.0777 33.5633 42.9319C33.2978 42.7862 32.9718 42.5696 32.6371 42.3404C32.3024 42.1112 31.9593 41.8673 31.6359 41.66C31.3125 41.4526 31.0336 41.2718 30.668 41.174C30.3024 41.0761 29.973 41.0933 29.589 41.1115C29.2051 41.1297 28.7897 41.1703 28.3851 41.2017C27.9805 41.2331 27.5882 41.2566 27.2853 41.2503C26.9824 41.2442 26.7616 41.1659 26.8118 41.1948C26.862 41.2237 26.684 41.0703 26.5271 40.8115C26.3702 40.5528 26.1939 40.205 26.0189 39.8395C25.8438 39.474 25.673 39.089 25.4967 38.748C25.3205 38.407 25.1728 38.1195 24.9052 37.8523C24.6376 37.5852 24.3428 37.4381 24.0012 37.2622C23.6596 37.0862 23.2745 36.9079 22.9083 36.7331C22.5422 36.5583 22.1927 36.3829 21.9335 36.2263C21.6743 36.0696 21.5227 35.8915 21.5516 35.9416C21.5806 35.9917 21.501 35.7719 21.4947 35.4694C21.4885 35.167 21.5118 34.775 21.5433 34.371C21.5748 33.9671 21.6168 33.5532 21.635 33.1699C21.6532 32.7866 21.6705 32.4573 21.5725 32.0923C21.4745 31.7273 21.2928 31.457 21.0851 31.1341C20.8774 30.8113 20.6397 30.467 20.4102 30.1329C20.1807 29.7988 19.9646 29.4745 19.8186 29.2095C19.6726 28.9445 19.6228 28.7142 19.6228 28.7721C19.6228 28.83 19.6726 28.5983 19.8186 28.3333C19.9646 28.0682 20.1807 27.7439 20.4102 27.4098C20.6397 27.0757 20.8774 26.7315 21.0851 26.4086C21.2928 26.0858 21.4745 25.8085 21.5725 25.4435C21.6705 25.0785 21.6531 24.7562 21.635 24.3729C21.6167 23.9896 21.5748 23.5687 21.5433 23.1648C21.5119 22.7609 21.4884 22.3688 21.4947 22.0664C21.5009 21.764 21.5806 21.5441 21.5516 21.5942C21.5227 21.6444 21.6743 21.4732 21.9335 21.3165C22.1927 21.1599 22.5422 20.9844 22.9083 20.8097C23.2745 20.6349 23.6596 20.4565 24.0012 20.2806C24.3428 20.1047 24.6375 19.9576 24.9052 19.6904C25.1728 19.4232 25.3205 19.1288 25.4967 18.7878C25.673 18.4468 25.8438 18.0688 26.0189 17.7033C26.1939 17.3378 26.3702 16.9831 26.5271 16.7243C26.684 16.4656 26.862 16.3121 26.8118 16.341C26.7616 16.37 26.9824 16.2988 27.2853 16.2924C27.5882 16.2863 27.9805 16.3096 28.3851 16.341C28.7897 16.3725 29.2051 16.4062 29.589 16.4244C29.973 16.4427 30.3024 16.4597 30.668 16.3619C31.0336 16.2641 31.3125 16.0902 31.6359 15.8828C31.9593 15.6755 32.3024 15.4315 32.6371 15.2024C32.9718 14.9732 33.2978 14.758 33.5633 14.6122C33.8288 14.4665 34.0601 14.4234 34.0021 14.4234V14.4234ZM33.9979 19.0281C28.6188 19.0281 24.2414 23.3972 24.2414 28.7693C24.2414 34.1414 28.6188 38.5106 33.9979 38.5106C39.3771 38.5106 43.7545 34.1414 43.7545 28.7693C43.7545 23.3972 39.3771 19.0281 33.9979 19.0281ZM33.9979 20.4514C38.6099 20.4514 42.3325 24.167 42.3325 28.7693C42.3325 33.3716 38.6099 37.0886 33.9979 37.0886C29.386 37.0886 25.6634 33.3716 25.6634 28.7693C25.6634 24.167 29.386 20.4514 33.9979 20.4514ZM37.8347 25.431C37.65 25.4365 37.4747 25.5137 37.3459 25.6463L32.6593 30.3912L30.6541 28.3708C30.5888 28.3019 30.5105 28.2468 30.4236 28.2087C30.3367 28.1706 30.2431 28.1501 30.1483 28.1487C30.0534 28.1472 29.9592 28.1647 29.8712 28.2001C29.7832 28.2355 29.7031 28.2881 29.6357 28.3549C29.5683 28.4216 29.5149 28.5012 29.4787 28.5888C29.4424 28.6765 29.424 28.7705 29.4246 28.8654C29.4252 28.9603 29.4447 29.0541 29.482 29.1413C29.5193 29.2285 29.5736 29.3074 29.6418 29.3734L32.1552 31.9021C32.2214 31.9693 32.3003 32.0227 32.3873 32.0592C32.4743 32.0956 32.5677 32.1144 32.6621 32.1144C32.7564 32.1144 32.8498 32.0956 32.9369 32.0592C33.0239 32.0227 33.1028 31.9693 33.1689 31.9021L38.3582 26.6433C38.4585 26.5425 38.5262 26.4141 38.5527 26.2744C38.5792 26.1348 38.5633 25.9904 38.5069 25.8599C38.4506 25.7294 38.3564 25.6188 38.2366 25.5424C38.1168 25.4659 37.9768 25.4272 37.8347 25.431ZM44.9334 38.3842L49.995 47.1381L44.7362 46.7132C44.5917 46.7007 44.4467 46.7327 44.3209 46.8049C44.195 46.8771 44.0943 46.9861 44.0322 47.1173L41.7757 51.8775L36.7183 43.1361C36.8564 43.0426 37.0122 42.9333 37.1335 42.8556C37.416 42.6745 37.6737 42.555 37.6973 42.5487C37.7209 42.5425 38.0021 42.519 38.3374 42.5347C38.6728 42.5506 39.0817 42.5856 39.4997 42.618C39.9177 42.6505 40.3421 42.6749 40.7384 42.6667C41.1346 42.6583 41.4946 42.6538 41.8937 42.4237C42.2928 42.1936 42.4814 41.8873 42.6866 41.5488C42.8919 41.2104 43.0765 40.8281 43.2573 40.4504C43.4382 40.0728 43.6116 39.6999 43.7656 39.402C43.9195 39.1041 44.083 38.8707 44.1002 38.8535C44.1174 38.8363 44.3518 38.6725 44.6501 38.5188C44.7305 38.4774 44.8434 38.4274 44.9334 38.3841V38.3842ZM23.1208 38.4105C23.1915 38.4448 23.2828 38.4857 23.3471 38.5188C23.6455 38.6725 23.8784 38.8363 23.8957 38.8535C23.9129 38.8707 24.0764 39.1041 24.2303 39.402C24.3843 39.6999 24.5577 40.0728 24.7386 40.4504C24.9194 40.8281 25.104 41.2104 25.3093 41.5488C25.5145 41.8873 25.7031 42.1936 26.1022 42.4237C26.5013 42.6537 26.8613 42.6584 27.2575 42.6667C27.6538 42.675 28.0782 42.6506 28.4962 42.6181C28.9142 42.5856 29.3231 42.5506 29.6585 42.5347C29.9939 42.5189 30.2751 42.5423 30.2986 42.5487C30.3223 42.5549 30.5799 42.6745 30.8624 42.8556C30.9985 42.9429 31.1722 43.063 31.329 43.1694L26.2244 51.9983L23.9623 47.2325C23.9006 47.1026 23.801 46.9944 23.6765 46.9222C23.5521 46.8501 23.4087 46.8174 23.2652 46.8285L18.0009 47.2589L23.1208 38.4105Z" fill="white"/>
</svg>
