<svg width="44" height="48" viewBox="0 0 44 48" fill="none" xmlns="http://www.w3.org/2000/svg">
<path d="M20.0196 0.60936C21.216 -0.0689376 22.7742 -0.0720014 23.9695 0.60936C29.9829 3.97515 35.9983 7.33566 42.0107 10.7035C43.1415 11.3345 43.898 12.5811 43.8865 13.8718V34.1217C43.8949 35.4659 43.0637 36.7423 41.8706 37.359C35.8769 40.7062 29.8864 44.0575 23.8937 47.4048C22.6726 48.0963 21.0831 48.0431 19.9002 47.2948C18.1033 46.263 16.3033 45.2363 14.5062 44.2055C14.139 43.9886 13.725 43.816 13.4657 43.4633C13.695 43.1573 14.1048 43.1192 14.4378 42.9855C15.1879 42.7493 15.8768 42.37 16.5659 42.002C16.7401 41.8839 16.9528 41.9292 17.1199 42.0349C18.6564 42.9076 20.1794 43.8056 21.7212 44.67C22.0501 44.8581 22.3831 44.6083 22.6642 44.4531C28.5459 41.1603 34.4347 37.88 40.3153 34.5862C40.5332 34.4824 40.6537 34.2533 40.636 34.0169C40.6401 27.3369 40.637 20.6557 40.6381 13.9757C40.663 13.7074 40.5063 13.4608 40.2614 13.351C34.2885 10.0191 28.3187 6.68204 22.3468 3.34928C22.2433 3.27882 22.1208 3.24101 21.9952 3.24083C21.8697 3.24065 21.747 3.2781 21.6433 3.34825C15.6714 6.68204 9.70267 10.0221 3.73081 13.3539C3.4868 13.4638 3.32304 13.7064 3.35208 13.9757C3.35311 20.6557 3.35208 27.3369 3.35208 34.0179C3.34172 34.1332 3.3673 34.249 3.42537 34.3495C3.48343 34.45 3.5712 34.5305 3.67685 34.5801C5.27047 35.4752 6.86615 36.3641 8.4608 37.2562C9.35917 37.7352 10.4622 38.0198 11.452 37.6528C12.3254 37.3425 12.9377 36.4596 12.921 35.5409C12.9293 28.8999 12.9169 22.2579 12.9272 15.6179C12.9054 15.3231 13.1877 15.0795 13.4771 15.1072C14.2428 15.1021 15.0095 15.097 15.7752 15.1093C16.0949 15.1021 16.3148 15.4196 16.2753 15.7166C16.2722 22.3997 16.2835 29.0829 16.2701 35.766C16.2722 37.5471 15.5335 39.4851 13.8702 40.3566C11.8213 41.408 9.28872 41.185 7.26447 40.1769C5.51207 39.3105 3.83975 38.288 2.11846 37.3598C0.922297 36.7466 0.0952435 35.465 0.103664 34.1219V13.8718C0.0911194 12.5544 0.877619 11.2851 2.04371 10.6633C8.03637 7.31336 14.028 3.96085 20.0196 0.60936Z" fill="#337AB7"/>
<path d="M25.2467 14.6366C27.8603 14.4699 30.6584 14.5378 33.0103 15.8132C34.8313 16.7906 35.8408 18.8418 35.873 20.8458C35.8221 21.1161 35.5368 21.2652 35.2763 21.2466C34.518 21.2456 33.7595 21.2568 33.0012 21.2415C32.6795 21.2538 32.4926 20.96 32.4522 20.6783C32.2343 19.7195 31.7064 18.7698 30.7953 18.3074C29.3967 17.6138 27.7751 17.6486 26.2501 17.6631C25.1367 17.7217 23.9395 17.8172 22.9963 18.4657C22.2722 18.9569 22.0522 19.9486 22.3107 20.7472C22.5544 21.3206 23.2226 21.5057 23.7694 21.6762C26.9192 22.4922 30.257 22.411 33.3466 23.4849C34.6258 23.9227 35.8771 24.7738 36.3149 26.1004C36.8877 27.8784 36.6366 30.0037 35.3595 31.4311C34.3238 32.6058 32.8154 33.2451 31.311 33.5923C29.3096 34.0344 27.2326 34.0456 25.2001 33.8493C23.289 33.6335 21.3001 33.1361 19.8247 31.8463C18.5631 30.7612 17.9469 29.0704 18.0081 27.4386C18.0227 27.163 18.2997 26.9709 18.5662 26.9935C19.3298 26.9874 20.0935 26.9853 20.8571 26.9945C21.1621 26.9729 21.3883 27.234 21.4039 27.5188C21.5448 28.4323 21.8914 29.3911 22.6956 29.9327C24.2476 30.9246 26.1951 30.8566 27.9722 30.8844C29.4445 30.8197 31.0972 30.8001 32.2987 29.8362C32.9326 29.2864 33.1205 28.3666 32.9491 27.5753C32.7636 26.9072 32.058 26.5959 31.4521 26.3923C28.3427 25.418 24.9676 25.7715 21.8883 24.6698C20.6382 24.2321 19.4293 23.4047 18.949 22.1326C18.2789 20.3321 18.5859 18.105 19.9969 16.7258C21.3726 15.3538 23.3586 14.8255 25.2467 14.6364V14.6366Z" fill="#337AB7"/>
</svg>
