<svg width="48" height="48" viewBox="0 0 48 48" fill="none" xmlns="http://www.w3.org/2000/svg">
<path d="M13.972 20.6754H12.1175L11.1072 25.8684H12.7544C13.8412 25.8684 14.653 25.6625 15.1898 25.2492C15.7177 24.8433 16.0781 24.1535 16.2619 23.1961C16.4442 22.2769 16.3604 21.6255 16.0251 21.2431C15.6795 20.8681 14.9971 20.6769 13.972 20.6769V20.6754ZM23.7535 11.8146C10.7542 11.8146 0.222656 17.3605 0.222656 24.1918C0.222656 31.0232 10.7542 36.5691 23.7535 36.5691C36.7529 36.5691 47.2844 31.0232 47.2844 24.1918C47.2844 17.3605 36.7529 11.8146 23.7535 11.8146ZM17.3576 26.4287C16.8485 26.918 16.2357 27.2865 15.5648 27.5067C14.9059 27.7141 14.0647 27.8288 13.0455 27.8288H10.7234L10.088 31.1231H7.38341L9.7968 18.7223H14.9897C16.5531 18.7223 17.6944 19.1282 18.4135 19.9474C19.1268 20.7666 19.3489 21.9166 19.0562 23.3874C18.9467 23.9697 18.7457 24.5311 18.4606 25.0506C18.1672 25.5652 17.7945 26.0303 17.3561 26.4287H17.3576ZM25.2551 27.8288L26.3199 22.3387C26.4419 21.7167 26.3964 21.2902 26.1802 21.0577C25.9743 20.8357 25.5214 20.721 24.833 20.721H22.6961L21.3181 27.8288H18.6297L21.0416 15.4206H23.7227L23.08 18.7223H25.4699C26.9802 18.7223 28.0127 18.9826 28.5804 19.5033C29.1554 20.0327 29.3231 20.8813 29.1025 22.0549L27.9745 27.8302L25.2551 27.8288ZM40.1443 23.3874C40.0381 23.9706 39.8369 24.5325 39.5487 25.0506C39.258 25.5647 38.8883 26.0297 38.4531 26.4287C37.9393 26.9157 37.3248 27.2837 36.6529 27.5067C35.994 27.7141 35.1514 27.8288 34.1337 27.8288H31.8203L31.1776 31.1231H28.4729L30.8863 18.7223H36.0793C37.6427 18.7223 38.784 19.1282 39.503 19.9562C40.2164 20.768 40.4384 21.9166 40.1457 23.3874H40.1443ZM35.0602 20.6754H33.213L32.2026 25.8684H33.8424C34.9366 25.8684 35.7484 25.6625 36.2778 25.2492C36.8132 24.8433 37.1735 24.1535 37.3589 23.1961C37.5412 22.2769 37.4573 21.6255 37.1117 21.2431C36.7764 20.8681 36.0867 20.6769 35.0602 20.6769V20.6754Z" fill="#337AB7"/>
</svg>
