<svg width="30" height="30" viewBox="0 0 30 30" fill="none" xmlns="http://www.w3.org/2000/svg">
<circle cx="15" cy="15" r="15" fill="#337AB7"/>
<path d="M14.9347 9C11.6541 9 10 11.3479 10 13.3059C10 14.4914 10.4496 15.5459 11.4137 15.9391C11.572 16.0036 11.7138 15.9414 11.7598 15.7667C11.7916 15.6457 11.867 15.3406 11.9006 15.2135C11.9469 15.0406 11.9288 14.98 11.8013 14.8294C11.5233 14.5019 11.3455 14.0781 11.3455 13.4777C11.3455 11.7357 12.6511 10.1764 14.7453 10.1764C16.5993 10.1764 17.6181 11.3075 17.6181 12.8179C17.6181 14.8053 16.7371 16.4826 15.4291 16.4826C14.7067 16.4826 14.1661 15.8863 14.3395 15.1549C14.5469 14.2817 14.9488 13.3392 14.9488 12.7091C14.9488 12.1449 14.6457 11.6742 14.0177 11.6742C13.2793 11.6742 12.6862 12.4368 12.6862 13.4583C12.6862 14.1089 12.9064 14.549 12.9064 14.549C12.9064 14.549 12.1506 17.7453 12.0184 18.305C11.7544 19.4196 11.9788 20.7862 11.9977 20.9241C12.0087 21.006 12.1139 21.0254 12.1617 20.9637C12.2299 20.8749 13.1093 19.7911 13.4083 18.7081C13.4928 18.4015 13.8937 16.8136 13.8937 16.8136C14.1337 17.2703 14.8348 17.6727 15.5805 17.6727C17.8001 17.6727 19.3061 15.6527 19.3061 12.9486C19.3062 10.9041 17.5713 9 14.9347 9Z" fill="white"/>
</svg>
