<svg width="362" height="298" viewBox="0 0 362 298" fill="none" xmlns="http://www.w3.org/2000/svg">
<path d="M327.935 297.867H92.0531V296.855C72.3541 296.518 29.4206 296.046 15.2777 296.855C-2.40079 297.867 0.124716 264.995 0.124716 254.375C0.124716 243.755 4.67062 201.781 29.9257 167.898C55.1807 134.015 74.3745 122.889 93.5684 108.729C112.762 94.5689 163.272 78.8917 182.971 75.8574C202.67 72.8231 234.491 63.7202 273.889 51.0773C305.408 40.963 345.614 12.8115 361.777 0C361.945 85.2974 362.181 260.343 361.777 278.144C361.373 295.945 339.047 298.71 327.935 297.867Z" fill="#F0FAFD"/>
</svg>
