<svg width="70" height="70" viewBox="0 0 70 70" fill="none" xmlns="http://www.w3.org/2000/svg">
<circle cx="35" cy="35" r="34.5" stroke="white"/>
<circle cx="35" cy="35" r="23" fill="white"/>
<path d="M40.7697 35.4399L29.8039 42.9115C29.726 42.9644 29.6355 42.9948 29.542 42.9994C29.4486 43.004 29.3556 42.9825 29.2731 42.9374C29.1906 42.8923 29.1217 42.8251 29.0736 42.7431C29.0255 42.661 29 42.5672 29 42.4716V27.5284C29 27.4328 29.0255 27.339 29.0736 27.2569C29.1217 27.1749 29.1906 27.1077 29.2731 27.0626C29.3556 27.0175 29.4486 26.996 29.542 27.0006C29.6355 27.0052 29.726 27.0356 29.8039 27.0885L40.7697 34.5601C40.8405 34.6084 40.8986 34.6738 40.9388 34.7506C40.979 34.8273 41 34.913 41 35C41 35.087 40.979 35.1727 40.9388 35.2494C40.8986 35.3262 40.8405 35.3916 40.7697 35.4399Z" fill="#7BC6EA"/>
</svg>
