<svg width="65" height="68" viewBox="0 0 65 68" fill="none" xmlns="http://www.w3.org/2000/svg">
<path d="M3.26001 17.8912C5.91281 10.227 10.905 -3.06901 21.5499 0.63979C25.6942 2.08369 26.9956 7.56779 31.1615 8.25139C35.0962 8.89699 38.4269 5.02999 42.1704 4.29679C46.8207 3.38579 51.7418 4.60449 53.5086 9.14179C55.6224 14.5704 49.3918 20.6615 50.8981 25.6188C53.3828 33.7952 62.5674 20.2437 64.2096 33.4388C66.5076 51.903 46.0409 84.7734 32.2526 57.7432C25.2609 44.0371 17.9334 53.6492 7.03471 46.8312C-3.31429 40.357 -0.111289 27.6309 3.26001 17.8912Z" fill="url(#paint0_linear_14_337)"/>
<path d="M20.4375 7.60156H20.0058V7.16986C20.0058 6.80316 19.7085 6.50586 19.3418 6.50586C18.9751 6.50586 18.6777 6.80316 18.6777 7.16986V7.60156H18.2461C17.8794 7.60156 17.582 7.89886 17.582 8.26556C17.582 8.63226 17.8794 8.92966 18.2461 8.92966H18.6777V9.36126C18.6777 9.72796 18.9751 10.0254 19.3418 10.0254C19.7085 10.0254 20.0058 9.72796 20.0058 9.36126V8.92966H20.4375C20.8042 8.92966 21.1015 8.63226 21.1015 8.26556C21.1015 7.89886 20.8043 7.60156 20.4375 7.60156Z" fill="#8399FE"/>
<path d="M14.5519 14.7657C14.0551 14.7657 13.5585 14.5767 13.1804 14.1986C12.4242 13.4425 12.4242 12.2119 13.1804 11.4558C13.9367 10.6995 15.167 10.6997 15.9233 11.4558C16.6794 12.2121 16.6794 13.4425 15.9233 14.1987C15.5452 14.5767 15.0484 14.7657 14.5519 14.7657ZM14.5519 12.2161C14.3953 12.2161 14.2388 12.2757 14.1195 12.3948C13.8813 12.6331 13.8813 13.021 14.1195 13.2593C14.3579 13.4977 14.7458 13.4977 14.984 13.2593C15.2223 13.021 15.2223 12.6331 14.984 12.3947C14.8649 12.2757 14.7084 12.2161 14.5519 12.2161Z" fill="#FF7EB8"/>
<path d="M56.7901 39.0255C56.2934 39.0255 55.7968 38.8365 55.4187 38.4584C54.6625 37.7022 54.6625 36.4718 55.4187 35.7156C56.1749 34.9593 57.4053 34.9595 58.1616 35.7156C58.9177 36.4717 58.9177 37.7022 58.1616 38.4583C57.7834 38.8364 57.2867 39.0255 56.7901 39.0255ZM57.6919 37.9888H57.6933H57.6919ZM56.7901 36.4759C56.6336 36.4759 56.4771 36.5355 56.3578 36.6547C56.1196 36.8929 56.1196 37.2809 56.3578 37.5193C56.5962 37.7576 56.9839 37.7576 57.2223 37.5193C57.4606 37.281 57.4606 36.8931 57.2223 36.6548C57.1033 36.5355 56.9467 36.4759 56.7901 36.4759Z" fill="#8399FE"/>
<path d="M26.2793 60.2676C25.2099 60.2676 24.3398 59.3975 24.3398 58.3281C24.3398 57.2587 25.2099 56.3887 26.2793 56.3887C27.3487 56.3887 28.2187 57.2587 28.2187 58.3281C28.2187 59.3975 27.3487 60.2676 26.2793 60.2676ZM26.2793 57.7169C25.9422 57.7169 25.6679 57.9912 25.6679 58.3283C25.6679 58.6653 25.9421 58.9396 26.2793 58.9396C26.6165 58.9396 26.8906 58.6655 26.8906 58.3283C26.8906 57.991 26.6164 57.7169 26.2793 57.7169Z" fill="#01ECA5"/>
<path d="M43.6367 60.1953H43.2051V59.7637C43.2051 59.397 42.9077 59.0996 42.541 59.0996C42.1743 59.0996 41.8769 59.397 41.8769 59.7637V60.1953H41.4454C41.0787 60.1953 40.7812 60.4927 40.7812 60.8594C40.7812 61.2261 41.0787 61.5234 41.4454 61.5234H41.8769V61.9551C41.8769 62.3218 42.1743 62.6191 42.541 62.6191C42.9077 62.6191 43.2051 62.3218 43.2051 61.9551V61.5234H43.6367C44.0034 61.5234 44.3008 61.2261 44.3008 60.8594C44.3008 60.4927 44.0034 60.1953 43.6367 60.1953Z" fill="#FF7EB8"/>
<path d="M29.0889 18.1152H15.5547C15.0024 18.1152 14.5547 18.5629 14.5547 19.1152V32.6494C14.5547 33.2017 15.0024 33.6494 15.5547 33.6494H29.0889C29.6412 33.6494 30.0889 33.2017 30.0889 32.6494V19.1152C30.0889 18.5629 29.6412 18.1152 29.0889 18.1152Z" fill="#2D58E0"/>
<path d="M29.0889 36.6465H15.5547C15.0024 36.6465 14.5547 37.0942 14.5547 37.6465V51.1807C14.5547 51.733 15.0024 52.1807 15.5547 52.1807H29.0889C29.6412 52.1807 30.0889 51.733 30.0889 51.1807V37.6465C30.0889 37.0942 29.6412 36.6465 29.0889 36.6465Z" fill="#2D58E0"/>
<path d="M47.3233 18.1152H33.7891C33.2368 18.1152 32.7891 18.5629 32.7891 19.1152V32.6494C32.7891 33.2017 33.2368 33.6494 33.7891 33.6494H47.3233C47.8756 33.6494 48.3233 33.2017 48.3233 32.6494V19.1152C48.3233 18.5629 47.8756 18.1152 47.3233 18.1152Z" fill="#2D58E0"/>
<path d="M47.3233 36.6465H33.7891C33.2368 36.6465 32.7891 37.0942 32.7891 37.6465V51.1807C32.7891 51.733 33.2368 52.1807 33.7891 52.1807H47.3233C47.8756 52.1807 48.3233 51.733 48.3233 51.1807V37.6465C48.3233 37.0942 47.8756 36.6465 47.3233 36.6465Z" fill="#2D58E0"/>
<path d="M22.3206 28.7233C23.8892 28.7233 25.1608 27.4517 25.1608 25.8831C25.1608 24.3146 23.8892 23.043 22.3206 23.043C20.7521 23.043 19.4805 24.3146 19.4805 25.8831C19.4805 27.4517 20.7521 28.7233 22.3206 28.7233Z" fill="white"/>
<path d="M40.555 28.7233C42.1236 28.7233 43.3952 27.4517 43.3952 25.8831C43.3952 24.3146 42.1236 23.043 40.555 23.043C38.9864 23.043 37.7148 24.3146 37.7148 25.8831C37.7148 27.4517 38.9864 28.7233 40.555 28.7233Z" fill="white"/>
<path d="M40.7816 47.2545C42.3501 47.2545 43.6217 45.983 43.6217 44.4144C43.6217 42.8458 42.3501 41.5742 40.7816 41.5742C39.213 41.5742 37.9414 42.8458 37.9414 44.4144C37.9414 45.983 39.213 47.2545 40.7816 47.2545Z" fill="white"/>
<path d="M22.3206 46.5202C23.8892 46.5202 25.1608 45.2486 25.1608 43.68C25.1608 42.1114 23.8892 40.8398 22.3206 40.8398C20.7521 40.8398 19.4805 42.1114 19.4805 43.68C19.4805 45.2486 20.7521 46.5202 22.3206 46.5202Z" fill="white"/>
<defs>
<linearGradient id="paint0_linear_14_337" x1="14.8843" y1="55.8044" x2="42.6421" y2="19.945" gradientUnits="userSpaceOnUse">
<stop offset="0.0112" stop-color="#DCFDEE"/>
<stop offset="0.7774" stop-color="#CCDDFB"/>
<stop offset="1" stop-color="#C7D3FF"/>
</linearGradient>
</defs>
</svg>
