<svg width="68" height="68" viewBox="0 0 68 68" fill="none" xmlns="http://www.w3.org/2000/svg">
<path d="M55.558 0.272698C48.1649 -0.991802 31.8778 1.8908 28.995 14.2203C27.0784 22.4178 27.1347 29.1053 22.2977 29.2308C19.4196 29.3054 17.9188 23.3459 13.9452 22.8557C8.75931 22.2159 5.16031 26.5339 2.91421 30.4443C-2.02709 39.0468 -0.48189 53.6756 6.01591 60.8095C21.7526 78.0867 40.4405 60.019 48.4306 45.8934C53.5552 36.8339 65.1168 29.5108 67.5252 19.298C69.5402 10.7481 65.0673 1.8992 55.558 0.272698Z" fill="url(#paint0_linear_14_274)"/>
<path d="M13.7539 13.8047C13.3872 13.8047 13.0898 13.5075 13.0898 13.1407C13.0898 12.7012 12.7323 12.3438 12.293 12.3438C11.9263 12.3438 11.6289 12.0466 11.6289 11.6797C11.6289 11.3129 11.9263 11.0157 12.293 11.0157C12.7324 11.0157 13.0898 10.6583 13.0898 10.2188C13.0898 9.85199 13.3872 9.55469 13.7539 9.55469C14.1206 9.55469 14.418 9.85199 14.418 10.2188C14.418 10.6583 14.7753 11.0157 15.2148 11.0157C15.5815 11.0157 15.8789 11.3129 15.8789 11.6797C15.8789 12.0466 15.5815 12.3438 15.2148 12.3438C14.7755 12.3438 14.418 12.7012 14.418 13.1407C14.418 13.5074 14.1207 13.8047 13.7539 13.8047Z" fill="#FF7EB8"/>
<path d="M49.9961 8.26367C49.6294 8.26367 49.332 7.96647 49.332 7.59967C49.332 7.16017 48.9746 6.80277 48.5351 6.80277C48.1684 6.80277 47.8711 6.50547 47.8711 6.13867C47.8711 5.77187 48.1684 5.47467 48.5351 5.47467C48.9746 5.47467 49.332 5.11727 49.332 4.67777C49.332 4.31097 49.6294 4.01367 49.9961 4.01367C50.3628 4.01367 50.6601 4.31097 50.6601 4.67777C50.6601 5.11727 51.0175 5.47467 51.457 5.47467C51.8237 5.47467 52.1211 5.77187 52.1211 6.13867C52.1211 6.50547 51.8237 6.80277 51.457 6.80277C51.0175 6.80277 50.6601 7.16017 50.6601 7.59967C50.6601 7.96647 50.3628 8.26367 49.9961 8.26367Z" fill="#01ECA5"/>
<path d="M54.832 60.6953C54.4653 60.6953 54.168 60.398 54.168 60.0312C54.168 59.5917 53.8106 59.2343 53.3711 59.2343C53.0044 59.2343 52.707 58.9371 52.707 58.5703C52.707 58.2034 53.0044 57.9062 53.3711 57.9062C53.8106 57.9062 54.168 57.5488 54.168 57.1093C54.168 56.7425 54.4653 56.4453 54.832 56.4453C55.1987 56.4453 55.4961 56.7425 55.4961 57.1093C55.4961 57.5488 55.8535 57.9062 56.293 57.9062C56.6596 57.9062 56.957 58.2034 56.957 58.5703C56.957 58.9371 56.6596 59.2343 56.293 59.2343C55.8535 59.2343 55.4961 59.5917 55.4961 60.0312C55.4961 60.398 55.1987 60.6953 54.832 60.6953Z" fill="#01ECA5"/>
<path d="M39.4454 4.43554C39.2754 4.43554 39.1055 4.37064 38.9758 4.24094C38.7164 3.98164 38.7164 3.56125 38.9758 3.30195L40.3039 1.97385C40.5633 1.71445 40.9836 1.71445 41.243 1.97385C41.5024 2.23305 41.5024 2.65355 41.243 2.91285L39.9149 4.24094C39.7853 4.37064 39.6154 4.43554 39.4454 4.43554Z" fill="#6583FE"/>
<path d="M4.92206 47.0977C4.75206 47.0977 4.58216 47.0329 4.45236 46.9031C4.19296 46.6438 4.19296 46.2234 4.45236 45.9641L5.78056 44.636C6.03986 44.3766 6.46026 44.3766 6.71966 44.636C6.97906 44.8952 6.97906 45.3157 6.71966 45.575L5.39146 46.9031C5.26186 47.0329 5.09206 47.0977 4.92206 47.0977Z" fill="#6583FE"/>
<path d="M24.9824 10.0684H44.1651C45.2237 10.0684 46.0898 10.8974 46.0898 11.9496V24.1293C46.0898 25.1814 45.2237 26.0742 44.1651 26.0742H36.6909V29.2307H42.1442C42.9462 29.2307 43.0103 31.8452 43.1066 31.9409H26.0731C26.0731 31.9409 26.0731 29.2307 27.0354 29.2307H32.4887V26.0742H24.9824C23.9239 26.0742 23.0898 25.1814 23.0898 24.1293V11.9496C23.0898 10.8974 23.9239 10.0684 24.9824 10.0684ZM24.9824 24.1293H44.1651V11.9496H24.9824V24.1293Z" fill="#2D58E0"/>
<path d="M45.1523 40.3164C45.1523 39.9517 45.2972 39.6019 45.5551 39.3441C45.8129 39.0862 46.1627 38.9414 46.5273 38.9414H50.6523C51.017 38.9414 51.3667 39.0862 51.6246 39.3441C51.8825 39.6019 52.0273 39.9517 52.0273 40.3164V48.5664C52.0273 48.931 51.8825 49.2808 51.6246 49.5386C51.3667 49.7965 51.017 49.9414 50.6523 49.9414H46.5273C46.1627 49.9414 45.8129 49.7965 45.5551 49.5386C45.2972 49.2808 45.1523 48.931 45.1523 48.5664V40.3164ZM49.2773 47.8788C49.2773 47.6965 49.2049 47.5216 49.076 47.3927C48.947 47.2638 48.7722 47.1914 48.5898 47.1914C48.4075 47.1914 48.2326 47.2638 48.1037 47.3927C47.9748 47.5216 47.9023 47.6965 47.9023 47.8788C47.9023 48.0612 47.9748 48.2361 48.1037 48.365C48.2326 48.4939 48.4075 48.5664 48.5898 48.5664C48.7722 48.5664 48.947 48.4939 49.076 48.365C49.2049 48.2361 49.2773 48.0612 49.2773 47.8788Z" fill="#2D58E0"/>
<path d="M25.3755 38.9414H12.8041C11.8577 38.9414 11.0898 39.7392 11.0898 40.7226V56.1601C11.0898 57.1435 11.8577 57.9414 12.8041 57.9414H25.3755C26.322 57.9414 27.0898 57.1435 27.0898 56.1601V40.7226C27.0898 39.7392 26.322 38.9414 25.3755 38.9414ZM19.0898 56.7538C18.4577 56.7538 17.947 56.2232 17.947 55.5664C17.947 54.9095 18.4577 54.3788 19.0898 54.3788C19.722 54.3788 20.2327 54.9095 20.2327 55.5664C20.2327 56.2232 19.722 56.7538 19.0898 56.7538Z" fill="#2D58E0"/>
<defs>
<linearGradient id="paint0_linear_14_274" x1="1.16241" y1="53.2199" x2="69.6202" y2="13.6956" gradientUnits="userSpaceOnUse">
<stop stop-color="#DCFDEE" stop-opacity="0"/>
<stop offset="0.6288" stop-color="#D2F3E4"/>
</linearGradient>
</defs>
</svg>
