<svg width="68" height="68" viewBox="0 0 68 68" fill="none" xmlns="http://www.w3.org/2000/svg">
<g clip-path="url(#clip0_28:1047)">
<path d="M5.0657 17.8912C7.7185 10.227 12.7107 -3.069 23.3556 0.639786C27.4999 2.08372 28.8013 7.56782 32.9672 8.2514C36.9019 8.89701 40.2326 5.03004 43.9761 4.29678C48.6264 3.38582 53.5475 4.60451 55.3143 9.14178C57.4281 14.5704 51.1975 20.6615 52.7038 25.6188C55.1885 33.7952 64.3731 20.2437 66.0155 33.4388C68.3137 51.903 47.8466 84.7733 34.0583 57.7432C27.0666 44.0371 19.7391 53.6492 8.84037 46.8312C-1.50865 40.357 1.69439 27.6309 5.0657 17.8912Z" fill="url(#paint0_linear_28:1047)"/>
<path opacity="0.11" d="M53.3151 49.6121H50.5646V23.9595C50.5646 22.4295 49.3254 21.1903 47.7967 21.1903H45.7103C45.8678 20.7197 45.9684 20.2241 46.0013 19.7116C46.2305 16.1319 43.2786 13.1799 39.6989 13.4093C36.8003 13.5949 34.4321 15.9105 34.1864 18.8048C34.1152 19.6437 34.2205 20.4494 34.4671 21.1905H12.2229C10.6942 21.1905 9.4551 22.4296 9.4551 23.9596V49.6122H6.70482C5.78974 49.6122 5.04785 50.354 5.04785 51.2692V52.7919C5.04785 54.3976 6.34902 55.7002 7.95618 55.7002H52.0637C53.6709 55.7002 54.9721 54.3977 54.9721 52.7919V51.2692C54.9721 50.3538 54.2302 49.6121 53.3151 49.6121Z" fill="#2626BC"/>
<path d="M53.7882 21.1703V48.9188C53.7882 49.2853 53.4907 49.5828 53.1241 49.5828H12.6787V21.1703C12.6787 19.6403 13.9179 18.4011 15.4465 18.4011H51.0204C52.549 18.4011 53.7882 19.6403 53.7882 21.1703Z" fill="#FFA8CF"/>
<path d="M49.2247 18.9071C49.0401 21.8051 46.7238 24.1732 43.8299 24.4189C42.426 24.5384 41.1138 24.1665 40.0447 23.4586L38.1561 24.29C37.7656 24.4614 37.3672 24.0642 37.5399 23.6738L38.3713 21.7852C37.7311 20.8183 37.3659 19.6535 37.3898 18.4011H49.2353C49.2393 18.5671 49.2353 18.7371 49.2247 18.9071Z" fill="#FF7EB8"/>
<path d="M35.6131 39.4785V40.3423C35.6131 40.5624 35.4347 40.7408 35.2146 40.7408H34.499C34.279 40.7408 34.1006 40.5624 34.1006 40.3423V39.4785C34.1006 39.2584 34.279 39.0801 34.499 39.0801H35.2146C35.4347 39.0801 35.6131 39.2584 35.6131 39.4785Z" fill="#FFC4DF"/>
<path d="M38.4353 38.2832V40.3423C38.4353 40.5624 38.257 40.7408 38.0369 40.7408H37.3213C37.1012 40.7408 36.9229 40.5624 36.9229 40.3423V38.2832C36.9229 38.0631 37.1012 37.8848 37.3213 37.8848H38.0369C38.257 37.8848 38.4353 38.0631 38.4353 38.2832Z" fill="#FFDBED"/>
<path d="M32.7908 39.4785V40.3423C32.7908 40.5624 32.6124 40.7408 32.3923 40.7408H31.6768C31.4567 40.7408 31.2783 40.5624 31.2783 40.3423V39.4785C31.2783 39.2584 31.4567 39.0801 31.6768 39.0801H32.3923C32.6124 39.0801 32.7908 39.2584 32.7908 39.4785Z" fill="#FFC4DF"/>
<path d="M29.9685 39.4785V40.3423C29.9685 40.5624 29.7902 40.7408 29.5701 40.7408H28.8545C28.6344 40.7408 28.4561 40.5624 28.4561 40.3423V39.4785C28.4561 39.2584 28.6344 39.0801 28.8545 39.0801H29.5701C29.7902 39.0801 29.9685 39.2584 29.9685 39.4785Z" fill="#FFC4DF"/>
<path d="M27.1463 39.4785V40.3423C27.1463 40.5624 26.9679 40.7408 26.7478 40.7408H26.0322C25.8122 40.7408 25.6338 40.5624 25.6338 40.3423V39.4785C25.6338 39.2584 25.8122 39.0801 26.0322 39.0801H26.7478C26.9679 39.0801 27.1463 39.2584 27.1463 39.4785Z" fill="#FF7EB8"/>
<path d="M41.2576 37.4863V40.3423C41.2576 40.5624 41.0792 40.7408 40.8591 40.7408H40.1436C39.9235 40.7408 39.7451 40.5624 39.7451 40.3423V37.4863C39.7451 37.2663 39.9235 37.0879 40.1436 37.0879H40.8591C41.0792 37.0879 41.2576 37.2663 41.2576 37.4863Z" fill="#FFDBED"/>
<path d="M44.0799 38.2832V40.3423C44.0799 40.5624 43.9015 40.7408 43.6814 40.7408H42.9658C42.7458 40.7408 42.5674 40.5624 42.5674 40.3423V38.2832C42.5674 38.0631 42.7458 37.8848 42.9658 37.8848H43.6814C43.9015 37.8848 44.0799 38.0631 44.0799 38.2832Z" fill="#FFDBED"/>
<path d="M46.9021 36.291V40.3423C46.9021 40.5624 46.7238 40.7408 46.5037 40.7408H45.7881C45.568 40.7408 45.3896 40.5624 45.3896 40.3423V36.291C45.3896 36.0709 45.568 35.8926 45.7881 35.8926H46.5037C46.7238 35.8926 46.9021 36.0709 46.9021 36.291Z" fill="#97FFD2"/>
<path d="M49.7244 34.2988V40.3423C49.7244 40.5624 49.546 40.7408 49.3259 40.7408H48.6104C48.3903 40.7408 48.2119 40.5624 48.2119 40.3423V34.2988C48.2119 34.0788 48.3903 33.9004 48.6104 33.9004H49.3259C49.546 33.9004 49.7244 34.0788 49.7244 34.2988Z" fill="#01ECA5"/>
<path d="M53.7882 43.5227V48.9189C53.7882 49.2854 53.4907 49.5829 53.1241 49.5829H12.6787V43.5227H53.7882Z" fill="#6583FE"/>
<path d="M58.1956 48.4797V50.0024C58.1956 51.6081 56.8944 52.9107 55.2872 52.9107H11.1798C9.57265 52.9107 8.27148 51.6081 8.27148 50.0024V48.4797C8.27148 47.5646 9.01337 46.8228 9.92845 46.8228H24.1483C24.3939 46.8228 24.6195 46.9584 24.7348 47.1752L25.606 48.8152C25.7213 49.0321 25.9468 49.1677 26.1925 49.1677H40.2748C40.5204 49.1677 40.746 49.0321 40.8613 48.8152L41.7325 47.1752C41.8478 46.9584 42.0733 46.8228 42.319 46.8228H56.5389C57.4538 46.8228 58.1956 47.5646 58.1956 48.4797Z" fill="#B7C5FF"/>
<path d="M58.1956 48.4792V50.0025C58.1956 51.6082 56.8941 52.9111 55.287 52.9111H53.332C54.9391 52.9111 56.2406 51.6082 56.2406 50.0025V48.4792C56.2406 47.5641 55.4982 46.823 54.5831 46.823H56.5381C57.4532 46.823 58.1956 47.5641 58.1956 48.4792Z" fill="#D2DEFF"/>
<path d="M49.2245 16.9225C49.4538 13.3428 46.5019 10.3908 42.9222 10.6202C40.0235 10.8059 37.6554 13.1214 37.4097 16.0156C37.2905 17.4194 37.6624 18.7311 38.371 19.8003L37.539 21.6898C37.3672 22.0801 37.7648 22.4777 38.155 22.3058L40.0445 21.4739C41.1137 22.1825 42.4255 22.5543 43.8293 22.4352C46.7233 22.1894 49.0389 19.8212 49.2245 16.9225Z" fill="#02FFB3"/>
<path d="M40.6682 17.2746C41.0782 17.2746 41.4106 16.9422 41.4106 16.5322C41.4106 16.1222 41.0782 15.7898 40.6682 15.7898C40.2582 15.7898 39.9258 16.1222 39.9258 16.5322C39.9258 16.9422 40.2582 17.2746 40.6682 17.2746Z" fill="white"/>
<path d="M43.3127 17.2746C43.7228 17.2746 44.0552 16.9422 44.0552 16.5322C44.0552 16.1222 43.7228 15.7898 43.3127 15.7898C42.9027 15.7898 42.5703 16.1222 42.5703 16.5322C42.5703 16.9422 42.9027 17.2746 43.3127 17.2746Z" fill="white"/>
<path d="M45.9573 17.2746C46.3673 17.2746 46.6997 16.9422 46.6997 16.5322C46.6997 16.1222 46.3673 15.7898 45.9573 15.7898C45.5472 15.7898 45.2148 16.1222 45.2148 16.5322C45.2148 16.9422 45.5472 17.2746 45.9573 17.2746Z" fill="white"/>
<path d="M27.2057 24.0716H24.9808C24.5631 24.0716 24.2246 23.733 24.2246 23.3153C24.2246 22.8976 24.5631 22.5591 24.9808 22.5591H27.2057C27.6234 22.5591 27.962 22.8976 27.962 23.3153C27.962 23.733 27.6234 24.0716 27.2057 24.0716Z" fill="#FFDBED"/>
<path d="M37.9635 26.8889H24.9808C24.5631 26.8889 24.2246 26.5504 24.2246 26.1327C24.2246 25.715 24.5631 25.3765 24.9808 25.3765H37.9635C38.3812 25.3765 38.7198 25.715 38.7198 26.1327C38.7198 26.5503 38.3812 26.8889 37.9635 26.8889Z" fill="#FFDBED"/>
<path d="M19.1087 49.2293H13.3535C12.9868 49.2293 12.6895 48.9319 12.6895 48.5652V46.823H19.7727V48.5652C19.7727 48.9319 19.4755 49.2293 19.1087 49.2293Z" fill="#FF7EB8"/>
<path d="M53.097 49.2293H47.3418C46.9751 49.2293 46.6777 48.9319 46.6777 48.5652V46.823H53.761V48.5652C53.761 48.9319 53.4638 49.2293 53.097 49.2293Z" fill="#FF7EB8"/>
<path d="M21.8148 28.4373H19.0266C19.119 28.2224 19.1676 27.9889 19.1676 27.748V26.7969H20.1345C20.5012 26.7969 20.7985 26.4995 20.7985 26.1328C20.7985 25.7662 20.5012 25.4688 20.1345 25.4688H19.1676V24.5115C19.1676 24.063 19.5326 23.698 19.9811 23.698C20.4296 23.698 20.7944 24.063 20.7944 24.5115C20.7944 24.8782 21.0918 25.1755 21.4585 25.1755C21.8252 25.1755 22.1225 24.8782 22.1225 24.5115C22.1225 23.3306 21.1619 22.3699 19.9811 22.3699C18.8002 22.3699 17.8395 23.3305 17.8395 24.5115V25.4688H17.6523C17.2856 25.4688 16.9883 25.7662 16.9883 26.1328C16.9883 26.4995 17.2856 26.7969 17.6523 26.7969H17.8395V27.748C17.8395 27.859 17.7963 27.9634 17.7177 28.0419C17.4279 28.3317 17.342 28.7636 17.4988 29.1422C17.6557 29.5209 18.0218 29.7655 18.4316 29.7655H21.8148C22.1815 29.7655 22.4789 29.4682 22.4789 29.1015C22.4789 28.7348 22.1815 28.4373 21.8148 28.4373Z" fill="#FFDBED"/>
<path d="M22.2412 7.60132H21.8096V7.16968C21.8096 6.80298 21.5122 6.50562 21.1455 6.50562C20.7788 6.50562 20.4814 6.80298 20.4814 7.16968V7.60132H20.0498C19.6831 7.60132 19.3857 7.89869 19.3857 8.26538C19.3857 8.63208 19.6831 8.92944 20.0498 8.92944H20.4814V9.36108C20.4814 9.72778 20.7788 10.0251 21.1455 10.0251C21.5122 10.0251 21.8096 9.72778 21.8096 9.36108V8.92944H22.2412C22.6079 8.92944 22.9053 8.63208 22.9053 8.26538C22.9053 7.89869 22.608 7.60132 22.2412 7.60132Z" fill="#8399FE"/>
<path d="M16.3575 14.7664C15.8608 14.7664 15.3642 14.5774 14.9861 14.1993C14.2299 13.4432 14.2299 12.2127 14.9861 11.4566C15.7424 10.7002 16.9727 10.7005 17.729 11.4566C18.4851 12.2128 18.4851 13.4432 17.729 14.1994C17.3508 14.5774 16.8541 14.7664 16.3575 14.7664ZM16.3575 12.2168C16.201 12.2168 16.0445 12.2764 15.9252 12.3956C15.687 12.6338 15.687 13.0218 15.9252 13.26C16.1636 13.4984 16.5514 13.4984 16.7897 13.26C17.028 13.0218 17.028 12.6338 16.7897 12.3954C16.6706 12.2764 16.5141 12.2168 16.3575 12.2168Z" fill="#FF7EB8"/>
<path d="M58.5968 39.0263C58.1001 39.0263 57.6035 38.8373 57.2254 38.4591C56.4691 37.7029 56.4691 36.4725 57.2254 35.7163C57.9816 34.9601 59.212 34.9602 59.9682 35.7163C60.7243 36.4724 60.7243 37.7029 59.9682 38.459C59.5901 38.8371 59.0934 39.0263 58.5968 39.0263ZM59.4986 37.9895H59.4999H59.4986ZM58.5968 36.4767C58.4402 36.4767 58.2838 36.5363 58.1645 36.6554C57.9262 36.8937 57.9262 37.2816 58.1645 37.52C58.4029 37.7583 58.7906 37.7583 59.029 37.52C59.2672 37.2818 59.2672 36.8938 59.029 36.6555C58.91 36.5363 58.7534 36.4767 58.5968 36.4767Z" fill="#8399FE"/>
<path d="M28.085 60.2681C27.0156 60.2681 26.1455 59.398 26.1455 58.3286C26.1455 57.2592 27.0156 56.3892 28.085 56.3892C29.1544 56.3892 30.0244 57.2592 30.0244 58.3286C30.0244 59.398 29.1544 60.2681 28.085 60.2681ZM28.085 57.7174C27.7479 57.7174 27.4736 57.9917 27.4736 58.3288C27.4736 58.6658 27.7478 58.9401 28.085 58.9401C28.4222 58.9401 28.6963 58.666 28.6963 58.3288C28.6963 57.9915 28.422 57.7174 28.085 57.7174Z" fill="#01ECA5"/>
<path d="M45.4414 60.1956H45.0098V59.7639C45.0098 59.3972 44.7124 59.0999 44.3457 59.0999C43.979 59.0999 43.6816 59.3972 43.6816 59.7639V60.1956H43.25C42.8833 60.1956 42.5859 60.4929 42.5859 60.8596C42.5859 61.2263 42.8833 61.5237 43.25 61.5237H43.6816V61.9553C43.6816 62.322 43.979 62.6194 44.3457 62.6194C44.7124 62.6194 45.0098 62.322 45.0098 61.9553V61.5237H45.4414C45.8081 61.5237 46.1055 61.2263 46.1055 60.8596C46.1055 60.4929 45.8081 60.1956 45.4414 60.1956Z" fill="#FF7EB8"/>
<path d="M56.5387 46.1588H54.4529V43.5227C54.4529 43.156 54.1556 42.8587 53.7889 42.8587C53.7887 42.8587 53.7887 42.8587 53.7886 42.8587C53.7885 42.8587 53.7885 42.8587 53.7883 42.8587H13.3424V21.1698C13.3424 20.0095 14.2864 19.0654 15.4468 19.0654H33.6298C33.9965 19.0654 34.2938 18.7681 34.2938 18.4014C34.2938 18.0347 33.9965 17.7373 33.6298 17.7373H15.4468C13.5541 17.7373 12.0143 19.2771 12.0143 21.1698V46.1588H9.92845C8.64867 46.1588 7.60742 47.1999 7.60742 48.4798V50.0025C7.60742 51.9724 9.20994 53.5748 11.1797 53.5748H55.2872C57.2571 53.5748 58.8596 51.9723 58.8596 50.0025V48.4798C58.8598 47.1999 57.8185 46.1588 56.5387 46.1588ZM53.0977 48.5649H47.3416V47.4868H53.0972L53.0977 48.5649ZM53.1248 44.1868V46.1587H42.3189C41.8264 46.1587 41.377 46.4288 41.146 46.8636L40.2748 48.5035H26.1924L25.3212 46.8635C25.0902 46.4287 24.6408 46.1585 24.1483 46.1585H13.3425V44.1867H53.1248V44.1868ZM19.1099 48.5649H13.3538V47.4868H19.1094L19.1099 48.5649ZM57.5316 50.0024C57.5316 51.2398 56.5248 52.2465 55.2874 52.2465H11.1798C9.9424 52.2465 8.93568 51.2398 8.93568 50.0024V48.4797C8.93568 47.9322 9.38113 47.4868 9.92859 47.4868H12.0258V48.5649C12.0258 49.2973 12.6216 49.8931 13.354 49.8931H19.1091C19.8414 49.8931 20.4372 49.2973 20.4372 48.5649V47.4868H24.1483L25.0195 49.1267C25.2505 49.5616 25.6999 49.8317 26.1924 49.8317H40.2748C40.7673 49.8317 41.2167 49.5616 41.4477 49.1267L42.3189 47.4869H46.0135V48.5651C46.0135 49.2974 46.6093 49.8932 47.3416 49.8932H53.0968C53.8291 49.8932 54.4249 49.2974 54.4249 48.5651V47.4869H56.5386C57.0861 47.4869 57.5315 47.9324 57.5315 48.4798V50.0024H57.5316Z" fill="#2626BC"/>
<path d="M36.9317 21.422C36.742 21.8525 36.8345 22.3455 37.1671 22.678C37.4996 23.0106 37.9927 23.103 38.4231 22.9135L39.9914 22.2229C41.0019 22.8154 42.1324 23.1215 43.3063 23.1215C43.4982 23.1215 43.6917 23.1133 43.8856 23.0968C46.3643 22.8864 48.4642 21.2709 49.3915 19.0657H51.0203C52.1807 19.0657 53.1247 20.0097 53.1247 21.1701V39.6079C53.1247 39.9746 53.4221 40.272 53.7888 40.272C54.1555 40.272 54.4529 39.9746 54.4529 39.6079V21.1699C54.4529 19.2772 52.913 17.7374 51.0203 17.7374H49.7896C49.8367 17.4843 49.8707 17.2267 49.8876 16.965C50.0091 15.0683 49.3108 13.2125 47.9716 11.8733C46.6325 10.5342 44.7759 9.83612 42.88 9.95738C39.6573 10.1638 37.0212 12.7441 36.7483 15.9593C36.6312 17.3392 36.9328 18.6778 37.6222 19.8536L36.9317 21.422ZM38.0718 16.0717C38.2896 13.5063 40.3932 11.4475 42.9651 11.2827C44.4806 11.1852 45.9634 11.7432 47.0326 12.8125C48.1019 13.8816 48.6595 15.3642 48.5624 16.88C48.3977 19.4519 46.3388 21.5555 43.7734 21.7733C42.5705 21.8749 41.408 21.5803 40.4117 20.9201C40.3012 20.8469 40.1734 20.8096 40.0448 20.8096C39.9541 20.8096 39.8629 20.8282 39.7772 20.8659L38.3512 21.4939L38.9791 20.0679C39.0703 19.8609 39.0498 19.6219 38.925 19.4334C38.2647 18.4369 37.9696 17.2746 38.0718 16.0717Z" fill="#2626BC"/>
<path d="M32.082 46.9714H34.3851C34.7518 46.9714 35.0492 46.6741 35.0492 46.3074C35.0492 45.9407 34.7518 45.6433 34.3851 45.6433H32.082C31.7153 45.6433 31.418 45.9407 31.418 46.3074C31.418 46.6741 31.7153 46.9714 32.082 46.9714Z" fill="#2626BC"/>
<path d="M35.7252 35.5432H18.9834C18.6167 35.5432 18.3193 35.2459 18.3193 34.8792C18.3193 34.5125 18.6167 34.2151 18.9834 34.2151H35.7252C35.9026 34.2151 36.0693 34.146 36.1948 34.0207L42.7324 27.4831C43.1085 27.1068 43.6088 26.8997 44.141 26.8997H47.4236C47.9558 26.8997 48.4561 27.1068 48.8323 27.4831L52.2137 30.8646C52.3391 30.99 52.5059 31.0591 52.6834 31.0591H56.7393C57.106 31.0591 57.4034 31.3564 57.4034 31.7231C57.4034 32.0898 57.106 32.3872 56.7393 32.3872H52.6834C52.1512 32.3872 51.6509 32.18 51.2746 31.8038L47.8932 28.4222C47.7678 28.2968 47.601 28.2278 47.4236 28.2278H44.141C43.9636 28.2278 43.7969 28.2968 43.6715 28.4222L37.134 34.9598C36.7577 35.336 36.2574 35.5432 35.7252 35.5432Z" fill="#02FFB3"/>
<path d="M18.9835 40.8776C18.8135 40.8776 18.6436 40.8128 18.5139 40.6832C18.2545 40.4238 18.2545 40.0033 18.5139 39.7441L26.7724 31.4855C27.1487 31.1093 27.649 30.9021 28.1812 30.9021H34.9392C35.1165 30.9021 35.2833 30.833 35.4088 30.7075L37.1727 28.9436C37.549 28.5674 38.0493 28.36 38.5814 28.36H43.6585C43.8359 28.36 44.0026 28.291 44.1281 28.1656L46.2118 26.0819C46.588 25.7056 47.0883 25.4983 47.6204 25.4983H56.5499C56.7273 25.4983 56.894 25.4293 57.0195 25.3039L60.952 21.3714C61.2114 21.1122 61.6317 21.1122 61.8911 21.3714C62.1505 21.6308 62.1505 22.0513 61.8911 22.3106L57.9586 26.243C57.5824 26.6193 57.0821 26.8264 56.5499 26.8264H47.6204C47.4456 26.8264 47.2745 26.8974 47.1509 27.0209L45.0671 29.1047C44.6908 29.481 44.1905 29.6882 43.6583 29.6882H38.5813C38.404 29.6882 38.2372 29.7572 38.1117 29.8827L36.3478 31.6466C35.9715 32.0229 35.4712 32.2302 34.9391 32.2302H28.181C28.0036 32.2302 27.8369 32.2993 27.7114 32.4246L19.4529 40.6832C19.3234 40.8127 19.1535 40.8776 18.9835 40.8776Z" fill="#FF7EB8"/>
</g>
<defs>
<linearGradient id="paint0_linear_28:1047" x1="16.69" y1="55.8044" x2="44.4478" y2="19.945" gradientUnits="userSpaceOnUse">
<stop offset="0.0112" stop-color="#DCFDEE"/>
<stop offset="0.7774" stop-color="#CCDDFB"/>
<stop offset="1" stop-color="#C7D3FF"/>
</linearGradient>
<clipPath id="clip0_28:1047">
<rect width="68" height="68" fill="white"/>
</clipPath>
</defs>
</svg>
