<svg width="40" height="40" viewBox="0 0 40 40" fill="none" xmlns="http://www.w3.org/2000/svg">
<g clip-path="url(#clip0_797_55)">
<path d="M19.8567 0C9.7 0 10.3333 4.42667 10.3333 4.42667L10.345 9.01333H20.035V10.39H6.5C6.5 10.39 0 9.64833 0 19.9483C0 30.2483 5.67167 29.8817 5.67167 29.8817H9.055V25.1033C9.055 25.1033 8.87333 19.4033 14.6383 19.4033H24.2483C24.2483 19.4033 29.6483 19.49 29.6483 14.1567V5.33667C29.6483 5.33667 30.4667 0 19.855 0H19.8567ZM14.5133 3.08333C15.4767 3.08333 16.2567 3.86667 16.2567 4.83667C16.2567 5.805 15.4767 6.58833 14.5133 6.58833C13.5483 6.58833 12.77 5.805 12.77 4.83667C12.77 3.86667 13.5483 3.08333 14.5133 3.08333Z" fill="#357AB4"/>
<path d="M20.1462 40.0005C30.2995 40.0005 29.6662 35.5738 29.6662 35.5738L29.6545 30.9871H19.9645V29.6105H33.5029C33.5029 29.6105 40.0029 30.3521 40.0029 20.0521C40.0029 9.75214 34.3295 10.1188 34.3295 10.1188H30.9462V14.8971C30.9462 14.8971 31.1279 20.5971 25.3629 20.5971H15.7545C15.7545 20.5971 10.3545 20.5105 10.3545 25.8438V34.6638C10.3545 34.6638 9.53454 40.0005 20.1462 40.0005ZM25.4895 36.9171C24.5245 36.9171 23.7462 36.1338 23.7462 35.1638C23.7462 34.1955 24.5245 33.4121 25.4895 33.4121C26.4529 33.4121 27.2329 34.1955 27.2329 35.1638C27.2329 36.1338 26.4529 36.9171 25.4895 36.9171Z" fill="#357AB4"/>
</g>
<defs>
<clipPath id="clip0_797_55">
<rect width="40" height="40" fill="white"/>
</clipPath>
</defs>
</svg>
