<svg width="52" height="37" viewBox="0 0 52 37" fill="none" xmlns="http://www.w3.org/2000/svg">
<path d="M4.61646 33.2586C1.6127 30.36 0 27.109 0 21.8391C0 12.5656 7.16527 4.25399 17.5851 0.144531L20.1893 3.79562C10.4636 8.57541 8.56217 14.778 7.80394 18.6887C9.36997 17.9522 11.4201 17.6952 13.4294 17.8647C18.6904 18.3072 22.8373 22.2312 22.8373 27.109C22.8373 29.5685 21.7619 31.9272 19.8478 33.6663C17.9336 35.4054 15.3374 36.3825 12.6304 36.3825C9.50121 36.3825 6.50911 35.0842 4.61646 33.2586ZM33.7792 33.2586C30.7754 30.36 29.1627 27.109 29.1627 21.8391C29.1627 12.5656 36.328 4.25399 46.7478 0.144531L49.352 3.79562C39.6263 8.57541 37.7249 14.778 36.9666 18.6887C38.5327 17.9522 40.5828 17.6952 42.5921 17.8647C47.8531 18.3072 52 22.2312 52 27.109C52 29.5685 50.9246 31.9272 49.0105 33.6663C47.0963 35.4054 44.5001 36.3825 41.7931 36.3825C38.6639 36.3825 35.6718 35.0842 33.7792 33.2586Z" fill="#337AB7"/>
</svg>
