<svg width="52" height="37" viewBox="0 0 52 37" fill="none" xmlns="http://www.w3.org/2000/svg">
<path d="M47.3833 3.6082C50.3872 6.50682 52 9.75783 52 15.0278C52 24.3013 44.8343 32.6129 34.4139 36.7224L31.8095 33.0713C41.5358 28.2915 43.4374 22.0889 44.1956 18.1781C42.6295 18.9147 40.5793 19.1717 38.5698 19.0021C33.3086 18.5597 29.1614 14.6357 29.1614 9.75783C29.1614 7.29836 30.2368 4.93962 32.1511 3.20051C34.0654 1.4614 36.6617 0.484375 39.3689 0.484375C42.4983 0.484375 45.4905 1.78266 47.3833 3.6082ZM18.219 3.6082C21.2229 6.50682 22.8357 9.75783 22.8357 15.0278C22.8357 24.3013 15.67 32.6129 5.24958 36.7224L2.64521 33.0713C12.3715 28.2915 14.273 22.0889 15.0313 18.1781C13.4652 18.9147 11.4149 19.1717 9.4055 19.0021C4.14425 18.5597 0 14.6357 0 9.75783C0 7.29836 1.07543 4.93962 2.98971 3.20051C4.90399 1.4614 7.50031 0.484375 10.2075 0.484375C13.3368 0.484375 16.3291 1.78266 18.2219 3.6082H18.219Z" fill="#337AB7"/>
</svg>
