<svg width="68" height="68" viewBox="0 0 68 68" fill="none" xmlns="http://www.w3.org/2000/svg">
<circle cx="34" cy="34" r="34" fill="#337AB7"/>
<path d="M37.7315 32.1342H30.2681C29.2784 32.1342 28.3292 31.7411 27.6294 31.0412C26.9296 30.3414 26.5364 29.3922 26.5364 28.4025C26.5364 27.4128 26.9296 26.4636 27.6294 25.7638C28.3292 25.064 29.2784 24.6708 30.2681 24.6708H39.5974C40.0922 24.6708 40.5668 24.8674 40.9167 25.2173C41.2666 25.5672 41.4632 26.0418 41.4632 26.5367C41.4632 27.0315 41.6598 27.5061 42.0097 27.856C42.3596 28.2059 42.8342 28.4025 43.3291 28.4025C43.8239 28.4025 44.2985 28.2059 44.6484 27.856C44.9984 27.5061 45.1949 27.0315 45.1949 26.5367C45.1949 25.0521 44.6052 23.6283 43.5554 22.5786C42.5057 21.5289 41.0819 20.9391 39.5974 20.9391H35.8657V17.2074C35.8657 16.7126 35.6691 16.238 35.3192 15.888C34.9693 15.5381 34.4947 15.3416 33.9998 15.3416C33.505 15.3416 33.0304 15.5381 32.6805 15.888C32.3305 16.238 32.134 16.7126 32.134 17.2074V20.9391H30.2681C28.2887 20.9391 26.3903 21.7254 24.9907 23.1251C23.591 24.5248 22.8047 26.4231 22.8047 28.4025C22.8047 30.3819 23.591 32.2803 24.9907 33.68C26.3903 35.0796 28.2887 35.8659 30.2681 35.8659H37.7315C38.7212 35.8659 39.6704 36.2591 40.3702 36.9589C41.0701 37.6588 41.4632 38.6079 41.4632 39.5977C41.4632 40.5874 41.0701 41.5365 40.3702 42.2364C39.6704 42.9362 38.7212 43.3294 37.7315 43.3294H28.4022C27.9074 43.3294 27.4328 43.1328 27.0829 42.7829C26.733 42.4329 26.5364 41.9584 26.5364 41.4635C26.5364 40.9686 26.3398 40.4941 25.9899 40.1441C25.64 39.7942 25.1654 39.5977 24.6705 39.5977C24.1757 39.5977 23.7011 39.7942 23.3512 40.1441C23.0013 40.4941 22.8047 40.9686 22.8047 41.4635C22.8047 42.9481 23.3944 44.3718 24.4442 45.4216C25.4939 46.4713 26.9177 47.0611 28.4022 47.0611H32.134V50.7928C32.134 51.2876 32.3305 51.7622 32.6805 52.1121C33.0304 52.462 33.505 52.6586 33.9998 52.6586C34.4947 52.6586 34.9693 52.462 35.3192 52.1121C35.6691 51.7622 35.8657 51.2876 35.8657 50.7928V47.0611H37.7315C39.7109 47.0611 41.6093 46.2747 43.0089 44.8751C44.4086 43.4754 45.1949 41.5771 45.1949 39.5977C45.1949 37.6182 44.4086 35.7199 43.0089 34.3202C41.6093 32.9206 39.7109 32.1342 37.7315 32.1342Z" fill="white"/>
</svg>
