<svg width="40" height="40" viewBox="0 0 40 40" fill="none" xmlns="http://www.w3.org/2000/svg">
<path d="M40 19.481C40 16.831 36.6817 14.3193 31.5933 12.7627C32.7683 7.57768 32.2467 3.45102 29.9467 2.12935C29.3894 1.81722 28.7586 1.6601 28.12 1.67435V3.49102C28.495 3.49102 28.7967 3.56602 29.05 3.70435C30.1583 4.34102 30.64 6.76102 30.265 9.87602C30.175 10.6427 30.0283 11.4493 29.8483 12.2727C28.1444 11.8621 26.415 11.5653 24.6717 11.3843C23.6331 9.9515 22.5 8.58958 21.28 7.30768C23.9383 4.83768 26.4333 3.48435 28.13 3.48435V1.66602C25.8867 1.66602 22.9517 3.26435 19.9833 6.03602C17.0167 3.28268 14.08 1.69935 11.8383 1.69935V3.51602C13.5267 3.51602 16.03 4.86268 18.6883 7.31601C17.5467 8.51601 16.405 9.87601 15.32 11.3843C13.5731 11.5633 11.8406 11.8629 10.135 12.281C9.94667 11.466 9.80833 10.676 9.71 9.91768C9.32667 6.80102 9.8 4.38102 10.9017 3.73768C11.145 3.59102 11.4633 3.52435 11.8383 3.52435V1.70768C11.155 1.70768 10.5333 1.85435 9.99667 2.16268C7.705 3.48435 7.19167 7.60102 8.37333 12.771C3.30167 14.3377 0 16.8393 0 19.481C0 22.131 3.31833 24.6427 8.40667 26.1977C7.23167 31.3843 7.75333 35.511 10.0533 36.831C10.5833 37.141 11.2033 37.2877 11.8867 37.2877C14.13 37.2877 17.065 35.6893 20.0333 32.9177C23 35.6727 25.935 37.2543 28.1783 37.2543C28.8218 37.2679 29.4574 37.1103 30.02 36.7977C32.3117 35.4777 32.825 31.361 31.6433 26.191C36.6983 24.6343 40 22.1227 40 19.481ZM29.3833 14.0427C29.0666 15.1324 28.6996 16.2069 28.2833 17.2627C27.6019 15.9373 26.8538 14.6473 26.0417 13.3977C27.2 13.5693 28.3167 13.781 29.385 14.0427H29.3833ZM25.65 22.726C25.015 23.826 24.3617 24.871 23.685 25.841C21.2388 26.0566 18.7784 26.0594 16.3317 25.8493C14.9282 23.8446 13.7009 21.7223 12.6633 19.506C13.6993 17.2845 14.9214 15.1547 16.3167 13.1393C18.7623 12.9233 21.2221 12.92 23.6683 13.1293C24.345 14.0993 25.0067 15.136 25.6417 16.2293C26.2617 17.296 26.825 18.3793 27.3383 19.4727C26.8193 20.5793 26.2561 21.6646 25.65 22.726V22.726ZM28.2833 21.666C28.7233 22.7577 29.1 23.851 29.4083 24.911C28.3417 25.1727 27.215 25.3927 26.05 25.5627C26.8587 24.3017 27.6041 23.0012 28.2833 21.666V21.666ZM20.0167 30.366C19.2583 29.5827 18.5 28.711 17.75 27.756C18.4833 27.7893 19.2333 27.8143 19.9917 27.8143C20.7583 27.8143 21.5167 27.7977 22.2583 27.756C21.525 28.711 20.7667 29.5827 20.0167 30.366ZM13.95 25.5627C12.8262 25.3999 11.7106 25.1852 10.6067 24.9193C10.9083 23.8677 11.2833 22.7827 11.7067 21.6993C12.0417 22.3493 12.3933 23.0027 12.7767 23.656C13.16 24.3077 13.55 24.9443 13.95 25.5627ZM19.975 8.59601C20.7333 9.37935 21.4917 10.251 22.2417 11.206C21.5083 11.1727 20.7583 11.1477 20 11.1477C19.2333 11.1477 18.475 11.1643 17.7333 11.206C18.4667 10.251 19.225 9.37935 19.975 8.59601ZM13.9417 13.3993C13.1331 14.6576 12.3877 15.9553 11.7083 17.2877C11.2804 16.2251 10.9049 15.1421 10.5833 14.0427C11.65 13.7893 12.7767 13.5693 13.9417 13.3993ZM6.56333 23.606C3.67667 22.376 1.81 20.761 1.81 19.481C1.81 18.201 3.67667 16.5777 6.56333 15.356C7.26333 15.0543 8.03 14.7843 8.82167 14.5327C9.28667 16.1293 9.89833 17.7927 10.655 19.4977C9.94061 21.1013 9.33643 22.7518 8.84667 24.4377C8.07242 24.1979 7.31039 23.9204 6.56333 23.606V23.606ZM10.95 35.256C9.84167 34.6227 9.36 32.1993 9.735 29.086C9.825 28.3193 9.97167 27.511 10.1517 26.6877C11.7483 27.0793 13.4933 27.381 15.3283 27.5777C16.367 29.0105 17.5 30.3724 18.72 31.6543C16.0617 34.1243 13.5667 35.4777 11.87 35.4777C11.5499 35.4812 11.2339 35.4056 10.95 35.2577V35.256ZM30.29 29.0443C30.6733 32.1593 30.2 34.581 29.0983 35.2243C28.855 35.371 28.5367 35.436 28.1617 35.436C26.4733 35.436 23.97 34.091 21.3117 31.636C22.4533 30.4393 23.595 29.0777 24.68 27.5693C26.4269 27.3904 28.1594 27.0908 29.865 26.6727C30.0533 27.496 30.1983 28.286 30.29 29.0443V29.0443ZM33.4283 23.606C32.7283 23.9077 31.9617 24.1777 31.17 24.4293C30.6716 22.7349 30.0591 21.0761 29.3367 19.4643C30.0867 17.7693 30.6883 16.1143 31.145 14.5243C31.9533 14.776 32.7183 15.0543 33.4367 15.356C36.3233 16.586 38.19 18.201 38.19 19.481C38.1817 20.761 36.315 22.3843 33.4283 23.606V23.606Z" fill="#357AB4"/>
<path d="M19.9923 23.2072C20.9807 23.2072 21.9286 22.8146 22.6274 22.1157C23.3263 21.4168 23.719 20.4689 23.719 19.4806C23.719 18.4922 23.3263 17.5443 22.6274 16.8454C21.9286 16.1465 20.9807 15.7539 19.9923 15.7539C19.0039 15.7539 18.056 16.1465 17.3571 16.8454C16.6583 17.5443 16.2656 18.4922 16.2656 19.4806C16.2656 20.4689 16.6583 21.4168 17.3571 22.1157C18.056 22.8146 19.0039 23.2072 19.9923 23.2072V23.2072Z" fill="#357AB4"/>
</svg>
