<svg width="48" height="48" viewBox="0 0 48 48" fill="none" xmlns="http://www.w3.org/2000/svg">
<circle cx="24" cy="24" r="24" fill="white"/>
<path d="M18 17.001C17.9997 17.5314 17.7888 18.04 17.4135 18.4149C17.0382 18.7898 16.5294 19.0003 15.999 19C15.4686 18.9997 14.96 18.7888 14.5851 18.4135C14.2102 18.0382 13.9997 17.5294 14 16.999C14.0003 16.4686 14.2112 15.96 14.5865 15.5851C14.9618 15.2102 15.4706 14.9997 16.001 15C16.5314 15.0003 17.04 15.2112 17.4149 15.5865C17.7898 15.9618 18.0003 16.4706 18 17.001V17.001ZM18.06 20.481H14.06V33.001H18.06V20.481ZM24.38 20.481H20.4V33.001H24.34V26.431C24.34 22.771 29.11 22.431 29.11 26.431V33.001H33.06V25.071C33.06 18.901 26 19.131 24.34 22.161L24.38 20.481V20.481Z" fill="#337AB7"/>
</svg>
