<svg width="79" height="79" viewBox="0 0 79 79" fill="none" xmlns="http://www.w3.org/2000/svg">
<g clip-path="url(#clip0_52_1307)">
<path d="M58.8333 67.9201H12.6438V61.0773H15.6765C16.9206 61.0773 17.9315 60.0664 17.9315 58.8222C17.9315 57.5781 16.9206 56.5672 15.6765 56.5672H12.6438V48.1691H15.6765C16.9206 48.1691 17.9315 47.1582 17.9315 45.9141C17.9315 44.6699 16.9206 43.659 15.6765 43.659H12.6438V35.2609H15.6765C16.9206 35.2609 17.9315 34.2501 17.9315 33.0059C17.9315 31.7617 16.9206 30.7509 15.6765 30.7509H12.6438V22.3528H15.6765C16.9206 22.3528 17.9315 21.3419 17.9315 20.0977C17.9315 18.8536 16.9206 17.8427 15.6765 17.8427H12.6438V10.9998H58.8333V37.827L63.3433 35.883V10.1445C63.3433 8.12271 61.7104 6.48975 59.6886 6.48975H11.8662C9.84447 6.48975 8.21151 8.12271 8.21151 10.1445V17.8427H5.17887C3.93471 17.8427 2.92383 18.8536 2.92383 20.0977C2.92383 21.3419 3.93471 22.3528 5.17887 22.3528H8.21151V30.7509H5.17887C3.93471 30.7509 2.92383 31.7617 2.92383 33.0059C2.92383 34.2501 3.93471 35.2609 5.17887 35.2609H8.21151V43.659H5.17887C3.93471 43.659 2.92383 44.6699 2.92383 45.9141C2.92383 47.1582 3.93471 48.1691 5.17887 48.1691H8.21151V56.5672H5.17887C3.93471 56.5672 2.92383 57.5781 2.92383 58.8222C2.92383 60.0664 3.93471 61.0773 5.17887 61.0773H8.21151V68.7755C8.21151 70.7972 9.84447 72.4302 11.8662 72.4302H59.7664C61.7881 72.4302 63.4211 70.7972 63.4211 68.7755V56.8005L58.911 58.7445V67.9201H58.8333Z" fill="#337AB7"/>
<path d="M64.0019 40.4802L42.375 49.8269L46.4469 59.2485L68.0738 49.9018L64.0019 40.4802Z" fill="#337AB7"/>
<path d="M35.6622 52.9905L31.8519 58.5115C31.2299 59.4446 31.7742 60.6888 32.8628 60.922L39.4724 61.9329C39.7835 62.0107 40.0168 61.9329 40.3278 61.8552L42.6606 60.8443L38.6171 51.4353L36.2843 52.4462C36.051 52.5239 35.8177 52.7572 35.6622 52.9905Z" fill="#337AB7"/>
<path d="M76.6413 44.4366L73.8419 37.9047C73.5309 37.1271 72.5978 36.7383 71.8201 37.1271L67.6211 38.9156L71.6646 48.3246L75.8637 46.5361C76.6413 46.1473 77.0301 45.2142 76.6413 44.4366Z" fill="#337AB7"/>
<path d="M53.0781 24.9966C53.0781 19.5534 39.159 18.1537 27.495 17.9205C26.4842 17.8427 25.7066 18.6981 25.7066 19.6312C25.7066 20.5643 26.4842 21.4197 27.4173 21.4197C37.8371 21.6529 47.6349 23.2081 49.4233 24.7633C47.7126 25.4632 42.1139 25.6187 38.6925 25.6965C30.6054 25.852 24.7734 26.0075 24.7734 29.74C24.7734 33.3169 30.2944 34.3278 37.2928 35.572C39.4701 35.9608 42.5805 36.5051 44.2134 37.0494C42.5805 37.7493 39.2368 38.6046 37.0595 39.0712C33.016 40.0043 29.5168 40.8597 27.8061 42.2593C24.7734 44.7477 27.1062 50.1131 27.4173 50.7352C27.7283 51.3573 28.3504 51.7461 28.9725 51.7461C29.2058 51.7461 29.439 51.6683 29.6723 51.5905C30.5277 51.2017 30.9165 50.1131 30.5277 49.2577C29.8278 47.7025 29.3613 45.3697 29.9056 44.9809C30.9942 44.1256 34.7267 43.1925 37.7593 42.4926C43.9024 41.0152 48.3347 40.0043 48.3347 36.8939C48.3347 34.0168 44.1357 33.2392 37.8371 32.1505C35.0378 31.684 30.0611 30.7509 28.5837 30.051C30.4499 29.4289 35.5043 29.3512 38.6925 29.2734C47.0128 28.9624 53.0781 28.8069 53.0781 24.9966Z" fill="#337AB7"/>
</g>
<defs>
<clipPath id="clip0_52_1307">
<rect width="77.76" height="77.76" fill="white" transform="translate(0.980469 0.580078)"/>
</clipPath>
</defs>
</svg>
