<svg xmlns="http://www.w3.org/2000/svg" width="19" height="19" fill="none" xmlns:v="https://vecta.io/nano"><path d="M10.007 15.426a2 2 0 0 1 1.237.207 3.25 3.25 0 0 0 3.81-.579 3.25 3.25 0 0 0 .579-3.81 2 2 0 0 1-.207-1.237 6.5 6.5 0 0 0-1.826-5.601A6.5 6.5 0 0 0 7.999 2.58a2 2 0 0 1-1.237-.207 3.25 3.25 0 0 0-3.811.579 3.25 3.25 0 0 0-.578 3.812A2 2 0 0 1 2.58 8a6.5 6.5 0 0 0 1.826 5.601 6.5 6.5 0 0 0 5.601 1.826v-.001zm-1.004 2.077a8.5 8.5 0 0 1-6.458-2.972A8.5 8.5 0 0 1 .603 7.693a5.25 5.25 0 0 1 .935-6.155A5.25 5.25 0 0 1 7.693.603a8.5 8.5 0 0 1 7.322 2.388 8.5 8.5 0 0 1 2.388 7.322 5.25 5.25 0 0 1-.935 6.155 5.25 5.25 0 0 1-6.155.935c-.427.066-.865.1-1.31.1zm.053-3.5c-2.803 0-4.053-1.38-4.053-2.414 0-.532.39-.902.928-.902 1.2 0 .887 1.725 3.125 1.725 1.143 0 1.776-.624 1.776-1.261 0-.384-.188-.808-.943-.996l-2.49-.623c-2.006-.504-2.37-1.592-2.37-2.612 0-2.12 1.992-2.917 3.864-2.917 1.72 0 3.756.956 3.756 2.228 0 .545-.48.863-1.012.863-1.023 0-.835-1.418-2.9-1.418-1.023 0-1.596.462-1.596 1.126s.803.876 1.502 1.035l1.836.409c2.014.452 2.524 1.633 2.524 2.746 0 1.724-1.325 3.011-3.985 3.011h.038z" fill="#fff"/></svg>