<svg xmlns="http://www.w3.org/2000/svg" xmlns:xlink="http://www.w3.org/1999/xlink" width="726" height="460" fill="none" xmlns:v="https://vecta.io/nano"><style><![CDATA[.B{fill:#337ab7}.C{fill:#de9c85}.D{fill:#2e262a}.E{fill:#42393d}.F{fill:#fff}.G{fill-rule:evenodd}.H{fill:#d6826f}.I{fill:#e9e9e9}.J{opacity:.502}]]></style><g class="I"><path d="M292.419 114.321l-1.958-9.789-.042-.234a2.38 2.38 0 0 1 1.613-2.728l7.95-2.509c.13-.042.257-.092.372-.153.816-.433 1.337-1.306 1.256-2.245-.383-5.529.33-11.061 2.115-16.306a2.5 2.5 0 0 0 .119-.659c.034-.828-.379-1.64-1.096-2.107l-5.869-3.732c-.771-.494-1.173-1.391-1.085-2.264.035-.264.108-.544.234-.805l4.513-9.138c.552-1.123 1.897-1.648 3.073-1.18l8.613 3.383a2.35 2.35 0 0 0 2.475-.483c.969-.893 1.965-1.747 3.023-2.559 1.988-1.525 4.065-2.835 6.21-3.942l.008-.008c.896-.464 1.406-1.406 1.295-2.41l-1.046-9.337-.046-.471a2.34 2.34 0 0 1 1.87-2.567l10.007-2.004c1.218-.238 2.433.471 2.805 1.659l2.796 8.847c.311.985 1.215 1.659 2.234 1.667 4.31.104 8.582.862 12.662 2.276 1.039.345 2.181-.05 2.774-.985l4.437-6.95a2.43 2.43 0 0 1 3.13-.87l9.18 4.532c1.084.536 1.575 1.816 1.13 2.927l-3.961 10.13c-.341.858-.157 1.835.459 2.521.767.843 1.502 1.724 2.207 2.644 1.33 1.732 2.502 3.532 3.514 5.375a2.31 2.31 0 0 0 2.317 1.215l11.222-1.268c1.242-.13 2.364.69 2.609 1.9l2.012 10.042c.207 1.065-.337 2.138-1.295 2.602-.096.046-.207.1-.318.126l-9.816 3.107c-.912.283-1.571 1.073-1.663 2.023-.011.08-.023.165-.015.249 0 .253 0 .49-.023.747-.054 2.962-.437 5.919-1.119 8.811-.245.962.177 1.977 1.035 2.514l7.337 4.689c1.042.659 1.41 2.016.862 3.123l-1 2.034-3.514 7.088c-.544 1.115-1.858 1.617-3.019 1.169l-8.486-3.334c-.904-.363-1.923-.099-2.575.621a41.91 41.91 0 0 1-5.731 5.307c-1.563 1.199-3.207 2.283-4.881 3.225l.222 1.958.896 8.038a2.31 2.31 0 0 1-1.287 2.36 2.15 2.15 0 0 1-.582.192l-10.069 2.038c-1.195.23-2.364-.479-2.735-1.624l-1.901-6.05c-.322-1.019-1.318-1.712-2.387-1.651-4.432.257-8.865-.184-13.126-1.31-1.011-.269-2.057.134-2.582.999l-5.609 8.786a2.3 2.3 0 0 1-2.946.816l-9.272-4.59c-1.1-.54-1.598-1.828-1.146-2.95l4.127-10.536c.364-.905.126-1.931-.583-2.606-1.521-1.44-2.938-3.034-4.264-4.758-.709-.927-1.379-1.877-2-2.843-.49-.755-1.364-1.172-2.26-1.08l-10.759 1.21c-1.249.138-2.39-.685-2.647-1.915zm34.991-36.677c-1.988 1.912-3.731 4.264-5.138 7.069-.306.594-.574 1.291-.823 2.031-1.031 3.218-1.399 7.417-.809 10.302 4.544 22.053 32.145 25.942 42.673 6.395a25.62 25.62 0 0 0 .502-.977c1.529-3.096 2.215-8.433 1.556-11.812-.349-1.774-.847-3.433-1.46-4.973-6.23-15.356-25.168-18.919-36.501-8.034z" class="G"/><path d="M636.75 78.544c-6.888-13.881-22.252-16.068-46.098-6.567-11.708 29.015-19.949 44.309-24.716 45.892s-2.187-11.797 7.751-40.137c-9.659.965-25.405 9.651-47.24 26.064 7.479 29.647 8.709 44.65 3.697 45.01s-7.651-12.934-7.923-39.884c-8.62 4.571-16.149 13.058-22.581 25.456-7.234 19.543 1.881 33.458 27.355 41.742 2.368 10.329 1.529 22.091-2.521 35.286-1.011 2.49-1.881 5.751-2.613 9.781l3.751-.743c.107-1.065.253-2.103.441-3.111.003-.034.007-.05.011-.065l.609-2.621c.701-2.482 1.146-4.291 1.399-5.586 2.034-7.731 5.157-17.884 8.072-20.463-.352-.337-.735-.854-1.145-1.563l1.145 1.563c9.149 12.479 41.696 8.395 58.849 1.176s8.352-10.716-2.9-16.988-30.996-.107-37.593-2.134 1.475-6.961 13.578-8.413 20.429 9.283 40.049 7.291c13.08-1.326 22.11-15.034 27.095-41.122-12.479 6.767-37.773 4.169-39.601-.233s33.563-10.958 38.792-13.425 12.67-15.383 2.337-36.206zM46.599 238.581c-2.805-15.241 8.188-26.202 32.972-32.884 26.757 16.211 42.519 23.521 47.286 21.931s-5.318-10.751-30.256-27.49c8.31-5.011 26.122-7.494 53.439-7.44 11.777 28.217 19.781 40.968 24.007 38.255s-1.625-14.942-17.555-36.681c9.643-1.505 20.754.778 33.332 6.847 17.505 11.314 18.544 27.915 3.111 49.811 4.295 9.689 12.015 18.605 23.164 26.738 2.299 1.387 4.95 3.479 7.954 6.268l-3.452 1.652a36.46 36.46 0 0 0-2.215-2.23c-.026-.023-.038-.031-.046-.042l-2.061-1.736c-2.046-1.563-3.486-2.747-4.463-3.632-6.264-4.969-14.85-11.23-18.728-11.548.081-.478.077-1.122-.019-1.934l.019 1.934c.15 15.475-28.351 31.708-46.408 36.206s-13.111-3.57-7.858-15.336 24.75-18.659 28.819-24.233-5.356-4.694-15.912 1.398-10.792 19.674-27.692 29.834c-11.268 6.774-26.712 1.211-46.332-16.685 14.042-2.057 32.734-19.298 31.562-23.915s-33.436 11.337-39.102 12.494-19.36-4.724-23.566-27.582zm612.204 146.724c12.195-9.559 11.226-25.053-2.916-46.474-30.784-5.582-47.435-10.547-49.952-14.896s11.111-4.532 40.876-.552c-2.904-9.26-14.605-22.915-35.102-40.972-27.513 13.337-41.957 17.586-43.325 12.751s11.115-10.115 37.447-15.846c-6.225-7.517-16.06-13.165-29.504-16.95-20.605-3.122-32.383 8.628-35.325 35.248-9.636 4.418-21.325 5.981-35.068 4.69-2.64-.487-6.011-.675-10.107-.571l1.487 3.517a37.08 37.08 0 0 1 3.138-.199h.065l2.689.061c2.571.188 4.437.257 5.755.237 7.984.426 18.559 1.426 21.677 3.759.253-.414.686-.897 1.295-1.437l-1.295 1.437c-10.363 11.49.234 42.531 10.782 57.86s12.187 6.012 16.045-6.283-6.18-30.371-5.536-37.244 7.118.034 10.996 11.59-4.95 21.888.981 40.696c3.95 12.536 19.206 18.601 45.761 18.191-9.157-10.843-11.743-36.141-7.801-38.823s17.536 30.643 21.011 35.263 17.635 9.284 35.926-5.053z"/><path d="M492.728 116.194c1.429-28.551 8.819-51.78 22.167-69.68 2.659-3.567 8.345-1.805 8.556 2.643l.011.222c.238 7.597-21.93 41.24-30.734 66.814zm-1.809 12.345c12.023-36.394 29.846-63.27 53.466-80.626 2.161-1.586 5.256-1.28 6.923.824 1.084 1.368 1.682 3.578.816 7.157-2.31 9.544-41.462 43.822-61.205 72.646z" class="J"/></g><path d="M184.196 185.763c-11.981-20.896-26.402-35.52-43.263-43.865-3.36-1.662-6.958 1.832-5.418 5.253.023.058.05.115.077.173 2.724 5.796 32.225 22.597 48.604 38.439z" fill="#ebeeef" class="J"/><path d="M190.269 194.345c-22.931-22.743-46.581-36.118-70.952-40.129-2.226-.368-4.433 1.046-4.885 3.26-.291 1.441.103 3.33 2.122 5.686 5.38 6.287 47.88 17.076 73.715 31.183z" class="I J"/><path d="M581.035 118.003v271.919c0 4.758-3.437 8.616-7.67 8.616H181.039c-4.233 0-7.666-3.858-7.666-8.616V118.003c0-4.763 3.433-8.617 7.666-8.617h392.326c4.233 0 7.67 3.854 7.67 8.617z" fill="#ccf1fa"/><path d="M561.641 102.478v22.049H123.808v-22.049c0-4.551 3.689-8.237 8.233-8.237h421.363a8.24 8.24 0 0 1 8.237 8.237z" class="B"/><path d="M137.202 109.386c0-2.119 1.717-3.835 3.831-3.835 2.119 0 3.836 1.716 3.836 3.835a3.84 3.84 0 0 1-3.836 3.835c-2.114 0-3.831-1.72-3.831-3.835zm15.107 0c0-2.119 1.716-3.835 3.835-3.835s3.835 1.716 3.835 3.835a3.84 3.84 0 0 1-3.835 3.835c-2.119 0-3.835-1.72-3.835-3.835zm15.49 0c0-2.119 1.716-3.835 3.835-3.835s3.835 1.716 3.835 3.835-1.716 3.835-3.835 3.835-3.835-1.72-3.835-3.835z" class="F"/><path d="M406.167 69.556l-.954-4.766-.019-.115c-.115-.582.222-1.153.786-1.329l3.869-1.222c.065-.019.127-.046.184-.073a1.14 1.14 0 0 0 .609-1.096c-.184-2.69.161-5.387 1.031-7.938.034-.107.054-.215.057-.322.02-.402-.183-.801-.532-1.027l-2.858-1.816a1.18 1.18 0 0 1-.529-1.103c.015-.13.05-.264.115-.391l2.199-4.452c.268-.548.92-.801 1.494-.575l4.196 1.648a1.14 1.14 0 0 0 1.203-.234l1.475-1.249a20.23 20.23 0 0 1 3.023-1.919l.003-.004a1.17 1.17 0 0 0 .633-1.172l-.51-4.548-.023-.23a1.14 1.14 0 0 1 .912-1.249l4.869-.977c.594-.115 1.188.23 1.368.808l1.364 4.306c.15.483.59.808 1.084.812a20.52 20.52 0 0 1 6.169 1.107 1.16 1.16 0 0 0 1.352-.475l2.161-3.387c.33-.513.985-.69 1.525-.422l4.471 2.203c.525.264.763.885.548 1.429l-1.927 4.935a1.18 1.18 0 0 0 .222 1.226l1.073 1.287a20.3 20.3 0 0 1 1.712 2.617c.223.41.667.651 1.131.594l5.463-.621a1.17 1.17 0 0 1 1.272.927l.981 4.889c.1.521-.169 1.042-.632 1.268-.05.023-.1.05-.157.061l-4.778 1.513c-.444.138-.766.525-.812.985-.004.042-.012.081-.008.123l-.011.364c-.023 1.441-.211 2.881-.544 4.291-.119.467.088.962.505 1.222l3.571 2.287c.51.318.69.981.422 1.517l-.487.992-1.713 3.452c-.264.544-.904.789-1.471.571l-4.13-1.624c-.441-.176-.939-.05-1.257.303-.827.923-1.762 1.793-2.789 2.582-.762.586-1.563 1.111-2.379 1.571l.111.954.437 3.916a1.13 1.13 0 0 1-.629 1.149c-.088.046-.183.073-.283.092l-4.904.992c-.582.115-1.149-.234-1.333-.789l-.924-2.946a1.16 1.16 0 0 0-1.164-.805 20.37 20.37 0 0 1-6.391-.636c-.49-.13-1 .065-1.257.486l-2.731 4.276a1.12 1.12 0 0 1-1.437.398l-4.513-2.237a1.13 1.13 0 0 1-.56-1.433l2.012-5.134a1.15 1.15 0 0 0-.288-1.268 19.74 19.74 0 0 1-2.072-2.318l-.977-1.383c-.238-.368-.663-.571-1.1-.529l-5.241.59a1.18 1.18 0 0 1-1.288-.931zm17.042-17.862c-.969.931-1.82 2.077-2.502 3.441-.149.291-.279.628-.402.992-.502 1.567-.682 3.609-.395 5.015 2.215 10.739 15.655 12.632 20.785 3.115.081-.157.165-.314.241-.479.748-1.506 1.081-4.103.759-5.751a13.23 13.23 0 0 0-.713-2.421c-3.03-7.479-12.256-9.214-17.773-3.912z" class="G I"/><path d="M102.452 316.518c.387-4.245-1.785-6.364-6.529-6.364 1.437.391 2.529.973 3.272 1.751-3.023-1.774-6.18-1.299-9.471 1.429-4.935 4.092-1.87 14.352-3.371 16.298s-7.345 2.337-6.628 8.64 18.547 14.187 17.402 19.398c4.659-6.851 5.322-11.835 1.992-14.962 1.624 1.529 2.517 3.203 2.682 5.019.44-3.547-.468-5.892-2.728-7.026-2.996-1.506-5.452-7.019-5.191-8.004.172-.659 3.031-6.049 8.571-16.179z" class="D"/><path d="M95.452 347.068c3.54 14.651 7.05 23.44 10.525 26.371 2.092 1.759 6.241 4.659 12.455 8.701l-3.877 1.406c-8.616-2.911-13.892-5.501-15.819-7.77s-5.536-9.084-10.816-20.447l7.532-8.261z" class="C"/><path d="M45.531 385.677l.146.256c1.161 2.023 3.828 6.973 6.766 12.391l4.222 7.762 5.804 10.26 2.609 4.123c.119.183.142.394.126.605-.134 1.835-.096 3.655.084 5.448 1.18 11.751 5.732 20.773 13.655 27.072l3.536.521c-3.333-12.352-5.494-22.018-6.475-28.999-.249-1.774-.356-3.215-.272-4.153.264-2.728-.222-6.736-1.138-11.333-1.632-8.176-4.624-18.207-7.226-26.237-.111-.341-1.824-6.505-5.134-18.49-2.782 2.433-9.241 4.149-19.386 5.149-1.716 4.184-.824 9.391 2.682 15.625z" class="E"/><path d="M89.897 458.586H75.146c-.234-1.498-.096-2.816.418-3.954.739-1.636 1.789-1.685.134-4.252.939.965 3.95 1.363 6.08 1.076.264.425 1.686 3.268 2.559 3.893.962.693 5.26.448 5.559 3.237zM45.53 385.677l.146.256c1.161 2.023 7.448 13.632 10.383 19.049-2.268-9.333-2.613-18.666-1.035-28.003l-9.494 8.698zm54.91-70.056c.096-.387-8.425 3.851-8.854 4.33-3.996 4.432-2.858 10.218-.571 10.271.977.023 1.372.851 1.18 2.475l16.337-6.911c-1.311-7.648-4.008-11.035-8.092-10.165z" class="D"/><path d="M94.95 343.77c1.659 3.31 2.383 6.31 2.176 8.996-2 3.153-5.59 5.13-10.774 5.931 4.456-9.954 7.322-14.931 8.597-14.927z" class="B"/><path d="M57.025 371.152l.054-2.758c-3.666.463-9.98-1.728-18.95-6.567-3.835 2.548-6.011 7.463-6.536 14.743-.387 5.333-2.816 27.872-3.084 34.604l-.142 4.877c-.004.219-.104.406-.234.575-1.138 1.444-2.123 2.977-2.977 4.563-5.59 10.402-6.927 22.67-4 36.803l1.946-.494c4.728-14.651 8.636-25.145 11.724-31.485.789-1.61 1.502-2.866 2.1-3.59 1.743-2.119 3.578-5.713 5.391-10.038 2.284-5.452 7.188-19.195 14.708-41.233z" class="E"/><path d="M32.883 458.586h-14.75c-.234-1.498-.096-2.816.418-3.954.739-1.636 1.896-2.379 1.617-4.36.939.966 2.467 2.046 4.598 1.759.26.425 1.686 2.693 2.559 3.318.962.693 5.26.448 5.559 3.237z" class="D"/><g class="B"><path d="M85.361 361.861c-1.981.341.322 1.916-2.402 2.211-3.877.421-7.881.712-9.981 1.548-.762.306-1.276.682-1.437 1.164-.605 1.824-2.828 4.299-6.666 7.433-17.118-.781-26.233-4.984-27.332-12.616 16.666-16.188 30.846-25.011 42.562-26.103 2.854-.264 6.697.092 8.502.897 2.732 1.214 4.847 3.674 6.345 7.375-1.375 11.206-4.574 17.237-9.59 18.091z"/><path d="M82.958 364.072c-3.877.421-7.881.712-9.98 1.548-.571-8.536 1.157-16.019 5.188-22.44l4.793 20.892z"/></g><path d="M88.387 337.448c.732 2.299 3.176 8.839 6.563 6.322-.115-.487.598-1.908 1.437-3.349l2.349-3.728-5.521-4.835-.329-.291c-1.44 2.521-2.862 3.736-4.103 4.663-.379.283-.54.77-.395 1.218z" class="C"/><path d="M98.736 336.697l-2.349 3.724c-3.433-2.115-3.433-6.364-3.169-8.563l5.517 4.839z" class="H"/><path d="M98.889 339.118c-5.555-3.091-7.341-6.348-5.364-9.777 2.965-5.145 3.889-9.207 9.333-6.463s5.337 5.294 4.762 7.252-6.49 10.061-8.731 8.988z" class="C"/><path d="M109.03 327.13c-.383-2.283-1.544-2.501-2.352-2.348-2.05-3.391-4.751-4.425-8.103-3.104-1.789 2.246-3.977 3.56-6.563 3.943.644 1.199 2.295 2.172 4.946 2.915 1.218.338 2.598.135 3.931-.314-1.843 1.027-3.728 1.736-5.651 2.131 5.245.478 10.241-4.318 10.758-4.832.241.744.667 2.299.414 3.437-.345 1.548-1.72 4.348-.881 4.712 2.716-2.076 3.881-4.256 3.501-6.54z" class="D"/><g class="B"><path d="M184.077 439.771l-62.155-30.302 7.946-16.302 62.155 30.302-7.946 16.302z"/><path d="M102.478 412.875a20.55 20.55 0 0 1-11.122-14.138c-.552-2.521 1.042-5.011 3.559-5.566s5.011 1.042 5.564 3.559a11.26 11.26 0 0 0 6.095 7.751c5.605 2.731 12.391.394 15.122-5.211s.395-12.39-5.21-15.122c-2.544-1.241-5.445-1.483-8.157-.682-2.471.728-5.069-.682-5.801-3.157a4.67 4.67 0 0 1 3.157-5.801c4.954-1.463 10.245-1.023 14.893 1.242 10.237 4.992 14.505 17.378 9.513 27.612s-17.375 14.505-27.613 9.513zm87.933 42.868c-10.237-4.988-14.506-17.375-9.513-27.612s17.375-14.501 27.612-9.513a20.61 20.61 0 0 1 10.153 10.969 4.67 4.67 0 0 1-2.629 6.057c-2.398.951-5.11-.226-6.057-2.624-1.042-2.632-3.015-4.766-5.563-6.007-5.605-2.732-12.39-.395-15.122 5.21a11.33 11.33 0 0 0 5.211 15.126 11.27 11.27 0 0 0 9.858.027 4.67 4.67 0 0 1 4.038 8.421 20.54 20.54 0 0 1-17.988-.054z"/></g><path d="M169.652 425.323l-32.742-15.965a1.91 1.91 0 0 1-.878-2.54l.836-1.709c.456-.939 1.597-1.33 2.536-.874L172.15 420.2c.939.456 1.333 1.598.874 2.541l-.832 1.705a1.91 1.91 0 0 1-2.54.877z" fill="#883d30"/><g class="C"><path d="M94.119 396.316c.119 1.038.398 1.82.835 2.356.659.801 2.567 2.74 2.598 3.878-.061.333-.23.471-.506.41-.406-.092-1.828-1.498-2.559-1.399.26 1.517.517 2.491.778 2.916.383.64 1.096 3.057.862 3.609s-4.092-2.667-5.264-4.238c-.778-1.049-.785-3.701-.019-7.957l3.276.425z"/><path d="M86.302 341.011c-6.502-.356-10.329 1.51-11.486 5.59-1.732 6.122 3.253 30.562 4.326 33.083 1.306 3.062 5.13 8.962 11.475 17.701l3.502-1.069c-4.23-13.348-6.82-20.681-7.766-22.003-2.222-3.111 2.87-30.639-.05-33.302z"/></g><path d="M72.894 354.789c.027.141 9.23 1.693 14.988-1.23 3.203-10.042 2.517-14.824-2.065-14.345-6.873.725-10.942 2.889-11.115 6.176-.115 2.196-.716 5.326-1.808 9.399z" class="B"/><path d="M113.64 372.34c-.46.023-1.311.176-1.617.41-.529.41-1.127 1.122.065 1.716 1.785.889 5.36.494 5.222-.042-.441-1.69-1.088-2.203-3.67-2.084zm113.648-239.821c-.471.541-.529 1.142-.295 1.786.433 1.199 1.854 2.525 3.506 3.854l.563.467.126.112.096.088c1.54 1.421.962 1.747 3.728 4.628 3.157 3.283 5.329 3.341 5.946 3.042.521-.257-.54-1.996-1.716-3.954l-.173-.283-.467-.786c-1.379-2.356-1.023-3.463-.697-6.965.176-1.9 1.655-7.203 4.429-15.912l-6.046-1.042c-1.215 6.935-2.487 10.935-3.828 12.004-1.072.854-2.272.866-3.302 1.498-.073.042-.146.088-.215.134-.586.391-1.184.789-1.655 1.329z" class="C"/><path d="M227.288 132.519c-.471.541-.529 1.142-.295 1.786.529 1.195 1.916 2.517 3.513 3.839l.556.483.126.111.096.088c1.54 1.421.962 1.747 3.728 4.628 3.157 3.283 5.329 3.341 5.946 3.042.521-.257-.54-1.996-1.716-3.954-.613-.226-3.468-1.383-5.625-4.142-1.9-2.425-3.164-5.54-4.459-7.344l-.215.134c-.586.391-1.184.789-1.655 1.329z" class="D"/><path d="M276.041 128.746c.372 1.865 3.035 1.555 6.004.827s2.268.138 6.498-.329 5.509-2.046 5.639-2.675c.115-.559-1.977-.754-4.218-1.015l-.847-.1c-2.532-.318-4.386-1.953-6.685-3.294-1.452-.847-3.261-2.996-5.425-6.445l-5.801.46 4.222 6.632c.69 1.184.655 2.747.567 3.954-.046.655-.088 1.326.046 1.985z" class="C"/><path d="M282.044 129.573c2.973-.728 2.268.138 6.498-.329s5.51-2.046 5.64-2.675c.115-.559-1.977-.754-4.218-1.015l-.02.042c-1.693 1.2-3.712 1.828-6.057 1.885-2.869.069-5.911-.754-7.892-.72-.046.655-.088 1.326.046 1.985.371 1.866 3.034 1.555 6.003.827zm-28.236-37.922l-5.421 14.593-7.081 19.053c-1.279.123-2.536.008-3.762-.344-1.126-.326-2.341-.916-3.636-1.77 1.311-13.64 3.188-24.371 5.632-32.202.939-3.015 1.992-5.452 3.157-6.824 3.789-4.479 7.494-1.981 11.111 7.494z" class="D"/><path d="M248.294 68.479c-3.551-1.149-13.685.322-23.865 2.314l-2.13-3.513-21.984-1.716c-4.839 10.724-5.931 19.505-3.284 26.34.583 1.506 1.744 2.471 3.721 2.506h.321l17.333-.008c10.935 0 23.141-7.517 24.72-7.831 2.586-.517 3.62 4.651 6.203 10.076 1.724 3.62 9.819 11.632 24.294 24.037 2.226.023 3.797-.141 4.716-.482.989-.372 1.663-.797 2.023-1.28-16.038-31.907-26.727-48.723-32.068-50.443z" class="E"/><path d="M215.016.351c-3.08-.793-7.299-.004-7.996.065-8.368.824-11.176 10.157-9.912 17.394 1.169 6.682-2.222 8.532-6.149 13.808-7.873 10.582-2.728 19.505 3.487 21.804 2.486.919 5.455.218 8.904-2.099.095.035 16.267-10.597 22.895-16.589 11.042-4.322-3.379-32.363-11.229-34.382z" class="D"/><path d="M216.25 30.955c.222.774-3.437 2.199-6.23 1.674-2.628-.49-5.575-3.567-4.969-3.854 1.007-.479 1.685-1.667 1.134-8.092l.502.054 8.405.962.223 5.073c.161 2.061.578 2.919.935 4.184z" class="C"/><path d="M215.092 21.699l.223 5.073c-4.644.249-7.437-3.774-8.628-6.034l8.405.962z" class="H"/><path d="M216.828 23.894c-7.291.72-11.126-1.195-11.506-5.743-.567-6.823-2.36-11.279 4.602-12.256 6.957-.977 8.532 1.513 9.275 3.747s.46 13.796-2.371 14.252z" class="C"/><g class="D"><path d="M215.656 4.818c-.916 5.555-3.452 8.996-7.606 10.314-3.03.962-5.233 1.126-6.605.49 1.46-1.935 2.449-4.245 2.966-6.935a3.34 3.34 0 0 1 2.226-2.544c3.23-1.065 7.141-3.969 9.019-1.326z"/><path d="M213.595 6.596c1.375.307 2.67 1.345 3.889 3.119.999 1.456 2.157 5.119 1.957 6.743 1.276-5.145.985-8.67-.877-10.586-1.973-2.027-3.628-1.785-4.969.724z"/></g><path d="M196.553 53.369l.498 2.291.482 2.977.46 6.031c.127.973.356 1.996.82 3.283.452 1.249 12.341 2.36 19.103 1.912 2.145-.138 3.781-.441 4.364-.943 2.414-2.096 2.172 2.513 2.502-19.536.107-7.172-2.935-13.95-9.127-20.337-.494 3.061-3.812 2.77-9.949-.873-.33-.192-3.954 5.18-7.448 11.793-3.847 7.306-2.79 8.85-1.705 13.402z" class="B"/><path d="M248.387 106.244l-7.081 19.054c-1.279.122-2.536.007-3.762-.345-1.126-.326-2.341-.916-3.636-1.77 1.311-13.64 3.188-24.371 5.632-32.202l8.847 15.263z" class="E"/><path d="M215.655 29.044c6.318 1.073 9.851 2.969 10.59 5.689s3.678 11.686 8.8 26.9c-3.969 1.356-6.697 1.291-8.179-.195-1.487-1.483-4.065-8.364-7.747-20.647l-3.464-11.747z" class="B"/><path d="M214.304 19.872c.306.747.862 1.123 1.67 1.123 1.211 0 1.54-.18 1.766-.437.154-.172.307-.421.46-.751-1.341-.264-2.636-.245-3.896.065z" class="F"/><path d="M197.534 58.637l.46 6.031c5.739.019 12.44-2.195 20.11-6.647l-20.57.617zm20.569-6.257c-8.938-.268-14.156-2.942-15.666-8.019-1.655-5.582-3.406-4.433-5.26 3.441l1.479 7.54h14.704l4.743-2.962z" class="B"/><path d="M241.471 31.703l-.724-1.793a5.09 5.09 0 0 0-4.716-3.184h-13.364v8.483 36.198h55.278V35.208h-31.283c-2.283 0-4.337-1.387-5.191-3.506z" fill="#9b5140"/><path d="M231.004 53.897v-3.222l11.298-4.946v3.291l-7.888 3.241 7.888 3.245v3.337l-11.298-4.946zm23.034-12.018h3.011l-10.336 21.609h-3.012l10.337-21.608zm15.57 8.796v3.222l-11.298 4.946v-3.291l7.888-3.241-7.888-3.245v-3.337l11.298 4.946z" class="F"/><path d="M218.101 54.146l.973-1.525c.509-.165 1.126-.502 1.843-1.004 1.279-.9 1.111-2.249 1.75-2.103l.008 2.958-.069.012c2.747.732 5.958-.065 6.023.621.176 1.881-1.28 2.728-2.498 3.318-.931.448-1.992 1.126-3.678.602-.824-.257-1.881-.513-3.172-.774l-1.18-2.103z" class="C"/><path d="M205.706 28.174c-5.804.379-9.429 1.701-10.877 3.965-2.176 3.395-4.873 20.624-3.743 26.54.755 3.946 10.421 3.567 28.995-1.13l-.889-5.134c-10.72.061-16.386-.605-16.995-2.004-.813-1.854.356-9.268 3.509-22.237z" class="B"/><path d="M247.708 35.189c-.077.222 1.307 2.502 3.284 2.107 1.229-.249 2.831-2.9 1.425-3.483-2.349-.977-4.51.77-4.709 1.376z" class="C"/><path d="M332.786 154.867l-.295-.157 32.306-60.546.291.157-32.302 60.546zm150.364-21.321l-36.329-39.19.245-.226 36.325 39.194-.241.222z" class="D"/><path d="M505.85 144.875a14.55 14.55 0 0 1-2.713 10.644c-2.168 2.938-5.433 5.019-9.268 5.547l-162.42 22.318c-8.291 1.138-15.954-4.356-17.034-12.207-.54-3.923.663-7.724 3.042-10.689s5.923-5.084 10.069-5.651l162.42-22.318c7.67-1.053 14.823 4.506 15.904 12.356z" class="F"/><path d="M505.85 144.875a14.55 14.55 0 0 1-2.712 10.644c-2.169 2.938-5.433 5.019-9.268 5.547l-29.39 4.039-3.923-28.547 29.39-4.039c7.67-1.053 14.823 4.506 15.903 12.356z" class="B"/><g class="F"><path d="M487.962 152.618a7.51 7.51 0 0 1-1.104.069 7.29 7.29 0 0 1-5.164-2.21 7.35 7.35 0 0 1 .118-10.383 7.35 7.35 0 0 1 10.383.119c2.831 2.896 2.778 7.555-.119 10.386-1.138 1.111-2.57 1.809-4.114 2.019zm-5.303-11.658a6.14 6.14 0 0 0-.1 8.674c1.142 1.172 2.675 1.827 4.314 1.847a6.1 6.1 0 0 0 4.357-1.747c2.421-2.364 2.467-6.257.103-8.675s-6.256-2.463-8.674-.099z" class="G"/><path d="M475.379 157.492l-.843-.866 7.165-7.004.846.866-7.168 7.004z"/><path d="M472.468 159.492a1.08 1.08 0 0 1 .015-1.525l4.222-4.126a1.08 1.08 0 0 1 1.51 1.544l-4.222 4.126c-.426.417-1.112.41-1.525-.019z"/></g><path d="M233.099 299.993h-33.934a1.28 1.28 0 0 1-1.279-1.279v-.537a1.28 1.28 0 0 1 1.279-1.279h33.934a1.28 1.28 0 0 1 1.28 1.279v.537a1.28 1.28 0 0 1-1.28 1.279z" class="B"/><g class="D"><path d="M215.686 310.637h-16.743c-.582 0-1.057-.472-1.057-1.054a1.06 1.06 0 0 1 1.057-1.057h16.743a1.06 1.06 0 0 1 1.057 1.057c0 .582-.475 1.054-1.057 1.054zm12.82-4.429H198.87c-.544 0-.984-.441-.984-.985v-.145a.98.98 0 0 1 .984-.981h29.636a.98.98 0 0 1 .984.981v.145c0 .544-.44.985-.984.985z"/><use xlink:href="#B"/><path d="M236.57 310.637h-16.743c-.586 0-1.057-.472-1.057-1.054s.471-1.057 1.057-1.057h16.743c.582 0 1.053.475 1.053 1.057s-.471 1.054-1.053 1.054z"/></g><path d="M274.42 299.993h-33.934a1.28 1.28 0 0 1-1.28-1.279v-.537a1.28 1.28 0 0 1 1.28-1.279h33.934a1.28 1.28 0 0 1 1.279 1.279v.537a1.28 1.28 0 0 1-1.279 1.279zm-41.321 23.31h-33.934a1.28 1.28 0 0 1-1.279-1.28v-.536a1.28 1.28 0 0 1 1.279-1.28h33.934a1.28 1.28 0 0 1 1.28 1.28v.536a1.28 1.28 0 0 1-1.28 1.28z" class="B"/><g class="D"><path d="M215.686 333.95h-16.743a1.06 1.06 0 0 1-1.057-1.057 1.06 1.06 0 0 1 1.057-1.058h16.743a1.06 1.06 0 0 1 1.057 1.058 1.06 1.06 0 0 1-1.057 1.057zm12.82-4.433H198.87c-.544 0-.984-.44-.984-.981v-.149c0-.54.44-.981.984-.981h29.636c.544 0 .984.441.984.981v.149c0 .541-.44.981-.984.981z"/><use xlink:href="#B" y="23.309"/><path d="M236.57 333.95h-16.743c-.586 0-1.057-.475-1.057-1.057s.471-1.058 1.057-1.058h16.743c.582 0 1.053.475 1.053 1.058s-.471 1.057-1.053 1.057z"/></g><path d="M274.42 323.303h-33.934a1.28 1.28 0 0 1-1.28-1.28v-.536a1.28 1.28 0 0 1 1.28-1.28h33.934a1.28 1.28 0 0 1 1.279 1.28v.536a1.28 1.28 0 0 1-1.279 1.28z" class="B"/><g class="E"><path d="M409.477 181.625l-19.379 4.51-9.586 17.436-7.314-39.738 36.279 17.792z"/><path d="M401.419 198.644l-2.823 2.138-12.379-16.337 2.823-2.138 12.379 16.337z"/></g><path d="M396.791 263.772h-47.657c-1.927 0-3.49-1.567-3.49-3.494v-47.654c0-1.931 1.563-3.494 3.49-3.494h47.657c1.928 0 3.491 1.563 3.491 3.494v47.654c0 1.927-1.563 3.494-3.491 3.494z" class="F"/><path d="M352.624 252.343l10.617-19.141c1.237-2.23 4.364-2.425 5.869-.372l6.127 8.353a3.49 3.49 0 0 0 5.39.291c1.544-1.686 4.264-1.46 5.51.46l6.609 10.202c1.502 2.326-.165 5.391-2.931 5.391h-34.137c-2.663 0-4.345-2.858-3.054-5.184zm20.954-28.087a4.18 4.18 0 0 1 4.176-4.176c2.307 0 4.176 1.87 4.176 4.176s-1.869 4.176-4.176 4.176-4.176-1.869-4.176-4.176z" class="B"/><path d="M466.69 265.243l-47.217 6.441a3.49 3.49 0 0 1-3.931-2.989l-6.44-47.217a3.49 3.49 0 0 1 2.984-3.934l47.217-6.441c1.912-.26 3.674 1.077 3.935 2.989l6.44 47.217c.261 1.911-1.076 3.674-2.988 3.934z" class="F"/><path d="M421.385 259.887l7.931-20.402c.923-2.371 3.996-2.992 5.766-1.157l7.199 7.449c1.529 1.582 4.126 1.371 5.383-.441 1.299-1.881 4.027-2.023 5.517-.291l7.927 9.218c1.805 2.099.567 5.364-2.176 5.735l-33.819 4.617c-2.64.36-4.693-2.245-3.728-4.728zm16.965-30.662c-.314-2.283 1.287-4.39 3.571-4.701a4.18 4.18 0 0 1 4.705 3.575 4.18 4.18 0 0 1-3.575 4.701c-2.284.314-4.391-1.287-4.701-3.575zM327.856 457.648H300.32v-23.609h27.536v23.609z" class="B"/><path d="M328.787 434.851h-29.578v-1.823h29.578v1.823zm-.931 13.073H300.32v-7.498h27.536v7.498z" class="E"/><path d="M361.356 457.663h-25.999a1.72 1.72 0 0 1-1.724-1.724v-2.881c0-1.027.893-1.828 1.912-1.713l26.003 2.881c.873.1 1.532.835 1.532 1.713a1.72 1.72 0 0 1-1.724 1.724z" class="B"/><g class="D"><path d="M725.027 460l-723.894-.253c-.483 0-.881-.395-.881-.881v-.452c0-.487.398-.881.885-.881l723.89.249c.487 0 .881.398.881.881v.452c0 .486-.398.885-.881.885zM315.939 265.918h-3c-.272 0-.49-.223-.49-.495a.49.49 0 0 1 .49-.49h2.977a.5.5 0 0 1 .502.49c0 .272-.207.495-.479.495zm-5.973 0h-2.977c-.272 0-.494-.223-.494-.495a.49.49 0 0 1 .494-.49h2.977a.49.49 0 0 1 .491.49c0 .272-.219.495-.491.495zm-5.953 0h-2.977c-.272 0-.491-.223-.491-.495a.49.49 0 0 1 .491-.49h2.977a.49.49 0 0 1 .494.49c0 .272-.222.495-.494.495zm-5.95 0h-2.977c-.272 0-.495-.223-.495-.495s.223-.49.495-.49h2.977a.49.49 0 0 1 .49.49c0 .272-.218.495-.49.495zm-5.954 0h-2.977c-.272 0-.491-.223-.491-.495a.49.49 0 0 1 .491-.49h2.977a.49.49 0 0 1 .494.49c0 .272-.222.495-.494.495zm-5.954 0h-2.973c-.272 0-.494-.223-.494-.495a.49.49 0 0 1 .494-.49h2.973a.49.49 0 0 1 .494.49c0 .272-.222.495-.494.495zm-5.95 0h-2.977c-.272 0-.49-.223-.49-.495a.49.49 0 0 1 .49-.49h2.977a.49.49 0 0 1 .494.49c0 .272-.222.495-.494.495zm-5.954 0h-2.973c-.272 0-.494-.223-.494-.495a.49.49 0 0 1 .494-.49h2.973a.49.49 0 0 1 .494.49c0 .272-.222.495-.494.495zm-5.95 0h-2.977c-.272 0-.494-.223-.494-.495a.49.49 0 0 1 .494-.49h2.977a.49.49 0 0 1 .49.49c0 .272-.218.495-.49.495zm-5.954 0h-2.973c-.272 0-.494-.223-.494-.495a.49.49 0 0 1 .494-.49h2.973a.49.49 0 0 1 .494.49c0 .272-.222.495-.494.495zm-5.95 0h-2.977c-.272 0-.494-.223-.494-.495a.49.49 0 0 1 .494-.49h2.977a.49.49 0 0 1 .491.49c0 .272-.219.495-.491.495zm-5.954 0h-2.977c-.272 0-.49-.223-.49-.495a.49.49 0 0 1 .49-.49h2.977c.272 0 .495.218.495.49s-.223.495-.495.495zm-5.95 0h-2.977c-.272 0-.494-.223-.494-.495a.49.49 0 0 1 .494-.49h2.977a.49.49 0 0 1 .491.49c0 .272-.219.495-.491.495zm-5.954 0h-2.976c-.272 0-.491-.223-.491-.495a.49.49 0 0 1 .491-.49h2.976c.272 0 .495.218.495.49s-.223.495-.495.495zm-5.95 0h-2.976c-.273 0-.495-.223-.495-.495a.49.49 0 0 1 .495-.49h2.976a.49.49 0 0 1 .491.49c0 .272-.219.495-.491.495zm-5.953 0h-2.977c-.272 0-.491-.223-.491-.495a.49.49 0 0 1 .491-.49h2.977a.49.49 0 0 1 .494.49c0 .272-.222.495-.494.495zm-5.95 0h-2.977c-.272 0-.495-.223-.495-.495s.223-.49.495-.49h2.977a.49.49 0 0 1 .49.49c0 .272-.218.495-.49.495zm-5.954 0h-2.652c-.118 0-.237-.004-.356-.012-.272-.019-.479-.253-.46-.525a.49.49 0 0 1 .521-.459l.295.011h2.652a.49.49 0 0 1 .494.49c0 .272-.222.495-.494.495zm104.008-.866c-.157 0-.314-.077-.41-.215-.153-.226-.092-.532.13-.686.751-.509 1.326-1.222 1.663-2.057.104-.253.387-.375.64-.276a.5.5 0 0 1 .276.644c-.414 1.019-1.111 1.885-2.023 2.506a.49.49 0 0 1-.276.084zm-109.728-.18c-.104 0-.211-.031-.299-.1a5.52 5.52 0 0 1-1.87-2.624c-.084-.257.054-.537.31-.621a.49.49 0 0 1 .625.31c.287.855.816 1.598 1.536 2.154a.49.49 0 0 1 .088.689c-.095.127-.241.192-.39.192zm111.931-5.031c-.272 0-.494-.222-.494-.494v-2.977a.494.494 0 0 1 .988 0v2.977c0 .272-.222.494-.494.494zm-113.889-.302c-.272 0-.494-.223-.494-.495v-2.977a.492.492 0 0 1 .984 0v2.977c0 .272-.218.495-.49.495zm113.889-5.652a.49.49 0 0 1-.494-.49v-2.977c0-.272.222-.494.494-.494s.494.222.494.494v2.977a.49.49 0 0 1-.494.49zm-113.889-.302c-.272 0-.494-.219-.494-.491v-2.977c0-.272.222-.494.494-.494a.49.49 0 0 1 .49.494v2.977a.49.49 0 0 1-.49.491zm113.889-5.648c-.272 0-.494-.222-.494-.494v-2.977a.494.494 0 0 1 .988 0v2.977c0 .272-.222.494-.494.494zm-113.889-.302c-.272 0-.494-.222-.494-.495v-2.976c0-.272.222-.491.494-.491a.49.49 0 0 1 .49.491v2.976a.49.49 0 0 1-.49.495zm113.889-5.651c-.272 0-.494-.219-.494-.491v-2.977c0-.272.222-.494.494-.494s.494.222.494.494v2.977c0 .272-.222.491-.494.491zm-113.889-.303c-.272 0-.494-.219-.494-.491v-2.976c0-.272.222-.495.494-.495s.49.223.49.495v2.976a.49.49 0 0 1-.49.491zm113.889-5.647c-.272 0-.494-.223-.494-.495v-2.977a.494.494 0 0 1 .988 0v2.977c0 .272-.222.495-.494.495zm-113.889-.303c-.272 0-.494-.222-.494-.494v-2.977c0-.272.222-.491.494-.491a.49.49 0 0 1 .49.491v2.977a.49.49 0 0 1-.49.494zm113.889-5.651c-.272 0-.494-.223-.494-.495v-2.973c0-.272.222-.494.494-.494s.494.222.494.494v2.973c0 .272-.222.495-.494.495zm-113.889-.303c-.272 0-.494-.222-.494-.494v-2.973c0-.272.222-.495.494-.495s.49.223.49.495v2.973a.49.49 0 0 1-.49.494zm113.889-5.647c-.272 0-.494-.223-.494-.495v-2.976c0-.272.222-.491.494-.491s.494.219.494.491v2.976c0 .272-.222.495-.494.495zm-113.889-.303c-.272 0-.494-.222-.494-.494v-2.977c0-.272.222-.491.494-.491a.49.49 0 0 1 .49.491v2.977a.49.49 0 0 1-.49.494zm113.889-5.651c-.272 0-.494-.222-.494-.494v-2.973c0-.273.222-.495.494-.495s.494.222.494.495v2.973c0 .272-.222.494-.494.494zm-113.889-.303c-.272 0-.494-.222-.494-.494v-2.973c0-.272.222-.494.494-.494a.49.49 0 0 1 .49.494v2.973a.49.49 0 0 1-.49.494zm113.889-5.651a.49.49 0 0 1-.494-.49v-2.977c0-.272.222-.491.494-.491s.494.219.494.491v2.977a.49.49 0 0 1-.494.49zm-113.889-.303a.49.49 0 0 1-.494-.49v-2.977a.492.492 0 0 1 .984 0v2.977a.49.49 0 0 1-.49.49zm113.889-5.647c-.272 0-.494-.222-.494-.494v-1.341c0-.498-.077-.985-.234-1.448a.49.49 0 0 1 .31-.625c.257-.088.537.054.625.31a5.6 5.6 0 0 1 .287 1.763v1.341c0 .272-.222.494-.494.494zm-113.889-.303c-.272 0-.494-.222-.494-.494v-1.038a5.53 5.53 0 0 1 .402-2.073c.103-.253.391-.375.644-.272s.371.387.272.64c-.223.54-.334 1.115-.334 1.705v1.038a.49.49 0 0 1-.49.494zm111.92-5.03a.51.51 0 0 1-.299-.1 4.49 4.49 0 0 0-2.475-.927.5.5 0 0 1-.464-.521.5.5 0 0 1 .525-.464c1.1.069 2.142.456 3.015 1.131a.49.49 0 0 1 .089.689c-.096.127-.242.192-.391.192zm-109.706-.176a.49.49 0 0 1-.41-.219c-.153-.222-.092-.529.131-.682.911-.617 1.977-.942 3.08-.946a.494.494 0 0 1 0 .988c-.904 0-1.778.269-2.529.774a.48.48 0 0 1-.272.085zm103.986-.859h-2.977c-.272 0-.491-.222-.491-.494s.219-.494.491-.494h2.977c.272 0 .494.222.494.494s-.222.494-.494.494zm-5.95 0h-2.977c-.272 0-.495-.222-.495-.494s.223-.494.495-.494h2.977a.494.494 0 0 1 0 .988zm-5.954 0h-2.977c-.272 0-.491-.222-.491-.494s.219-.494.491-.494h2.977c.272 0 .494.222.494.494s-.222.494-.494.494zm-5.954 0h-2.973c-.272 0-.494-.222-.494-.494s.222-.494.494-.494h2.973c.272 0 .494.222.494.494s-.222.494-.494.494zm-5.95 0h-2.977a.494.494 0 0 1 0-.988h2.977c.272 0 .494.222.494.494s-.222.494-.494.494zm-5.954 0h-2.973c-.272 0-.494-.222-.494-.494s.222-.494.494-.494h2.973c.272 0 .494.222.494.494s-.222.494-.494.494zm-5.95 0h-2.977c-.272 0-.494-.222-.494-.494s.222-.494.494-.494h2.977c.272 0 .491.222.491.494s-.219.494-.491.494zm-5.954 0h-2.973c-.272 0-.494-.222-.494-.494s.222-.494.494-.494h2.973c.272 0 .494.222.494.494s-.222.494-.494.494zm-5.95 0h-2.977c-.272 0-.494-.222-.494-.494s.222-.494.494-.494h2.977c.272 0 .491.222.491.494s-.219.494-.491.494zm-5.954 0h-2.977a.494.494 0 0 1 0-.988h2.977c.272 0 .495.222.495.494s-.223.494-.495.494zm-5.95 0h-2.977c-.272 0-.494-.222-.494-.494s.222-.494.494-.494h2.977c.272 0 .491.222.491.494s-.219.494-.491.494zm-5.953 0h-2.977c-.272 0-.491-.222-.491-.494s.219-.494.491-.494h2.977c.272 0 .494.222.494.494s-.222.494-.494.494zm-5.95 0h-2.977c-.272 0-.495-.222-.495-.494s.223-.494.495-.494h2.977a.494.494 0 0 1 0 .988zm-5.954 0H232.9c-.272 0-.491-.222-.491-.494s.219-.494.491-.494h2.977c.272 0 .494.222.494.494s-.222.494-.494.494zm-5.95 0h-2.977c-.272 0-.494-.222-.494-.494s.222-.494.494-.494h2.977a.494.494 0 0 1 0 .988zm-5.954 0h-2.977c-.272 0-.491-.222-.491-.494s.219-.494.491-.494h2.977c.272 0 .494.222.494.494s-.222.494-.494.494zm-5.954 0h-2.973c-.272 0-.494-.222-.494-.494s.222-.494.494-.494h2.973c.272 0 .494.222.494.494s-.222.494-.494.494z"/><path d="M485.111 348.509h-2.655c-.241 0-.437-.192-.437-.433s.196-.437.437-.437h2.636c.241 0 .448.196.448.437s-.188.433-.429.433zm-5.291 0h-2.636c-.241 0-.437-.192-.437-.433s.196-.437.437-.437h2.636c.241 0 .437.196.437.437s-.196.433-.437.433zm-5.272 0h-2.636c-.241 0-.437-.192-.437-.433s.196-.437.437-.437h2.636c.242 0 .437.196.437.437s-.195.433-.437.433zm-5.272 0h-2.639c-.238 0-.433-.192-.433-.433s.195-.437.433-.437h2.639c.238 0 .433.196.433.437s-.195.433-.433.433zm-5.275 0h-2.636c-.242 0-.437-.192-.437-.433s.195-.437.437-.437h2.636c.241 0 .436.196.436.437s-.195.433-.436.433zm-5.272 0h-2.636c-.242 0-.437-.192-.437-.433s.195-.437.437-.437h2.636c.241 0 .436.196.436.437s-.195.433-.436.433zm-5.272 0h-2.636c-.241 0-.437-.192-.437-.433s.196-.437.437-.437h2.636c.241 0 .437.196.437.437s-.196.433-.437.433zm-5.272 0h-2.636c-.241 0-.437-.192-.437-.433s.196-.437.437-.437h2.636c.241 0 .437.196.437.437s-.196.433-.437.433zm-5.276 0h-2.636c-.241 0-.436-.192-.436-.433s.195-.437.436-.437h2.636c.242 0 .437.196.437.437s-.195.433-.437.433zm-5.272 0h-2.544-.111a.44.44 0 0 1-.417-.46c.011-.237.21-.421.459-.414.023 0 .046.004.069.004h2.544c.242 0 .437.196.437.437s-.195.433-.437.433zm49.179-1.67a.44.44 0 0 1-.437-.449l.004-.042v-2.578c0-.242.195-.437.437-.437s.433.195.433.437v2.647c-.008.238-.2.422-.437.422zm-53.451-.069c-.241 0-.436-.196-.436-.437v-2.636c0-.241.195-.437.436-.437s.437.196.437.437v2.636c0 .241-.195.437-.437.437zm53.455-5.203c-.242 0-.437-.196-.437-.437v-2.636c0-.241.195-.437.437-.437s.433.196.433.437v2.636c0 .241-.192.437-.433.437zm-53.455-.069c-.241 0-.436-.196-.436-.437v-2.636c0-.241.195-.437.436-.437s.437.196.437.437v2.636c0 .241-.195.437-.437.437zm53.455-5.203c-.242 0-.437-.196-.437-.437v-2.636c0-.241.195-.437.437-.437s.433.196.433.437v2.636c0 .241-.192.437-.433.437zm-53.455-.069c-.241 0-.436-.196-.436-.437v-2.571l.004-.084c.007-.241.203-.429.452-.418a.43.43 0 0 1 .417.452v.05 2.571c0 .241-.195.437-.437.437zm51.807-4.295l-.08-.004h-2.556c-.241 0-.436-.195-.436-.437s.195-.436.436-.436h2.556l.099.003c.242.012.43.215.418.456-.011.234-.203.418-.437.418zm-5.272-.004h-2.635c-.242 0-.437-.195-.437-.437s.195-.436.437-.436h2.635c.242 0 .437.195.437.436s-.195.437-.437.437zm-5.271 0h-2.636c-.242 0-.437-.195-.437-.437s.195-.436.437-.436h2.636c.241 0 .436.195.436.436s-.195.437-.436.437zm-5.272 0h-2.64c-.238 0-.433-.195-.433-.437s.195-.436.433-.436h2.64c.237 0 .433.195.433.436s-.196.437-.433.437zm-5.276 0h-2.636c-.241 0-.437-.195-.437-.437s.196-.436.437-.436h2.636c.241 0 .437.195.437.436s-.196.437-.437.437zm-5.272 0h-2.636c-.241 0-.437-.195-.437-.437s.196-.436.437-.436h2.636c.242 0 .437.195.437.436s-.195.437-.437.437zm-5.272 0h-2.636c-.241 0-.436-.195-.436-.437s.195-.436.436-.436h2.636c.242 0 .437.195.437.436s-.195.437-.437.437zm-5.272 0h-2.636c-.241 0-.436-.195-.436-.437s.195-.436.436-.436h2.636c.242 0 .437.195.437.436s-.195.437-.437.437zm-5.275 0h-2.636c-.242 0-.437-.195-.437-.437s.195-.436.437-.436h2.636c.241 0 .436.195.436.436s-.195.437-.436.437zm-5.272 0h-2.625c-.241 0-.444-.195-.444-.437s.192-.436.433-.436h2.636c.241 0 .437.195.437.436s-.196.437-.437.437zm-140.915-140.75h-2.935c-.272 0-.494-.219-.494-.491s.222-.494.494-.494h2.916c.272 0 .502.222.502.494s-.211.491-.483.491zm-5.854 0h-2.916c-.272 0-.494-.219-.494-.491s.222-.494.494-.494h2.916c.272 0 .494.222.494.494s-.222.491-.494.491zm-5.835 0h-2.916c-.272 0-.494-.219-.494-.491s.222-.494.494-.494h2.916c.272 0 .494.222.494.494s-.222.491-.494.491zm-5.832 0h-2.919a.49.49 0 0 1-.491-.491c0-.272.219-.494.491-.494h2.919c.272 0 .491.222.491.494a.49.49 0 0 1-.491.491zm-5.835 0h-2.919a.49.49 0 0 1-.491-.491c0-.272.219-.494.491-.494h2.919c.272 0 .491.222.491.494a.49.49 0 0 1-.491.491zm-5.835 0h-2.919a.49.49 0 0 1-.491-.491c0-.272.219-.494.491-.494h2.919c.272 0 .491.222.491.494a.49.49 0 0 1-.491.491zm-5.835 0h-2.919a.49.49 0 0 1-.491-.491c0-.272.219-.494.491-.494h2.919a.493.493 0 0 1 0 .985zm-5.781-.315c-.081 0-.165-.019-.242-.061-.912-.517-1.479-1.49-1.479-2.54v-.356c0-.272.219-.495.491-.495s.494.223.494.495v.356c0 .693.376 1.341.981 1.682a.49.49 0 0 1-.245.919zm43.056-1.252c-.058 0-.115-.012-.173-.035-.252-.096-.383-.379-.287-.632.081-.218.123-.448.123-.682v-2.046a.492.492 0 1 1 .984 0v2.046a2.91 2.91 0 0 1-.184 1.027c-.076.199-.264.322-.463.322zm-44.286-4.131c-.272 0-.491-.222-.491-.494v-2.915c0-.272.219-.495.491-.495s.494.223.494.495v2.915c0 .272-.222.494-.494.494zm44.443-1.685c-.272 0-.494-.223-.494-.495v-2.915c0-.272.222-.494.494-.494a.49.49 0 0 1 .49.494v2.915c0 .272-.218.495-.49.495zm-44.443-4.15a.49.49 0 0 1-.491-.49v-2.919c0-.273.219-.495.491-.495s.494.222.494.495v2.919a.49.49 0 0 1-.494.49zm44.443-1.685c-.272 0-.494-.223-.494-.495v-2.915c0-.272.222-.495.494-.495s.49.223.49.495v2.915c0 .272-.218.495-.49.495zm-44.443-4.15a.49.49 0 0 1-.491-.49v-2.92a.493.493 0 0 1 .985 0v2.92a.49.49 0 0 1-.494.49zm44.443-1.685c-.272 0-.494-.223-.494-.495v-2.915c0-.272.222-.495.494-.495s.49.223.49.495v2.915c0 .272-.218.495-.49.495zm-44.443-4.15a.49.49 0 0 1-.491-.49v-2.92a.493.493 0 0 1 .985 0v2.92a.49.49 0 0 1-.494.49zm44.443-1.686c-.272 0-.494-.222-.494-.494v-2.915c0-.272.222-.495.494-.495s.49.223.49.495v2.915a.49.49 0 0 1-.49.494zm-44.443-4.149a.49.49 0 0 1-.491-.49v-2.92a.493.493 0 0 1 .985 0v2.92a.49.49 0 0 1-.494.49zm44.443-1.686c-.272 0-.494-.222-.494-.494v-2.915c0-.272.222-.495.494-.495s.49.223.49.495v2.915a.49.49 0 0 1-.49.494zm-44.443-4.145c-.272 0-.491-.222-.491-.494v-2.035a2.89 2.89 0 0 1 .188-1.038c.1-.253.383-.383.636-.287s.383.383.287.636c-.084.218-.126.452-.126.689v2.035c0 .272-.222.494-.494.494zm44.443-1.69a.49.49 0 0 1-.494-.49v-.349c0-.697-.376-1.345-.985-1.686a.492.492 0 1 1 .483-.858c.915.514 1.486 1.491 1.486 2.544v.349a.49.49 0 0 1-.49.49zm-4.103-2.77h-2.916c-.272 0-.494-.222-.494-.494s.222-.494.494-.494h2.916c.272 0 .494.222.494.494s-.222.494-.494.494zm-5.836 0h-2.915c-.272 0-.494-.222-.494-.494s.222-.494.494-.494h2.915c.273 0 .495.222.495.494s-.222.494-.495.494zm-5.831 0h-2.919c-.272 0-.494-.222-.494-.494s.222-.494.494-.494h2.919c.272 0 .491.222.491.494s-.219.494-.491.494zm-5.835 0h-2.919c-.272 0-.491-.222-.491-.494s.219-.494.491-.494h2.919c.272 0 .491.222.491.494s-.219.494-.491.494zm-5.835 0h-2.919c-.272 0-.491-.222-.491-.494s.219-.494.491-.494h2.919c.272 0 .491.222.491.494s-.219.494-.491.494zm-5.835 0h-2.919c-.272 0-.491-.222-.491-.494s.219-.494.491-.494h2.919a.494.494 0 0 1 0 .988zm-5.835 0h-2.908a.5.5 0 0 1-.498-.494.49.49 0 0 1 .487-.494h2.919c.272 0 .494.222.494.494s-.222.494-.494.494z"/><path d="M485.111 372.842h-2.655c-.241 0-.437-.196-.437-.437s.196-.437.437-.437h2.636c.241 0 .448.196.448.437a.43.43 0 0 1-.429.437zm-5.291 0h-2.636c-.241 0-.437-.196-.437-.437s.196-.437.437-.437h2.636c.241 0 .437.196.437.437s-.196.437-.437.437zm-5.272 0h-2.636c-.241 0-.437-.196-.437-.437s.196-.437.437-.437h2.636c.242 0 .437.196.437.437s-.195.437-.437.437zm-5.272 0h-2.639c-.238 0-.433-.196-.433-.437s.195-.437.433-.437h2.639c.238 0 .433.196.433.437s-.195.437-.433.437zm-5.275 0h-2.636c-.242 0-.437-.196-.437-.437s.195-.437.437-.437h2.636c.241 0 .436.196.436.437s-.195.437-.436.437zm-5.272 0h-2.636c-.242 0-.437-.196-.437-.437s.195-.437.437-.437h2.636c.241 0 .436.196.436.437s-.195.437-.436.437zm-5.272 0h-2.636c-.241 0-.437-.196-.437-.437s.196-.437.437-.437h2.636c.241 0 .437.196.437.437s-.196.437-.437.437zm-5.272 0h-2.636c-.241 0-.437-.196-.437-.437s.196-.437.437-.437h2.636c.241 0 .437.196.437.437s-.196.437-.437.437zm-5.276 0h-2.636c-.241 0-.436-.196-.436-.437s.195-.437.436-.437h2.636c.242 0 .437.196.437.437s-.195.437-.437.437zm-5.272 0h-2.544-.111c-.241-.016-.429-.219-.417-.46a.43.43 0 0 1 .459-.414h.069 2.544c.242 0 .437.196.437.437s-.195.437-.437.437zm49.179-1.671c-.253-.007-.444-.207-.437-.448l.004-.042v-2.582c0-.242.195-.437.437-.437s.433.195.433.437v2.651c-.008.237-.2.421-.437.421zm-53.451-.069c-.241 0-.436-.195-.436-.437v-2.635c0-.242.195-.437.436-.437s.437.195.437.437v2.635c0 .242-.195.437-.437.437zm53.455-5.203c-.242 0-.437-.195-.437-.436v-2.636c0-.242.195-.437.437-.437s.433.195.433.437v2.636c0 .241-.192.436-.433.436zm-53.455-.069c-.241 0-.436-.195-.436-.436v-2.636c0-.242.195-.437.436-.437s.437.195.437.437v2.636c0 .241-.195.436-.437.436zm53.455-5.203c-.242 0-.437-.195-.437-.436v-2.636c0-.242.195-.437.437-.437s.433.195.433.437v2.636c0 .241-.192.436-.433.436zm-53.455-.072c-.241 0-.436-.196-.436-.437v-2.571c0-.027 0-.054.004-.08.007-.242.203-.429.452-.418a.43.43 0 0 1 .417.452v.046 2.571c0 .241-.195.437-.437.437zm51.807-4.295h-.08-2.556c-.241 0-.436-.196-.436-.437s.195-.437.436-.437h2.556l.099.004c.242.008.43.215.418.452s-.203.418-.437.418zm-5.272 0h-2.635c-.242 0-.437-.196-.437-.437s.195-.437.437-.437h2.635c.242 0 .437.196.437.437s-.195.437-.437.437zm-5.271 0h-2.636c-.242 0-.437-.196-.437-.437s.195-.437.437-.437h2.636c.241 0 .436.196.436.437s-.195.437-.436.437zm-5.272 0h-2.64c-.238 0-.433-.196-.433-.437s.195-.437.433-.437h2.64c.237 0 .433.196.433.437s-.196.437-.433.437zm-5.276 0h-2.636c-.241 0-.437-.196-.437-.437s.196-.437.437-.437h2.636c.241 0 .437.196.437.437s-.196.437-.437.437zm-5.272 0h-2.636c-.241 0-.437-.196-.437-.437s.196-.437.437-.437h2.636c.242 0 .437.196.437.437s-.195.437-.437.437zm-5.272 0h-2.636c-.241 0-.436-.196-.436-.437s.195-.437.436-.437h2.636c.242 0 .437.196.437.437s-.195.437-.437.437zm-5.272 0h-2.636c-.241 0-.436-.196-.436-.437s.195-.437.436-.437h2.636c.242 0 .437.196.437.437s-.195.437-.437.437zm-5.275 0h-2.636c-.242 0-.437-.196-.437-.437s.195-.437.437-.437h2.636c.241 0 .436.196.436.437s-.195.437-.436.437zm-5.272 0h-2.625c-.241 0-.444-.196-.444-.437s.192-.437.433-.437h2.636c.241 0 .437.196.437.437s-.196.437-.437.437zm-160.662-1.747h-2.628c-.242 0-.437-.196-.437-.437s.195-.437.437-.437h2.613c.241 0 .444.195.444.437a.43.43 0 0 1-.429.437zm-5.245 0h-2.613c-.241 0-.437-.196-.437-.437s.196-.437.437-.437h2.613c.241 0 .437.195.437.437s-.196.437-.437.437zm-5.226 0h-2.613c-.241 0-.437-.196-.437-.437s.196-.437.437-.437h2.613c.241 0 .437.195.437.437s-.196.437-.437.437zm-5.226 0h-2.613c-.241 0-.437-.196-.437-.437s.196-.437.437-.437h2.613c.242 0 .437.195.437.437s-.195.437-.437.437zm-5.23 0h-2.613c-.241 0-.436-.196-.436-.437s.195-.437.436-.437h2.613c.242 0 .437.195.437.437s-.195.437-.437.437zm-5.225 0h-2.613c-.242 0-.437-.196-.437-.437s.195-.437.437-.437h2.613c.241 0 .436.195.436.437s-.195.437-.436.437zm-5.226 0h-2.613c-.242 0-.437-.196-.437-.437s.195-.437.437-.437h2.613c.241 0 .436.195.436.437s-.195.437-.436.437zm-5.23 0h-2.613c-.241 0-.437-.196-.437-.437s.196-.437.437-.437h2.613c.241 0 .437.195.437.437s-.196.437-.437.437zm-5.226 0h-2.613c-.241 0-.437-.196-.437-.437s.196-.437.437-.437h2.613c.241 0 .437.195.437.437s-.196.437-.437.437zm-5.226 0h-2.617c-.237 0-.433-.196-.433-.437s.196-.437.433-.437h2.617c.241 0 .437.195.437.437s-.196.437-.437.437zm-5.23 0h-2.613c-.241 0-.436-.196-.436-.437s.195-.437.436-.437h2.613c.242 0 .437.195.437.437s-.195.437-.437.437zm-5.226 0h-2.612c-.242 0-.437-.196-.437-.437s.195-.437.437-.437h2.612c.242 0 .437.195.437.437s-.195.437-.437.437zm-5.225 0h-2.617c-.238 0-.433-.196-.433-.437s.195-.437.433-.437h2.617c.241 0 .436.195.436.437s-.195.437-.436.437zm-5.23 0h-2.613c-.241 0-.437-.196-.437-.437s.196-.437.437-.437h2.613c.241 0 .437.195.437.437s-.196.437-.437.437zm-5.226 0h-2.613c-.241 0-.437-.196-.437-.437s.196-.437.437-.437h2.613c.241 0 .437.195.437.437s-.196.437-.437.437zm-5.226 0h-2.088a4.89 4.89 0 0 1-.579-.035c-.237-.027-.409-.245-.379-.483s.245-.413.483-.383c.157.019.314.027.475.027h2.088a.44.44 0 0 1 .437.437.44.44 0 0 1-.437.437zm80.887-.755c-.138 0-.276-.069-.361-.192-.138-.203-.084-.471.119-.609.659-.44 1.169-1.061 1.471-1.797a.44.44 0 0 1 .571-.233.44.44 0 0 1 .238.57c-.372.889-.993 1.648-1.793 2.188-.077.05-.161.073-.245.073zm-85.86-.307a.42.42 0 0 1-.283-.107c-.74-.624-1.269-1.448-1.533-2.375-.065-.23.069-.472.299-.541s.475.069.54.299a3.98 3.98 0 0 0 1.261 1.954.44.44 0 0 1 .046.617c-.085.1-.207.153-.33.153zm87.833-4.252c-.242 0-.437-.196-.437-.437v-2.613c0-.241.195-.437.437-.437s.436.196.436.437v2.613c0 .241-.195.437-.436.437zm-89.4-.51c-.241 0-.437-.195-.437-.437v-2.613c0-.241.196-.436.437-.436s.437.195.437.436v2.613c0 .242-.196.437-.437.437zm89.4-4.72c-.242 0-.437-.196-.437-.437v-2.613c0-.241.195-.437.437-.437s.436.196.436.437v2.613c0 .241-.195.437-.436.437zm-89.4-.51c-.241 0-.437-.195-.437-.436v-2.613c0-.242.196-.437.437-.437s.437.195.437.437v2.613c0 .241-.196.436-.437.436zm89.4-4.716c-.242 0-.437-.195-.437-.437v-2.613c0-.241.195-.436.437-.436s.436.195.436.436v2.613c0 .242-.195.437-.436.437zm-89.4-.51c-.241 0-.437-.195-.437-.436v-2.613c0-.242.196-.437.437-.437s.437.195.437.437v2.613c0 .241-.196.436-.437.436zm89.4-4.716c-.242 0-.437-.195-.437-.437v-2.613c0-.241.195-.436.437-.436s.436.195.436.436v2.613c0 .242-.195.437-.436.437zm-89.4-.509c-.241 0-.437-.196-.437-.437v-2.613c0-.242.196-.437.437-.437s.437.195.437.437v2.613c0 .241-.196.437-.437.437zm89.4-4.721c-.242 0-.437-.195-.437-.436v-2.613c0-.242.195-.437.437-.437s.436.195.436.437v2.613c0 .241-.195.436-.436.436zm-89.4-.509c-.241 0-.437-.196-.437-.437v-2.613c0-.241.196-.437.437-.437s.437.196.437.437v2.613c0 .241-.196.437-.437.437zm89.4-4.717c-.242 0-.437-.195-.437-.436v-2.613c0-.242.195-.437.437-.437s.436.195.436.437v2.613c0 .241-.195.436-.436.436zm-89.4-.509c-.241 0-.437-.196-.437-.437v-2.613c0-.241.196-.437.437-.437s.437.196.437.437v2.613c0 .241-.196.437-.437.437zm89.4-4.716c-.242 0-.437-.196-.437-.437v-2.613c0-.242.195-.437.437-.437s.436.195.436.437v2.613c0 .241-.195.437-.436.437zm-89.4-.51c-.241 0-.437-.195-.437-.437v-2.613c0-.241.196-.436.437-.436s.437.195.437.436v2.613c0 .242-.196.437-.437.437zm89.4-4.72c-.242 0-.437-.196-.437-.437v-2.613c0-.241.195-.437.437-.437s.436.196.436.437v2.613c0 .241-.195.437-.436.437zm-89.4-.51c-.241 0-.437-.195-.437-.437v-2.612c0-.242.196-.437.437-.437s.437.195.437.437v2.612c0 .242-.196.437-.437.437zm89.4-4.716c-.242 0-.437-.195-.437-.437v-2.613c0-.241.195-.437.437-.437s.436.196.436.437v2.613c0 .242-.195.437-.436.437zm-89.4-.51c-.241 0-.437-.195-.437-.436v-2.613c0-.242.196-.437.437-.437s.437.195.437.437v2.613c0 .241-.196.436-.437.436zm89.4-4.716c-.242 0-.437-.195-.437-.437v-2.613c0-.241.195-.436.437-.436s.436.195.436.436v2.613c0 .242-.195.437-.436.437zm-89.4-.509c-.241 0-.437-.196-.437-.437v-2.613c0-.242.196-.437.437-.437s.437.195.437.437v2.613c0 .241-.196.437-.437.437zm89.4-4.721c-.242 0-.437-.195-.437-.436v-2.613c0-.242.195-.437.437-.437s.436.195.436.437v2.613c0 .241-.195.436-.436.436zm-89.4-.509c-.241 0-.437-.196-.437-.437v-2.613c0-.241.196-.437.437-.437s.437.196.437.437v2.613c0 .241-.196.437-.437.437zm89.227-4.701a.44.44 0 0 1-.421-.314c-.219-.763-.655-1.437-1.261-1.951a.44.44 0 0 1-.053-.616.44.44 0 0 1 .616-.05 4.86 4.86 0 0 1 1.537 2.375c.069.23-.065.471-.299.54-.038.012-.08.016-.119.016zm-88.886-.479a.45.45 0 0 1-.169-.035c-.222-.092-.325-.348-.233-.57.371-.889.992-1.644 1.797-2.184.203-.134.471-.081.605.122a.44.44 0 0 1-.119.606c-.663.44-1.172 1.061-1.479 1.793-.069.168-.23.268-.402.268zm85.124-2.709c-.019 0-.035 0-.05-.004l-.467-.027h-2.096c-.241 0-.437-.195-.437-.432a.44.44 0 0 1 .437-.437h2.096c.187 0 .379.011.567.03a.44.44 0 0 1 .383.483.44.44 0 0 1-.433.387zm-5.226-.031h-2.613c-.241 0-.437-.195-.437-.432a.44.44 0 0 1 .437-.437h2.613c.241 0 .437.195.437.437s-.196.432-.437.432zm-5.23 0h-2.613c-.241 0-.436-.195-.436-.432a.44.44 0 0 1 .436-.437h2.613c.242 0 .437.195.437.437s-.195.432-.437.432zm-5.226 0h-2.613c-.241 0-.436-.195-.436-.432a.44.44 0 0 1 .436-.437h2.613c.242 0 .437.195.437.437s-.195.432-.437.432zm-5.226 0h-2.616c-.238 0-.433-.195-.433-.432a.44.44 0 0 1 .433-.437h2.616c.242 0 .437.195.437.437s-.195.432-.437.432zm-5.229 0h-2.613c-.242 0-.437-.195-.437-.432a.44.44 0 0 1 .437-.437h2.613c.241 0 .437.195.437.437s-.196.432-.437.432zm-5.226 0h-2.613c-.241 0-.437-.195-.437-.432a.44.44 0 0 1 .437-.437h2.613c.241 0 .437.195.437.437s-.196.432-.437.432zm-5.226 0h-2.617c-.237 0-.433-.195-.433-.432a.44.44 0 0 1 .433-.437h2.617c.241 0 .437.195.437.437s-.196.432-.437.432zm-5.23 0h-2.613c-.241 0-.436-.195-.436-.432a.44.44 0 0 1 .436-.437h2.613c.242 0 .437.195.437.437s-.195.432-.437.432zm-5.226 0H227.9c-.241 0-.436-.195-.436-.432a.44.44 0 0 1 .436-.437h2.613c.242 0 .437.195.437.437s-.195.432-.437.432zm-5.226 0h-2.616c-.238 0-.433-.195-.433-.432a.44.44 0 0 1 .433-.437h2.616c.242 0 .437.195.437.437s-.195.432-.437.432zm-5.229 0h-2.613c-.242 0-.437-.195-.437-.432a.44.44 0 0 1 .437-.437h2.613c.241 0 .436.195.436.437a.43.43 0 0 1-.436.432zm-5.226 0h-2.613c-.242 0-.437-.195-.437-.432a.44.44 0 0 1 .437-.437h2.613c.241 0 .437.195.437.437s-.196.432-.437.432zm-5.226 0h-2.617c-.241 0-.437-.195-.437-.432a.44.44 0 0 1 .437-.437h2.617c.237 0 .433.195.433.437a.43.43 0 0 1-.433.432zm-5.23 0h-2.613c-.241 0-.437-.195-.437-.432a.44.44 0 0 1 .437-.437h2.613c.242 0 .437.195.437.437s-.195.432-.437.432zm-5.226 0h-2.605a.44.44 0 0 1-.441-.432c0-.242.192-.437.433-.437h2.613c.242 0 .437.195.437.437s-.195.432-.437.432z"/></g><path d="M302.461 274.4H196.828a4.13 4.13 0 0 1-4.13-4.126v-57.761a4.13 4.13 0 0 1 4.13-4.126h105.633a4.13 4.13 0 0 1 4.13 4.126v57.761a4.13 4.13 0 0 1-4.13 4.126z" class="F"/><g class="B"><path d="M236.793 228.298v26.191a2.06 2.06 0 0 0 3.188 1.716l19.903-13.091c1.234-.812 1.234-2.625 0-3.441l-19.903-13.091a2.06 2.06 0 0 0-3.188 1.716zm-38.176 40.148c0-1.13.916-2.046 2.046-2.046s2.042.916 2.042 2.046a2.04 2.04 0 0 1-2.042 2.042c-1.13 0-2.046-.911-2.046-2.042z"/><path d="M293.664 268.998h-92.449a.55.55 0 1 1 0-1.103h92.449a.55.55 0 1 1 0 1.103z"/></g><path d="M358.131 376.018h-58.922v-87.955h58.922v87.955z" class="F"/><path d="M334.326 316.319h-.808v-3.625a2.36 2.36 0 0 1 2.356-2.356h9.969c.705 0 1.322-.475 1.502-1.157l1.578-5.992a1.55 1.55 0 0 0-.272-1.345c-.299-.383-.743-.602-1.23-.602h-13.007v-.808h13.007a2.34 2.34 0 0 1 1.866.919 2.33 2.33 0 0 1 .414 2.039l-1.575 5.996a2.36 2.36 0 0 1-2.283 1.754h-9.969c-.855 0-1.548.698-1.548 1.552v3.625z" class="E"/><path d="M343.698 304.239h-17.134a2.62 2.62 0 0 1-2.617-2.617v-1.567a2.62 2.62 0 0 1 2.617-2.617h17.134a2.62 2.62 0 0 1 2.616 2.617v1.567a2.62 2.62 0 0 1-2.616 2.617z" class="B"/><path d="M333.921 331.364c-1.223 0-2.215-.992-2.215-2.214v-13.437c0-1.222.992-2.214 2.215-2.214s2.218.992 2.218 2.214v13.437c0 1.222-.992 2.214-2.218 2.214z" class="E"/><path d="M418.745 360.494c1.016 3.13 1.479 5.053 1.391 5.769-.13 1.077-1.088 4.744-1.77 5.686s-1.023-3.827-1.563-4.544-.111 1.793-.494 2.027-1.177-1.847-1.517-2.582.835-3.437.839-5.326c.003-1.257 1.038-1.601 3.114-1.03z" class="C"/><path d="M382.881 323.188c-.422-5.387 5.425-9.076 10.046-6.275a9.96 9.96 0 0 1 .283.176c6.916 4.448 21.835 25.221 22.862 27.302.685 1.387 2.038 7.597 4.057 18.631-2.494.912-4.33.897-5.494-.05-4.054-10.467-6.376-15.961-6.973-16.486-.901-.781-24.298-13.911-24.498-18.834-.053-1.303-.157-2.866-.283-4.464zm41.753 121.571c1.862 1.693 2.609 3.146 2.245 4.352-.544 1.809-3.061 3.012-3.398 5.222s-1.702 3.414-2.928 3.414h-5.835c-.601-1.034-.176-1.709 1.276-2.023 2.176-.467 2.996-3.065 2.862-5.475-.092-1.609-.023-3.482.203-5.624l4.625-1.073.95 1.207zm-34.206 6.578c.334 3.862.092 5.993-.724 6.395l-15.666-.031c0-1.207.839-1.942 2.517-2.21 2.517-.403 6.939-1.874 7.686-5.157.498-2.188 2.563-1.851 6.187 1.003z" class="D"/><g class="B"><path d="M377.203 369.539L379 391.891l3.065 40.792c.18 4.463.636 10.268 1.36 17.409 1.724 1.697 4.307 2.188 7.755 1.475 3.069-10.199 5.046-20.689 5.923-31.478l.061-.797 3.127-51.159-23.088 1.406z"/><path d="M377.203 369.539L379 391.891l18.103 28.198.061-.797 3.127-51.159-23.088 1.406z"/><path d="M380.977 370.742c9.926 24.509 18.156 42.524 24.685 54.041l12.854 22.095c3.739-1.472 5.781-2.713 6.118-3.717-2.494-22.233-5.931-36.06-10.302-41.481-3.705-4.594-8.057-18.379-8.26-23.203-.138-3.214-.579-7.999-1.326-14.363l-23.769 6.628z"/></g><path d="M393.818 315.598c-6.651 3.376-11.926 4.498-15.823 3.372.931-1.219 2.218-2.295 3.87-3.222-.226-1.161-.403-2.169-.506-3.027-.192-1.318-.295-2.349-.31-3.096l3.827-3.134 3.628-3c-.084 5.491 1.686 9.525 5.314 12.107z" class="C"/><path d="M403.731 367.022c-4.031 2.44-7.843 4.272-12.306 5.303-5.268 1.249-11.739.881-13.904 1.21-.222.031-.433-.027-.628-.161-.173-.084-1.127-6.509-2.085-14.612-.042-.326-.084-.659-.103-.989l-.015-.107c-.372-3.169-.698-6.498-.981-9.835-.23-2.594-.422-5.165-.552-7.575-.169-3.019-.238-5.789-.169-8.068.031-1.042.092-1.981.184-2.793.571-4.736 2.832-8.119 4.958-10.64l1.762-2.004c2.046.127 4.134-.26 6.108-1.559 2.153-1.417 4.478-2.946 4.919-2.689 3.303 1.808 5.988 6.49 7.912 12.673 1.099 3.56 1.946 7.598 2.486 11.874.172 1.329.322 2.689.433 4.046l.061.747c.261 3.708.682 7.183 1.154 10.283.628 4.187 1.348 7.689 1.854 10.16l.567 2.924c.103.605-1.115 1.475-1.655 1.812z" class="E"/><path d="M388.635 306.637c-1.636 3.126-4.061 5.157-7.276 6.084l-.31-3.096 3.827-3.134 3.759.146z" class="H"/><path d="M379.275 309.526c6.429.919 9.904-.594 10.429-4.544.785-5.927 2.555-9.739-3.567-10.873s-7.621.977-8.372 2.892-.977 12.011 1.51 12.525z" class="C"/><path d="M392.964 293.266c.085-.104.288-.188.732-.219-.241-.145-.521-.218-.839-.218-.107-.625-.46-1.72-1.536-1.966a1.2 1.2 0 0 1 .67.958c-1.268-1.253-3.946-2.126-11.298-1.398-9.693.958-6.372 7.111-5.1 7.827s4.395-1.379 6.74-1.241 2.858 3.513 3.658 3.961.476-.364 1.541-.869 1.203 1.272.915 2.432c-.191.778.215 1.663 1.222 2.663l1.46-1.636c1.46-1.636 2.732-8.471 2.023-9.907-.061-.131-.122-.257-.188-.387zm-3.06 39.447c-5.422 4.126-11.004 6.639-16.747 7.544-.169-3.02-.238-5.79-.169-8.069l16.916.525z" class="D"/><path d="M339.978 324.732c-.131-.138-1.79-5.678-4.656-5.276-1.869.265-4.927 1.349-4.114 3.813.214.643 2.218 2.08 6.019 4.306l2.751-2.843z" class="C"/><path d="M390.907 320.763c4.636 2.774 4.26 9.682-.698 11.823-.099.046-.203.088-.306.131-7.632 3.061-33.206 3.203-35.497 2.835-1.525-.245-7.375-2.74-17.544-7.479.701-2.563 1.778-4.05 3.226-4.452 10.877 2.755 16.705 4.042 17.475 3.858 1.161-.28 25.413-11.758 29.543-9.069 1.092.709 2.429 1.529 3.801 2.353z" class="E"/><g class="F"><path d="M562.947 138.818h-20.355a1.56 1.56 0 0 1-1.556-1.555 1.56 1.56 0 0 1 1.556-1.556h20.355c.859 0 1.56.701 1.56 1.556s-.701 1.555-1.56 1.555zm0 6.08h-20.355a1.56 1.56 0 0 1-1.556-1.555c0-.858.701-1.56 1.556-1.56h20.355c.859 0 1.56.702 1.56 1.56a1.56 1.56 0 0 1-1.56 1.555zm0 6.234h-20.355a1.56 1.56 0 0 1-1.556-1.556 1.56 1.56 0 0 1 1.556-1.555h20.355c.859 0 1.56.701 1.56 1.555s-.701 1.556-1.56 1.556zm-79.718 146.785h-48.466a2.07 2.07 0 0 1-2.061-2.065c0-1.134.927-2.061 2.061-2.061h48.466a2.07 2.07 0 0 1 2.062 2.061 2.07 2.07 0 0 1-2.062 2.065zM246.325 156.319h-48.466a2.07 2.07 0 0 1-2.061-2.065c0-1.134.927-2.061 2.061-2.061h48.466c1.134 0 2.061.927 2.061 2.061a2.07 2.07 0 0 1-2.061 2.065zm236.904 162.065h-48.466a2.07 2.07 0 0 1-2.061-2.066c0-1.134.927-2.061 2.061-2.061h48.466a2.07 2.07 0 0 1 2.062 2.061 2.07 2.07 0 0 1-2.062 2.066zm.001-10.234h-57.964c-1.134 0-2.065-.931-2.065-2.065a2.07 2.07 0 0 1 2.065-2.061h57.964c1.134 0 2.061.927 2.061 2.061a2.07 2.07 0 0 1-2.061 2.065z"/><use xlink:href="#C"/><use xlink:href="#D"/><path d="M237.131 177.503h-32.405a1.71 1.71 0 0 1-1.702-1.705v-.721a1.71 1.71 0 0 1 1.702-1.701h32.405a1.71 1.71 0 0 1 1.701 1.701v.721a1.71 1.71 0 0 1-1.701 1.705zm-43.164-2.065a2.06 2.06 0 0 1 2.061-2.061c1.142 0 2.065.923 2.065 2.061s-.923 2.065-2.065 2.065a2.06 2.06 0 0 1-2.061-2.065z"/><use xlink:href="#C" y="17.122"/><use xlink:href="#D" y="17.122"/></g><g class="D"><path d="M281.684 173.913c-.36.046-.724.069-1.092.065a7.22 7.22 0 0 1-5.118-2.192c-2.805-2.869-2.755-7.486.118-10.291a7.29 7.29 0 0 1 10.291.119c2.805 2.87 2.751 7.49-.118 10.295-1.127 1.1-2.548 1.793-4.081 2.004zm-5.256-11.559a6.09 6.09 0 0 0-.1 8.597c1.138 1.161 2.655 1.812 4.28 1.828a6.04 6.04 0 0 0 4.317-1.728c2.399-2.345 2.445-6.199.1-8.598s-6.199-2.444-8.597-.099z" class="G"/><path d="M269.213 178.74l-.835-.858 7.103-6.942.839.858-7.107 6.942z"/><path d="M266.328 180.725c-.414-.425-.406-1.104.015-1.514l4.184-4.091c.425-.41 1.1-.403 1.514.019a1.07 1.07 0 0 1-.016 1.513l-4.184 4.088a1.07 1.07 0 0 1-1.513-.015zM621 457.886c-.931.003-1.904-.667-2.18-1.499l-55.918-170.266c-.276-.836.257-1.514 1.184-1.521s1.904.666 2.176 1.501l55.922 170.267c.272.832-.257 1.514-1.184 1.518zm45.068-.261c-.927.003-1.904-.667-2.176-1.498L607.97 285.86c-.272-.836.257-1.514 1.184-1.521s1.904.666 2.176 1.498l55.922 170.27c.275.832-.257 1.51-1.184 1.518z"/><path d="M617.54 309.583l-45.259.261c-.87.007-1.797-.633-2.054-1.414s.249-1.429 1.119-1.433l45.259-.261c.873-.007 1.797.629 2.053 1.414s-.245 1.429-1.118 1.433zm9.762 29.727l-45.255.264c-.874.004-1.797-.632-2.054-1.417s.245-1.425 1.119-1.433l45.255-.261c.874-.003 1.797.633 2.054 1.414s-.246 1.429-1.119 1.433zm9.406 28.631l-45.259.265c-.87.004-1.797-.632-2.054-1.418s.245-1.425 1.119-1.433l45.259-.26c.87-.004 1.797.632 2.054 1.414s-.249 1.429-1.119 1.432zm10.586 32.233l-45.259.265c-.87.003-1.797-.633-2.054-1.414s.245-1.429 1.119-1.437l45.259-.26c.87-.004 1.797.632 2.054 1.413s-.245 1.429-1.119 1.433zm11.08 33.739l-45.259.264c-.87.004-1.797-.632-2.054-1.418s.249-1.429 1.119-1.432l45.259-.261c.873-.008 1.797.632 2.054 1.414s-.246 1.429-1.119 1.433zm-97.426-225.779a.66.66 0 0 1-.77-.517l-.725-3.743a.66.66 0 0 1 .522-.771.66.66 0 0 1 .77.521l.724 3.74a.66.66 0 0 1-.521.77zm-.927-5.977l-.445.088-1.046-5.41.445-.084 1.046 5.406z"/></g><path d="M558.975 166.315c-.284-2.482-.728-4.199-1.33-5.149-.9-1.421-4.314-2.337-4.528-2.126-.671.647 1.973 2.934 2.076 3.777s-1.341.261-.647 1.904c.39.924 1.23 1.989 2.517 3.188l1.912-1.594z" class="C"/><path d="M557.331 165.902c.832-.652 1.334-.97 1.51-.958l12.628 10.858c.747.59 6.881 2.559 18.405 5.9l2.743 14.049c-15.589-7.532-24.317-12.065-26.179-13.601-3.08-2.54-6.563-7.364-10.448-14.471.242-.674.69-1.268 1.341-1.777z" class="B"/><g class="D"><path d="M590.242 300.936c-.13 3.203-.506 5.191-1.119 5.969l-12.827.073c.088-.495.142-1.64 1.916-1.947 2.241-.39 4.873-1.954 6.229-4.919.954-2.077 2.889-1.801 5.801.824zm25.176-.694c.597 4.253.49 6.418-.322 6.494-.161.012-5.168.096-7.337.131-1.701.026-3.946.011-6.739-.046a.67.67 0 0 1-.606-1.004c.295-.498.859-1.031 1.928-1.238 2.233-.429 5.957-2.069 7.264-5.057.915-2.092 2.85-1.851 5.812.72z"/><path d="M583.571 234.869c2.38 8.321 6.977 19.704 13.793 34.156s10.367 25.156 10.662 32.118c1.035.364 2.234.475 3.602.329 1.483-.157 2.743-.567 3.789-1.23-.441-17.198-2.272-29.443-5.49-36.734s-5.157-20.915-5.812-40.869l-20.544 12.23z"/></g><path d="M577.848 224.13c-.192 12.884.831 27.236 3.057 43.056s2.824 27.409 1.782 34.765c.59.429 1.797.64 3.613.636 2.126-.011 3.735-.452 4.827-1.333 3.188-15.823 4.33-27.697 3.414-35.616s1.268-21.501 6.551-40.754l-23.244-.754z" class="E"/><path d="M593.648 178.901l-3.773 2.801-5.46-1.15.762-4.432.058-.326.525-2.958 5.099-2.54 1.901-.946-.169 2.015c-.238 2.992.115 5.506 1.057 7.536z" class="C"/><path d="M604.468 226.517c-1.234 5.647-27.666 3.168-27.321-.28.011-.115.08-1.713.176-3.862l.544-12.494c0-.008.004-.019.004-.027.475-4.804.935-9.498.962-12.566.027-2.659.394-5.38.881-7.851.448-2.276 1-4.344 1.483-5.957a6.55 6.55 0 0 1 1.8-2.92c.594-.559 1.291-1.011 2.062-1.314.206-.088.421-.161.639-.222 3.111-.904 7.414-2.023 8.583-1.678 3.157.927 5.505 6.49 7.168 13.582 3.111 13.271 3.827 31.907 3.019 35.589z" class="B"/><path d="M592.207 171.445c-1.119 2.142-5.291 3.996-7.03 4.675l.057-.326.525-2.958 5.1-2.54c1.126-.019 1.812.268 1.348 1.149z" class="H"/><path d="M583.28 172.537c6.134 1.916 9.766.951 10.9-2.885 1.697-5.754 4.031-9.264-1.774-11.336-5.8-2.077-7.593-.219-8.628 1.563s-2.847 11.766-.498 12.658z" class="C"/><path d="M584.139 159.327c.391 4.463 1.05 6.601 1.973 6.406 1.383-.291 2.64-.506 2.437 1.513s-2.123 4.349 2.145 4.709 10.406-10.655 9.234-12.739c-3.383-6.015-20.678-7.226-15.789.111z" class="D"/><path d="M577.323 222.375l.544-12.494c0-.008.004-.019.004-.027l15.616-9.337c.403 14.529-4.984 21.816-16.164 21.858z" class="B"/><path d="M564.91 202.835l-3.774-2.333c-.602-.188-2.579-.387-2.667-.234s-.364.632-.019.793.774.104.644.219-1.426-.506-1.725.157-.563 2.927.962 3.613 5.28.069 5.548.145c1.532.445 1.877-.341 1.031-2.36z" class="C"/><path d="M564.878 202.257c10.33 1.755 15.95 2.41 16.866 1.965 1.459-.712 1.176-6.306-.851-16.781-.088-2.375 1.257-3.843 4.027-4.402 2.414-.487 4.781.172 7.107 1.977 2.111 1.893 3.034 3.889 2.766 5.988-.9 6.977-2.299 21.172-6.965 23.348-4.015 1.87-11.827-.724-23.44-7.781-.387-.475-.556-1.153-.498-2.031.046-.778.379-1.536.988-2.283z" class="B"/><path d="M554.473 164.534l-1.149-2.341c-.161-.372.226-.291.609-.084s.9 1.348 1.49 1.21c.31-.073-.008.334-.95 1.215z" class="C"/><defs ><path id="B" d="M260.93 306.208h-27.609a.95.95 0 0 1-.95-.95v-.211a.95.95 0 0 1 .95-.95h27.609a.95.95 0 0 1 .95.95v.211a.95.95 0 0 1-.95.95z"/><path id="C" d="M231.939 169.292h-27.344c-.866 0-1.571-.709-1.571-1.571v-.984c0-.866.705-1.571 1.571-1.571h27.344c.866 0 1.571.705 1.571 1.571v.984c0 .862-.705 1.571-1.571 1.571z"/><path id="D" d="M193.967 167.227a2.06 2.06 0 0 1 2.061-2.061c1.142 0 2.065.923 2.065 2.061s-.923 2.065-2.065 2.065-2.061-.923-2.061-2.065z"/></defs></svg>