<svg width="24" height="74" viewBox="0 0 24 74" fill="none" xmlns="http://www.w3.org/2000/svg">
<path d="M13.5 2C13.5 1.17157 12.8284 0.5 12 0.5C11.1716 0.5 10.5 1.17157 10.5 2H13.5ZM10.9393 73.0607C11.5251 73.6464 12.4749 73.6464 13.0607 73.0607L22.6066 63.5147C23.1924 62.9289 23.1924 61.9792 22.6066 61.3934C22.0208 60.8076 21.0711 60.8076 20.4853 61.3934L12 69.8787L3.51472 61.3934C2.92893 60.8076 1.97918 60.8076 1.3934 61.3934C0.807612 61.9792 0.807612 62.9289 1.3934 63.5147L10.9393 73.0607ZM10.5 2L10.5 72H13.5L13.5 2H10.5Z" fill="#337AB7"/>
</svg>
