<svg width="74" height="24" viewBox="0 0 74 24" fill="none" xmlns="http://www.w3.org/2000/svg">
<path d="M72 10.5C72.8284 10.5 73.5 11.1716 73.5 12C73.5 12.8284 72.8284 13.5 72 13.5V10.5ZM0.93934 13.0607C0.353553 12.4749 0.353553 11.5251 0.93934 10.9393L10.4853 1.3934C11.0711 0.807612 12.0208 0.807612 12.6066 1.3934C13.1924 1.97918 13.1924 2.92893 12.6066 3.51472L4.12132 12L12.6066 20.4853C13.1924 21.0711 13.1924 22.0208 12.6066 22.6066C12.0208 23.1924 11.0711 23.1924 10.4853 22.6066L0.93934 13.0607ZM72 13.5H2V10.5H72V13.5Z" fill="#337AB7"/>
</svg>
