<svg width="68" height="68" viewBox="0 0 68 68" fill="none" xmlns="http://www.w3.org/2000/svg">
<g clip-path="url(#clip0_28:1094)">
<path d="M55.558 0.332029C48.1649 -0.932479 31.8778 1.95008 28.995 14.2796C27.0784 22.4771 27.1347 29.1646 22.2977 29.2901C19.4196 29.3647 17.9188 23.4051 13.9452 22.9149C8.7593 22.2752 5.16035 26.5932 2.91422 30.5036C-2.02707 39.1061 -0.481929 53.7349 6.01592 60.8688C21.7526 78.1458 40.4405 60.0783 48.4307 45.9527C53.5552 36.8932 65.1168 29.57 67.5247 19.3573C69.5404 10.8073 65.0673 1.95845 55.558 0.332029Z" fill="url(#paint0_linear_28:1094)"/>
<g opacity="0.2">
<path opacity="0.2" d="M59.1117 28.2645C58.1512 27.2354 56.793 26.6451 55.3853 26.6451H47.8364V24.6991C47.8364 23.889 47.1796 23.2321 46.3694 23.2321H29.6287C29.6285 23.0088 29.5178 22.7909 29.3136 22.6658C28.3604 22.0819 27.7913 21.0675 27.7913 19.9516C27.7913 18.8357 28.3604 17.8212 29.3136 17.2373C29.7249 16.985 29.7265 16.3577 29.3136 16.1048C28.3604 15.521 27.7913 14.5066 27.7913 13.3907C27.7913 12.2748 28.3604 11.2602 29.3136 10.6764C29.6264 10.485 29.7246 10.0761 29.5331 9.76329C29.3416 9.45065 28.9329 9.35237 28.62 9.54388C27.2695 10.3709 26.463 11.809 26.463 13.3907C26.463 14.6562 26.9803 15.8288 27.8787 16.671C26.9805 17.5132 26.463 18.6859 26.463 19.9515C26.463 21.217 26.9803 22.3896 27.8785 23.2318H15.7841C14.9739 23.2318 14.3172 23.8886 14.3172 24.6989V53.0247V53.1766C13.7818 53.5613 13.2583 54.0034 12.76 54.5018C9.66211 57.5997 8.70294 61.6631 10.6177 63.5777C12.1158 65.0758 14.9293 64.8143 17.5665 63.1459C18.9995 64.0221 20.9694 64.5636 23.1443 64.5636C26.6389 64.5636 29.6035 63.1663 30.661 61.2268H43.4354C45.866 61.2268 47.8364 59.2564 47.8364 56.8258V55.698H52.4C56.0094 55.698 59.032 52.8773 59.281 49.2766L60.4699 32.0933C60.5671 30.6892 60.072 29.2936 59.1117 28.2645ZM56.7275 31.8347L55.5386 49.018C55.4245 50.6673 54.0534 51.9468 52.4001 51.9468H51.2136C49.8544 51.9468 48.6399 51.3278 47.8363 50.3565V49.3293V31.9868C48.6398 31.0154 49.8544 30.3965 51.2136 30.3965H55.3426C55.7135 30.3965 56.0788 30.5302 56.3399 30.7937C56.6165 31.0731 56.7545 31.4447 56.7275 31.8347Z" fill="#6583FE"/>
<path opacity="0.2" d="M19.3945 15.9335C19.3945 17.5152 20.2008 18.9533 21.5515 19.7803C21.6597 19.8466 21.7794 19.8782 21.8977 19.8782C22.1212 19.8782 22.3394 19.7653 22.4646 19.5608C22.6561 19.248 22.5579 18.8391 22.2451 18.6477C21.2919 18.0638 20.7228 17.0493 20.7228 15.9334C20.7228 14.8175 21.2919 13.8031 22.2451 13.2192C22.6563 12.9669 22.6581 12.3395 22.2451 12.0868C21.2919 11.5029 20.7228 10.4884 20.7228 9.37246C20.7228 8.25657 21.2919 7.24215 22.2451 6.65831C22.5579 6.46693 22.6561 6.058 22.4646 5.74522C22.2731 5.43258 21.8642 5.3343 21.5515 5.52582C20.201 6.35284 19.3945 7.7908 19.3945 9.37246C19.3945 10.638 19.9118 11.8108 20.8102 12.6529C19.9118 13.4954 19.3945 14.668 19.3945 15.9335Z" fill="#6583FE"/>
<path opacity="0.2" d="M34.8903 13.9572C34.9985 14.0234 35.1182 14.0551 35.2364 14.0551C35.4599 14.0551 35.6781 13.9422 35.8034 13.7376C35.9949 13.4249 35.8966 13.0159 35.5838 12.8245C34.6305 12.2407 34.0614 11.2261 34.0614 10.1103C34.0614 8.99463 34.6305 7.97995 35.5838 7.3961C35.8966 7.20472 35.9949 6.79579 35.8034 6.48302C35.6118 6.17038 35.2032 6.07209 34.8903 6.26361C33.5397 7.09063 32.7334 8.52873 32.7334 10.1103C32.7334 11.6921 33.5397 13.1301 34.8903 13.9572Z" fill="#6583FE"/>
<path opacity="0.2" d="M42.7342 19.7804C42.8423 19.8467 42.9621 19.8783 43.0803 19.8783C43.3038 19.8783 43.522 19.7654 43.6473 19.5609C43.8388 19.2481 43.7405 18.8392 43.4277 18.6478C42.4745 18.0639 41.9054 17.0494 41.9054 15.9335C41.9054 14.8176 42.4745 13.8032 43.4277 13.2193C43.7405 13.028 43.8388 12.619 43.6473 12.3063C43.4559 11.9936 43.0468 11.8953 42.7342 12.0869C41.3836 12.9139 40.5771 14.3518 40.5771 15.9335C40.5771 17.5152 41.3836 18.9534 42.7342 19.7804Z" fill="#6583FE"/>
</g>
<path d="M52.4008 53.0422H44.9577C43.9218 53.0422 43.082 52.2024 43.082 51.1664V25.8647C43.082 24.8288 43.9218 23.989 44.9577 23.989H55.3862C56.7939 23.989 58.152 24.5794 59.1125 25.6084C60.0729 26.6376 60.568 28.0333 60.4709 29.4375L59.282 46.6208C59.0328 50.2215 56.0103 53.0422 52.4008 53.0422ZM51.2145 49.2907H52.4011C54.0543 49.2907 55.4255 48.0112 55.5396 46.3619L56.7285 29.1787C56.7556 28.7886 56.6176 28.417 56.3408 28.1377C56.0797 27.8742 55.7145 27.7404 55.3435 27.7404H51.2145C48.795 27.7404 46.8335 29.7019 46.8335 32.1215V44.9098C46.8335 47.3294 48.7948 49.2907 51.2145 49.2907Z" fill="#8399FE"/>
<path d="M43.4357 58.5708H18.7184C16.2878 58.5708 14.3174 56.6004 14.3174 54.1698V22.043C14.3174 21.2328 14.9741 20.5759 15.7844 20.5759H46.3697C47.1798 20.5759 47.8367 21.2327 47.8367 22.043V54.1699C47.8367 56.6005 45.8663 58.5708 43.4357 58.5708Z" fill="#9FB0FE"/>
<path d="M47.8372 46.6733H38.7285C37.995 46.6733 37.4004 46.0786 37.4004 45.3451V27.8723C37.4004 27.1388 37.995 26.5442 38.7285 26.5442H47.8372V46.6733Z" fill="#FFA8CF"/>
<path d="M14.3174 26.5442H17.4495C18.183 26.5442 18.7776 27.1388 18.7776 27.8723V45.3451C18.7776 46.0786 18.183 46.6733 17.4495 46.6733H14.3174V26.5442Z" fill="#FFA8CF"/>
<path d="M14.3174 50.3689V54.17C14.3174 56.6006 16.2878 58.571 18.7184 58.571H43.4357C45.8663 58.571 47.8367 56.6006 47.8367 54.17V50.3689H14.3174Z" fill="white"/>
<path d="M23.1444 61.9076C27.5254 61.9076 31.0769 59.7125 31.0769 57.0048C31.0769 54.2971 27.5254 52.1021 23.1444 52.1021C18.7634 52.1021 15.2119 54.2971 15.2119 57.0048C15.2119 59.7125 18.7634 61.9076 23.1444 61.9076Z" fill="#FE2C8F"/>
<path d="M23.1451 52.1021C27.5259 52.1021 31.0776 54.297 31.0776 57.0048C31.0776 57.1502 31.0674 57.2935 31.0469 57.4358C29.4912 57.425 29.4809 56.5737 27.9046 56.5737C26.3181 56.5737 26.3181 57.4358 24.7316 57.4358C23.1451 57.4358 23.1451 56.5737 21.5585 56.5737C19.9721 56.5737 19.9721 57.4358 18.3855 57.4358C16.8093 57.4358 16.7991 56.5846 15.2432 56.5737C15.5964 54.0674 18.9998 52.1021 23.1451 52.1021Z" fill="#FF5BA8"/>
<path d="M19.6853 58.7747C22.7827 55.6773 23.7417 51.6145 21.8273 49.7002C19.913 47.7858 15.8502 48.7448 12.7528 51.8422C9.65544 54.9395 8.69643 59.0023 10.6108 60.9167C12.5252 62.8311 16.588 61.872 19.6853 58.7747Z" fill="#FF7EB8"/>
<path d="M12.7608 51.8459C15.8585 48.7482 19.9219 47.7888 21.8367 49.7036C21.9395 49.8064 22.0336 49.915 22.1197 50.0301C21.0119 51.1226 20.4028 50.5278 19.2883 51.6424C18.1664 52.7643 18.776 53.3737 17.6541 54.4956C16.5323 55.6175 15.9228 55.0079 14.8009 56.1297C13.6791 57.2516 14.2887 57.8611 13.1668 58.9829C12.0522 60.0975 11.443 59.5028 10.3354 60.5953C8.8128 58.5734 9.82948 54.7772 12.7608 51.8459Z" fill="#FFA8CF"/>
<path d="M59.5974 25.155C58.5118 23.9917 56.9768 23.3248 55.3857 23.3248H48.5008V22.043C48.5008 20.8679 47.5448 19.9119 46.3698 19.9119H29.165C28.302 19.3166 27.7915 18.3516 27.7915 17.2956C27.7915 16.1798 28.3606 15.1652 29.3138 14.5813C29.3175 14.579 29.3203 14.576 29.3239 14.5736C29.3569 14.5525 29.3888 14.5292 29.418 14.502C29.4191 14.501 29.4204 14.5002 29.4215 14.4992C29.449 14.4735 29.4737 14.4442 29.4969 14.4133C29.5034 14.4045 29.5097 14.3958 29.5156 14.3867C29.5214 14.3784 29.5279 14.3707 29.5332 14.3619C29.5398 14.3511 29.5433 14.3396 29.5493 14.3286C29.5605 14.3076 29.5712 14.2865 29.5802 14.2644C29.5882 14.2448 29.5947 14.225 29.6008 14.2048C29.6069 14.1842 29.6123 14.1637 29.6166 14.1426C29.6208 14.1212 29.6236 14.0999 29.6256 14.0783C29.6276 14.0572 29.6289 14.0364 29.6289 14.0151C29.6289 13.9939 29.6276 13.973 29.6256 13.9519C29.6236 13.9304 29.6207 13.909 29.6166 13.8876C29.6125 13.8665 29.607 13.8461 29.6008 13.8255C29.5948 13.8054 29.5883 13.7855 29.5802 13.7658C29.5713 13.7438 29.5605 13.7227 29.5493 13.7017C29.5434 13.6907 29.5398 13.6791 29.5332 13.6684C29.5292 13.662 29.5239 13.6569 29.5198 13.6507C29.5066 13.6308 29.4916 13.612 29.4763 13.5934C29.4631 13.5774 29.4499 13.5613 29.4353 13.5467C29.4207 13.5321 29.4046 13.5189 29.3885 13.5057C29.37 13.4903 29.3512 13.4752 29.3313 13.4621C29.3251 13.458 29.3202 13.4527 29.3138 13.4488C28.3606 12.865 27.7915 11.8504 27.7915 10.7347C27.7915 9.6189 28.3606 8.60421 29.3138 8.02037C29.6265 7.82899 29.7248 7.42006 29.5333 7.10728C29.3418 6.79464 28.9331 6.69636 28.6202 6.88788C27.2697 7.7149 26.4634 9.15299 26.4634 10.7347C26.4634 12.0002 26.9807 13.1728 27.8789 14.015C26.9807 14.8572 26.4634 16.0299 26.4634 17.2955C26.4634 18.2557 26.762 19.162 27.2978 19.9117H15.7844C14.6093 19.9117 13.6533 20.8677 13.6533 22.0428V46.0089C13.6533 46.3757 13.9507 46.6729 14.3174 46.6729C14.6841 46.6729 14.9814 46.3757 14.9814 46.0089V22.0428C14.9814 21.6 15.3416 21.2399 15.7844 21.2399H46.3697C46.8124 21.2399 47.1725 21.6 47.1725 22.0428V54.1697C47.1725 56.2302 45.4962 57.9066 43.4356 57.9066H35.403C35.0363 57.9066 34.7389 58.2038 34.7389 58.5707C34.7389 58.9375 35.0363 59.2347 35.403 59.2347H43.4356C46.2285 59.2347 48.5007 56.9626 48.5007 54.1697V53.7059H52.4002C56.3571 53.7059 59.6706 50.6137 59.9438 46.6663L61.1327 29.483C61.2426 27.896 60.683 26.3185 59.5974 25.155ZM48.5008 29.5793C48.5056 29.5745 48.5112 29.5712 48.5158 29.5664C49.226 28.8169 50.1841 28.4043 51.2139 28.4043H55.3429C55.5506 28.4043 55.7421 28.4775 55.8684 28.6048C56.0112 28.7491 56.0793 28.9316 56.0654 29.1329L54.8765 46.3162C54.7868 47.6118 53.6992 48.6266 52.4004 48.6266H51.2139C50.1839 48.6266 49.2257 48.2139 48.5158 47.4645C48.5112 47.4596 48.5056 47.4562 48.5008 47.4515V29.5793ZM59.8078 29.3916L58.6189 46.5749C58.3937 49.8289 55.6622 52.3779 52.4003 52.3779H48.5008V49.1638C49.3023 49.6785 50.2339 49.9546 51.2139 49.9546H52.4004C54.3942 49.9546 56.0638 48.3967 56.2014 46.4076L57.3903 29.2243C57.4307 28.6395 57.2254 28.0874 56.8119 27.6701C56.4379 27.2925 55.9026 27.076 55.3429 27.076H51.2139C50.2339 27.076 49.3023 27.3522 48.5008 27.8668V24.6529H55.3857C56.6099 24.6529 57.7912 25.1662 58.6264 26.0612C59.4617 26.9564 59.8923 28.1701 59.8078 29.3916Z" fill="#2626BC"/>
<path d="M19.3947 13.2773C19.3947 14.8589 20.201 16.297 21.5515 17.1241C21.6598 17.1903 21.7794 17.2219 21.8976 17.2219C22.1212 17.2219 22.3394 17.1091 22.4646 16.9045C22.6561 16.5918 22.5579 16.1828 22.2451 15.9914C21.2918 15.4076 20.7227 14.393 20.7227 13.2772C20.7227 12.1615 21.2918 11.1468 22.2451 10.563C22.2488 10.5607 22.2516 10.5577 22.2552 10.5553C22.2883 10.5342 22.3201 10.5109 22.3493 10.4837C22.3504 10.4826 22.3517 10.4818 22.3528 10.4809C22.3803 10.4552 22.405 10.4259 22.4282 10.395C22.4347 10.3862 22.441 10.3775 22.447 10.3684C22.4527 10.3601 22.4592 10.3524 22.4645 10.3436C22.4711 10.3328 22.4746 10.3213 22.4806 10.3103C22.4919 10.2893 22.5025 10.2682 22.5115 10.2461C22.5195 10.2264 22.526 10.2067 22.5321 10.1865C22.5382 10.1659 22.5436 10.1454 22.5479 10.1243C22.5521 10.1029 22.5549 10.0815 22.5569 10.06C22.5589 10.0389 22.5603 10.0181 22.5603 9.99682C22.5603 9.97557 22.5589 9.95471 22.5569 9.9336C22.5549 9.91208 22.552 9.8907 22.5479 9.86931C22.5438 9.8482 22.5383 9.82774 22.5321 9.80716C22.5261 9.7871 22.5196 9.76718 22.5115 9.74753C22.5026 9.72548 22.4919 9.70436 22.4806 9.68338C22.4747 9.67235 22.4711 9.6608 22.4645 9.65004C22.4605 9.64367 22.4552 9.63862 22.4511 9.63238C22.4379 9.61246 22.4231 9.59386 22.4078 9.5754C22.3944 9.5592 22.3812 9.54299 22.3665 9.52839C22.352 9.51391 22.3361 9.50089 22.32 9.48761C22.3013 9.47207 22.2825 9.45707 22.2624 9.44378C22.2561 9.43967 22.2513 9.43449 22.245 9.4305C21.2916 8.84666 20.7225 7.8321 20.7225 6.71621C20.7225 5.60059 21.2916 4.5859 22.245 4.00206C22.5577 3.81068 22.656 3.40175 22.4645 3.08897C22.273 2.77633 21.8643 2.67805 21.5514 2.86957C20.2008 3.69659 19.3945 5.13468 19.3945 6.71621C19.3945 7.98178 19.9118 9.15452 20.81 9.99668C19.912 10.8391 19.3947 12.0117 19.3947 13.2773Z" fill="#2626BC"/>
<path d="M34.8904 11.3009C34.9985 11.3672 35.1183 11.3988 35.2365 11.3988C35.46 11.3988 35.6782 11.2859 35.8035 11.0814C35.995 10.7686 35.8967 10.3597 35.584 10.1683C34.6308 9.58445 34.0617 8.5699 34.0617 7.45401C34.0617 6.33812 34.6308 5.3237 35.584 4.73985C35.8967 4.54847 35.995 4.13954 35.8035 3.82677C35.6121 3.51413 35.203 3.41584 34.8904 3.60736C33.5398 4.43438 32.7334 5.87234 32.7334 7.45401C32.7334 9.03567 33.5398 10.4739 34.8904 11.3009Z" fill="#2626BC"/>
<path d="M42.735 17.1242C42.8432 17.1904 42.9629 17.222 43.0811 17.222C43.3046 17.222 43.5228 17.1092 43.6481 16.9046C43.8396 16.5919 43.7413 16.1829 43.4285 15.9915C42.4752 15.4077 41.9061 14.3931 41.9061 13.2773C41.9061 12.1616 42.4752 11.1469 43.4285 10.5631C43.7413 10.3717 43.8396 9.96278 43.6481 9.65001C43.4567 9.33737 43.0479 9.23909 42.735 9.4306C41.3844 10.2576 40.5781 11.6957 40.5781 13.2773C40.578 14.859 41.3844 16.2971 42.735 17.1242Z" fill="#2626BC"/>
<path d="M29.1027 52.9728C27.5646 52.0223 25.5521 51.4832 23.4108 51.4418C23.2612 50.5717 22.8909 49.8193 22.3056 49.2339C21.2109 48.139 19.536 47.7893 17.5892 48.2485C15.7565 48.6811 13.8748 49.7918 12.2905 51.3762C10.7062 52.9605 9.59549 54.8422 9.16292 56.6748C8.70352 58.6213 9.05335 60.2964 10.1481 61.3911C10.9287 62.1717 12.004 62.5736 13.2623 62.5736C13.7691 62.5736 14.3055 62.5085 14.8644 62.3766C15.7706 62.1627 16.6887 61.7824 17.5771 61.2617C19.1245 62.1067 21.092 62.5716 23.1444 62.5716C25.3849 62.5716 27.5009 62.0264 29.1026 61.0364C30.8039 59.9848 31.7409 58.5531 31.7409 57.0047C31.7409 55.4564 30.8041 54.0244 29.1027 52.9728ZM14.5595 61.0838C13.0774 61.4338 11.8445 61.2092 11.0872 60.452C9.46267 58.8275 10.4436 55.1011 13.2295 52.3151C14.6417 50.9029 16.2983 49.9177 17.8941 49.5411C19.3761 49.1914 20.6091 49.4158 21.3664 50.1729C22.991 51.7974 22.01 55.5238 19.2241 58.3098C17.8119 59.722 16.1554 60.7072 14.5595 61.0838ZM23.1445 61.2433C21.5845 61.2433 20.0901 60.9489 18.8448 60.4054C19.3008 60.0555 19.7428 59.6694 20.1634 59.2487C21.7477 57.6644 22.8584 55.7827 23.291 53.9501C23.3869 53.5439 23.4454 53.1505 23.4713 52.7708C27.2667 52.8745 30.4129 54.7707 30.4129 57.0045C30.4129 59.3023 27.0844 61.2433 23.1445 61.2433Z" fill="#2626BC"/>
<path d="M41.4978 32.2065H31.335C30.9681 32.2065 30.6709 31.9092 30.6709 31.5425C30.6709 31.1758 30.9681 30.8784 31.335 30.8784H41.4978C41.8646 30.8784 42.1618 31.1758 42.1618 31.5425C42.1618 31.9092 41.8646 32.2065 41.4978 32.2065Z" fill="white"/>
<path d="M41.4978 34.9438H35.3193C34.9525 34.9438 34.6553 34.6465 34.6553 34.2798C34.6553 33.9131 34.9525 33.6157 35.3193 33.6157H41.4978C41.8646 33.6157 42.1618 33.9131 42.1618 34.2798C42.1618 34.6465 41.8646 34.9438 41.4978 34.9438Z" fill="white"/>
<path d="M12.1729 15.4023C11.8062 15.4023 11.5088 15.1051 11.5088 14.7383C11.5088 14.2988 11.1513 13.9414 10.7119 13.9414C10.3452 13.9414 10.0479 13.6442 10.0479 13.2773C10.0479 12.9105 10.3452 12.6133 10.7119 12.6133C11.1514 12.6133 11.5088 12.2559 11.5088 11.8164C11.5088 11.4496 11.8062 11.1523 12.1729 11.1523C12.5395 11.1523 12.8369 11.4496 12.8369 11.8164C12.8369 12.2559 13.1943 12.6133 13.6338 12.6133C14.0005 12.6133 14.2979 12.9105 14.2979 13.2773C14.2979 13.6442 14.0005 13.9414 13.6338 13.9414C13.1944 13.9414 12.8369 14.2988 12.8369 14.7383C12.8369 15.105 12.5397 15.4023 12.1729 15.4023Z" fill="#FF7EB8"/>
<path d="M55.8613 18.6829C55.4946 18.6829 55.1973 18.3856 55.1973 18.0188C55.1973 17.5793 54.8399 17.2219 54.4004 17.2219C54.0337 17.2219 53.7363 16.9247 53.7363 16.5579C53.7363 16.191 54.0337 15.8938 54.4004 15.8938C54.8399 15.8938 55.1973 15.5364 55.1973 15.0969C55.1973 14.7301 55.4946 14.4329 55.8613 14.4329C56.228 14.4329 56.5254 14.7301 56.5254 15.0969C56.5254 15.5364 56.8828 15.8938 57.3223 15.8938C57.689 15.8938 57.9863 16.191 57.9863 16.5579C57.9863 16.9247 57.689 17.2219 57.3223 17.2219C56.8828 17.2219 56.5254 17.5793 56.5254 18.0188C56.5254 18.3856 56.228 18.6829 55.8613 18.6829Z" fill="#01ECA5"/>
<path d="M53.248 62.2939C52.8814 62.2939 52.584 61.9967 52.584 61.6299C52.584 61.1904 52.2266 60.833 51.7871 60.833C51.4204 60.833 51.123 60.5358 51.123 60.1689C51.123 59.8021 51.4204 59.5049 51.7871 59.5049C52.2266 59.5049 52.584 59.1475 52.584 58.708C52.584 58.3412 52.8814 58.0439 53.248 58.0439C53.6147 58.0439 53.9121 58.3412 53.9121 58.708C53.9121 59.1475 54.2695 59.5049 54.709 59.5049C55.0757 59.5049 55.373 59.8021 55.373 60.1689C55.373 60.5358 55.0757 60.833 54.709 60.833C54.2695 60.833 53.9121 61.1904 53.9121 61.6299C53.9121 61.9967 53.6147 62.2939 53.248 62.2939Z" fill="#01ECA5"/>
<path d="M51.92 11.4389C51.75 11.4389 51.5802 11.3741 51.4504 11.2444C51.191 10.9851 51.191 10.5646 51.4504 10.3054L52.7785 8.97725C53.0379 8.71787 53.4583 8.71787 53.7176 8.97725C53.977 9.2365 53.977 9.65699 53.7176 9.91624L52.3895 11.2444C52.2599 11.3741 52.09 11.4389 51.92 11.4389Z" fill="#6583FE"/>
<path d="M7.51768 48.0014C7.34768 48.0014 7.17781 47.9366 7.04805 47.8069C6.78867 47.5476 6.78867 47.1271 7.04805 46.8679L8.37618 45.5398C8.63556 45.2804 9.05591 45.2804 9.31529 45.5398C9.57468 45.799 9.57468 46.2195 9.31529 46.4787L7.98717 47.8069C7.85754 47.9366 7.68768 48.0014 7.51768 48.0014Z" fill="#6583FE"/>
</g>
<defs>
<linearGradient id="paint0_linear_28:1094" x1="1.16242" y1="53.2792" x2="69.6205" y2="13.7549" gradientUnits="userSpaceOnUse">
<stop stop-color="#DCFDEE" stop-opacity="0"/>
<stop offset="0.6288" stop-color="#D2F3E4"/>
</linearGradient>
<clipPath id="clip0_28:1094">
<rect width="68" height="68" fill="white"/>
</clipPath>
</defs>
</svg>
