<svg width="68" height="68" viewBox="0 0 68 68" fill="none" xmlns="http://www.w3.org/2000/svg">
<path d="M55.558 0.272703C48.1649 -0.991797 31.8778 1.8907 28.995 14.2202C27.0784 22.4177 27.1347 29.1052 22.2977 29.2307C19.4196 29.3054 17.9188 23.3458 13.9452 22.8556C8.75931 22.2158 5.16031 26.5338 2.91421 30.4442C-2.02709 39.0468 -0.48189 53.6755 6.01591 60.8094C21.7526 78.0863 40.4405 60.0189 48.4306 45.8934C53.5552 36.8338 65.1168 29.5107 67.5247 19.2979C69.5407 10.748 65.0673 1.8991 55.558 0.272703Z" fill="url(#paint0_linear_14_290)"/>
<path d="M13.7539 13.8066C13.3872 13.8066 13.0898 13.5094 13.0898 13.1425C13.0898 12.7031 12.7323 12.3457 12.2929 12.3457C11.9263 12.3457 11.6289 12.0484 11.6289 11.6816C11.6289 11.3148 11.9263 11.0175 12.2929 11.0175C12.7324 11.0175 13.0898 10.6602 13.0898 10.2207C13.0898 9.85384 13.3872 9.55664 13.7539 9.55664C14.1206 9.55664 14.4179 9.85384 14.4179 10.2207C14.4179 10.6602 14.7753 11.0175 15.2148 11.0175C15.5815 11.0175 15.8789 11.3148 15.8789 11.6816C15.8789 12.0484 15.5815 12.3457 15.2148 12.3457C14.7755 12.3457 14.4179 12.7031 14.4179 13.1425C14.4179 13.5092 14.1207 13.8066 13.7539 13.8066Z" fill="#FF7EB8"/>
<path d="M43.3906 11.6816C43.0239 11.6816 42.7265 11.3844 42.7265 11.0176C42.7265 10.5781 42.3691 10.2207 41.9297 10.2207C41.563 10.2207 41.2656 9.92344 41.2656 9.55664C41.2656 9.18984 41.563 8.89264 41.9297 8.89264C42.3691 8.89264 42.7265 8.53524 42.7265 8.09574C42.7265 7.72884 43.0239 7.43164 43.3906 7.43164C43.7573 7.43164 44.0547 7.72884 44.0547 8.09574C44.0547 8.53524 44.4121 8.89264 44.8515 8.89264C45.2182 8.89264 45.5156 9.18984 45.5156 9.55664C45.5156 9.92344 45.2182 10.2207 44.8515 10.2207C44.4121 10.2207 44.0547 10.5781 44.0547 11.0176C44.0547 11.3844 43.7573 11.6816 43.3906 11.6816Z" fill="#01ECA5"/>
<path d="M54.832 60.6973C54.4653 60.6973 54.1679 60.4001 54.1679 60.0333C54.1679 59.5938 53.8106 59.2364 53.3711 59.2364C53.0044 59.2364 52.707 58.9392 52.707 58.5723C52.707 58.2055 53.0044 57.9083 53.3711 57.9083C53.8106 57.9083 54.1679 57.5509 54.1679 57.1114C54.1679 56.7446 54.4653 56.4473 54.832 56.4473C55.1987 56.4473 55.4961 56.7446 55.4961 57.1114C55.4961 57.5509 55.8535 57.9083 56.2929 57.9083C56.6596 57.9083 56.957 58.2055 56.957 58.5723C56.957 58.9392 56.6596 59.2364 56.2929 59.2364C55.8535 59.2364 55.4961 59.5938 55.4961 60.0333C55.4961 60.4001 55.1987 60.6973 54.832 60.6973Z" fill="#01ECA5"/>
<path d="M39.4454 4.43555C39.2754 4.43555 39.1055 4.37075 38.9758 4.24095C38.7164 3.98175 38.7164 3.56125 38.9758 3.30195L40.3039 1.97385C40.5633 1.71445 40.9836 1.71445 41.243 1.97385C41.5024 2.23315 41.5024 2.65355 41.243 2.91285L39.9149 4.24095C39.7853 4.37075 39.6154 4.43555 39.4454 4.43555Z" fill="#6583FE"/>
<path d="M9.09774 46.4042C8.92774 46.4042 8.75794 46.3394 8.62814 46.2097C8.36874 45.9504 8.36874 45.5299 8.62814 45.2707L9.95624 43.9426C10.2156 43.6832 10.636 43.6832 10.8954 43.9426C11.1547 44.2018 11.1547 44.6223 10.8954 44.8815L9.56724 46.2097C9.43764 46.3394 9.26774 46.4042 9.09774 46.4042Z" fill="#6583FE"/>
<path d="M35.173 58.1746C35.1666 57.0818 35.6617 56.2581 36.6616 55.6508C36.1024 54.8496 35.2563 54.409 34.141 54.3241C33.085 54.2407 31.9297 54.9394 31.5067 54.9394C31.0596 54.9394 30.0373 54.3529 29.2329 54.3529C27.5728 54.3785 25.8086 55.6765 25.8086 58.3172C25.8086 59.0976 25.9512 59.9036 26.2364 60.7336C26.6178 61.8265 27.9926 64.5041 29.4268 64.4608C30.1767 64.4432 30.7071 63.9288 31.683 63.9288C32.63 63.9288 33.1203 64.4608 33.9568 64.4608C35.4037 64.44 36.6472 62.0059 37.0093 60.9099C35.0688 59.9949 35.173 58.2307 35.173 58.1746ZM33.4889 53.2873C34.3013 52.3227 34.2276 51.4445 34.2035 51.1289C33.4856 51.1705 32.6556 51.6176 32.1829 52.1672C31.6621 52.7569 31.3561 53.486 31.4218 54.308C32.1973 54.3673 32.9056 53.9683 33.4889 53.2873Z" fill="#2D58E0"/>
<path d="M48.0498 42.6156C47.8581 42.6155 47.6743 42.5392 47.5388 42.4036C47.4033 42.268 47.3272 42.0841 47.3273 41.8924C47.3274 41.7007 47.4037 41.5169 47.5393 41.3814C47.6749 41.2459 47.8588 41.1699 48.0505 41.17C48.2422 41.17 48.426 41.2461 48.5616 41.3817C48.6971 41.5172 48.7733 41.7011 48.7733 41.8928C48.7733 42.0845 48.6971 42.2683 48.5616 42.4039C48.426 42.5394 48.2422 42.6156 48.0505 42.6156H48.0498ZM40.095 42.6156C40.0001 42.6155 39.9061 42.5968 39.8184 42.5604C39.7308 42.5241 39.6511 42.4708 39.584 42.4036C39.4485 42.268 39.3725 42.0841 39.3726 41.8924C39.3727 41.7007 39.4489 41.5169 39.5845 41.3814C39.7202 41.2459 39.904 41.1699 40.0957 41.17C40.2874 41.17 40.4713 41.2461 40.6068 41.3817C40.7424 41.5172 40.8185 41.7011 40.8185 41.8928C40.8185 42.0845 40.7424 42.2683 40.6068 42.4039C40.4713 42.5394 40.2874 42.6156 40.0957 42.6156H40.095ZM48.3062 38.2809L49.7511 35.7895C49.7899 35.7206 49.7999 35.6391 49.7787 35.563C49.7575 35.4868 49.7069 35.4221 49.638 35.3833C49.5691 35.3444 49.4876 35.3345 49.4115 35.3557C49.3353 35.3769 49.2706 35.4275 49.2318 35.4963L47.7717 38.0173C46.6122 37.4873 45.3516 37.2151 44.0767 37.2193C42.7442 37.2193 41.4873 37.5059 40.3738 38.0101L38.9138 35.4891C38.8945 35.4551 38.8687 35.4252 38.8379 35.4011C38.8071 35.377 38.7719 35.3592 38.7342 35.3487C38.6965 35.3383 38.6571 35.3353 38.6183 35.3401C38.5795 35.3448 38.5419 35.3572 38.5079 35.3764C38.4738 35.3957 38.4439 35.4214 38.4198 35.4523C38.3957 35.4831 38.3779 35.5183 38.3675 35.556C38.357 35.5937 38.3541 35.6331 38.3588 35.6719C38.3636 35.7107 38.3759 35.7482 38.3952 35.7823L39.8321 38.273C37.3637 39.6199 35.6704 42.1193 35.4219 45.0768H52.7085C52.468 42.1265 50.7818 39.6279 48.3062 38.2809Z" fill="#2D58E0"/>
<path d="M64.1036 26.8394C64.1036 25.8923 62.9177 24.9947 61.0992 24.4384C61.5191 22.5854 61.3327 21.1106 60.5108 20.6383C60.3116 20.5268 60.0862 20.4706 59.858 20.4757V21.1249C59.992 21.1249 60.0998 21.1517 60.1903 21.2012C60.5864 21.4287 60.7585 22.2936 60.6245 23.4068C60.5924 23.6808 60.5399 23.969 60.4756 24.2633C59.8667 24.1165 59.2486 24.0105 58.6256 23.9458C58.2544 23.4337 57.8495 22.947 57.4135 22.4889C58.3635 21.6062 59.2552 21.1226 59.8615 21.1226V20.4727C59.0598 20.4727 58.0109 21.0439 56.9501 22.0345C55.8899 21.0505 54.8404 20.4846 54.0393 20.4846V21.1339C54.6427 21.1339 55.5373 21.6151 56.4873 22.4919C56.0793 22.9207 55.6713 23.4068 55.2836 23.9458C54.6592 24.0098 54.0401 24.1168 53.4306 24.2663C53.3633 23.975 53.3138 23.6927 53.2787 23.4217C53.1417 22.3078 53.3108 21.443 53.7046 21.2131C53.7915 21.1607 53.9053 21.1368 54.0393 21.1368V20.4876C53.7951 20.4876 53.5729 20.54 53.3811 20.6502C52.5621 21.1226 52.3787 22.5937 52.801 24.4414C50.9885 25.0013 49.8086 25.8953 49.8086 26.8394C49.8086 27.7864 50.9945 28.684 52.8129 29.2397C52.393 31.0933 52.5794 32.5681 53.4014 33.0398C53.5908 33.1506 53.8124 33.203 54.0566 33.203C54.8583 33.203 55.9072 32.6318 56.968 31.6413C58.0282 32.6259 59.0771 33.1911 59.8788 33.1911C60.1088 33.196 60.3359 33.1396 60.537 33.0279C61.3559 32.5562 61.5394 31.085 61.1171 29.2373C62.9236 28.681 64.1036 27.7834 64.1036 26.8394ZM60.3094 24.8958C60.1963 25.2853 60.0651 25.6693 59.9163 26.0466C59.6728 25.5729 59.4054 25.1119 59.1152 24.6653C59.5292 24.7267 59.9282 24.8023 60.31 24.8958H60.3094ZM58.9752 27.999C58.7483 28.3922 58.5148 28.7656 58.273 29.1123C57.3988 29.1893 56.5195 29.1903 55.6451 29.1152C55.1436 28.3988 54.7049 27.6403 54.3341 26.8483C54.7044 26.0544 55.1411 25.2932 55.6397 24.573C56.5138 24.4958 57.3928 24.4946 58.267 24.5694C58.5089 24.9161 58.7453 25.2866 58.9723 25.6773C59.1938 26.0585 59.3952 26.4457 59.5786 26.8364C59.3931 27.2318 59.1918 27.6197 58.9752 27.999ZM59.9163 27.6202C60.0736 28.0104 60.2082 28.4011 60.3184 28.7799C59.9372 28.8734 59.5345 28.952 59.1182 29.0128C59.4072 28.5622 59.6736 28.0974 59.9163 27.6202ZM56.962 30.7294C56.691 30.4494 56.42 30.1379 56.152 29.7966C56.4141 29.8085 56.6821 29.8175 56.9531 29.8175C57.2271 29.8175 57.4981 29.8115 57.7631 29.7966C57.5011 30.1379 57.2301 30.4494 56.962 30.7294ZM54.794 29.0128C54.3923 28.9546 53.9936 28.8779 53.5991 28.7829C53.7069 28.407 53.841 28.0193 53.9922 27.6321C54.112 27.8644 54.2376 28.0979 54.3746 28.3314C54.5116 28.5643 54.651 28.7918 54.794 29.0128ZM56.9471 22.9493C57.2181 23.2293 57.4892 23.5408 57.7572 23.8821C57.4951 23.8702 57.2271 23.8612 56.9561 23.8612C56.6821 23.8612 56.4111 23.8672 56.146 23.8821C56.4081 23.5408 56.6791 23.2293 56.9471 22.9493ZM54.791 24.6659C54.502 25.1156 54.2356 25.5794 53.9928 26.0555C53.8399 25.6758 53.7057 25.2888 53.5908 24.8958C53.972 24.8053 54.3746 24.7267 54.791 24.6659ZM52.1541 28.3135C51.1225 27.874 50.4554 27.2968 50.4554 26.8394C50.4554 26.3819 51.1225 25.8018 52.1541 25.3652C52.4043 25.2574 52.6783 25.1609 52.9612 25.0709C53.1274 25.6416 53.346 26.236 53.6164 26.8453C53.3611 27.4184 53.1452 28.0083 52.9701 28.6107C52.6935 28.5251 52.4211 28.4259 52.1541 28.3135ZM53.7218 32.4769C53.3257 32.2506 53.1536 31.3846 53.2876 30.2719C53.3198 29.998 53.3722 29.7091 53.4365 29.4148C54.0071 29.5548 54.6308 29.6626 55.2865 29.7329C55.6577 30.245 56.0626 30.7317 56.4986 31.1898C55.5486 32.0725 54.657 32.5562 54.0506 32.5562C53.9362 32.5574 53.8233 32.5304 53.7218 32.4775V32.4769ZM60.6335 30.2571C60.7704 31.3703 60.6013 32.2357 60.2076 32.4656C60.1206 32.518 60.0069 32.5413 59.8728 32.5413C59.2695 32.5413 58.3748 32.0606 57.4248 31.1832C57.8328 30.7556 58.2408 30.269 58.6286 29.7299C59.2529 29.666 59.872 29.5589 60.4816 29.4095C60.5489 29.7037 60.6007 29.986 60.6335 30.2571ZM61.755 28.3135C61.5049 28.4213 61.2309 28.5178 60.9479 28.6078C60.7698 28.0022 60.5509 27.4094 60.2928 26.8334C60.5608 26.2277 60.7758 25.6362 60.939 25.068C61.2279 25.1579 61.5013 25.2574 61.758 25.3652C62.7896 25.8048 63.4567 26.3819 63.4567 26.8394C63.4537 27.2968 62.7866 27.8769 61.755 28.3135Z" fill="#2D58E0"/>
<path d="M56.9529 28.1714C57.3061 28.1714 57.6449 28.0311 57.8946 27.7813C58.1444 27.5316 58.2847 27.1928 58.2847 26.8396C58.2847 26.4864 58.1444 26.1476 57.8946 25.8979C57.6449 25.6481 57.3061 25.5078 56.9529 25.5078C56.5997 25.5078 56.2609 25.6481 56.0112 25.8979C55.7614 26.1476 55.6211 26.4864 55.6211 26.8396C55.6211 27.1928 55.7614 27.5316 56.0112 27.7813C56.2609 28.0311 56.5997 28.1714 56.9529 28.1714Z" fill="#2D58E0"/>
<path d="M18.0075 27.2715L9.76172 35.5095L12.3011 38.0489L23.0682 27.2797H18.0183L18.0075 27.2715ZM18.0183 34.8711L13.5744 39.3036L18.0183 43.7476H23.0785L18.6428 39.3067L23.0785 34.8711H18.0183Z" fill="#2D58E0"/>
<path d="M35.0117 26.8146C34.7979 26.8146 34.5992 26.7627 34.4136 26.6729L32.5204 25.6591C32.2361 25.5179 32.3786 25.4666 32.4642 25.4409C32.8479 25.3254 32.9192 25.2997 33.3179 25.0938C33.3604 25.0681 33.4179 25.081 33.4604 25.1066L34.9123 25.8901C34.9686 25.9157 35.0405 25.9157 35.083 25.8901L40.7623 22.9244C40.8186 22.8987 40.8473 22.8474 40.8473 22.7832V16.8647C40.8473 16.8006 40.8192 16.7492 40.7623 16.7236L35.083 13.7713C35.0261 13.7456 34.9548 13.7456 34.9123 13.7713L29.2329 16.7236C29.1761 16.7492 29.1473 16.8134 29.1473 16.8647V22.7832C29.1473 22.8346 29.1761 22.8987 29.2329 22.9244L30.7842 23.7335C31.6242 24.1185 32.1504 23.6693 32.1504 23.2201V17.3786C32.1504 17.3016 32.2217 17.2246 32.3217 17.2246H33.0473C33.133 17.2246 33.218 17.2888 33.218 17.3786V23.2196C33.218 24.234 32.6061 24.8243 31.5386 24.8243C31.2111 24.8243 30.9548 24.8243 30.2292 24.5035L28.7348 23.7335C28.5548 23.6411 28.4044 23.5054 28.2992 23.3407C28.1941 23.1759 28.138 22.9879 28.1367 22.7961V16.8776C28.1367 16.4926 28.3642 16.1332 28.7348 15.9407L34.4142 12.9745C34.5991 12.886 34.8039 12.8398 35.0117 12.8398C35.2195 12.8398 35.4243 12.886 35.6092 12.9745L41.2892 15.9401C41.6592 16.1326 41.8867 16.492 41.8867 16.877V22.7955C41.8867 23.1805 41.6592 23.5398 41.2892 23.7329L35.6092 26.698C35.4206 26.7743 35.2172 26.8136 35.0117 26.8135V26.8146ZM36.7623 22.7447C34.2717 22.7447 33.7592 21.7181 33.7592 20.8448C33.7592 20.7678 33.8305 20.6908 33.9298 20.6908H34.6698C34.7555 20.6908 34.8261 20.7421 34.8261 20.8191C34.9405 21.4993 35.268 21.833 36.7767 21.833C37.9723 21.833 38.4848 21.5891 38.4848 21.0116C38.4848 20.678 38.3423 20.4341 36.4779 20.2673C34.9261 20.1256 33.9586 19.8181 33.9586 18.7011C33.9586 17.661 34.9261 17.0444 36.5492 17.0444C38.3711 17.0444 39.268 17.6096 39.3817 18.8422C39.3804 18.884 39.3654 18.9243 39.3386 18.9577C39.3105 18.9834 39.2679 19.0091 39.2248 19.0091H38.4848C38.4489 19.0082 38.4142 18.9965 38.386 18.9757C38.3578 18.9549 38.3377 18.926 38.3286 18.8936C38.1573 18.1877 37.7161 17.9561 36.5492 17.9561C35.2392 17.9561 35.083 18.3668 35.083 18.6748C35.083 19.0476 35.268 19.1631 37.033 19.3684C38.7836 19.5737 39.6092 19.8689 39.6092 20.9726C39.5948 22.1031 38.5704 22.7447 36.7623 22.7447Z" fill="#2D58E0"/>
<defs>
<linearGradient id="paint0_linear_14_290" x1="1.16241" y1="53.2198" x2="69.6207" y2="13.6955" gradientUnits="userSpaceOnUse">
<stop stop-color="#DCFDEE" stop-opacity="0"/>
<stop offset="0.6288" stop-color="#D2F3E4"/>
</linearGradient>
</defs>
</svg>
