<svg width="48" height="48" viewBox="0 0 48 48" fill="none" xmlns="http://www.w3.org/2000/svg">
<circle cx="24" cy="24" r="24" fill="#337AB7"/>
<path d="M34.383 17.9675C33.6196 18.3051 32.81 18.5269 31.981 18.6255C32.8548 18.1029 33.5087 17.2805 33.821 16.3114C33.001 16.7994 32.102 17.1414 31.165 17.3264C30.5356 16.653 29.7014 16.2064 28.792 16.056C27.8825 15.9057 26.9489 16.0599 26.1363 16.4949C25.3236 16.9299 24.6774 17.6211 24.2981 18.4612C23.9188 19.3014 23.8277 20.2432 24.039 21.1405C22.3761 21.0571 20.7493 20.625 19.2643 19.8721C17.7792 19.1193 16.4691 18.0625 15.419 16.7705C15.0473 17.4089 14.852 18.1347 14.853 18.8734C14.853 20.3234 15.591 21.6045 16.713 22.3545C16.049 22.3335 15.3996 22.1542 14.819 21.8315V21.8834C14.8192 22.8492 15.1534 23.7851 15.7648 24.5325C16.3763 25.28 17.2275 25.7929 18.174 25.9845C17.5576 26.1515 16.9113 26.1761 16.284 26.0564C16.5509 26.8877 17.071 27.6146 17.7716 28.1356C18.4722 28.6565 19.3181 28.9452 20.191 28.9614C19.3235 29.6428 18.3302 30.1464 17.2679 30.4436C16.2056 30.7408 15.0951 30.8257 14 30.6934C15.9117 31.9229 18.1371 32.5756 20.41 32.5734C28.103 32.5734 32.31 26.2005 32.31 20.6735C32.31 20.4935 32.305 20.3115 32.297 20.1335C33.1159 19.5416 33.8226 18.8085 34.384 17.9685L34.383 17.9675Z" fill="white"/>
</svg>
