<svg width="30" height="30" viewBox="0 0 30 30" fill="none" xmlns="http://www.w3.org/2000/svg">
<circle cx="15" cy="15" r="15" fill="#337AB7"/>
<path d="M20.8208 11.4688C20.4033 11.6538 19.9548 11.7788 19.4833 11.8353C19.9698 11.5442 20.3337 11.086 20.5073 10.5463C20.0502 10.8178 19.5499 11.0089 19.0283 11.1113C18.6775 10.7367 18.2128 10.4884 17.7064 10.405C17.2001 10.3216 16.6803 10.4077 16.2279 10.6499C15.7755 10.8921 15.4157 11.277 15.2044 11.7446C14.993 12.2123 14.942 12.7367 15.0593 13.2363C14.1331 13.1898 13.2271 12.9491 12.4 12.5297C11.5729 12.1104 10.8432 11.5219 10.2583 10.8023C10.0583 11.1473 9.94327 11.5473 9.94327 11.9733C9.94305 12.3568 10.0375 12.7344 10.2182 13.0726C10.3989 13.4109 10.6604 13.6993 10.9793 13.9123C10.6094 13.9005 10.2477 13.8006 9.92427 13.6208V13.6508C9.92424 14.1887 10.1103 14.71 10.4509 15.1263C10.7914 15.5426 11.2656 15.8282 11.7928 15.9348C11.4497 16.0276 11.0899 16.0413 10.7408 15.9748C10.8895 16.4376 11.1793 16.8423 11.5695 17.1322C11.9596 17.4222 12.4307 17.5829 12.9168 17.5918C12.0917 18.2395 11.0727 18.5908 10.0238 18.5893C9.83796 18.5893 9.65231 18.5785 9.46777 18.5568C10.5325 19.2414 11.7719 19.6047 13.0378 19.6033C17.3228 19.6033 19.6653 16.0543 19.6653 12.9763C19.6653 12.8763 19.6628 12.7753 19.6583 12.6753C20.1139 12.3458 20.5072 11.9377 20.8198 11.4703L20.8208 11.4688V11.4688Z" fill="white"/>
</svg>
