<svg width="48" height="31" viewBox="0 0 48 31" fill="none" xmlns="http://www.w3.org/2000/svg">
<path d="M4.25567 28.957C6.92721 28.957 8.51134 27.4266 8.51134 24.661V19.3985H6.36337V24.5805C6.36337 26.366 5.59815 27.1044 4.2691 27.1044C2.95346 27.1044 2.17482 26.366 2.17482 24.5805V19.3985H0V24.661C0 27.4266 1.58413 28.957 4.25567 28.957Z" fill="#357AB4"/>
<path d="M10.6605 28.7959H12.8353V19.3985H10.6605V28.7959Z" fill="#357AB4"/>
<path d="M13.5082 30.1384H15.3743L19.8045 17.4922H17.9384L13.5082 30.1384Z" fill="#357AB4"/>
<path d="M24.4978 28.957C27.1693 28.957 28.7535 27.4266 28.7535 24.661V19.3985H26.6055V24.5805C26.6055 26.366 25.8403 27.1044 24.5112 27.1044C23.1956 27.1044 22.4169 26.366 22.4169 24.5805V19.3985H20.2421V24.661C20.2421 27.4266 21.8263 28.957 24.4978 28.957Z" fill="#357AB4"/>
<path d="M39.2023 28.7959L35.6984 23.9361L38.9741 19.3985H36.6247L34.5036 22.4459L32.3422 19.3985H29.872L33.1745 24.0167L29.6975 28.7959H32.1945L34.423 25.5337L36.6918 28.7959H39.2023Z" fill="#357AB4"/>
<path d="M36.18 12.747C36.4048 12.9065 36.6735 12.9925 36.9491 12.9932C37.2248 12.9939 37.4939 12.9093 37.7195 12.751C37.922 12.6071 38.0809 12.4101 38.1779 12.1817L38.7957 10.2977C38.9468 9.84361 39.2016 9.43097 39.5401 9.09257C39.8785 8.75417 40.2911 8.49932 40.7452 8.34826L42.5602 7.75692C42.8206 7.66507 43.0462 7.49468 43.2057 7.26925C43.3653 7.04382 43.4509 6.77445 43.4509 6.49827C43.4509 6.2221 43.3653 5.95273 43.2057 5.7273C43.0462 5.50186 42.8206 5.33148 42.5602 5.23962L40.7107 4.64329C40.258 4.49191 39.8466 4.23763 39.5088 3.90041C39.171 3.5632 38.9159 3.15224 38.7637 2.69983L38.1744 0.885838C38.0827 0.625328 37.9122 0.399803 37.6865 0.240518C37.4599 0.0838943 37.191 0 36.9155 0C36.64 0 36.3711 0.0838943 36.1445 0.240518C35.9148 0.403171 35.7422 0.634031 35.6511 0.900334L35.0548 2.73332C34.9033 3.17418 34.6539 3.57496 34.3253 3.90552C33.9966 4.23608 33.5973 4.48781 33.1573 4.64179L31.3443 5.23063C31.0825 5.32286 30.8559 5.49445 30.6962 5.7215C30.5365 5.94855 30.4515 6.21976 30.4531 6.49737C30.4548 6.77497 30.543 7.04515 30.7054 7.27028C30.8678 7.49542 31.0964 7.6643 31.3593 7.75342L33.1523 8.33576C33.6066 8.48809 34.0194 8.74395 34.3579 9.08314C34.6963 9.42233 34.9514 9.83556 35.1028 10.2902L35.6926 12.1012C35.7841 12.3616 35.9545 12.5876 36.1805 12.747H36.18ZM43.8873 17.3118C44.0518 17.4282 44.2477 17.4907 44.4492 17.4912L44.4517 17.4927C44.6555 17.4926 44.8541 17.4284 45.0195 17.3093C45.1849 17.1902 45.3087 17.0222 45.3734 16.8289L45.6578 15.9541C45.7162 15.7796 45.8142 15.621 45.9442 15.4907C46.0743 15.3604 46.2327 15.2621 46.4071 15.2033L47.3019 14.9124C47.4435 14.8622 47.5716 14.7799 47.6761 14.6719C47.7806 14.5639 47.8587 14.4331 47.9042 14.2899C47.9497 14.1467 47.9614 13.9948 47.9385 13.8463C47.9155 13.6978 47.8584 13.5566 47.7717 13.4338C47.6482 13.261 47.4719 13.1329 47.2694 13.0689L46.3911 12.7845C46.2166 12.7262 46.0579 12.6282 45.9278 12.498C45.7977 12.3679 45.6996 12.2093 45.6413 12.0347L45.3504 11.1405C45.2833 10.9492 45.1581 10.7837 44.9922 10.6672C44.8264 10.5506 44.6282 10.4888 44.4256 10.4905C44.2229 10.4921 44.0258 10.5571 43.8618 10.6764C43.6979 10.7956 43.5754 10.9631 43.5114 11.1555L43.2255 12.0337C43.1688 12.2057 43.0736 12.3624 42.9471 12.4919C42.8206 12.6214 42.6662 12.7203 42.4957 12.781L41.601 13.0719C41.41 13.1392 41.2449 13.2644 41.1286 13.4301C41.0122 13.5958 40.9506 13.7937 40.9522 13.9961C40.9538 14.1985 41.0185 14.3954 41.1375 14.5592C41.2564 14.7231 41.4235 14.8457 41.6154 14.9099L42.4912 15.1948C42.6662 15.2533 42.8251 15.3517 42.9553 15.4824C43.0854 15.6131 43.1833 15.7724 43.241 15.9476L43.5319 16.8414C43.5989 17.0313 43.7229 17.1958 43.8868 17.3118H43.8873Z" fill="#357AB4"/>
</svg>
