<svg width="68" height="68" viewBox="0 0 68 68" fill="none" xmlns="http://www.w3.org/2000/svg">
<g clip-path="url(#clip0_28:982)">
<path d="M48.4531 7.33313C39.276 3.74254 26.5677 5.10666 19.5448 11.5181C14.5861 16.045 18.424 17.3352 21.8048 25.6188C24.2516 31.6139 0 30.7887 0 41.622C0 54.1461 17.5646 51.7721 24.0828 53.2056C34.0485 55.3976 42.7424 63.5971 53.3902 62.5162C62.6599 61.5751 66.1937 54.3011 67.4828 45.9622C69.8843 30.4263 63.986 13.4106 48.4531 7.33313Z" fill="url(#paint0_linear_28:982)"/>
<path opacity="0.11" d="M61.7176 24.8905H52.9966V22.1022C52.9966 20.5722 51.7575 19.3331 50.2288 19.3331H15.5717V17.876C15.5717 17.1425 14.9771 16.5479 14.2435 16.5479H3.8916C3.15808 16.5479 2.56348 17.1425 2.56348 17.876V28.2279C2.56348 28.9614 3.15808 29.556 3.8916 29.556H11.8872V47.7548H9.1373C8.22222 47.7548 7.48033 48.4966 7.48033 49.4118V50.9345C7.48033 52.5402 8.78149 53.8428 10.3887 53.8428H54.4962C56.1034 53.8428 57.4046 52.5403 57.4046 50.9345V49.4118C57.4046 48.4967 56.6627 47.7548 55.7476 47.7548H52.9966V37.8987H61.7176C62.4512 37.8987 63.0458 37.3041 63.0458 36.5705V26.2186C63.0458 25.4851 62.4512 24.8905 61.7176 24.8905Z" fill="#2626BC"/>
<path d="M55.3878 19.7115V47.4601C55.3878 47.8266 55.0903 48.1241 54.7237 48.1241H14.2783V19.7115C14.2783 18.1815 15.5175 16.9424 17.0461 16.9424H52.62C54.1486 16.9424 55.3878 18.1815 55.3878 19.7115Z" fill="#B7C5FF"/>
<path d="M39.3451 33.9916C39.1583 33.9916 38.9725 33.9133 38.8413 33.7605L34.8335 29.0993L30.8258 33.7605C30.5867 34.0388 30.1673 34.0701 29.8893 33.8311C29.6112 33.592 29.5796 33.1727 29.8188 32.8946L34.3301 27.6478C34.4561 27.5012 34.64 27.4167 34.8335 27.4167C35.0271 27.4167 35.211 27.5012 35.337 27.6478L39.8483 32.8946C40.0875 33.1727 40.0559 33.592 39.7778 33.8311C39.6525 33.9388 39.4983 33.9916 39.3451 33.9916Z" fill="#8399FE"/>
<path d="M45.1819 29.7466C45.5919 29.7466 45.9243 29.4142 45.9243 29.0041C45.9243 28.5941 45.5919 28.2617 45.1819 28.2617C44.7718 28.2617 44.4395 28.5941 44.4395 29.0041C44.4395 29.4142 44.7718 29.7466 45.1819 29.7466Z" fill="#D2DEFF"/>
<path d="M47.428 29.7466C47.838 29.7466 48.1704 29.4142 48.1704 29.0041C48.1704 28.5941 47.838 28.2617 47.428 28.2617C47.0179 28.2617 46.6855 28.5941 46.6855 29.0041C46.6855 29.4142 47.0179 29.7466 47.428 29.7466Z" fill="#D2DEFF"/>
<path d="M49.6741 29.7466C50.0841 29.7466 50.4165 29.4142 50.4165 29.0041C50.4165 28.5941 50.0841 28.2617 49.6741 28.2617C49.264 28.2617 48.9316 28.5941 48.9316 29.0041C48.9316 29.4142 49.264 29.7466 49.6741 29.7466Z" fill="#D2DEFF"/>
<path d="M45.1819 32.0263C45.5919 32.0263 45.9243 31.694 45.9243 31.2839C45.9243 30.8739 45.5919 30.5415 45.1819 30.5415C44.7718 30.5415 44.4395 30.8739 44.4395 31.2839C44.4395 31.694 44.7718 32.0263 45.1819 32.0263Z" fill="#D2DEFF"/>
<path d="M47.428 32.0263C47.838 32.0263 48.1704 31.694 48.1704 31.2839C48.1704 30.8739 47.838 30.5415 47.428 30.5415C47.0179 30.5415 46.6855 30.8739 46.6855 31.2839C46.6855 31.694 47.0179 32.0263 47.428 32.0263Z" fill="#D2DEFF"/>
<path d="M49.6741 32.0263C50.0841 32.0263 50.4165 31.694 50.4165 31.2839C50.4165 30.8739 50.0841 30.5415 49.6741 30.5415C49.264 30.5415 48.9316 30.8739 48.9316 31.2839C48.9316 31.694 49.264 32.0263 49.6741 32.0263Z" fill="#D2DEFF"/>
<path d="M41.5182 39.9569H28.1484C27.7817 39.9569 27.4844 39.6595 27.4844 39.2928V33.9917C27.4844 33.625 27.7817 33.3276 28.1484 33.3276H41.5183C41.885 33.3276 42.1824 33.625 42.1824 33.9917V39.2928C42.1822 39.6595 41.885 39.9569 41.5182 39.9569Z" fill="#9FB0FE"/>
<path d="M17.9625 17.6091V27.9605C17.9625 28.695 17.3675 29.2886 16.6344 29.2886H14.2783V19.7115C14.2783 18.1815 15.5175 16.9424 17.0461 16.9424H17.7819C17.8975 17.1376 17.9625 17.3661 17.9625 17.6091Z" fill="#9FB0FE"/>
<path d="M55.3878 24.623V37.632H53.7568C53.0237 37.632 52.4287 37.037 52.4287 36.3039V25.9512C52.4287 25.218 53.0237 24.623 53.7568 24.623H55.3878Z" fill="#9FB0FE"/>
<path d="M55.3878 19.7115V25.7346C54.4913 26.5753 53.2854 27.0893 51.9625 27.0893C50.6397 27.0893 49.4351 26.5739 48.5373 25.7346C47.6395 26.5739 46.4349 27.0893 45.1107 27.0893C43.7879 27.0893 42.5833 26.5739 41.6855 25.7346C40.7877 26.5739 39.5831 27.0893 38.2603 27.0893C36.9361 27.0893 35.7315 26.5739 34.8337 25.7346C33.9359 26.5739 32.7313 27.0893 31.4085 27.0893C30.0843 27.0893 28.8797 26.5739 27.9819 25.7346C27.0841 26.5739 25.8795 27.0893 24.5567 27.0893C23.2325 27.0893 22.0279 26.5739 21.1301 25.7346C20.2323 26.5739 19.0277 27.0893 17.7049 27.0893C16.3807 27.0893 15.1761 26.5739 14.2783 25.7332V19.7115C14.2783 18.1815 15.5175 16.9424 17.0461 16.9424H52.62C54.1486 16.9424 55.3878 18.1815 55.3878 19.7115Z" fill="#9FB0FE"/>
<path d="M55.3878 42.064V47.4601C55.3878 47.8267 55.0903 48.1242 54.7237 48.1242H14.2783V42.064H55.3878Z" fill="#01ECA5"/>
<path d="M59.7953 47.0212V48.5439C59.7953 50.1496 58.4942 51.4522 56.887 51.4522H12.7794C11.1723 51.4522 9.87109 50.1496 9.87109 48.5439V47.0212C9.87109 46.1061 10.613 45.3643 11.5281 45.3643H25.7479C25.9935 45.3643 26.2191 45.4999 26.3344 45.7167L27.2056 47.3567C27.3209 47.5736 27.5464 47.7092 27.7921 47.7092H41.8744C42.12 47.7092 42.3456 47.5736 42.4609 47.3567L43.3321 45.7167C43.4474 45.4999 43.6729 45.3643 43.9185 45.3643H58.1383C59.0534 45.3643 59.7953 46.1061 59.7953 47.0212Z" fill="#97FFD2"/>
<path d="M54.6966 47.7706H48.9414C48.5747 47.7706 48.2773 47.4732 48.2773 47.1065V45.3643H55.3606V47.1065C55.3606 47.4732 55.0633 47.7706 54.6966 47.7706Z" fill="#FF7EB8"/>
<path d="M59.7952 47.0204V48.5438C59.7952 50.1495 58.4937 51.4524 56.8866 51.4524H54.9316C56.5387 51.4524 57.8402 50.1495 57.8402 48.5438V47.0204C57.8402 46.1054 57.0978 45.3643 56.1827 45.3643H58.1377C59.0528 45.3643 59.7952 46.1054 59.7952 47.0204Z" fill="#DCFDEE"/>
<path d="M20.7084 47.7706H14.9531C14.5864 47.7706 14.2891 47.4732 14.2891 47.1065V45.3643H21.3724V47.1065C21.3725 47.4732 21.0751 47.7706 20.7084 47.7706Z" fill="#FF7EB8"/>
<path d="M17.7041 25.4961C15.812 25.4961 14.2783 23.9623 14.2783 22.0704V19.712C14.2783 18.1827 15.5181 16.9429 17.0475 16.9429H21.13V22.0704C21.13 23.9623 19.5961 25.4961 17.7041 25.4961Z" fill="#FFDBED"/>
<path d="M24.5556 25.4961C22.6636 25.4961 21.1299 23.9623 21.1299 22.0704V16.9429H27.9815V22.0704C27.9815 23.9623 26.4477 25.4961 24.5556 25.4961Z" fill="#02FFB3"/>
<path d="M27.9808 16.9424V22.0703C27.9808 23.9615 26.4482 25.4955 24.5556 25.4955C24.2581 25.4955 23.9712 25.4583 23.6963 25.3866C25.1732 25.0054 26.2636 23.6654 26.2636 22.0703V16.9424H27.9808Z" fill="#97FFD2"/>
<path d="M31.4072 25.4961C29.5152 25.4961 27.9814 23.9623 27.9814 22.0704V16.9429H34.8331V22.0704C34.833 23.9623 33.2993 25.4961 31.4072 25.4961Z" fill="#FFDBED"/>
<path d="M38.2598 25.4961C36.3677 25.4961 34.834 23.9623 34.834 22.0704V16.9429H41.6856V22.0704C41.6855 23.9623 40.1518 25.4961 38.2598 25.4961Z" fill="#02FFB3"/>
<path d="M41.6849 16.9424V22.0703C41.6849 23.9615 40.1509 25.4955 38.2597 25.4955C37.9622 25.4955 37.6753 25.4583 37.4004 25.3866C38.8773 25.0054 39.9677 23.6654 39.9677 22.0703V16.9424H41.6849Z" fill="#97FFD2"/>
<path d="M45.1113 25.4961C43.2193 25.4961 41.6855 23.9623 41.6855 22.0704V16.9429H48.5372V22.0704C48.5371 23.9623 47.0032 25.4961 45.1113 25.4961Z" fill="#FFDBED"/>
<path d="M51.9629 25.4961C50.0708 25.4961 48.5371 23.9623 48.5371 22.0704V16.9429H52.6196C54.149 16.9429 55.3888 18.1827 55.3888 19.712V22.0704C55.3888 23.9623 53.8549 25.4961 51.9629 25.4961Z" fill="#02FFB3"/>
<path d="M55.3881 19.7115V22.0703C55.3881 23.9615 53.8541 25.4955 51.9629 25.4955C51.6654 25.4955 51.3785 25.4583 51.1036 25.3866C52.5791 25.0054 53.6695 23.6654 53.6695 22.0703V19.7115C53.6695 18.1829 52.4304 16.9424 50.9004 16.9424H52.619C54.149 16.9424 55.3881 18.1829 55.3881 19.7115Z" fill="#97FFD2"/>
<path d="M16.6342 27.1654H6.28223C5.5487 27.1654 4.9541 26.5708 4.9541 25.8373V15.4854C4.9541 14.7518 5.5487 14.1572 6.28223 14.1572H16.6342C17.3677 14.1572 17.9623 14.7518 17.9623 15.4854V25.8373C17.9623 26.5708 17.3677 27.1654 16.6342 27.1654Z" fill="#02FFB3"/>
<path d="M17.9618 15.4856V25.837C17.9618 26.5701 17.3681 27.1651 16.6336 27.1651H14.417C15.1514 27.1651 15.7451 26.5701 15.7451 25.837V15.4856C15.7451 14.7511 15.1514 14.1575 14.417 14.1575H16.6336C17.3679 14.1575 17.9618 14.7511 17.9618 15.4856Z" fill="#97FFD2"/>
<path d="M64.1088 35.5082H53.7568C53.0233 35.5082 52.4287 34.9136 52.4287 34.1801V23.8281C52.4287 23.0946 53.0233 22.5 53.7568 22.5H64.1088C64.8423 22.5 65.4369 23.0946 65.4369 23.8281V34.1801C65.4369 34.9136 64.8423 35.5082 64.1088 35.5082Z" fill="#FF7EB8"/>
<path d="M65.4364 23.8284V34.1798C65.4364 34.9129 64.8427 35.5079 64.1082 35.5079H61.8916C62.6261 35.5079 63.2197 34.9129 63.2197 34.1798V23.8284C63.2197 23.0939 62.6261 22.5002 61.8916 22.5002H64.1082C64.8427 22.5002 65.4364 23.0939 65.4364 23.8284Z" fill="#FFA8CF"/>
<path d="M41.5182 38.9778H28.1484C27.7817 38.9778 27.4844 38.6805 27.4844 38.3138V33.0127C27.4844 32.646 27.7817 32.3486 28.1484 32.3486H41.5183C41.885 32.3486 42.1824 32.646 42.1824 33.0127V38.3138C42.1822 38.6806 41.885 38.9778 41.5182 38.9778Z" fill="#FFDBED"/>
<path d="M29.6084 37.5566H30.4184C30.7851 37.5566 31.0825 37.2592 31.0825 36.8925V34.4336C31.0825 34.0669 30.7851 33.7695 30.4184 33.7695H29.6084C29.2417 33.7695 28.9443 34.0669 28.9443 34.4336V36.8925C28.9443 37.2593 29.2417 37.5566 29.6084 37.5566Z" fill="#FFA8CF"/>
<path d="M32.8213 37.5566H33.6313C33.998 37.5566 34.2954 37.2592 34.2954 36.8925V34.4336C34.2954 34.0669 33.998 33.7695 33.6313 33.7695H32.8213C32.4546 33.7695 32.1572 34.0669 32.1572 34.4336V36.8925C32.1572 37.2593 32.4546 37.5566 32.8213 37.5566Z" fill="#FFA8CF"/>
<path d="M36.0352 37.5566H36.8452C37.2119 37.5566 37.5092 37.2592 37.5092 36.8925V34.4336C37.5092 34.0669 37.2119 33.7695 36.8452 33.7695H36.0352C35.6685 33.7695 35.3711 34.0669 35.3711 34.4336V36.8925C35.3711 37.2593 35.6685 37.5566 36.0352 37.5566Z" fill="#FFA8CF"/>
<path d="M39.248 37.5566H40.0581C40.4248 37.5566 40.7221 37.2592 40.7221 36.8925V34.4336C40.7221 34.0669 40.4248 33.7695 40.0581 33.7695H39.248C38.8814 33.7695 38.584 34.0669 38.584 34.4336V36.8925C38.584 37.2593 38.8812 37.5566 39.248 37.5566Z" fill="#FFA8CF"/>
<path d="M20.2222 33.0127H18.3955C18.0287 33.0127 17.7314 32.7153 17.7314 32.3486C17.7314 31.9819 18.0287 31.6846 18.3955 31.6846H20.2222C20.589 31.6846 20.8863 31.9819 20.8863 32.3486C20.8863 32.7153 20.589 33.0127 20.2222 33.0127Z" fill="#02FFB3"/>
<path d="M23.8918 36.5815H18.3955C18.0287 36.5815 17.7314 36.2842 17.7314 35.9175C17.7314 35.5508 18.0287 35.2534 18.3955 35.2534H23.8918C24.2586 35.2534 24.5559 35.5508 24.5559 35.9175C24.5559 36.2842 24.2586 36.5815 23.8918 36.5815Z" fill="#02FFB3"/>
<path d="M23.8918 38.7405H18.3955C18.0287 38.7405 17.7314 38.4431 17.7314 38.0764C17.7314 37.7097 18.0287 37.4124 18.3955 37.4124H23.8918C24.2586 37.4124 24.5559 37.7097 24.5559 38.0764C24.5559 38.4431 24.2586 38.7405 23.8918 38.7405Z" fill="#02FFB3"/>
<path d="M12.3284 19.9975H12.1228V18.632H12.9875C13.3543 18.632 13.6516 18.3348 13.6516 17.968C13.6516 17.6011 13.3543 17.3039 12.9875 17.3039H12.1228V16.9651C12.1228 16.5983 11.8255 16.301 11.4587 16.301C11.0919 16.301 10.7946 16.5983 10.7946 16.9651V17.3039H10.5889C9.48019 17.3039 8.57812 18.206 8.57812 19.3148C8.57812 20.4237 9.48019 21.3257 10.5889 21.3257H10.7946V22.691H9.92989C9.56306 22.691 9.26583 22.9883 9.26583 23.3551C9.26583 23.7219 9.56306 24.0192 9.92989 24.0192H10.7946V24.3581C10.7946 24.7249 11.0919 25.0222 11.4587 25.0222C11.8255 25.0222 12.1228 24.7249 12.1228 24.3581V24.0192H12.3284C13.4372 24.0192 14.3393 23.1171 14.3393 22.0082C14.3393 20.8995 13.4372 19.9975 12.3284 19.9975ZM10.589 19.9975C10.2126 19.9975 9.90638 19.6912 9.90638 19.3147C9.90638 18.9381 10.2126 18.6319 10.589 18.6319H10.7948V19.9973H10.589V19.9975ZM12.3284 22.691H12.1228V21.3257H12.3284C12.7049 21.3257 13.0111 21.632 13.0111 22.0084C13.0111 22.3848 12.7049 22.691 12.3284 22.691Z" fill="white"/>
<path d="M35.9849 44.1846H33.6816C33.3148 44.1846 33.0176 44.4818 33.0176 44.8486C33.0176 45.2155 33.3148 45.5127 33.6816 45.5127H35.9849C36.3517 45.5127 36.6489 45.2155 36.6489 44.8486C36.6489 44.4818 36.3517 44.1846 35.9849 44.1846Z" fill="#2626BC"/>
<path d="M64.1083 21.8359H56.0524V19.712V19.7113C56.0524 17.8186 54.5126 16.2788 52.6198 16.2788H52.6191H18.6264V15.4854C18.6264 14.3869 17.7327 13.4932 16.6342 13.4932H6.28223C5.18373 13.4932 4.29004 14.3869 4.29004 15.4854V25.8373C4.29004 26.9358 5.18373 27.8295 6.28223 27.8295H13.6139V38.3319C13.6139 38.6987 13.9111 38.9959 14.2779 38.9959C14.6448 38.9959 14.942 38.6987 14.942 38.3319V27.8296H16.6342C17.658 27.8296 18.503 27.0532 18.6133 26.0583C19.67 25.8186 20.5621 25.1718 21.1303 24.3004C21.8609 25.4188 23.1231 26.16 24.556 26.16C25.9888 26.16 27.2512 25.4187 27.9818 24.3001C28.7124 25.4187 29.9748 26.16 31.4077 26.16C32.8405 26.16 34.1029 25.4187 34.8335 24.3001C35.5641 25.4187 36.8265 26.16 38.2594 26.16C39.6921 26.16 40.9545 25.4187 41.6851 24.3001C42.4157 25.4187 43.678 26.16 45.1109 26.16C46.5438 26.16 47.8061 25.4187 48.5368 24.3001C49.2335 25.3667 50.4137 26.0902 51.7643 26.155V34.1799C51.7643 35.2784 52.658 36.1721 53.7565 36.1721H54.7244V41.4H14.2793C14.2789 41.4 14.2785 41.3999 14.2779 41.3999C13.9111 41.3999 13.6139 41.6971 13.6139 42.0639V44.7001H11.5281C10.2481 44.7001 9.20689 45.7414 9.20689 47.0211V48.5438C9.20689 50.5136 10.8094 52.1161 12.7793 52.1161H56.8869C58.8566 52.1161 60.4591 50.5136 60.4591 48.5438V47.0211C60.4591 45.7414 59.4179 44.7001 58.1381 44.7001H56.0523V36.1721H64.1081C65.2066 36.1721 66.1003 35.2784 66.1003 34.1799V23.8281C66.1005 22.7296 65.2069 21.8359 64.1083 21.8359ZM53.7693 44.7001C53.4025 44.7001 53.1053 44.9973 53.1053 45.3642C53.1053 45.731 53.4025 46.0282 53.7693 46.0282H54.6964V47.1064H48.9412V46.0282H50.0373C50.4041 46.0282 50.7014 45.731 50.7014 45.3642C50.7014 44.9973 50.4041 44.7001 50.0373 44.7001H43.9185C43.426 44.7001 42.9766 44.9703 42.7455 45.4052L41.8743 47.0452H27.792L26.9206 45.4051C26.6897 44.9704 26.2402 44.7001 25.7478 44.7001H14.942V42.7281H54.7243V44.7001H53.7693ZM20.7095 47.1065H14.9534V46.0284H20.709L20.7095 47.1065ZM59.1311 47.0211V48.5438C59.1311 49.7813 58.1244 50.788 56.887 50.788H12.7794C11.542 50.788 10.5351 49.7813 10.5351 48.5438V47.0211C10.5351 46.4737 10.9806 46.0282 11.5282 46.0282H13.6254V47.1064C13.6254 47.8387 14.2212 48.4345 14.9536 48.4345H20.7087C21.441 48.4345 22.0368 47.8387 22.0368 47.1064V46.0282H25.7479L26.6193 47.6685C26.8505 48.1032 27.2998 48.3733 27.7921 48.3733H41.8744C42.3667 48.3733 42.816 48.1033 43.0474 47.6682L43.9186 46.0282H47.6132V47.1064C47.6132 47.8387 48.209 48.4345 48.9413 48.4345H54.6965C55.4288 48.4345 56.0246 47.8387 56.0246 47.1064V46.0282H58.1383C58.6857 46.0282 59.1311 46.4737 59.1311 47.0211ZM17.2982 25.8374C17.2982 26.2036 17.0003 26.5015 16.6342 26.5015H6.28223C5.91606 26.5015 5.61816 26.2036 5.61816 25.8374V15.4855C5.61816 15.1193 5.91606 14.8214 6.28223 14.8214H16.6342C17.0003 14.8214 17.2982 15.1193 17.2982 15.4855V25.8374ZM18.6264 24.6721V17.607H20.4661V22.0703C20.4661 23.2582 19.7063 24.2894 18.6264 24.6721ZM24.556 24.832C23.0331 24.832 21.7942 23.5932 21.7942 22.0703V17.607H27.3177V22.0703C27.3177 23.5932 26.0787 24.832 24.556 24.832ZM31.4076 24.832C29.8846 24.832 28.6457 23.5932 28.6457 22.0703V17.607H34.1693V22.0703C34.1693 23.5932 32.9304 24.832 31.4076 24.832ZM38.2592 24.832C36.7363 24.832 35.4974 23.5932 35.4974 22.0703V17.607H41.0209V22.0703C41.0209 23.5932 39.7821 24.832 38.2592 24.832ZM45.1108 24.832C43.5879 24.832 42.3491 23.5932 42.3491 22.0703V17.607H47.8726V22.0703C47.8726 23.5932 46.6337 24.832 45.1108 24.832ZM49.2007 22.0703V17.607H52.6191C53.7798 17.607 54.7243 18.5513 54.7243 19.7121V21.836H53.7563C52.6578 21.836 51.7641 22.7297 51.7641 23.8282V24.8221C50.3339 24.7195 49.2007 23.5262 49.2007 22.0703ZM64.7723 34.1799C64.7723 34.5461 64.4744 34.844 64.1083 34.844H53.7563C53.3902 34.844 53.0923 34.5461 53.0923 34.1799V23.8281C53.0923 23.4619 53.3902 23.164 53.7563 23.164H64.1083C64.4744 23.164 64.7723 23.4619 64.7723 23.8281V34.1799Z" fill="#2626BC"/>
<path d="M56.653 28.4523C55.7 28.4523 54.9248 27.677 54.9248 26.7241C54.9248 25.7713 55.7 24.9961 56.653 24.9961C57.6058 24.9961 58.381 25.7713 58.381 26.7241C58.3809 27.6772 57.6056 28.4523 56.653 28.4523ZM56.653 26.3244C56.4324 26.3244 56.2529 26.5038 56.2529 26.7243C56.2529 26.9449 56.4324 27.1243 56.653 27.1243C56.8734 27.1243 57.0529 26.9449 57.0529 26.7243C57.0527 26.5038 56.8734 26.3244 56.653 26.3244Z" fill="#FFDBED"/>
<path d="M61.2124 33.0117C60.2596 33.0117 59.4844 32.2365 59.4844 31.2837C59.4844 30.3309 60.2596 29.5557 61.2124 29.5557C62.1652 29.5557 62.9404 30.3309 62.9404 31.2837C62.9404 32.2365 62.1651 33.0117 61.2124 33.0117ZM61.2124 30.8838C60.9919 30.8838 60.8125 31.0632 60.8125 31.2837C60.8125 31.5042 60.9919 31.6836 61.2124 31.6836C61.4329 31.6836 61.6123 31.5042 61.6123 31.2837C61.6123 31.0632 61.4329 30.8838 61.2124 30.8838Z" fill="#FFDBED"/>
<path d="M57.0468 31.5531C56.877 31.5531 56.7068 31.4883 56.5773 31.3585C56.318 31.0992 56.318 30.6788 56.5773 30.4195L60.3475 26.6494C60.6066 26.39 61.0274 26.39 61.2865 26.6494C61.5459 26.9086 61.5459 27.3291 61.2865 27.5884L57.5163 31.3585C57.3868 31.4883 57.2168 31.5531 57.0468 31.5531Z" fill="#FFDBED"/>
<path d="M61.8603 12.5615C61.3636 12.5615 60.867 12.3725 60.489 11.9943C59.7328 11.2382 59.7328 10.0078 60.489 9.25171C61.2449 8.49561 62.4754 8.49548 63.2317 9.25158C63.988 10.0078 63.988 11.2382 63.2317 11.9943V11.9944C62.8536 12.3724 62.3569 12.5615 61.8603 12.5615ZM62.7623 11.5248H62.7636H62.7623ZM61.8603 10.0121C61.7037 10.0121 61.5473 10.0717 61.428 10.1908C61.1898 10.4292 61.1898 10.817 61.428 11.0554C61.6664 11.2936 62.0544 11.2937 62.2928 11.0553C62.531 10.817 62.531 10.4292 62.2928 10.1908C62.1735 10.0717 62.0168 10.0121 61.8603 10.0121Z" fill="#01ECA5"/>
<path d="M55.5888 59.0567C55.0921 59.0567 54.5955 58.8677 54.2176 58.4894C53.4613 57.7333 53.4613 56.5029 54.2176 55.7468C54.9734 54.9907 56.2039 54.9906 56.9603 55.7467C57.7165 56.5029 57.7165 57.7333 56.9603 58.4894V58.4895C56.5821 58.8675 56.0854 59.0567 55.5888 59.0567ZM56.4908 58.0199H56.4921H56.4908ZM55.5888 56.5072C55.4323 56.5072 55.2758 56.5668 55.1565 56.686C54.9183 56.9243 54.9183 57.3122 55.1565 57.5506C55.3949 57.7887 55.7829 57.7888 56.0213 57.5504C56.2595 57.3122 56.2595 56.9243 56.0213 56.686C55.902 56.5668 55.7454 56.5072 55.5888 56.5072Z" fill="#FF7EB8"/>
<path d="M23.2803 59.4276C22.7835 59.4276 22.287 59.2386 21.909 58.8604C21.1527 58.1043 21.1527 56.8738 21.909 56.1177C22.6648 55.3616 23.8953 55.3614 24.6517 56.1175C25.4079 56.8738 25.4079 58.1043 24.6517 58.8604V58.8605C24.2737 59.2385 23.7768 59.4276 23.2803 59.4276ZM24.1822 58.3909H24.1835H24.1822ZM23.2803 56.878C23.1237 56.878 22.9672 56.9377 22.848 57.0568C22.6097 57.2952 22.6097 57.6831 22.848 57.9215C23.0864 58.1597 23.4743 58.1598 23.7127 57.9214C23.951 57.683 23.951 57.2952 23.7127 57.0568C23.5934 56.9377 23.4368 56.878 23.2803 56.878Z" fill="#01ECA5"/>
<path d="M12.083 7.51636H11.6514V7.08472C11.6514 6.71789 11.3541 6.42065 10.9873 6.42065C10.6205 6.42065 10.3232 6.71789 10.3232 7.08472V7.51636H9.8916C9.52477 7.51636 9.22754 7.81359 9.22754 8.18042C9.22754 8.54725 9.52477 8.84449 9.8916 8.84449H10.3232V9.27613C10.3232 9.64296 10.6205 9.94019 10.9873 9.94019C11.3541 9.94019 11.6514 9.64296 11.6514 9.27613V8.84449H12.083C12.4498 8.84449 12.7471 8.54725 12.7471 8.18042C12.7471 7.81359 12.4497 7.51636 12.083 7.51636Z" fill="#FF7EB8"/>
<path d="M61.9131 53.2495H61.4814V52.8179C61.4814 52.451 61.1842 52.1538 60.8174 52.1538C60.4506 52.1538 60.1533 52.451 60.1533 52.8179V53.2495H59.7217C59.3549 53.2495 59.0576 53.5467 59.0576 53.9136C59.0576 54.2804 59.3549 54.5776 59.7217 54.5776H60.1533V55.0093C60.1533 55.3761 60.4506 55.6733 60.8174 55.6733C61.1842 55.6733 61.4814 55.3761 61.4814 55.0093V54.5776H61.9131C62.2799 54.5776 62.5772 54.2804 62.5772 53.9136C62.5772 53.5467 62.2799 53.2495 61.9131 53.2495Z" fill="#8399FE"/>
</g>
<defs>
<linearGradient id="paint0_linear_28:982" x1="68.2272" y1="13.3627" x2="16.433" y2="54.3998" gradientUnits="userSpaceOnUse">
<stop stop-color="#C7D3FF"/>
<stop offset="0.593" stop-color="#E7D8F5"/>
<stop offset="0.997" stop-color="#FFDBED"/>
</linearGradient>
<clipPath id="clip0_28:982">
<rect width="68" height="68" fill="white"/>
</clipPath>
</defs>
</svg>
