<svg width="40" height="40" viewBox="0 0 40 40" fill="none" xmlns="http://www.w3.org/2000/svg">
<path d="M35.0013 26.6673H5.0013V6.66732H35.0013V26.6673ZM35.0013 3.33398H5.0013C3.1513 3.33398 1.66797 4.81732 1.66797 6.66732V26.6673C1.66797 27.5514 2.01916 28.3992 2.64428 29.0243C3.2694 29.6495 4.11725 30.0007 5.0013 30.0007H16.668V33.334H13.3346V36.6673H26.668V33.334H23.3346V30.0007H35.0013C36.8513 30.0007 38.3346 28.5173 38.3346 26.6673V6.66732C38.3346 5.78326 37.9834 4.93542 37.3583 4.31029C36.7332 3.68517 35.8854 3.33398 35.0013 3.33398Z" fill="#357AB4"/>
<path d="M25.0746 16.9831C25.2175 17.0845 25.3883 17.1392 25.5636 17.1396C25.7388 17.1401 25.9099 17.0863 26.0534 16.9857C26.1821 16.8942 26.2832 16.769 26.3448 16.6237L26.7376 15.4259C26.8337 15.1372 26.9957 14.8749 27.2108 14.6597C27.426 14.4446 27.6883 14.2826 27.977 14.1865L29.131 13.8106C29.2965 13.7522 29.4399 13.6438 29.5414 13.5005C29.6428 13.3572 29.6973 13.1859 29.6973 13.0103C29.6973 12.8348 29.6428 12.6635 29.5414 12.5202C29.4399 12.3769 29.2965 12.2685 29.131 12.2101L27.9551 11.831C27.6673 11.7348 27.4057 11.5731 27.191 11.3587C26.9762 11.1443 26.814 10.883 26.7173 10.5954L26.3426 9.4421C26.2843 9.27647 26.1759 9.13309 26.0324 9.03182C25.8883 8.93224 25.7174 8.87891 25.5422 8.87891C25.3671 8.87891 25.1961 8.93224 25.052 9.03182C24.906 9.13523 24.7962 9.28201 24.7383 9.45132L24.3592 10.6167C24.2629 10.897 24.1044 11.1518 23.8954 11.3619C23.6865 11.5721 23.4326 11.7321 23.1528 11.83L22.0002 12.2044C21.8337 12.263 21.6897 12.3721 21.5881 12.5165C21.4866 12.6608 21.4326 12.8333 21.4336 13.0098C21.4347 13.1863 21.4907 13.358 21.594 13.5012C21.6972 13.6443 21.8426 13.7517 22.0097 13.8083L23.1497 14.1786C23.4385 14.2754 23.7009 14.4381 23.9161 14.6537C24.1313 14.8694 24.2935 15.1321 24.3897 15.4212L24.7647 16.5726C24.8229 16.7381 24.9312 16.8818 25.0749 16.9831H25.0746ZM29.9747 19.8853C30.0793 19.9593 30.2038 19.9991 30.3319 19.9994L30.3335 20.0003C30.4631 20.0002 30.5894 19.9595 30.6945 19.8837C30.7997 19.808 30.8784 19.7012 30.9195 19.5783L31.1004 19.0221C31.1375 18.9112 31.1998 18.8103 31.2825 18.7275C31.3651 18.6447 31.4658 18.5821 31.5767 18.5448L32.1456 18.3599C32.2357 18.3279 32.3171 18.2756 32.3835 18.2069C32.45 18.1382 32.4996 18.0551 32.5285 17.9641C32.5575 17.873 32.5649 17.7765 32.5503 17.682C32.5357 17.5876 32.4994 17.4979 32.4443 17.4198C32.3658 17.3099 32.2537 17.2285 32.1249 17.1878L31.5666 17.007C31.4556 16.9699 31.3547 16.9076 31.272 16.8248C31.1893 16.7421 31.1269 16.6413 31.0899 16.5303L30.9049 15.9617C30.8622 15.8401 30.7826 15.7349 30.6772 15.6608C30.5718 15.5867 30.4458 15.5474 30.3169 15.5485C30.188 15.5495 30.0627 15.5909 29.9585 15.6667C29.8543 15.7425 29.7764 15.849 29.7357 15.9713L29.554 16.5296C29.5179 16.639 29.4574 16.7386 29.377 16.8209C29.2966 16.9033 29.1984 16.9661 29.09 17.0048L28.5211 17.1897C28.3997 17.2325 28.2947 17.3121 28.2208 17.4174C28.1468 17.5228 28.1076 17.6486 28.1086 17.7773C28.1096 17.906 28.1508 18.0311 28.2264 18.1353C28.302 18.2395 28.4083 18.3174 28.5303 18.3583L29.0871 18.5394C29.1983 18.5765 29.2994 18.6392 29.3821 18.7222C29.4649 18.8053 29.5271 18.9066 29.5638 19.018L29.7488 19.5862C29.7913 19.707 29.8702 19.8116 29.9744 19.8853H29.9747Z" fill="#357AB4"/>
</svg>
