<svg width="68" height="62" viewBox="0 0 68 62" fill="none" xmlns="http://www.w3.org/2000/svg">
<path d="M0.650288 40.9986C2.96759 63.9582 39.4869 63.1973 56.5383 59.0963C67.4913 56.4621 68.1723 51.1977 67.9743 39.9712C67.8463 32.7348 68.4313 13.578 63.7237 7.54861C56.4923 -1.71279 50.0137 4.09571 41.0585 7.11901C29.5718 10.9967 25.0959 4.07331 14.1671 4.27941C-1.85551 4.58201 -0.545712 29.1488 0.650288 40.9986Z" fill="url(#paint0_linear_14_154)"/>
<path opacity="0.1" d="M60.492 57.9827H7.50782C6.40762 57.9827 5.51562 57.0908 5.51562 55.9905V14.2519C5.51562 13.1517 6.40762 12.2598 7.50782 12.2598H60.492C61.5922 12.2598 62.4842 13.1517 62.4842 14.2519V55.9904C62.4842 57.0908 61.5924 57.9827 60.492 57.9827Z" fill="#2626BC"/>
<path d="M60.492 54.7952H7.50782C6.40762 54.7952 5.51562 53.9033 5.51562 52.803V11.0644C5.51562 9.96417 6.40762 9.07227 7.50782 9.07227H60.492C61.5922 9.07227 62.4842 9.96417 62.4842 11.0644V52.8029C62.4842 53.9033 61.5924 54.7952 60.492 54.7952Z" fill="white"/>
<path d="M62.4842 18.2779V11.0644C62.4842 9.96417 61.5922 9.07227 60.492 9.07227H7.50782C6.40762 9.07227 5.51562 9.96417 5.51562 11.0644V18.2779H62.4842Z" fill="#FF7EB8"/>
<path d="M60.4924 55.4591H7.50786C6.04316 55.4591 4.85156 54.2676 4.85156 52.8029V11.0644C4.85156 9.5998 6.04316 8.4082 7.50786 8.4082H60.4923C61.9569 8.4082 63.1485 9.5998 63.1485 11.0644V52.8029C63.1486 54.2676 61.957 55.4591 60.4924 55.4591ZM7.50786 9.7363C6.77556 9.7363 6.17976 10.3321 6.17976 11.0644V52.8029C6.17976 53.5352 6.77556 54.131 7.50786 54.131H60.4923C61.2246 54.131 61.8204 53.5352 61.8204 52.8029V11.0644C61.8204 10.3321 61.2246 9.7363 60.4923 9.7363H7.50786Z" fill="#2626BC"/>
<path d="M11.3736 15.421C12.1731 15.421 12.8213 14.7728 12.8213 13.9732C12.8213 13.1736 12.1731 12.5254 11.3736 12.5254C10.574 12.5254 9.92578 13.1736 9.92578 13.9732C9.92578 14.7728 10.574 15.421 11.3736 15.421Z" fill="#FF5BA8"/>
<path d="M15.9946 15.421C16.7942 15.421 17.4424 14.7728 17.4424 13.9732C17.4424 13.1736 16.7942 12.5254 15.9946 12.5254C15.1951 12.5254 14.5469 13.1736 14.5469 13.9732C14.5469 14.7728 15.1951 15.421 15.9946 15.421Z" fill="white"/>
<path d="M20.6157 15.421C21.4153 15.421 22.0635 14.7728 22.0635 13.9732C22.0635 13.1736 21.4153 12.5254 20.6157 12.5254C19.8162 12.5254 19.168 13.1736 19.168 13.9732C19.168 14.7728 19.8162 15.421 20.6157 15.421Z" fill="#02FFB3"/>
<path d="M57.4155 15.5991H39.332V12.3457H57.4156C57.7823 12.3457 58.0797 12.6431 58.0797 13.0098V14.935C58.0796 15.3017 57.7823 15.5991 57.4155 15.5991Z" fill="#FFDBED"/>
<path d="M39.4206 12.3879C38.7185 11.6858 37.5762 11.6858 36.8742 12.3879C36.1721 13.0899 36.1721 14.2322 36.8742 14.9343C37.4103 15.4704 38.2027 15.5957 38.8601 15.3131L39.4376 15.8905C39.6968 16.1498 40.1175 16.1498 40.3767 15.8905C40.636 15.6313 40.636 15.2107 40.3767 14.9514L39.7992 14.3739C40.082 13.7164 39.9568 12.9239 39.4206 12.3879ZM37.8133 13.327C37.9975 13.1428 38.2973 13.1428 38.4815 13.327C38.6657 13.5112 38.6657 13.8109 38.4815 13.9952C38.2973 14.1794 37.9975 14.1794 37.8133 13.9952C37.6291 13.8108 37.6291 13.5112 37.8133 13.327Z" fill="white"/>
<path d="M23.0398 32.2238H9.92191C9.55521 32.2238 9.25781 31.9264 9.25781 31.5597V21.6934C9.25781 21.3267 9.55521 21.0293 9.92191 21.0293H23.0398C23.4065 21.0293 23.7038 21.3267 23.7038 21.6934V31.5597C23.7038 31.9264 23.4065 32.2238 23.0398 32.2238Z" fill="#02FFB3"/>
<path d="M40.5593 32.2238H27.4414C27.0747 32.2238 26.7773 31.9264 26.7773 31.5597V21.6934C26.7773 21.3267 27.0747 21.0293 27.4414 21.0293H40.5593C40.926 21.0293 41.2233 21.3267 41.2233 21.6934V31.5597C41.2233 31.9264 40.926 32.2238 40.5593 32.2238Z" fill="#8399FE"/>
<path d="M58.0788 32.2238H44.9609C44.5942 32.2238 44.2969 31.9264 44.2969 31.5597V21.6934C44.2969 21.3267 44.5942 21.0293 44.9609 21.0293H58.0788C58.4455 21.0293 58.7429 21.3267 58.7429 21.6934V31.5597C58.7429 31.9264 58.4455 32.2238 58.0788 32.2238Z" fill="#02FFB3"/>
<path d="M58.0799 51.4621H9.92191C9.55521 51.4621 9.25781 51.1647 9.25781 50.798V35.3398C9.25781 34.9731 9.55521 34.6758 9.92191 34.6758H58.0798C58.4465 34.6758 58.7439 34.9731 58.7439 35.3398V50.798C58.744 51.1647 58.4466 51.4621 58.0799 51.4621Z" fill="#8399FE"/>
<path d="M21.8932 34.6758H9.92191C9.55521 34.6758 9.25781 34.9731 9.25781 35.3398V50.798C9.25781 51.1647 9.55521 51.4621 9.92191 51.4621H21.8931V34.6758H21.8932Z" fill="#FFA8CF"/>
<path d="M24.9687 37.2305H32.0318C32.3985 37.2305 32.6959 37.5278 32.6959 37.8945C32.6959 38.2612 32.3985 38.5586 32.0318 38.5586H24.9687C24.602 38.5586 24.3047 38.2612 24.3047 37.8945C24.3047 37.5278 24.602 37.2305 24.9687 37.2305Z" fill="white"/>
<path d="M52.7031 37.2305H54.985C55.3517 37.2305 55.649 37.5278 55.649 37.8945C55.649 38.2612 55.3517 38.5586 54.985 38.5586H52.7031C52.3364 38.5586 52.0391 38.2612 52.0391 37.8945C52.0391 37.5278 52.3364 37.2305 52.7031 37.2305Z" fill="white"/>
<path d="M24.9687 39.9512H36.0157C36.3824 39.9512 36.6797 40.2485 36.6797 40.6152C36.6797 40.9819 36.3824 41.2793 36.0157 41.2793H24.9687C24.602 41.2793 24.3047 40.9819 24.3047 40.6152C24.3047 40.2485 24.602 39.9512 24.9687 39.9512Z" fill="white"/>
<path d="M24.9687 42.6719H54.9839C55.3506 42.6719 55.648 42.9692 55.648 43.3359C55.648 43.7026 55.3506 44 54.9839 44H24.9687C24.602 44 24.3047 43.7026 24.3047 43.3359C24.3047 42.9692 24.602 42.6719 24.9687 42.6719Z" fill="white"/>
<path d="M24.9687 45.3926H54.9839C55.3506 45.3926 55.648 45.6899 55.648 46.0566C55.648 46.4233 55.3506 46.7207 54.9839 46.7207H24.9687C24.602 46.7207 24.3047 46.4233 24.3047 46.0566C24.3047 45.6899 24.602 45.3926 24.9687 45.3926Z" fill="white"/>
<path d="M24.9687 49.4434C24.602 49.4434 24.3047 49.146 24.3047 48.7793C24.3047 48.4126 24.602 48.1152 24.9687 48.1152H54.9839C55.3506 48.1152 55.648 48.4126 55.648 48.7793C55.648 49.146 55.3506 49.4434 54.9839 49.4434" fill="white"/>
<path d="M47.9099 5.80011C46.8632 5.80011 46.0117 4.94861 46.0117 3.90191C46.0117 2.85541 46.8632 2.00391 47.9099 2.00391C48.9564 2.00391 49.8079 2.85541 49.8079 3.90191C49.8079 4.94861 48.9564 5.80011 47.9099 5.80011ZM47.9099 3.332C47.5956 3.332 47.3398 3.58771 47.3398 3.90191C47.3398 4.21621 47.5956 4.47201 47.9099 4.47201C48.2241 4.47201 48.4798 4.21621 48.4798 3.90191C48.4798 3.58771 48.2241 3.332 47.9099 3.332Z" fill="#6583FE"/>
<path d="M20.617 6.67315C19.5703 6.67315 18.7188 5.82175 18.7188 4.77515C18.7188 3.72845 19.5703 2.87695 20.617 2.87695C21.6636 2.87695 22.5149 3.72845 22.5149 4.77515C22.5149 5.82175 21.6634 6.67315 20.617 6.67315ZM20.617 4.20515C20.3028 4.20515 20.047 4.46095 20.047 4.77515C20.047 5.08935 20.3028 5.34505 20.617 5.34505C20.9312 5.34505 21.1869 5.08935 21.1869 4.77515C21.1869 4.46095 20.9312 4.20515 20.617 4.20515Z" fill="#6583FE"/>
<path d="M35.6558 61.386C34.6093 61.386 33.7578 60.5346 33.7578 59.4879C33.7578 58.4413 34.6093 57.5898 35.6558 57.5898C36.7025 57.5898 37.554 58.4413 37.554 59.4879C37.554 60.5346 36.7025 61.386 35.6558 61.386ZM35.6558 58.918C35.3416 58.918 35.0859 59.1736 35.0859 59.4879C35.0859 59.8021 35.3416 60.0579 35.6558 60.0579C35.9701 60.0579 36.2258 59.8021 36.2258 59.4879C36.2258 59.1736 35.9701 58.918 35.6558 58.918Z" fill="#01ECA5"/>
<path d="M41.7697 4.25C41.4028 4.25 41.1056 3.9528 41.1056 3.5859C41.1056 3.1465 40.7481 2.7891 40.3086 2.7891C39.9418 2.7891 39.6445 2.4918 39.6445 2.125C39.6445 1.7582 39.9418 1.4609 40.3086 1.4609C40.7481 1.4609 41.1056 1.1035 41.1056 0.664097C41.1056 0.297197 41.4028 0 41.7697 0C42.1365 0 42.4337 0.297197 42.4337 0.664097C42.4337 1.1035 42.7911 1.4609 43.2305 1.4609C43.5973 1.4609 43.8945 1.7582 43.8945 2.125C43.8945 2.4918 43.5973 2.7891 43.2305 2.7891C42.7911 2.7891 42.4337 3.1465 42.4337 3.5859C42.4337 3.9528 42.1365 4.25 41.7697 4.25Z" fill="#FF5BA8"/>
<path d="M28.4336 61.9727C28.0668 61.9727 27.7695 61.6754 27.7695 61.3086C27.7695 60.8691 27.4121 60.5117 26.9726 60.5117C26.6058 60.5117 26.3086 60.2145 26.3086 59.8477C26.3086 59.4808 26.6058 59.1836 26.9726 59.1836C27.4121 59.1836 27.7695 58.8262 27.7695 58.3867C27.7695 58.0199 28.0668 57.7227 28.4336 57.7227C28.8004 57.7227 29.0976 58.0199 29.0976 58.3867C29.0976 58.8262 29.455 59.1836 29.8945 59.1836C30.2613 59.1836 30.5586 59.4808 30.5586 59.8477C30.5586 60.2145 30.2613 60.5117 29.8945 60.5117C29.455 60.5117 29.0976 60.8691 29.0976 61.3086C29.0976 61.6754 28.8004 61.9727 28.4336 61.9727Z" fill="#FF5BA8"/>
<defs>
<linearGradient id="paint0_linear_14_154" x1="3.66299" y1="49.654" x2="67.0083" y2="13.0817" gradientUnits="userSpaceOnUse">
<stop stop-color="#DCFDEE" stop-opacity="0"/>
<stop offset="0.6288" stop-color="#D2F3E4"/>
</linearGradient>
</defs>
</svg>
