<svg xmlns="http://www.w3.org/2000/svg" width="20" height="21" fill="none" xmlns:v="https://vecta.io/nano"><path d="M14.6 12.025l-1.7-.8a.47.47 0 0 0-.6.1c-.2.2-.6.8-.8 1-.1.2-.3.2-.5.1-.7-.3-1.4-.7-2-1.2a11.51 11.51 0 0 1-1.4-1.7c-.1-.2 0-.4.1-.5s.2-.3.4-.4a.76.76 0 0 0 .2-.4c.1-.1.1-.3 0-.4s-.6-1.3-.8-1.8c-.1-.7-.3-.7-.5-.7h-.5c-.2 0-.5.2-.6.3-.6.6-.9 1.3-.9 2.1.1.9.4 1.8 1 2.6 1.1 1.6 2.5 2.9 4.2 3.7.5.2.9.4 1.4.5.5.2 1 .2 1.6.1.7-.1 1.3-.6 1.7-1.2.2-.4.2-.8.1-1.2l-.4-.2zm2.5-9.1a9.96 9.96 0 0 0-14.1 0c-3.2 3.2-3.8 8.1-1.6 12l-1.4 5.1 5.3-1.4c1.5.8 3.1 1.2 4.7 1.2a9.86 9.86 0 0 0 9.9-9.9c.1-2.6-1-5.1-2.8-7zm-2.7 14c-1.3.8-2.8 1.3-4.4 1.3-1.5 0-2.9-.4-4.2-1.1l-.3-.2-3.1.8.8-3-.2-.3c-2.4-4-1.2-9 2.7-11.5s8.9-1.2 11.3 2.6c2.4 3.9 1.3 9-2.6 11.4z" fill="#fff"/></svg>